<?xml version="1.0" encoding="utf-8" standalone="no"?>
<!DOCTYPE svg PUBLIC "-//W3C//DTD SVG 1.1//EN"
  "http://www.w3.org/Graphics/SVG/1.1/DTD/svg11.dtd">
<!-- Created with matplotlib (http://matplotlib.org/) -->
<svg height="360pt" version="1.1" viewBox="0 0 360 360" width="360pt" xmlns="http://www.w3.org/2000/svg" xmlns:xlink="http://www.w3.org/1999/xlink">
 <defs>
  <style type="text/css">
*{stroke-linecap:butt;stroke-linejoin:round;}
  </style>
 </defs>
 <g id="figure_1">
  <g id="patch_1">
   <path d="M 0 360 
L 360 360 
L 360 0 
L 0 0 
z
" style="fill:#ffffff;"/>
  </g>
  <g id="axes_1">
   <g id="patch_2">
    <path d="M 45 320.4 
L 324 320.4 
L 324 43.2 
L 45 43.2 
z
" style="fill:#ffffff;"/>
   </g>
   <g id="matplotlib.axis_1">
    <g id="xtick_1">
     <g id="line2d_1">
      <defs>
       <path d="M 0 0 
L 0 3.5 
" id="m22e9b86784" style="stroke:#000000;stroke-width:0.8;"/>
      </defs>
      <g>
       <use style="stroke:#000000;stroke-width:0.8;" x="45" xlink:href="#m22e9b86784" y="320.4"/>
      </g>
     </g>
     <g id="text_1">
      <!-- −5 -->
      <defs>
       <path d="M 10.59375 35.5 
L 73.1875 35.5 
L 73.1875 27.203125 
L 10.59375 27.203125 
z
" id="DejaVuSans-2212"/>
       <path d="M 10.796875 72.90625 
L 49.515625 72.90625 
L 49.515625 64.59375 
L 19.828125 64.59375 
L 19.828125 46.734375 
Q 21.96875 47.46875 24.109375 47.828125 
Q 26.265625 48.1875 28.421875 48.1875 
Q 40.625 48.1875 47.75 41.5 
Q 54.890625 34.8125 54.890625 23.390625 
Q 54.890625 11.625 47.5625 5.09375 
Q 40.234375 -1.421875 26.90625 -1.421875 
Q 22.3125 -1.421875 17.546875 -0.640625 
Q 12.796875 0.140625 7.71875 1.703125 
L 7.71875 11.625 
Q 12.109375 9.234375 16.796875 8.0625 
Q 21.484375 6.890625 26.703125 6.890625 
Q 35.15625 6.890625 40.078125 11.328125 
Q 45.015625 15.765625 45.015625 23.390625 
Q 45.015625 31 40.078125 35.4375 
Q 35.15625 39.890625 26.703125 39.890625 
Q 22.75 39.890625 18.8125 39.015625 
Q 14.890625 38.140625 10.796875 36.28125 
z
" id="DejaVuSans-35"/>
      </defs>
      <g transform="translate(37.628906 334.998438)scale(0.1 -0.1)">
       <use xlink:href="#DejaVuSans-2212"/>
       <use x="83.789062" xlink:href="#DejaVuSans-35"/>
      </g>
     </g>
    </g>
    <g id="xtick_2">
     <g id="line2d_2">
      <g>
       <use style="stroke:#000000;stroke-width:0.8;" x="72.9" xlink:href="#m22e9b86784" y="320.4"/>
      </g>
     </g>
     <g id="text_2">
      <!-- −4 -->
      <defs>
       <path d="M 37.796875 64.3125 
L 12.890625 25.390625 
L 37.796875 25.390625 
z
M 35.203125 72.90625 
L 47.609375 72.90625 
L 47.609375 25.390625 
L 58.015625 25.390625 
L 58.015625 17.1875 
L 47.609375 17.1875 
L 47.609375 0 
L 37.796875 0 
L 37.796875 17.1875 
L 4.890625 17.1875 
L 4.890625 26.703125 
z
" id="DejaVuSans-34"/>
      </defs>
      <g transform="translate(65.528906 334.998438)scale(0.1 -0.1)">
       <use xlink:href="#DejaVuSans-2212"/>
       <use x="83.789062" xlink:href="#DejaVuSans-34"/>
      </g>
     </g>
    </g>
    <g id="xtick_3">
     <g id="line2d_3">
      <g>
       <use style="stroke:#000000;stroke-width:0.8;" x="100.8" xlink:href="#m22e9b86784" y="320.4"/>
      </g>
     </g>
     <g id="text_3">
      <!-- −3 -->
      <defs>
       <path d="M 40.578125 39.3125 
Q 47.65625 37.796875 51.625 33 
Q 55.609375 28.21875 55.609375 21.1875 
Q 55.609375 10.40625 48.1875 4.484375 
Q 40.765625 -1.421875 27.09375 -1.421875 
Q 22.515625 -1.421875 17.65625 -0.515625 
Q 12.796875 0.390625 7.625 2.203125 
L 7.625 11.71875 
Q 11.71875 9.328125 16.59375 8.109375 
Q 21.484375 6.890625 26.8125 6.890625 
Q 36.078125 6.890625 40.9375 10.546875 
Q 45.796875 14.203125 45.796875 21.1875 
Q 45.796875 27.640625 41.28125 31.265625 
Q 36.765625 34.90625 28.71875 34.90625 
L 20.21875 34.90625 
L 20.21875 43.015625 
L 29.109375 43.015625 
Q 36.375 43.015625 40.234375 45.921875 
Q 44.09375 48.828125 44.09375 54.296875 
Q 44.09375 59.90625 40.109375 62.90625 
Q 36.140625 65.921875 28.71875 65.921875 
Q 24.65625 65.921875 20.015625 65.03125 
Q 15.375 64.15625 9.8125 62.3125 
L 9.8125 71.09375 
Q 15.4375 72.65625 20.34375 73.4375 
Q 25.25 74.21875 29.59375 74.21875 
Q 40.828125 74.21875 47.359375 69.109375 
Q 53.90625 64.015625 53.90625 55.328125 
Q 53.90625 49.265625 50.4375 45.09375 
Q 46.96875 40.921875 40.578125 39.3125 
z
" id="DejaVuSans-33"/>
      </defs>
      <g transform="translate(93.428906 334.998438)scale(0.1 -0.1)">
       <use xlink:href="#DejaVuSans-2212"/>
       <use x="83.789062" xlink:href="#DejaVuSans-33"/>
      </g>
     </g>
    </g>
    <g id="xtick_4">
     <g id="line2d_4">
      <g>
       <use style="stroke:#000000;stroke-width:0.8;" x="128.7" xlink:href="#m22e9b86784" y="320.4"/>
      </g>
     </g>
     <g id="text_4">
      <!-- −2 -->
      <defs>
       <path d="M 19.1875 8.296875 
L 53.609375 8.296875 
L 53.609375 0 
L 7.328125 0 
L 7.328125 8.296875 
Q 12.9375 14.109375 22.625 23.890625 
Q 32.328125 33.6875 34.8125 36.53125 
Q 39.546875 41.84375 41.421875 45.53125 
Q 43.3125 49.21875 43.3125 52.78125 
Q 43.3125 58.59375 39.234375 62.25 
Q 35.15625 65.921875 28.609375 65.921875 
Q 23.96875 65.921875 18.8125 64.3125 
Q 13.671875 62.703125 7.8125 59.421875 
L 7.8125 69.390625 
Q 13.765625 71.78125 18.9375 73 
Q 24.125 74.21875 28.421875 74.21875 
Q 39.75 74.21875 46.484375 68.546875 
Q 53.21875 62.890625 53.21875 53.421875 
Q 53.21875 48.921875 51.53125 44.890625 
Q 49.859375 40.875 45.40625 35.40625 
Q 44.1875 33.984375 37.640625 27.21875 
Q 31.109375 20.453125 19.1875 8.296875 
z
" id="DejaVuSans-32"/>
      </defs>
      <g transform="translate(121.328906 334.998438)scale(0.1 -0.1)">
       <use xlink:href="#DejaVuSans-2212"/>
       <use x="83.789062" xlink:href="#DejaVuSans-32"/>
      </g>
     </g>
    </g>
    <g id="xtick_5">
     <g id="line2d_5">
      <g>
       <use style="stroke:#000000;stroke-width:0.8;" x="156.6" xlink:href="#m22e9b86784" y="320.4"/>
      </g>
     </g>
     <g id="text_5">
      <!-- −1 -->
      <defs>
       <path d="M 12.40625 8.296875 
L 28.515625 8.296875 
L 28.515625 63.921875 
L 10.984375 60.40625 
L 10.984375 69.390625 
L 28.421875 72.90625 
L 38.28125 72.90625 
L 38.28125 8.296875 
L 54.390625 8.296875 
L 54.390625 0 
L 12.40625 0 
z
" id="DejaVuSans-31"/>
      </defs>
      <g transform="translate(149.228906 334.998438)scale(0.1 -0.1)">
       <use xlink:href="#DejaVuSans-2212"/>
       <use x="83.789062" xlink:href="#DejaVuSans-31"/>
      </g>
     </g>
    </g>
    <g id="xtick_6">
     <g id="line2d_6">
      <g>
       <use style="stroke:#000000;stroke-width:0.8;" x="184.5" xlink:href="#m22e9b86784" y="320.4"/>
      </g>
     </g>
     <g id="text_6">
      <!-- 0 -->
      <defs>
       <path d="M 31.78125 66.40625 
Q 24.171875 66.40625 20.328125 58.90625 
Q 16.5 51.421875 16.5 36.375 
Q 16.5 21.390625 20.328125 13.890625 
Q 24.171875 6.390625 31.78125 6.390625 
Q 39.453125 6.390625 43.28125 13.890625 
Q 47.125 21.390625 47.125 36.375 
Q 47.125 51.421875 43.28125 58.90625 
Q 39.453125 66.40625 31.78125 66.40625 
z
M 31.78125 74.21875 
Q 44.046875 74.21875 50.515625 64.515625 
Q 56.984375 54.828125 56.984375 36.375 
Q 56.984375 17.96875 50.515625 8.265625 
Q 44.046875 -1.421875 31.78125 -1.421875 
Q 19.53125 -1.421875 13.0625 8.265625 
Q 6.59375 17.96875 6.59375 36.375 
Q 6.59375 54.828125 13.0625 64.515625 
Q 19.53125 74.21875 31.78125 74.21875 
z
" id="DejaVuSans-30"/>
      </defs>
      <g transform="translate(181.31875 334.998438)scale(0.1 -0.1)">
       <use xlink:href="#DejaVuSans-30"/>
      </g>
     </g>
    </g>
    <g id="xtick_7">
     <g id="line2d_7">
      <g>
       <use style="stroke:#000000;stroke-width:0.8;" x="212.4" xlink:href="#m22e9b86784" y="320.4"/>
      </g>
     </g>
     <g id="text_7">
      <!-- 1 -->
      <g transform="translate(209.21875 334.998438)scale(0.1 -0.1)">
       <use xlink:href="#DejaVuSans-31"/>
      </g>
     </g>
    </g>
    <g id="xtick_8">
     <g id="line2d_8">
      <g>
       <use style="stroke:#000000;stroke-width:0.8;" x="240.3" xlink:href="#m22e9b86784" y="320.4"/>
      </g>
     </g>
     <g id="text_8">
      <!-- 2 -->
      <g transform="translate(237.11875 334.998438)scale(0.1 -0.1)">
       <use xlink:href="#DejaVuSans-32"/>
      </g>
     </g>
    </g>
    <g id="xtick_9">
     <g id="line2d_9">
      <g>
       <use style="stroke:#000000;stroke-width:0.8;" x="268.2" xlink:href="#m22e9b86784" y="320.4"/>
      </g>
     </g>
     <g id="text_9">
      <!-- 3 -->
      <g transform="translate(265.01875 334.998438)scale(0.1 -0.1)">
       <use xlink:href="#DejaVuSans-33"/>
      </g>
     </g>
    </g>
    <g id="xtick_10">
     <g id="line2d_10">
      <g>
       <use style="stroke:#000000;stroke-width:0.8;" x="296.1" xlink:href="#m22e9b86784" y="320.4"/>
      </g>
     </g>
     <g id="text_10">
      <!-- 4 -->
      <g transform="translate(292.91875 334.998438)scale(0.1 -0.1)">
       <use xlink:href="#DejaVuSans-34"/>
      </g>
     </g>
    </g>
    <g id="xtick_11">
     <g id="line2d_11">
      <g>
       <use style="stroke:#000000;stroke-width:0.8;" x="324" xlink:href="#m22e9b86784" y="320.4"/>
      </g>
     </g>
     <g id="text_11">
      <!-- 5 -->
      <g transform="translate(320.81875 334.998438)scale(0.1 -0.1)">
       <use xlink:href="#DejaVuSans-35"/>
      </g>
     </g>
    </g>
   </g>
   <g id="matplotlib.axis_2">
    <g id="ytick_1">
     <g id="line2d_12">
      <defs>
       <path d="M 0 0 
L -3.5 0 
" id="m1a43ba430c" style="stroke:#000000;stroke-width:0.8;"/>
      </defs>
      <g>
       <use style="stroke:#000000;stroke-width:0.8;" x="45" xlink:href="#m1a43ba430c" y="320.4"/>
      </g>
     </g>
     <g id="text_12">
      <!-- −5 -->
      <g transform="translate(23.257812 324.199219)scale(0.1 -0.1)">
       <use xlink:href="#DejaVuSans-2212"/>
       <use x="83.789062" xlink:href="#DejaVuSans-35"/>
      </g>
     </g>
    </g>
    <g id="ytick_2">
     <g id="line2d_13">
      <g>
       <use style="stroke:#000000;stroke-width:0.8;" x="45" xlink:href="#m1a43ba430c" y="292.68"/>
      </g>
     </g>
     <g id="text_13">
      <!-- −4 -->
      <g transform="translate(23.257812 296.479219)scale(0.1 -0.1)">
       <use xlink:href="#DejaVuSans-2212"/>
       <use x="83.789062" xlink:href="#DejaVuSans-34"/>
      </g>
     </g>
    </g>
    <g id="ytick_3">
     <g id="line2d_14">
      <g>
       <use style="stroke:#000000;stroke-width:0.8;" x="45" xlink:href="#m1a43ba430c" y="264.96"/>
      </g>
     </g>
     <g id="text_14">
      <!-- −3 -->
      <g transform="translate(23.257812 268.759219)scale(0.1 -0.1)">
       <use xlink:href="#DejaVuSans-2212"/>
       <use x="83.789062" xlink:href="#DejaVuSans-33"/>
      </g>
     </g>
    </g>
    <g id="ytick_4">
     <g id="line2d_15">
      <g>
       <use style="stroke:#000000;stroke-width:0.8;" x="45" xlink:href="#m1a43ba430c" y="237.24"/>
      </g>
     </g>
     <g id="text_15">
      <!-- −2 -->
      <g transform="translate(23.257812 241.039219)scale(0.1 -0.1)">
       <use xlink:href="#DejaVuSans-2212"/>
       <use x="83.789062" xlink:href="#DejaVuSans-32"/>
      </g>
     </g>
    </g>
    <g id="ytick_5">
     <g id="line2d_16">
      <g>
       <use style="stroke:#000000;stroke-width:0.8;" x="45" xlink:href="#m1a43ba430c" y="209.52"/>
      </g>
     </g>
     <g id="text_16">
      <!-- −1 -->
      <g transform="translate(23.257812 213.319219)scale(0.1 -0.1)">
       <use xlink:href="#DejaVuSans-2212"/>
       <use x="83.789062" xlink:href="#DejaVuSans-31"/>
      </g>
     </g>
    </g>
    <g id="ytick_6">
     <g id="line2d_17">
      <g>
       <use style="stroke:#000000;stroke-width:0.8;" x="45" xlink:href="#m1a43ba430c" y="181.8"/>
      </g>
     </g>
     <g id="text_17">
      <!-- 0 -->
      <g transform="translate(31.6375 185.599219)scale(0.1 -0.1)">
       <use xlink:href="#DejaVuSans-30"/>
      </g>
     </g>
    </g>
    <g id="ytick_7">
     <g id="line2d_18">
      <g>
       <use style="stroke:#000000;stroke-width:0.8;" x="45" xlink:href="#m1a43ba430c" y="154.08"/>
      </g>
     </g>
     <g id="text_18">
      <!-- 1 -->
      <g transform="translate(31.6375 157.879219)scale(0.1 -0.1)">
       <use xlink:href="#DejaVuSans-31"/>
      </g>
     </g>
    </g>
    <g id="ytick_8">
     <g id="line2d_19">
      <g>
       <use style="stroke:#000000;stroke-width:0.8;" x="45" xlink:href="#m1a43ba430c" y="126.36"/>
      </g>
     </g>
     <g id="text_19">
      <!-- 2 -->
      <g transform="translate(31.6375 130.159219)scale(0.1 -0.1)">
       <use xlink:href="#DejaVuSans-32"/>
      </g>
     </g>
    </g>
    <g id="ytick_9">
     <g id="line2d_20">
      <g>
       <use style="stroke:#000000;stroke-width:0.8;" x="45" xlink:href="#m1a43ba430c" y="98.64"/>
      </g>
     </g>
     <g id="text_20">
      <!-- 3 -->
      <g transform="translate(31.6375 102.439219)scale(0.1 -0.1)">
       <use xlink:href="#DejaVuSans-33"/>
      </g>
     </g>
    </g>
    <g id="ytick_10">
     <g id="line2d_21">
      <g>
       <use style="stroke:#000000;stroke-width:0.8;" x="45" xlink:href="#m1a43ba430c" y="70.92"/>
      </g>
     </g>
     <g id="text_21">
      <!-- 4 -->
      <g transform="translate(31.6375 74.719219)scale(0.1 -0.1)">
       <use xlink:href="#DejaVuSans-34"/>
      </g>
     </g>
    </g>
    <g id="ytick_11">
     <g id="line2d_22">
      <g>
       <use style="stroke:#000000;stroke-width:0.8;" x="45" xlink:href="#m1a43ba430c" y="43.2"/>
      </g>
     </g>
     <g id="text_22">
      <!-- 5 -->
      <g transform="translate(31.6375 46.999219)scale(0.1 -0.1)">
       <use xlink:href="#DejaVuSans-35"/>
      </g>
     </g>
    </g>
   </g>
   <g id="patch_3">
    <path clip-path="url(#p6cd0804cad)" d="M 187.29 180.414 
L 201.24 179.028 
L 206.82 173.484 
L 204.03 165.168 
L 195.66 173.484 
L 187.29 180.414 
" style="fill:#00ffff;opacity:0.3;stroke:#000000;stroke-linejoin:miter;"/>
   </g>
   <g id="patch_4">
    <path clip-path="url(#p6cd0804cad)" d="M 187.29 183.186 
L 201.24 184.572 
L 206.82 190.116 
L 204.03 198.432 
L 195.66 190.116 
L 187.29 183.186 
" style="fill:#00ffff;opacity:0.3;stroke:#000000;stroke-linejoin:miter;"/>
   </g>
   <g id="patch_5">
    <path clip-path="url(#p6cd0804cad)" d="M 215.19 148.405701 
L 229.14 147.019701 
L 234.72 141.475701 
L 231.93 133.159701 
L 223.56 141.475701 
L 215.19 148.405701 
" style="fill:#00ffff;opacity:0.3;stroke:#000000;stroke-linejoin:miter;"/>
   </g>
   <g id="patch_6">
    <path clip-path="url(#p6cd0804cad)" d="M 215.19 215.194299 
L 229.14 216.580299 
L 234.72 222.124299 
L 231.93 230.440299 
L 223.56 222.124299 
L 215.19 215.194299 
" style="fill:#00ffff;opacity:0.3;stroke:#000000;stroke-linejoin:miter;"/>
   </g>
   <g id="patch_7">
    <path clip-path="url(#p6cd0804cad)" d="M 243.09 116.397402 
L 257.04 115.011402 
L 262.62 109.467402 
L 259.83 101.151402 
L 251.46 109.467402 
L 243.09 116.397402 
" style="fill:#00ffff;opacity:0.3;stroke:#000000;stroke-linejoin:miter;"/>
   </g>
   <g id="patch_8">
    <path clip-path="url(#p6cd0804cad)" d="M 243.09 247.202598 
L 257.04 248.588598 
L 262.62 254.132598 
L 259.83 262.448598 
L 251.46 254.132598 
L 243.09 247.202598 
" style="fill:#00ffff;opacity:0.3;stroke:#000000;stroke-linejoin:miter;"/>
   </g>
   <g id="patch_9">
    <path clip-path="url(#p6cd0804cad)" d="M 270.99 84.389103 
L 284.94 83.003103 
L 290.52 77.459103 
L 287.73 69.143103 
L 279.36 77.459103 
L 270.99 84.389103 
" style="fill:#00ffff;opacity:0.3;stroke:#000000;stroke-linejoin:miter;"/>
   </g>
   <g id="patch_10">
    <path clip-path="url(#p6cd0804cad)" d="M 270.99 279.210897 
L 284.94 280.596897 
L 290.52 286.140897 
L 287.73 294.456897 
L 279.36 286.140897 
L 270.99 279.210897 
" style="fill:#00ffff;opacity:0.3;stroke:#000000;stroke-linejoin:miter;"/>
   </g>
   <g id="patch_11">
    <path clip-path="url(#p6cd0804cad)" d="M 298.89 52.380804 
L 312.84 50.994804 
L 318.42 45.450804 
L 315.63 37.134804 
L 307.26 45.450804 
L 298.89 52.380804 
" style="fill:#00ffff;opacity:0.3;stroke:#000000;stroke-linejoin:miter;"/>
   </g>
   <g id="patch_12">
    <path clip-path="url(#p6cd0804cad)" d="M 298.89 311.219196 
L 312.84 312.605196 
L 318.42 318.149196 
L 315.63 326.465196 
L 307.26 318.149196 
L 298.89 311.219196 
" style="fill:#00ffff;opacity:0.3;stroke:#000000;stroke-linejoin:miter;"/>
   </g>
   <g id="patch_13">
    <path clip-path="url(#p6cd0804cad)" d="M 326.79 20.372505 
L 340.74 18.986505 
L 346.32 13.442505 
L 343.53 5.126505 
L 335.16 13.442505 
L 326.79 20.372505 
" style="fill:#00ffff;opacity:0.3;stroke:#000000;stroke-linejoin:miter;"/>
   </g>
   <g id="patch_14">
    <path clip-path="url(#p6cd0804cad)" d="M 326.79 343.227495 
L 340.74 344.613495 
L 346.32 350.157495 
L 343.53 358.473495 
L 335.16 350.157495 
L 326.79 343.227495 
" style="fill:#00ffff;opacity:0.3;stroke:#000000;stroke-linejoin:miter;"/>
   </g>
   <g id="patch_15">
    <path clip-path="url(#p6cd0804cad)" d="M 354.69 -11.635794 
L 368.64 -13.021794 
L 374.22 -18.565794 
L 371.43 -26.881794 
L 363.06 -18.565794 
L 354.69 -11.635794 
" style="fill:#00ffff;opacity:0.3;stroke:#000000;stroke-linejoin:miter;"/>
   </g>
   <g id="patch_16">
    <path clip-path="url(#p6cd0804cad)" d="M 298.89 -11.635794 
L 312.84 -13.021794 
L 318.42 -18.565794 
L 315.63 -26.881794 
L 307.26 -18.565794 
L 298.89 -11.635794 
" style="fill:#00ffff;opacity:0.3;stroke:#000000;stroke-linejoin:miter;"/>
   </g>
   <g id="patch_17">
    <path clip-path="url(#p6cd0804cad)" d="M 354.69 311.219196 
L 368.64 312.605196 
L 374.22 318.149196 
L 371.43 326.465196 
L 363.06 318.149196 
L 354.69 311.219196 
" style="fill:#00ffff;opacity:0.3;stroke:#000000;stroke-linejoin:miter;"/>
   </g>
   <g id="patch_18">
    <path clip-path="url(#p6cd0804cad)" d="M 354.69 52.380804 
L 368.64 50.994804 
L 374.22 45.450804 
L 371.43 37.134804 
L 363.06 45.450804 
L 354.69 52.380804 
" style="fill:#00ffff;opacity:0.3;stroke:#000000;stroke-linejoin:miter;"/>
   </g>
   <g id="patch_19">
    <path clip-path="url(#p6cd0804cad)" d="M 382.59 279.210897 
L 396.54 280.596897 
L 402.12 286.140897 
L 399.33 294.456897 
L 390.96 286.140897 
L 382.59 279.210897 
" style="fill:#00ffff;opacity:0.3;stroke:#000000;stroke-linejoin:miter;"/>
   </g>
   <g id="patch_20">
    <path clip-path="url(#p6cd0804cad)" d="M 326.79 279.210897 
L 340.74 280.596897 
L 346.32 286.140897 
L 343.53 294.456897 
L 335.16 286.140897 
L 326.79 279.210897 
" style="fill:#00ffff;opacity:0.3;stroke:#000000;stroke-linejoin:miter;"/>
   </g>
   <g id="patch_21">
    <path clip-path="url(#p6cd0804cad)" d="M 326.79 84.389103 
L 340.74 83.003103 
L 346.32 77.459103 
L 343.53 69.143103 
L 335.16 77.459103 
L 326.79 84.389103 
" style="fill:#00ffff;opacity:0.3;stroke:#000000;stroke-linejoin:miter;"/>
   </g>
   <g id="patch_22">
    <path clip-path="url(#p6cd0804cad)" d="M 354.69 247.202598 
L 368.64 248.588598 
L 374.22 254.132598 
L 371.43 262.448598 
L 363.06 254.132598 
L 354.69 247.202598 
" style="fill:#00ffff;opacity:0.3;stroke:#000000;stroke-linejoin:miter;"/>
   </g>
   <g id="patch_23">
    <path clip-path="url(#p6cd0804cad)" d="M 354.69 116.397402 
L 368.64 115.011402 
L 374.22 109.467402 
L 371.43 101.151402 
L 363.06 109.467402 
L 354.69 116.397402 
" style="fill:#00ffff;opacity:0.3;stroke:#000000;stroke-linejoin:miter;"/>
   </g>
   <g id="patch_24">
    <path clip-path="url(#p6cd0804cad)" d="M 382.59 215.194299 
L 396.54 216.580299 
L 402.12 222.124299 
L 399.33 230.440299 
L 390.96 222.124299 
L 382.59 215.194299 
" style="fill:#00ffff;opacity:0.3;stroke:#000000;stroke-linejoin:miter;"/>
   </g>
   <g id="patch_25">
    <path clip-path="url(#p6cd0804cad)" d="M 326.79 215.194299 
L 340.74 216.580299 
L 346.32 222.124299 
L 343.53 230.440299 
L 335.16 222.124299 
L 326.79 215.194299 
" style="fill:#00ffff;opacity:0.3;stroke:#000000;stroke-linejoin:miter;"/>
   </g>
   <g id="patch_26">
    <path clip-path="url(#p6cd0804cad)" d="M 326.79 148.405701 
L 340.74 147.019701 
L 346.32 141.475701 
L 343.53 133.159701 
L 335.16 141.475701 
L 326.79 148.405701 
" style="fill:#00ffff;opacity:0.3;stroke:#000000;stroke-linejoin:miter;"/>
   </g>
   <g id="patch_27">
    <path clip-path="url(#p6cd0804cad)" d="M 354.69 183.186 
L 368.64 184.572 
L 374.22 190.116 
L 371.43 198.432 
L 363.06 190.116 
L 354.69 183.186 
" style="fill:#00ffff;opacity:0.3;stroke:#000000;stroke-linejoin:miter;"/>
   </g>
   <g id="patch_28">
    <path clip-path="url(#p6cd0804cad)" d="M 354.69 180.414 
L 368.64 179.028 
L 374.22 173.484 
L 371.43 165.168 
L 363.06 173.484 
L 354.69 180.414 
" style="fill:#00ffff;opacity:0.3;stroke:#000000;stroke-linejoin:miter;"/>
   </g>
   <g id="patch_29">
    <path clip-path="url(#p6cd0804cad)" d="M 382.59 151.177701 
L 396.54 152.563701 
L 402.12 158.107701 
L 399.33 166.423701 
L 390.96 158.107701 
L 382.59 151.177701 
" style="fill:#00ffff;opacity:0.3;stroke:#000000;stroke-linejoin:miter;"/>
   </g>
   <g id="patch_30">
    <path clip-path="url(#p6cd0804cad)" d="M 326.79 151.177701 
L 340.74 152.563701 
L 346.32 158.107701 
L 343.53 166.423701 
L 335.16 158.107701 
L 326.79 151.177701 
" style="fill:#00ffff;opacity:0.3;stroke:#000000;stroke-linejoin:miter;"/>
   </g>
   <g id="patch_31">
    <path clip-path="url(#p6cd0804cad)" d="M 326.79 212.422299 
L 340.74 211.036299 
L 346.32 205.492299 
L 343.53 197.176299 
L 335.16 205.492299 
L 326.79 212.422299 
" style="fill:#00ffff;opacity:0.3;stroke:#000000;stroke-linejoin:miter;"/>
   </g>
   <g id="patch_32">
    <path clip-path="url(#p6cd0804cad)" d="M 354.69 119.169402 
L 368.64 120.555402 
L 374.22 126.099402 
L 371.43 134.415402 
L 363.06 126.099402 
L 354.69 119.169402 
" style="fill:#00ffff;opacity:0.3;stroke:#000000;stroke-linejoin:miter;"/>
   </g>
   <g id="patch_33">
    <path clip-path="url(#p6cd0804cad)" d="M 354.69 244.430598 
L 368.64 243.044598 
L 374.22 237.500598 
L 371.43 229.184598 
L 363.06 237.500598 
L 354.69 244.430598 
" style="fill:#00ffff;opacity:0.3;stroke:#000000;stroke-linejoin:miter;"/>
   </g>
   <g id="patch_34">
    <path clip-path="url(#p6cd0804cad)" d="M 382.59 87.161103 
L 396.54 88.547103 
L 402.12 94.091103 
L 399.33 102.407103 
L 390.96 94.091103 
L 382.59 87.161103 
" style="fill:#00ffff;opacity:0.3;stroke:#000000;stroke-linejoin:miter;"/>
   </g>
   <g id="patch_35">
    <path clip-path="url(#p6cd0804cad)" d="M 326.79 87.161103 
L 340.74 88.547103 
L 346.32 94.091103 
L 343.53 102.407103 
L 335.16 94.091103 
L 326.79 87.161103 
" style="fill:#00ffff;opacity:0.3;stroke:#000000;stroke-linejoin:miter;"/>
   </g>
   <g id="patch_36">
    <path clip-path="url(#p6cd0804cad)" d="M 326.79 276.438897 
L 340.74 275.052897 
L 346.32 269.508897 
L 343.53 261.192897 
L 335.16 269.508897 
L 326.79 276.438897 
" style="fill:#00ffff;opacity:0.3;stroke:#000000;stroke-linejoin:miter;"/>
   </g>
   <g id="patch_37">
    <path clip-path="url(#p6cd0804cad)" d="M 354.69 55.152804 
L 368.64 56.538804 
L 374.22 62.082804 
L 371.43 70.398804 
L 363.06 62.082804 
L 354.69 55.152804 
" style="fill:#00ffff;opacity:0.3;stroke:#000000;stroke-linejoin:miter;"/>
   </g>
   <g id="patch_38">
    <path clip-path="url(#p6cd0804cad)" d="M 354.69 308.447196 
L 368.64 307.061196 
L 374.22 301.517196 
L 371.43 293.201196 
L 363.06 301.517196 
L 354.69 308.447196 
" style="fill:#00ffff;opacity:0.3;stroke:#000000;stroke-linejoin:miter;"/>
   </g>
   <g id="patch_39">
    <path clip-path="url(#p6cd0804cad)" d="M 382.59 23.144505 
L 396.54 24.530505 
L 402.12 30.074505 
L 399.33 38.390505 
L 390.96 30.074505 
L 382.59 23.144505 
" style="fill:#00ffff;opacity:0.3;stroke:#000000;stroke-linejoin:miter;"/>
   </g>
   <g id="patch_40">
    <path clip-path="url(#p6cd0804cad)" d="M 326.79 23.144505 
L 340.74 24.530505 
L 346.32 30.074505 
L 343.53 38.390505 
L 335.16 30.074505 
L 326.79 23.144505 
" style="fill:#00ffff;opacity:0.3;stroke:#000000;stroke-linejoin:miter;"/>
   </g>
   <g id="patch_41">
    <path clip-path="url(#p6cd0804cad)" d="M 326.79 340.455495 
L 340.74 339.069495 
L 346.32 333.525495 
L 343.53 325.209495 
L 335.16 333.525495 
L 326.79 340.455495 
" style="fill:#00ffff;opacity:0.3;stroke:#000000;stroke-linejoin:miter;"/>
   </g>
   <g id="patch_42">
    <path clip-path="url(#p6cd0804cad)" d="M 354.69 -8.863794 
L 368.64 -7.477794 
L 374.22 -1.933794 
L 371.43 6.382206 
L 363.06 -1.933794 
L 354.69 -8.863794 
" style="fill:#00ffff;opacity:0.3;stroke:#000000;stroke-linejoin:miter;"/>
   </g>
   <g id="patch_43">
    <path clip-path="url(#p6cd0804cad)" d="M 298.89 -8.863794 
L 312.84 -7.477794 
L 318.42 -1.933794 
L 315.63 6.382206 
L 307.26 -1.933794 
L 298.89 -8.863794 
" style="fill:#00ffff;opacity:0.3;stroke:#000000;stroke-linejoin:miter;"/>
   </g>
   <g id="patch_44">
    <path clip-path="url(#p6cd0804cad)" d="M 298.89 308.447196 
L 312.84 307.061196 
L 318.42 301.517196 
L 315.63 293.201196 
L 307.26 301.517196 
L 298.89 308.447196 
" style="fill:#00ffff;opacity:0.3;stroke:#000000;stroke-linejoin:miter;"/>
   </g>
   <g id="patch_45">
    <path clip-path="url(#p6cd0804cad)" d="M 298.89 55.152804 
L 312.84 56.538804 
L 318.42 62.082804 
L 315.63 70.398804 
L 307.26 62.082804 
L 298.89 55.152804 
" style="fill:#00ffff;opacity:0.3;stroke:#000000;stroke-linejoin:miter;"/>
   </g>
   <g id="patch_46">
    <path clip-path="url(#p6cd0804cad)" d="M 270.99 276.438897 
L 284.94 275.052897 
L 290.52 269.508897 
L 287.73 261.192897 
L 279.36 269.508897 
L 270.99 276.438897 
" style="fill:#00ffff;opacity:0.3;stroke:#000000;stroke-linejoin:miter;"/>
   </g>
   <g id="patch_47">
    <path clip-path="url(#p6cd0804cad)" d="M 270.99 87.161103 
L 284.94 88.547103 
L 290.52 94.091103 
L 287.73 102.407103 
L 279.36 94.091103 
L 270.99 87.161103 
" style="fill:#00ffff;opacity:0.3;stroke:#000000;stroke-linejoin:miter;"/>
   </g>
   <g id="patch_48">
    <path clip-path="url(#p6cd0804cad)" d="M 298.89 244.430598 
L 312.84 243.044598 
L 318.42 237.500598 
L 315.63 229.184598 
L 307.26 237.500598 
L 298.89 244.430598 
" style="fill:#00ffff;opacity:0.3;stroke:#000000;stroke-linejoin:miter;"/>
   </g>
   <g id="patch_49">
    <path clip-path="url(#p6cd0804cad)" d="M 298.89 119.169402 
L 312.84 120.555402 
L 318.42 126.099402 
L 315.63 134.415402 
L 307.26 126.099402 
L 298.89 119.169402 
" style="fill:#00ffff;opacity:0.3;stroke:#000000;stroke-linejoin:miter;"/>
   </g>
   <g id="patch_50">
    <path clip-path="url(#p6cd0804cad)" d="M 270.99 212.422299 
L 284.94 211.036299 
L 290.52 205.492299 
L 287.73 197.176299 
L 279.36 205.492299 
L 270.99 212.422299 
" style="fill:#00ffff;opacity:0.3;stroke:#000000;stroke-linejoin:miter;"/>
   </g>
   <g id="patch_51">
    <path clip-path="url(#p6cd0804cad)" d="M 270.99 151.177701 
L 284.94 152.563701 
L 290.52 158.107701 
L 287.73 166.423701 
L 279.36 158.107701 
L 270.99 151.177701 
" style="fill:#00ffff;opacity:0.3;stroke:#000000;stroke-linejoin:miter;"/>
   </g>
   <g id="patch_52">
    <path clip-path="url(#p6cd0804cad)" d="M 298.89 180.414 
L 312.84 179.028 
L 318.42 173.484 
L 315.63 165.168 
L 307.26 173.484 
L 298.89 180.414 
" style="fill:#00ffff;opacity:0.3;stroke:#000000;stroke-linejoin:miter;"/>
   </g>
   <g id="patch_53">
    <path clip-path="url(#p6cd0804cad)" d="M 298.89 183.186 
L 312.84 184.572 
L 318.42 190.116 
L 315.63 198.432 
L 307.26 190.116 
L 298.89 183.186 
" style="fill:#00ffff;opacity:0.3;stroke:#000000;stroke-linejoin:miter;"/>
   </g>
   <g id="patch_54">
    <path clip-path="url(#p6cd0804cad)" d="M 270.99 148.405701 
L 284.94 147.019701 
L 290.52 141.475701 
L 287.73 133.159701 
L 279.36 141.475701 
L 270.99 148.405701 
" style="fill:#00ffff;opacity:0.3;stroke:#000000;stroke-linejoin:miter;"/>
   </g>
   <g id="patch_55">
    <path clip-path="url(#p6cd0804cad)" d="M 270.99 215.194299 
L 284.94 216.580299 
L 290.52 222.124299 
L 287.73 230.440299 
L 279.36 222.124299 
L 270.99 215.194299 
" style="fill:#00ffff;opacity:0.3;stroke:#000000;stroke-linejoin:miter;"/>
   </g>
   <g id="patch_56">
    <path clip-path="url(#p6cd0804cad)" d="M 298.89 116.397402 
L 312.84 115.011402 
L 318.42 109.467402 
L 315.63 101.151402 
L 307.26 109.467402 
L 298.89 116.397402 
" style="fill:#00ffff;opacity:0.3;stroke:#000000;stroke-linejoin:miter;"/>
   </g>
   <g id="patch_57">
    <path clip-path="url(#p6cd0804cad)" d="M 298.89 247.202598 
L 312.84 248.588598 
L 318.42 254.132598 
L 315.63 262.448598 
L 307.26 254.132598 
L 298.89 247.202598 
" style="fill:#00ffff;opacity:0.3;stroke:#000000;stroke-linejoin:miter;"/>
   </g>
   <g id="patch_58">
    <path clip-path="url(#p6cd0804cad)" d="M 243.09 183.186 
L 257.04 184.572 
L 262.62 190.116 
L 259.83 198.432 
L 251.46 190.116 
L 243.09 183.186 
" style="fill:#00ffff;opacity:0.3;stroke:#000000;stroke-linejoin:miter;"/>
   </g>
   <g id="patch_59">
    <path clip-path="url(#p6cd0804cad)" d="M 243.09 180.414 
L 257.04 179.028 
L 262.62 173.484 
L 259.83 165.168 
L 251.46 173.484 
L 243.09 180.414 
" style="fill:#00ffff;opacity:0.3;stroke:#000000;stroke-linejoin:miter;"/>
   </g>
   <g id="patch_60">
    <path clip-path="url(#p6cd0804cad)" d="M 215.19 151.177701 
L 229.14 152.563701 
L 234.72 158.107701 
L 231.93 166.423701 
L 223.56 158.107701 
L 215.19 151.177701 
" style="fill:#00ffff;opacity:0.3;stroke:#000000;stroke-linejoin:miter;"/>
   </g>
   <g id="patch_61">
    <path clip-path="url(#p6cd0804cad)" d="M 215.19 212.422299 
L 229.14 211.036299 
L 234.72 205.492299 
L 231.93 197.176299 
L 223.56 205.492299 
L 215.19 212.422299 
" style="fill:#00ffff;opacity:0.3;stroke:#000000;stroke-linejoin:miter;"/>
   </g>
   <g id="patch_62">
    <path clip-path="url(#p6cd0804cad)" d="M 243.09 119.169402 
L 257.04 120.555402 
L 262.62 126.099402 
L 259.83 134.415402 
L 251.46 126.099402 
L 243.09 119.169402 
" style="fill:#00ffff;opacity:0.3;stroke:#000000;stroke-linejoin:miter;"/>
   </g>
   <g id="patch_63">
    <path clip-path="url(#p6cd0804cad)" d="M 243.09 244.430598 
L 257.04 243.044598 
L 262.62 237.500598 
L 259.83 229.184598 
L 251.46 237.500598 
L 243.09 244.430598 
" style="fill:#00ffff;opacity:0.3;stroke:#000000;stroke-linejoin:miter;"/>
   </g>
   <g id="patch_64">
    <path clip-path="url(#p6cd0804cad)" d="M 215.19 87.161103 
L 229.14 88.547103 
L 234.72 94.091103 
L 231.93 102.407103 
L 223.56 94.091103 
L 215.19 87.161103 
" style="fill:#00ffff;opacity:0.3;stroke:#000000;stroke-linejoin:miter;"/>
   </g>
   <g id="patch_65">
    <path clip-path="url(#p6cd0804cad)" d="M 215.19 276.438897 
L 229.14 275.052897 
L 234.72 269.508897 
L 231.93 261.192897 
L 223.56 269.508897 
L 215.19 276.438897 
" style="fill:#00ffff;opacity:0.3;stroke:#000000;stroke-linejoin:miter;"/>
   </g>
   <g id="patch_66">
    <path clip-path="url(#p6cd0804cad)" d="M 243.09 55.152804 
L 257.04 56.538804 
L 262.62 62.082804 
L 259.83 70.398804 
L 251.46 62.082804 
L 243.09 55.152804 
" style="fill:#00ffff;opacity:0.3;stroke:#000000;stroke-linejoin:miter;"/>
   </g>
   <g id="patch_67">
    <path clip-path="url(#p6cd0804cad)" d="M 243.09 308.447196 
L 257.04 307.061196 
L 262.62 301.517196 
L 259.83 293.201196 
L 251.46 301.517196 
L 243.09 308.447196 
" style="fill:#00ffff;opacity:0.3;stroke:#000000;stroke-linejoin:miter;"/>
   </g>
   <g id="patch_68">
    <path clip-path="url(#p6cd0804cad)" d="M 270.99 23.144505 
L 284.94 24.530505 
L 290.52 30.074505 
L 287.73 38.390505 
L 279.36 30.074505 
L 270.99 23.144505 
" style="fill:#00ffff;opacity:0.3;stroke:#000000;stroke-linejoin:miter;"/>
   </g>
   <g id="patch_69">
    <path clip-path="url(#p6cd0804cad)" d="M 270.99 340.455495 
L 284.94 339.069495 
L 290.52 333.525495 
L 287.73 325.209495 
L 279.36 333.525495 
L 270.99 340.455495 
" style="fill:#00ffff;opacity:0.3;stroke:#000000;stroke-linejoin:miter;"/>
   </g>
   <g id="patch_70">
    <path clip-path="url(#p6cd0804cad)" d="M 243.09 -8.863794 
L 257.04 -7.477794 
L 262.62 -1.933794 
L 259.83 6.382206 
L 251.46 -1.933794 
L 243.09 -8.863794 
" style="fill:#00ffff;opacity:0.3;stroke:#000000;stroke-linejoin:miter;"/>
   </g>
   <g id="patch_71">
    <path clip-path="url(#p6cd0804cad)" d="M 215.19 23.144505 
L 229.14 24.530505 
L 234.72 30.074505 
L 231.93 38.390505 
L 223.56 30.074505 
L 215.19 23.144505 
" style="fill:#00ffff;opacity:0.3;stroke:#000000;stroke-linejoin:miter;"/>
   </g>
   <g id="patch_72">
    <path clip-path="url(#p6cd0804cad)" d="M 215.19 340.455495 
L 229.14 339.069495 
L 234.72 333.525495 
L 231.93 325.209495 
L 223.56 333.525495 
L 215.19 340.455495 
" style="fill:#00ffff;opacity:0.3;stroke:#000000;stroke-linejoin:miter;"/>
   </g>
   <g id="patch_73">
    <path clip-path="url(#p6cd0804cad)" d="M 187.29 -8.863794 
L 201.24 -7.477794 
L 206.82 -1.933794 
L 204.03 6.382206 
L 195.66 -1.933794 
L 187.29 -8.863794 
" style="fill:#00ffff;opacity:0.3;stroke:#000000;stroke-linejoin:miter;"/>
   </g>
   <g id="patch_74">
    <path clip-path="url(#p6cd0804cad)" d="M 187.29 308.447196 
L 201.24 307.061196 
L 206.82 301.517196 
L 204.03 293.201196 
L 195.66 301.517196 
L 187.29 308.447196 
" style="fill:#00ffff;opacity:0.3;stroke:#000000;stroke-linejoin:miter;"/>
   </g>
   <g id="patch_75">
    <path clip-path="url(#p6cd0804cad)" d="M 187.29 55.152804 
L 201.24 56.538804 
L 206.82 62.082804 
L 204.03 70.398804 
L 195.66 62.082804 
L 187.29 55.152804 
" style="fill:#00ffff;opacity:0.3;stroke:#000000;stroke-linejoin:miter;"/>
   </g>
   <g id="patch_76">
    <path clip-path="url(#p6cd0804cad)" d="M 159.39 276.438897 
L 173.34 275.052897 
L 178.92 269.508897 
L 176.13 261.192897 
L 167.76 269.508897 
L 159.39 276.438897 
" style="fill:#00ffff;opacity:0.3;stroke:#000000;stroke-linejoin:miter;"/>
   </g>
   <g id="patch_77">
    <path clip-path="url(#p6cd0804cad)" d="M 159.39 87.161103 
L 173.34 88.547103 
L 178.92 94.091103 
L 176.13 102.407103 
L 167.76 94.091103 
L 159.39 87.161103 
" style="fill:#00ffff;opacity:0.3;stroke:#000000;stroke-linejoin:miter;"/>
   </g>
   <g id="patch_78">
    <path clip-path="url(#p6cd0804cad)" d="M 187.29 244.430598 
L 201.24 243.044598 
L 206.82 237.500598 
L 204.03 229.184598 
L 195.66 237.500598 
L 187.29 244.430598 
" style="fill:#00ffff;opacity:0.3;stroke:#000000;stroke-linejoin:miter;"/>
   </g>
   <g id="patch_79">
    <path clip-path="url(#p6cd0804cad)" d="M 187.29 119.169402 
L 201.24 120.555402 
L 206.82 126.099402 
L 204.03 134.415402 
L 195.66 126.099402 
L 187.29 119.169402 
" style="fill:#00ffff;opacity:0.3;stroke:#000000;stroke-linejoin:miter;"/>
   </g>
   <g id="patch_80">
    <path clip-path="url(#p6cd0804cad)" d="M 159.39 212.422299 
L 173.34 211.036299 
L 178.92 205.492299 
L 176.13 197.176299 
L 167.76 205.492299 
L 159.39 212.422299 
" style="fill:#00ffff;opacity:0.3;stroke:#000000;stroke-linejoin:miter;"/>
   </g>
   <g id="patch_81">
    <path clip-path="url(#p6cd0804cad)" d="M 159.39 151.177701 
L 173.34 152.563701 
L 178.92 158.107701 
L 176.13 166.423701 
L 167.76 158.107701 
L 159.39 151.177701 
" style="fill:#00ffff;opacity:0.3;stroke:#000000;stroke-linejoin:miter;"/>
   </g>
   <g id="patch_82">
    <path clip-path="url(#p6cd0804cad)" d="M 131.49 180.414 
L 145.44 179.028 
L 151.02 173.484 
L 148.23 165.168 
L 139.86 173.484 
L 131.49 180.414 
" style="fill:#00ffff;opacity:0.3;stroke:#000000;stroke-linejoin:miter;"/>
   </g>
   <g id="patch_83">
    <path clip-path="url(#p6cd0804cad)" d="M 131.49 183.186 
L 145.44 184.572 
L 151.02 190.116 
L 148.23 198.432 
L 139.86 190.116 
L 131.49 183.186 
" style="fill:#00ffff;opacity:0.3;stroke:#000000;stroke-linejoin:miter;"/>
   </g>
   <g id="patch_84">
    <path clip-path="url(#p6cd0804cad)" d="M 159.39 148.405701 
L 173.34 147.019701 
L 178.92 141.475701 
L 176.13 133.159701 
L 167.76 141.475701 
L 159.39 148.405701 
" style="fill:#00ffff;opacity:0.3;stroke:#000000;stroke-linejoin:miter;"/>
   </g>
   <g id="patch_85">
    <path clip-path="url(#p6cd0804cad)" d="M 159.39 215.194299 
L 173.34 216.580299 
L 178.92 222.124299 
L 176.13 230.440299 
L 167.76 222.124299 
L 159.39 215.194299 
" style="fill:#00ffff;opacity:0.3;stroke:#000000;stroke-linejoin:miter;"/>
   </g>
   <g id="patch_86">
    <path clip-path="url(#p6cd0804cad)" d="M 187.29 116.397402 
L 201.24 115.011402 
L 206.82 109.467402 
L 204.03 101.151402 
L 195.66 109.467402 
L 187.29 116.397402 
" style="fill:#00ffff;opacity:0.3;stroke:#000000;stroke-linejoin:miter;"/>
   </g>
   <g id="patch_87">
    <path clip-path="url(#p6cd0804cad)" d="M 187.29 247.202598 
L 201.24 248.588598 
L 206.82 254.132598 
L 204.03 262.448598 
L 195.66 254.132598 
L 187.29 247.202598 
" style="fill:#00ffff;opacity:0.3;stroke:#000000;stroke-linejoin:miter;"/>
   </g>
   <g id="patch_88">
    <path clip-path="url(#p6cd0804cad)" d="M 215.19 84.389103 
L 229.14 83.003103 
L 234.72 77.459103 
L 231.93 69.143103 
L 223.56 77.459103 
L 215.19 84.389103 
" style="fill:#00ffff;opacity:0.3;stroke:#000000;stroke-linejoin:miter;"/>
   </g>
   <g id="patch_89">
    <path clip-path="url(#p6cd0804cad)" d="M 215.19 279.210897 
L 229.14 280.596897 
L 234.72 286.140897 
L 231.93 294.456897 
L 223.56 286.140897 
L 215.19 279.210897 
" style="fill:#00ffff;opacity:0.3;stroke:#000000;stroke-linejoin:miter;"/>
   </g>
   <g id="patch_90">
    <path clip-path="url(#p6cd0804cad)" d="M 243.09 52.380804 
L 257.04 50.994804 
L 262.62 45.450804 
L 259.83 37.134804 
L 251.46 45.450804 
L 243.09 52.380804 
" style="fill:#00ffff;opacity:0.3;stroke:#000000;stroke-linejoin:miter;"/>
   </g>
   <g id="patch_91">
    <path clip-path="url(#p6cd0804cad)" d="M 243.09 311.219196 
L 257.04 312.605196 
L 262.62 318.149196 
L 259.83 326.465196 
L 251.46 318.149196 
L 243.09 311.219196 
" style="fill:#00ffff;opacity:0.3;stroke:#000000;stroke-linejoin:miter;"/>
   </g>
   <g id="patch_92">
    <path clip-path="url(#p6cd0804cad)" d="M 270.99 20.372505 
L 284.94 18.986505 
L 290.52 13.442505 
L 287.73 5.126505 
L 279.36 13.442505 
L 270.99 20.372505 
" style="fill:#00ffff;opacity:0.3;stroke:#000000;stroke-linejoin:miter;"/>
   </g>
   <g id="patch_93">
    <path clip-path="url(#p6cd0804cad)" d="M 270.99 343.227495 
L 284.94 344.613495 
L 290.52 350.157495 
L 287.73 358.473495 
L 279.36 350.157495 
L 270.99 343.227495 
" style="fill:#00ffff;opacity:0.3;stroke:#000000;stroke-linejoin:miter;"/>
   </g>
   <g id="patch_94">
    <path clip-path="url(#p6cd0804cad)" d="M 243.09 -11.635794 
L 257.04 -13.021794 
L 262.62 -18.565794 
L 259.83 -26.881794 
L 251.46 -18.565794 
L 243.09 -11.635794 
" style="fill:#00ffff;opacity:0.3;stroke:#000000;stroke-linejoin:miter;"/>
   </g>
   <g id="patch_95">
    <path clip-path="url(#p6cd0804cad)" d="M 215.19 20.372505 
L 229.14 18.986505 
L 234.72 13.442505 
L 231.93 5.126505 
L 223.56 13.442505 
L 215.19 20.372505 
" style="fill:#00ffff;opacity:0.3;stroke:#000000;stroke-linejoin:miter;"/>
   </g>
   <g id="patch_96">
    <path clip-path="url(#p6cd0804cad)" d="M 215.19 343.227495 
L 229.14 344.613495 
L 234.72 350.157495 
L 231.93 358.473495 
L 223.56 350.157495 
L 215.19 343.227495 
" style="fill:#00ffff;opacity:0.3;stroke:#000000;stroke-linejoin:miter;"/>
   </g>
   <g id="patch_97">
    <path clip-path="url(#p6cd0804cad)" d="M 187.29 -11.635794 
L 201.24 -13.021794 
L 206.82 -18.565794 
L 204.03 -26.881794 
L 195.66 -18.565794 
L 187.29 -11.635794 
" style="fill:#00ffff;opacity:0.3;stroke:#000000;stroke-linejoin:miter;"/>
   </g>
   <g id="patch_98">
    <path clip-path="url(#p6cd0804cad)" d="M 187.29 311.219196 
L 201.24 312.605196 
L 206.82 318.149196 
L 204.03 326.465196 
L 195.66 318.149196 
L 187.29 311.219196 
" style="fill:#00ffff;opacity:0.3;stroke:#000000;stroke-linejoin:miter;"/>
   </g>
   <g id="patch_99">
    <path clip-path="url(#p6cd0804cad)" d="M 187.29 52.380804 
L 201.24 50.994804 
L 206.82 45.450804 
L 204.03 37.134804 
L 195.66 45.450804 
L 187.29 52.380804 
" style="fill:#00ffff;opacity:0.3;stroke:#000000;stroke-linejoin:miter;"/>
   </g>
   <g id="patch_100">
    <path clip-path="url(#p6cd0804cad)" d="M 159.39 279.210897 
L 173.34 280.596897 
L 178.92 286.140897 
L 176.13 294.456897 
L 167.76 286.140897 
L 159.39 279.210897 
" style="fill:#00ffff;opacity:0.3;stroke:#000000;stroke-linejoin:miter;"/>
   </g>
   <g id="patch_101">
    <path clip-path="url(#p6cd0804cad)" d="M 159.39 84.389103 
L 173.34 83.003103 
L 178.92 77.459103 
L 176.13 69.143103 
L 167.76 77.459103 
L 159.39 84.389103 
" style="fill:#00ffff;opacity:0.3;stroke:#000000;stroke-linejoin:miter;"/>
   </g>
   <g id="patch_102">
    <path clip-path="url(#p6cd0804cad)" d="M 131.49 247.202598 
L 145.44 248.588598 
L 151.02 254.132598 
L 148.23 262.448598 
L 139.86 254.132598 
L 131.49 247.202598 
" style="fill:#00ffff;opacity:0.3;stroke:#000000;stroke-linejoin:miter;"/>
   </g>
   <g id="patch_103">
    <path clip-path="url(#p6cd0804cad)" d="M 131.49 116.397402 
L 145.44 115.011402 
L 151.02 109.467402 
L 148.23 101.151402 
L 139.86 109.467402 
L 131.49 116.397402 
" style="fill:#00ffff;opacity:0.3;stroke:#000000;stroke-linejoin:miter;"/>
   </g>
   <g id="patch_104">
    <path clip-path="url(#p6cd0804cad)" d="M 103.59 215.194299 
L 117.54 216.580299 
L 123.12 222.124299 
L 120.33 230.440299 
L 111.96 222.124299 
L 103.59 215.194299 
" style="fill:#00ffff;opacity:0.3;stroke:#000000;stroke-linejoin:miter;"/>
   </g>
   <g id="patch_105">
    <path clip-path="url(#p6cd0804cad)" d="M 103.59 148.405701 
L 117.54 147.019701 
L 123.12 141.475701 
L 120.33 133.159701 
L 111.96 141.475701 
L 103.59 148.405701 
" style="fill:#00ffff;opacity:0.3;stroke:#000000;stroke-linejoin:miter;"/>
   </g>
   <g id="patch_106">
    <path clip-path="url(#p6cd0804cad)" d="M 75.69 183.186 
L 89.64 184.572 
L 95.22 190.116 
L 92.43 198.432 
L 84.06 190.116 
L 75.69 183.186 
" style="fill:#00ffff;opacity:0.3;stroke:#000000;stroke-linejoin:miter;"/>
   </g>
   <g id="patch_107">
    <path clip-path="url(#p6cd0804cad)" d="M 75.69 180.414 
L 89.64 179.028 
L 95.22 173.484 
L 92.43 165.168 
L 84.06 173.484 
L 75.69 180.414 
" style="fill:#00ffff;opacity:0.3;stroke:#000000;stroke-linejoin:miter;"/>
   </g>
   <g id="patch_108">
    <path clip-path="url(#p6cd0804cad)" d="M 103.59 151.177701 
L 117.54 152.563701 
L 123.12 158.107701 
L 120.33 166.423701 
L 111.96 158.107701 
L 103.59 151.177701 
" style="fill:#00ffff;opacity:0.3;stroke:#000000;stroke-linejoin:miter;"/>
   </g>
   <g id="patch_109">
    <path clip-path="url(#p6cd0804cad)" d="M 103.59 212.422299 
L 117.54 211.036299 
L 123.12 205.492299 
L 120.33 197.176299 
L 111.96 205.492299 
L 103.59 212.422299 
" style="fill:#00ffff;opacity:0.3;stroke:#000000;stroke-linejoin:miter;"/>
   </g>
   <g id="patch_110">
    <path clip-path="url(#p6cd0804cad)" d="M 131.49 119.169402 
L 145.44 120.555402 
L 151.02 126.099402 
L 148.23 134.415402 
L 139.86 126.099402 
L 131.49 119.169402 
" style="fill:#00ffff;opacity:0.3;stroke:#000000;stroke-linejoin:miter;"/>
   </g>
   <g id="patch_111">
    <path clip-path="url(#p6cd0804cad)" d="M 131.49 244.430598 
L 145.44 243.044598 
L 151.02 237.500598 
L 148.23 229.184598 
L 139.86 237.500598 
L 131.49 244.430598 
" style="fill:#00ffff;opacity:0.3;stroke:#000000;stroke-linejoin:miter;"/>
   </g>
   <g id="patch_112">
    <path clip-path="url(#p6cd0804cad)" d="M 103.59 87.161103 
L 117.54 88.547103 
L 123.12 94.091103 
L 120.33 102.407103 
L 111.96 94.091103 
L 103.59 87.161103 
" style="fill:#00ffff;opacity:0.3;stroke:#000000;stroke-linejoin:miter;"/>
   </g>
   <g id="patch_113">
    <path clip-path="url(#p6cd0804cad)" d="M 103.59 276.438897 
L 117.54 275.052897 
L 123.12 269.508897 
L 120.33 261.192897 
L 111.96 269.508897 
L 103.59 276.438897 
" style="fill:#00ffff;opacity:0.3;stroke:#000000;stroke-linejoin:miter;"/>
   </g>
   <g id="patch_114">
    <path clip-path="url(#p6cd0804cad)" d="M 131.49 55.152804 
L 145.44 56.538804 
L 151.02 62.082804 
L 148.23 70.398804 
L 139.86 62.082804 
L 131.49 55.152804 
" style="fill:#00ffff;opacity:0.3;stroke:#000000;stroke-linejoin:miter;"/>
   </g>
   <g id="patch_115">
    <path clip-path="url(#p6cd0804cad)" d="M 131.49 308.447196 
L 145.44 307.061196 
L 151.02 301.517196 
L 148.23 293.201196 
L 139.86 301.517196 
L 131.49 308.447196 
" style="fill:#00ffff;opacity:0.3;stroke:#000000;stroke-linejoin:miter;"/>
   </g>
   <g id="patch_116">
    <path clip-path="url(#p6cd0804cad)" d="M 159.39 23.144505 
L 173.34 24.530505 
L 178.92 30.074505 
L 176.13 38.390505 
L 167.76 30.074505 
L 159.39 23.144505 
" style="fill:#00ffff;opacity:0.3;stroke:#000000;stroke-linejoin:miter;"/>
   </g>
   <g id="patch_117">
    <path clip-path="url(#p6cd0804cad)" d="M 159.39 340.455495 
L 173.34 339.069495 
L 178.92 333.525495 
L 176.13 325.209495 
L 167.76 333.525495 
L 159.39 340.455495 
" style="fill:#00ffff;opacity:0.3;stroke:#000000;stroke-linejoin:miter;"/>
   </g>
   <g id="patch_118">
    <path clip-path="url(#p6cd0804cad)" d="M 131.49 -8.863794 
L 145.44 -7.477794 
L 151.02 -1.933794 
L 148.23 6.382206 
L 139.86 -1.933794 
L 131.49 -8.863794 
" style="fill:#00ffff;opacity:0.3;stroke:#000000;stroke-linejoin:miter;"/>
   </g>
   <g id="patch_119">
    <path clip-path="url(#p6cd0804cad)" d="M 103.59 23.144505 
L 117.54 24.530505 
L 123.12 30.074505 
L 120.33 38.390505 
L 111.96 30.074505 
L 103.59 23.144505 
" style="fill:#00ffff;opacity:0.3;stroke:#000000;stroke-linejoin:miter;"/>
   </g>
   <g id="patch_120">
    <path clip-path="url(#p6cd0804cad)" d="M 103.59 340.455495 
L 117.54 339.069495 
L 123.12 333.525495 
L 120.33 325.209495 
L 111.96 333.525495 
L 103.59 340.455495 
" style="fill:#00ffff;opacity:0.3;stroke:#000000;stroke-linejoin:miter;"/>
   </g>
   <g id="patch_121">
    <path clip-path="url(#p6cd0804cad)" d="M 75.69 -8.863794 
L 89.64 -7.477794 
L 95.22 -1.933794 
L 92.43 6.382206 
L 84.06 -1.933794 
L 75.69 -8.863794 
" style="fill:#00ffff;opacity:0.3;stroke:#000000;stroke-linejoin:miter;"/>
   </g>
   <g id="patch_122">
    <path clip-path="url(#p6cd0804cad)" d="M 75.69 308.447196 
L 89.64 307.061196 
L 95.22 301.517196 
L 92.43 293.201196 
L 84.06 301.517196 
L 75.69 308.447196 
" style="fill:#00ffff;opacity:0.3;stroke:#000000;stroke-linejoin:miter;"/>
   </g>
   <g id="patch_123">
    <path clip-path="url(#p6cd0804cad)" d="M 75.69 55.152804 
L 89.64 56.538804 
L 95.22 62.082804 
L 92.43 70.398804 
L 84.06 62.082804 
L 75.69 55.152804 
" style="fill:#00ffff;opacity:0.3;stroke:#000000;stroke-linejoin:miter;"/>
   </g>
   <g id="patch_124">
    <path clip-path="url(#p6cd0804cad)" d="M 47.79 276.438897 
L 61.74 275.052897 
L 67.32 269.508897 
L 64.53 261.192897 
L 56.16 269.508897 
L 47.79 276.438897 
" style="fill:#00ffff;opacity:0.3;stroke:#000000;stroke-linejoin:miter;"/>
   </g>
   <g id="patch_125">
    <path clip-path="url(#p6cd0804cad)" d="M 47.79 87.161103 
L 61.74 88.547103 
L 67.32 94.091103 
L 64.53 102.407103 
L 56.16 94.091103 
L 47.79 87.161103 
" style="fill:#00ffff;opacity:0.3;stroke:#000000;stroke-linejoin:miter;"/>
   </g>
   <g id="patch_126">
    <path clip-path="url(#p6cd0804cad)" d="M 75.69 244.430598 
L 89.64 243.044598 
L 95.22 237.500598 
L 92.43 229.184598 
L 84.06 237.500598 
L 75.69 244.430598 
" style="fill:#00ffff;opacity:0.3;stroke:#000000;stroke-linejoin:miter;"/>
   </g>
   <g id="patch_127">
    <path clip-path="url(#p6cd0804cad)" d="M 75.69 119.169402 
L 89.64 120.555402 
L 95.22 126.099402 
L 92.43 134.415402 
L 84.06 126.099402 
L 75.69 119.169402 
" style="fill:#00ffff;opacity:0.3;stroke:#000000;stroke-linejoin:miter;"/>
   </g>
   <g id="patch_128">
    <path clip-path="url(#p6cd0804cad)" d="M 47.79 212.422299 
L 61.74 211.036299 
L 67.32 205.492299 
L 64.53 197.176299 
L 56.16 205.492299 
L 47.79 212.422299 
" style="fill:#00ffff;opacity:0.3;stroke:#000000;stroke-linejoin:miter;"/>
   </g>
   <g id="patch_129">
    <path clip-path="url(#p6cd0804cad)" d="M 47.79 151.177701 
L 61.74 152.563701 
L 67.32 158.107701 
L 64.53 166.423701 
L 56.16 158.107701 
L 47.79 151.177701 
" style="fill:#00ffff;opacity:0.3;stroke:#000000;stroke-linejoin:miter;"/>
   </g>
   <g id="patch_130">
    <path clip-path="url(#p6cd0804cad)" d="M 19.89 180.414 
L 33.84 179.028 
L 39.42 173.484 
L 36.63 165.168 
L 28.26 173.484 
L 19.89 180.414 
" style="fill:#00ffff;opacity:0.3;stroke:#000000;stroke-linejoin:miter;"/>
   </g>
   <g id="patch_131">
    <path clip-path="url(#p6cd0804cad)" d="M 19.89 183.186 
L 33.84 184.572 
L 39.42 190.116 
L 36.63 198.432 
L 28.26 190.116 
L 19.89 183.186 
" style="fill:#00ffff;opacity:0.3;stroke:#000000;stroke-linejoin:miter;"/>
   </g>
   <g id="patch_132">
    <path clip-path="url(#p6cd0804cad)" d="M 47.79 148.405701 
L 61.74 147.019701 
L 67.32 141.475701 
L 64.53 133.159701 
L 56.16 141.475701 
L 47.79 148.405701 
" style="fill:#00ffff;opacity:0.3;stroke:#000000;stroke-linejoin:miter;"/>
   </g>
   <g id="patch_133">
    <path clip-path="url(#p6cd0804cad)" d="M 47.79 215.194299 
L 61.74 216.580299 
L 67.32 222.124299 
L 64.53 230.440299 
L 56.16 222.124299 
L 47.79 215.194299 
" style="fill:#00ffff;opacity:0.3;stroke:#000000;stroke-linejoin:miter;"/>
   </g>
   <g id="patch_134">
    <path clip-path="url(#p6cd0804cad)" d="M 75.69 116.397402 
L 89.64 115.011402 
L 95.22 109.467402 
L 92.43 101.151402 
L 84.06 109.467402 
L 75.69 116.397402 
" style="fill:#00ffff;opacity:0.3;stroke:#000000;stroke-linejoin:miter;"/>
   </g>
   <g id="patch_135">
    <path clip-path="url(#p6cd0804cad)" d="M 75.69 247.202598 
L 89.64 248.588598 
L 95.22 254.132598 
L 92.43 262.448598 
L 84.06 254.132598 
L 75.69 247.202598 
" style="fill:#00ffff;opacity:0.3;stroke:#000000;stroke-linejoin:miter;"/>
   </g>
   <g id="patch_136">
    <path clip-path="url(#p6cd0804cad)" d="M 103.59 84.389103 
L 117.54 83.003103 
L 123.12 77.459103 
L 120.33 69.143103 
L 111.96 77.459103 
L 103.59 84.389103 
" style="fill:#00ffff;opacity:0.3;stroke:#000000;stroke-linejoin:miter;"/>
   </g>
   <g id="patch_137">
    <path clip-path="url(#p6cd0804cad)" d="M 103.59 279.210897 
L 117.54 280.596897 
L 123.12 286.140897 
L 120.33 294.456897 
L 111.96 286.140897 
L 103.59 279.210897 
" style="fill:#00ffff;opacity:0.3;stroke:#000000;stroke-linejoin:miter;"/>
   </g>
   <g id="patch_138">
    <path clip-path="url(#p6cd0804cad)" d="M 131.49 52.380804 
L 145.44 50.994804 
L 151.02 45.450804 
L 148.23 37.134804 
L 139.86 45.450804 
L 131.49 52.380804 
" style="fill:#00ffff;opacity:0.3;stroke:#000000;stroke-linejoin:miter;"/>
   </g>
   <g id="patch_139">
    <path clip-path="url(#p6cd0804cad)" d="M 131.49 311.219196 
L 145.44 312.605196 
L 151.02 318.149196 
L 148.23 326.465196 
L 139.86 318.149196 
L 131.49 311.219196 
" style="fill:#00ffff;opacity:0.3;stroke:#000000;stroke-linejoin:miter;"/>
   </g>
   <g id="patch_140">
    <path clip-path="url(#p6cd0804cad)" d="M 159.39 20.372505 
L 173.34 18.986505 
L 178.92 13.442505 
L 176.13 5.126505 
L 167.76 13.442505 
L 159.39 20.372505 
" style="fill:#00ffff;opacity:0.3;stroke:#000000;stroke-linejoin:miter;"/>
   </g>
   <g id="patch_141">
    <path clip-path="url(#p6cd0804cad)" d="M 159.39 343.227495 
L 173.34 344.613495 
L 178.92 350.157495 
L 176.13 358.473495 
L 167.76 350.157495 
L 159.39 343.227495 
" style="fill:#00ffff;opacity:0.3;stroke:#000000;stroke-linejoin:miter;"/>
   </g>
   <g id="patch_142">
    <path clip-path="url(#p6cd0804cad)" d="M 131.49 -11.635794 
L 145.44 -13.021794 
L 151.02 -18.565794 
L 148.23 -26.881794 
L 139.86 -18.565794 
L 131.49 -11.635794 
" style="fill:#00ffff;opacity:0.3;stroke:#000000;stroke-linejoin:miter;"/>
   </g>
   <g id="patch_143">
    <path clip-path="url(#p6cd0804cad)" d="M 103.59 20.372505 
L 117.54 18.986505 
L 123.12 13.442505 
L 120.33 5.126505 
L 111.96 13.442505 
L 103.59 20.372505 
" style="fill:#00ffff;opacity:0.3;stroke:#000000;stroke-linejoin:miter;"/>
   </g>
   <g id="patch_144">
    <path clip-path="url(#p6cd0804cad)" d="M 103.59 343.227495 
L 117.54 344.613495 
L 123.12 350.157495 
L 120.33 358.473495 
L 111.96 350.157495 
L 103.59 343.227495 
" style="fill:#00ffff;opacity:0.3;stroke:#000000;stroke-linejoin:miter;"/>
   </g>
   <g id="patch_145">
    <path clip-path="url(#p6cd0804cad)" d="M 75.69 -11.635794 
L 89.64 -13.021794 
L 95.22 -18.565794 
L 92.43 -26.881794 
L 84.06 -18.565794 
L 75.69 -11.635794 
" style="fill:#00ffff;opacity:0.3;stroke:#000000;stroke-linejoin:miter;"/>
   </g>
   <g id="patch_146">
    <path clip-path="url(#p6cd0804cad)" d="M 75.69 311.219196 
L 89.64 312.605196 
L 95.22 318.149196 
L 92.43 326.465196 
L 84.06 318.149196 
L 75.69 311.219196 
" style="fill:#00ffff;opacity:0.3;stroke:#000000;stroke-linejoin:miter;"/>
   </g>
   <g id="patch_147">
    <path clip-path="url(#p6cd0804cad)" d="M 75.69 52.380804 
L 89.64 50.994804 
L 95.22 45.450804 
L 92.43 37.134804 
L 84.06 45.450804 
L 75.69 52.380804 
" style="fill:#00ffff;opacity:0.3;stroke:#000000;stroke-linejoin:miter;"/>
   </g>
   <g id="patch_148">
    <path clip-path="url(#p6cd0804cad)" d="M 47.79 279.210897 
L 61.74 280.596897 
L 67.32 286.140897 
L 64.53 294.456897 
L 56.16 286.140897 
L 47.79 279.210897 
" style="fill:#00ffff;opacity:0.3;stroke:#000000;stroke-linejoin:miter;"/>
   </g>
   <g id="patch_149">
    <path clip-path="url(#p6cd0804cad)" d="M 47.79 84.389103 
L 61.74 83.003103 
L 67.32 77.459103 
L 64.53 69.143103 
L 56.16 77.459103 
L 47.79 84.389103 
" style="fill:#00ffff;opacity:0.3;stroke:#000000;stroke-linejoin:miter;"/>
   </g>
   <g id="patch_150">
    <path clip-path="url(#p6cd0804cad)" d="M 19.89 247.202598 
L 33.84 248.588598 
L 39.42 254.132598 
L 36.63 262.448598 
L 28.26 254.132598 
L 19.89 247.202598 
" style="fill:#00ffff;opacity:0.3;stroke:#000000;stroke-linejoin:miter;"/>
   </g>
   <g id="patch_151">
    <path clip-path="url(#p6cd0804cad)" d="M 19.89 116.397402 
L 33.84 115.011402 
L 39.42 109.467402 
L 36.63 101.151402 
L 28.26 109.467402 
L 19.89 116.397402 
" style="fill:#00ffff;opacity:0.3;stroke:#000000;stroke-linejoin:miter;"/>
   </g>
   <g id="patch_152">
    <path clip-path="url(#p6cd0804cad)" d="M -8.01 215.194299 
L 5.94 216.580299 
L 11.52 222.124299 
L 8.73 230.440299 
L 0.36 222.124299 
L -8.01 215.194299 
" style="fill:#00ffff;opacity:0.3;stroke:#000000;stroke-linejoin:miter;"/>
   </g>
   <g id="patch_153">
    <path clip-path="url(#p6cd0804cad)" d="M -8.01 84.389103 
L 5.94 83.003103 
L 11.52 77.459103 
L 8.73 69.143103 
L 0.36 77.459103 
L -8.01 84.389103 
" style="fill:#00ffff;opacity:0.3;stroke:#000000;stroke-linejoin:miter;"/>
   </g>
   <g id="patch_154">
    <path clip-path="url(#p6cd0804cad)" d="M 19.89 52.380804 
L 33.84 50.994804 
L 39.42 45.450804 
L 36.63 37.134804 
L 28.26 45.450804 
L 19.89 52.380804 
" style="fill:#00ffff;opacity:0.3;stroke:#000000;stroke-linejoin:miter;"/>
   </g>
   <g id="patch_155">
    <path clip-path="url(#p6cd0804cad)" d="M 19.89 311.219196 
L 33.84 312.605196 
L 39.42 318.149196 
L 36.63 326.465196 
L 28.26 318.149196 
L 19.89 311.219196 
" style="fill:#00ffff;opacity:0.3;stroke:#000000;stroke-linejoin:miter;"/>
   </g>
   <g id="patch_156">
    <path clip-path="url(#p6cd0804cad)" d="M 47.79 20.372505 
L 61.74 18.986505 
L 67.32 13.442505 
L 64.53 5.126505 
L 56.16 13.442505 
L 47.79 20.372505 
" style="fill:#00ffff;opacity:0.3;stroke:#000000;stroke-linejoin:miter;"/>
   </g>
   <g id="patch_157">
    <path clip-path="url(#p6cd0804cad)" d="M 47.79 343.227495 
L 61.74 344.613495 
L 67.32 350.157495 
L 64.53 358.473495 
L 56.16 350.157495 
L 47.79 343.227495 
" style="fill:#00ffff;opacity:0.3;stroke:#000000;stroke-linejoin:miter;"/>
   </g>
   <g id="patch_158">
    <path clip-path="url(#p6cd0804cad)" d="M 19.89 -11.635794 
L 33.84 -13.021794 
L 39.42 -18.565794 
L 36.63 -26.881794 
L 28.26 -18.565794 
L 19.89 -11.635794 
" style="fill:#00ffff;opacity:0.3;stroke:#000000;stroke-linejoin:miter;"/>
   </g>
   <g id="patch_159">
    <path clip-path="url(#p6cd0804cad)" d="M -8.01 20.372505 
L 5.94 18.986505 
L 11.52 13.442505 
L 8.73 5.126505 
L 0.36 13.442505 
L -8.01 20.372505 
" style="fill:#00ffff;opacity:0.3;stroke:#000000;stroke-linejoin:miter;"/>
   </g>
   <g id="patch_160">
    <path clip-path="url(#p6cd0804cad)" d="M -8.01 279.210897 
L 5.94 280.596897 
L 11.52 286.140897 
L 8.73 294.456897 
L 0.36 286.140897 
L -8.01 279.210897 
" style="fill:#00ffff;opacity:0.3;stroke:#000000;stroke-linejoin:miter;"/>
   </g>
   <g id="patch_161">
    <path clip-path="url(#p6cd0804cad)" d="M -8.01 148.405701 
L 5.94 147.019701 
L 11.52 141.475701 
L 8.73 133.159701 
L 0.36 141.475701 
L -8.01 148.405701 
" style="fill:#00ffff;opacity:0.3;stroke:#000000;stroke-linejoin:miter;"/>
   </g>
   <g id="patch_162">
    <path clip-path="url(#p6cd0804cad)" d="M -8.01 151.177701 
L 5.94 152.563701 
L 11.52 158.107701 
L 8.73 166.423701 
L 0.36 158.107701 
L -8.01 151.177701 
" style="fill:#00ffff;opacity:0.3;stroke:#000000;stroke-linejoin:miter;"/>
   </g>
   <g id="patch_163">
    <path clip-path="url(#p6cd0804cad)" d="M 19.89 119.169402 
L 33.84 120.555402 
L 39.42 126.099402 
L 36.63 134.415402 
L 28.26 126.099402 
L 19.89 119.169402 
" style="fill:#00ffff;opacity:0.3;stroke:#000000;stroke-linejoin:miter;"/>
   </g>
   <g id="patch_164">
    <path clip-path="url(#p6cd0804cad)" d="M 19.89 244.430598 
L 33.84 243.044598 
L 39.42 237.500598 
L 36.63 229.184598 
L 28.26 237.500598 
L 19.89 244.430598 
" style="fill:#00ffff;opacity:0.3;stroke:#000000;stroke-linejoin:miter;"/>
   </g>
   <g id="patch_165">
    <path clip-path="url(#p6cd0804cad)" d="M -8.01 87.161103 
L 5.94 88.547103 
L 11.52 94.091103 
L 8.73 102.407103 
L 0.36 94.091103 
L -8.01 87.161103 
" style="fill:#00ffff;opacity:0.3;stroke:#000000;stroke-linejoin:miter;"/>
   </g>
   <g id="patch_166">
    <path clip-path="url(#p6cd0804cad)" d="M -8.01 212.422299 
L 5.94 211.036299 
L 11.52 205.492299 
L 8.73 197.176299 
L 0.36 205.492299 
L -8.01 212.422299 
" style="fill:#00ffff;opacity:0.3;stroke:#000000;stroke-linejoin:miter;"/>
   </g>
   <g id="patch_167">
    <path clip-path="url(#p6cd0804cad)" d="M 19.89 55.152804 
L 33.84 56.538804 
L 39.42 62.082804 
L 36.63 70.398804 
L 28.26 62.082804 
L 19.89 55.152804 
" style="fill:#00ffff;opacity:0.3;stroke:#000000;stroke-linejoin:miter;"/>
   </g>
   <g id="patch_168">
    <path clip-path="url(#p6cd0804cad)" d="M 19.89 308.447196 
L 33.84 307.061196 
L 39.42 301.517196 
L 36.63 293.201196 
L 28.26 301.517196 
L 19.89 308.447196 
" style="fill:#00ffff;opacity:0.3;stroke:#000000;stroke-linejoin:miter;"/>
   </g>
   <g id="patch_169">
    <path clip-path="url(#p6cd0804cad)" d="M 47.79 23.144505 
L 61.74 24.530505 
L 67.32 30.074505 
L 64.53 38.390505 
L 56.16 30.074505 
L 47.79 23.144505 
" style="fill:#00ffff;opacity:0.3;stroke:#000000;stroke-linejoin:miter;"/>
   </g>
   <g id="patch_170">
    <path clip-path="url(#p6cd0804cad)" d="M 47.79 340.455495 
L 61.74 339.069495 
L 67.32 333.525495 
L 64.53 325.209495 
L 56.16 333.525495 
L 47.79 340.455495 
" style="fill:#00ffff;opacity:0.3;stroke:#000000;stroke-linejoin:miter;"/>
   </g>
   <g id="patch_171">
    <path clip-path="url(#p6cd0804cad)" d="M 19.89 -8.863794 
L 33.84 -7.477794 
L 39.42 -1.933794 
L 36.63 6.382206 
L 28.26 -1.933794 
L 19.89 -8.863794 
" style="fill:#00ffff;opacity:0.3;stroke:#000000;stroke-linejoin:miter;"/>
   </g>
   <g id="patch_172">
    <path clip-path="url(#p6cd0804cad)" d="M -8.01 23.144505 
L 5.94 24.530505 
L 11.52 30.074505 
L 8.73 38.390505 
L 0.36 30.074505 
L -8.01 23.144505 
" style="fill:#00ffff;opacity:0.3;stroke:#000000;stroke-linejoin:miter;"/>
   </g>
   <g id="patch_173">
    <path clip-path="url(#p6cd0804cad)" d="M -8.01 276.438897 
L 5.94 275.052897 
L 11.52 269.508897 
L 8.73 261.192897 
L 0.36 269.508897 
L -8.01 276.438897 
" style="fill:#00ffff;opacity:0.3;stroke:#000000;stroke-linejoin:miter;"/>
   </g>
   <g id="patch_174">
    <path clip-path="url(#p6cd0804cad)" d="M 382.59 276.438897 
L 396.54 275.052897 
L 402.12 269.508897 
L 399.33 261.192897 
L 390.96 269.508897 
L 382.59 276.438897 
" style="fill:#00ffff;opacity:0.3;stroke:#000000;stroke-linejoin:miter;"/>
   </g>
   <g id="patch_175">
    <path clip-path="url(#p6cd0804cad)" d="M 382.59 212.422299 
L 396.54 211.036299 
L 402.12 205.492299 
L 399.33 197.176299 
L 390.96 205.492299 
L 382.59 212.422299 
" style="fill:#00ffff;opacity:0.3;stroke:#000000;stroke-linejoin:miter;"/>
   </g>
   <g id="patch_176">
    <path clip-path="url(#p6cd0804cad)" d="M 382.59 148.405701 
L 396.54 147.019701 
L 402.12 141.475701 
L 399.33 133.159701 
L 390.96 141.475701 
L 382.59 148.405701 
" style="fill:#00ffff;opacity:0.3;stroke:#000000;stroke-linejoin:miter;"/>
   </g>
   <g id="patch_177">
    <path clip-path="url(#p6cd0804cad)" d="M 382.59 84.389103 
L 396.54 83.003103 
L 402.12 77.459103 
L 399.33 69.143103 
L 390.96 77.459103 
L 382.59 84.389103 
" style="fill:#00ffff;opacity:0.3;stroke:#000000;stroke-linejoin:miter;"/>
   </g>
   <g id="patch_178">
    <path clip-path="url(#p6cd0804cad)" d="M 382.59 20.372505 
L 396.54 18.986505 
L 402.12 13.442505 
L 399.33 5.126505 
L 390.96 13.442505 
L 382.59 20.372505 
" style="fill:#00ffff;opacity:0.3;stroke:#000000;stroke-linejoin:miter;"/>
   </g>
   <g id="patch_179">
    <path d="M 45 320.4 
L 45 43.2 
" style="fill:none;stroke:#000000;stroke-linecap:square;stroke-linejoin:miter;stroke-width:0.8;"/>
   </g>
   <g id="patch_180">
    <path d="M 324 320.4 
L 324 43.2 
" style="fill:none;stroke:#000000;stroke-linecap:square;stroke-linejoin:miter;stroke-width:0.8;"/>
   </g>
   <g id="patch_181">
    <path d="M 45 320.4 
L 324 320.4 
" style="fill:none;stroke:#000000;stroke-linecap:square;stroke-linejoin:miter;stroke-width:0.8;"/>
   </g>
   <g id="patch_182">
    <path d="M 45 43.2 
L 324 43.2 
" style="fill:none;stroke:#000000;stroke-linecap:square;stroke-linejoin:miter;stroke-width:0.8;"/>
   </g>
   <g id="text_23">
    <!-- grupa cm -->
    <defs>
     <path d="M 45.40625 27.984375 
Q 45.40625 37.75 41.375 43.109375 
Q 37.359375 48.484375 30.078125 48.484375 
Q 22.859375 48.484375 18.828125 43.109375 
Q 14.796875 37.75 14.796875 27.984375 
Q 14.796875 18.265625 18.828125 12.890625 
Q 22.859375 7.515625 30.078125 7.515625 
Q 37.359375 7.515625 41.375 12.890625 
Q 45.40625 18.265625 45.40625 27.984375 
z
M 54.390625 6.78125 
Q 54.390625 -7.171875 48.1875 -13.984375 
Q 42 -20.796875 29.203125 -20.796875 
Q 24.46875 -20.796875 20.265625 -20.09375 
Q 16.0625 -19.390625 12.109375 -17.921875 
L 12.109375 -9.1875 
Q 16.0625 -11.328125 19.921875 -12.34375 
Q 23.78125 -13.375 27.78125 -13.375 
Q 36.625 -13.375 41.015625 -8.765625 
Q 45.40625 -4.15625 45.40625 5.171875 
L 45.40625 9.625 
Q 42.625 4.78125 38.28125 2.390625 
Q 33.9375 0 27.875 0 
Q 17.828125 0 11.671875 7.65625 
Q 5.515625 15.328125 5.515625 27.984375 
Q 5.515625 40.671875 11.671875 48.328125 
Q 17.828125 56 27.875 56 
Q 33.9375 56 38.28125 53.609375 
Q 42.625 51.21875 45.40625 46.390625 
L 45.40625 54.6875 
L 54.390625 54.6875 
z
" id="DejaVuSans-67"/>
     <path d="M 41.109375 46.296875 
Q 39.59375 47.171875 37.8125 47.578125 
Q 36.03125 48 33.890625 48 
Q 26.265625 48 22.1875 43.046875 
Q 18.109375 38.09375 18.109375 28.8125 
L 18.109375 0 
L 9.078125 0 
L 9.078125 54.6875 
L 18.109375 54.6875 
L 18.109375 46.1875 
Q 20.953125 51.171875 25.484375 53.578125 
Q 30.03125 56 36.53125 56 
Q 37.453125 56 38.578125 55.875 
Q 39.703125 55.765625 41.0625 55.515625 
z
" id="DejaVuSans-72"/>
     <path d="M 8.5 21.578125 
L 8.5 54.6875 
L 17.484375 54.6875 
L 17.484375 21.921875 
Q 17.484375 14.15625 20.5 10.265625 
Q 23.53125 6.390625 29.59375 6.390625 
Q 36.859375 6.390625 41.078125 11.03125 
Q 45.3125 15.671875 45.3125 23.6875 
L 45.3125 54.6875 
L 54.296875 54.6875 
L 54.296875 0 
L 45.3125 0 
L 45.3125 8.40625 
Q 42.046875 3.421875 37.71875 1 
Q 33.40625 -1.421875 27.6875 -1.421875 
Q 18.265625 -1.421875 13.375 4.4375 
Q 8.5 10.296875 8.5 21.578125 
z
M 31.109375 56 
z
" id="DejaVuSans-75"/>
     <path d="M 18.109375 8.203125 
L 18.109375 -20.796875 
L 9.078125 -20.796875 
L 9.078125 54.6875 
L 18.109375 54.6875 
L 18.109375 46.390625 
Q 20.953125 51.265625 25.265625 53.625 
Q 29.59375 56 35.59375 56 
Q 45.5625 56 51.78125 48.09375 
Q 58.015625 40.1875 58.015625 27.296875 
Q 58.015625 14.40625 51.78125 6.484375 
Q 45.5625 -1.421875 35.59375 -1.421875 
Q 29.59375 -1.421875 25.265625 0.953125 
Q 20.953125 3.328125 18.109375 8.203125 
z
M 48.6875 27.296875 
Q 48.6875 37.203125 44.609375 42.84375 
Q 40.53125 48.484375 33.40625 48.484375 
Q 26.265625 48.484375 22.1875 42.84375 
Q 18.109375 37.203125 18.109375 27.296875 
Q 18.109375 17.390625 22.1875 11.75 
Q 26.265625 6.109375 33.40625 6.109375 
Q 40.53125 6.109375 44.609375 11.75 
Q 48.6875 17.390625 48.6875 27.296875 
z
" id="DejaVuSans-70"/>
     <path d="M 34.28125 27.484375 
Q 23.390625 27.484375 19.1875 25 
Q 14.984375 22.515625 14.984375 16.5 
Q 14.984375 11.71875 18.140625 8.90625 
Q 21.296875 6.109375 26.703125 6.109375 
Q 34.1875 6.109375 38.703125 11.40625 
Q 43.21875 16.703125 43.21875 25.484375 
L 43.21875 27.484375 
z
M 52.203125 31.203125 
L 52.203125 0 
L 43.21875 0 
L 43.21875 8.296875 
Q 40.140625 3.328125 35.546875 0.953125 
Q 30.953125 -1.421875 24.3125 -1.421875 
Q 15.921875 -1.421875 10.953125 3.296875 
Q 6 8.015625 6 15.921875 
Q 6 25.140625 12.171875 29.828125 
Q 18.359375 34.515625 30.609375 34.515625 
L 43.21875 34.515625 
L 43.21875 35.40625 
Q 43.21875 41.609375 39.140625 45 
Q 35.0625 48.390625 27.6875 48.390625 
Q 23 48.390625 18.546875 47.265625 
Q 14.109375 46.140625 10.015625 43.890625 
L 10.015625 52.203125 
Q 14.9375 54.109375 19.578125 55.046875 
Q 24.21875 56 28.609375 56 
Q 40.484375 56 46.34375 49.84375 
Q 52.203125 43.703125 52.203125 31.203125 
z
" id="DejaVuSans-61"/>
     <path id="DejaVuSans-20"/>
     <path d="M 48.78125 52.59375 
L 48.78125 44.1875 
Q 44.96875 46.296875 41.140625 47.34375 
Q 37.3125 48.390625 33.40625 48.390625 
Q 24.65625 48.390625 19.8125 42.84375 
Q 14.984375 37.3125 14.984375 27.296875 
Q 14.984375 17.28125 19.8125 11.734375 
Q 24.65625 6.203125 33.40625 6.203125 
Q 37.3125 6.203125 41.140625 7.25 
Q 44.96875 8.296875 48.78125 10.40625 
L 48.78125 2.09375 
Q 45.015625 0.34375 40.984375 -0.53125 
Q 36.96875 -1.421875 32.421875 -1.421875 
Q 20.0625 -1.421875 12.78125 6.34375 
Q 5.515625 14.109375 5.515625 27.296875 
Q 5.515625 40.671875 12.859375 48.328125 
Q 20.21875 56 33.015625 56 
Q 37.15625 56 41.109375 55.140625 
Q 45.0625 54.296875 48.78125 52.59375 
z
" id="DejaVuSans-63"/>
     <path d="M 52 44.1875 
Q 55.375 50.25 60.0625 53.125 
Q 64.75 56 71.09375 56 
Q 79.640625 56 84.28125 50.015625 
Q 88.921875 44.046875 88.921875 33.015625 
L 88.921875 0 
L 79.890625 0 
L 79.890625 32.71875 
Q 79.890625 40.578125 77.09375 44.375 
Q 74.3125 48.1875 68.609375 48.1875 
Q 61.625 48.1875 57.5625 43.546875 
Q 53.515625 38.921875 53.515625 30.90625 
L 53.515625 0 
L 44.484375 0 
L 44.484375 32.71875 
Q 44.484375 40.625 41.703125 44.40625 
Q 38.921875 48.1875 33.109375 48.1875 
Q 26.21875 48.1875 22.15625 43.53125 
Q 18.109375 38.875 18.109375 30.90625 
L 18.109375 0 
L 9.078125 0 
L 9.078125 54.6875 
L 18.109375 54.6875 
L 18.109375 46.1875 
Q 21.1875 51.21875 25.484375 53.609375 
Q 29.78125 56 35.6875 56 
Q 41.65625 56 45.828125 52.96875 
Q 50 49.953125 52 44.1875 
z
" id="DejaVuSans-6d"/>
    </defs>
    <g transform="translate(155.885625 37.2)scale(0.12 -0.12)">
     <use xlink:href="#DejaVuSans-67"/>
     <use x="63.476562" xlink:href="#DejaVuSans-72"/>
     <use x="104.589844" xlink:href="#DejaVuSans-75"/>
     <use x="167.96875" xlink:href="#DejaVuSans-70"/>
     <use x="231.445312" xlink:href="#DejaVuSans-61"/>
     <use x="292.724609" xlink:href="#DejaVuSans-20"/>
     <use x="324.511719" xlink:href="#DejaVuSans-63"/>
     <use x="379.492188" xlink:href="#DejaVuSans-6d"/>
    </g>
   </g>
  </g>
 </g>
 <defs>
  <clipPath id="p6cd0804cad">
   <rect height="277.2" width="279" x="45" y="43.2"/>
  </clipPath>
 </defs>
</svg>
