<?xml version="1.0" encoding="utf-8" standalone="no"?>
<!DOCTYPE svg PUBLIC "-//W3C//DTD SVG 1.1//EN"
  "http://www.w3.org/Graphics/SVG/1.1/DTD/svg11.dtd">
<!-- Created with matplotlib (http://matplotlib.org/) -->
<svg height="360pt" version="1.1" viewBox="0 0 360 360" width="360pt" xmlns="http://www.w3.org/2000/svg" xmlns:xlink="http://www.w3.org/1999/xlink">
 <defs>
  <style type="text/css">
*{stroke-linecap:butt;stroke-linejoin:round;}
  </style>
 </defs>
 <g id="figure_1">
  <g id="patch_1">
   <path d="M 0 360 
L 360 360 
L 360 0 
L 0 0 
z
" style="fill:#ffffff;"/>
  </g>
  <g id="axes_1">
   <g id="patch_2">
    <path d="M 45 320.4 
L 324 320.4 
L 324 43.2 
L 45 43.2 
z
" style="fill:#ffffff;"/>
   </g>
   <g id="matplotlib.axis_1">
    <g id="xtick_1">
     <g id="line2d_1">
      <defs>
       <path d="M 0 0 
L 0 3.5 
" id="m52cd29f132" style="stroke:#000000;stroke-width:0.8;"/>
      </defs>
      <g>
       <use style="stroke:#000000;stroke-width:0.8;" x="45" xlink:href="#m52cd29f132" y="320.4"/>
      </g>
     </g>
     <g id="text_1">
      <!-- −5 -->
      <defs>
       <path d="M 10.59375 35.5 
L 73.1875 35.5 
L 73.1875 27.203125 
L 10.59375 27.203125 
z
" id="DejaVuSans-2212"/>
       <path d="M 10.796875 72.90625 
L 49.515625 72.90625 
L 49.515625 64.59375 
L 19.828125 64.59375 
L 19.828125 46.734375 
Q 21.96875 47.46875 24.109375 47.828125 
Q 26.265625 48.1875 28.421875 48.1875 
Q 40.625 48.1875 47.75 41.5 
Q 54.890625 34.8125 54.890625 23.390625 
Q 54.890625 11.625 47.5625 5.09375 
Q 40.234375 -1.421875 26.90625 -1.421875 
Q 22.3125 -1.421875 17.546875 -0.640625 
Q 12.796875 0.140625 7.71875 1.703125 
L 7.71875 11.625 
Q 12.109375 9.234375 16.796875 8.0625 
Q 21.484375 6.890625 26.703125 6.890625 
Q 35.15625 6.890625 40.078125 11.328125 
Q 45.015625 15.765625 45.015625 23.390625 
Q 45.015625 31 40.078125 35.4375 
Q 35.15625 39.890625 26.703125 39.890625 
Q 22.75 39.890625 18.8125 39.015625 
Q 14.890625 38.140625 10.796875 36.28125 
z
" id="DejaVuSans-35"/>
      </defs>
      <g transform="translate(37.628906 334.998438)scale(0.1 -0.1)">
       <use xlink:href="#DejaVuSans-2212"/>
       <use x="83.789062" xlink:href="#DejaVuSans-35"/>
      </g>
     </g>
    </g>
    <g id="xtick_2">
     <g id="line2d_2">
      <g>
       <use style="stroke:#000000;stroke-width:0.8;" x="72.9" xlink:href="#m52cd29f132" y="320.4"/>
      </g>
     </g>
     <g id="text_2">
      <!-- −4 -->
      <defs>
       <path d="M 37.796875 64.3125 
L 12.890625 25.390625 
L 37.796875 25.390625 
z
M 35.203125 72.90625 
L 47.609375 72.90625 
L 47.609375 25.390625 
L 58.015625 25.390625 
L 58.015625 17.1875 
L 47.609375 17.1875 
L 47.609375 0 
L 37.796875 0 
L 37.796875 17.1875 
L 4.890625 17.1875 
L 4.890625 26.703125 
z
" id="DejaVuSans-34"/>
      </defs>
      <g transform="translate(65.528906 334.998438)scale(0.1 -0.1)">
       <use xlink:href="#DejaVuSans-2212"/>
       <use x="83.789062" xlink:href="#DejaVuSans-34"/>
      </g>
     </g>
    </g>
    <g id="xtick_3">
     <g id="line2d_3">
      <g>
       <use style="stroke:#000000;stroke-width:0.8;" x="100.8" xlink:href="#m52cd29f132" y="320.4"/>
      </g>
     </g>
     <g id="text_3">
      <!-- −3 -->
      <defs>
       <path d="M 40.578125 39.3125 
Q 47.65625 37.796875 51.625 33 
Q 55.609375 28.21875 55.609375 21.1875 
Q 55.609375 10.40625 48.1875 4.484375 
Q 40.765625 -1.421875 27.09375 -1.421875 
Q 22.515625 -1.421875 17.65625 -0.515625 
Q 12.796875 0.390625 7.625 2.203125 
L 7.625 11.71875 
Q 11.71875 9.328125 16.59375 8.109375 
Q 21.484375 6.890625 26.8125 6.890625 
Q 36.078125 6.890625 40.9375 10.546875 
Q 45.796875 14.203125 45.796875 21.1875 
Q 45.796875 27.640625 41.28125 31.265625 
Q 36.765625 34.90625 28.71875 34.90625 
L 20.21875 34.90625 
L 20.21875 43.015625 
L 29.109375 43.015625 
Q 36.375 43.015625 40.234375 45.921875 
Q 44.09375 48.828125 44.09375 54.296875 
Q 44.09375 59.90625 40.109375 62.90625 
Q 36.140625 65.921875 28.71875 65.921875 
Q 24.65625 65.921875 20.015625 65.03125 
Q 15.375 64.15625 9.8125 62.3125 
L 9.8125 71.09375 
Q 15.4375 72.65625 20.34375 73.4375 
Q 25.25 74.21875 29.59375 74.21875 
Q 40.828125 74.21875 47.359375 69.109375 
Q 53.90625 64.015625 53.90625 55.328125 
Q 53.90625 49.265625 50.4375 45.09375 
Q 46.96875 40.921875 40.578125 39.3125 
z
" id="DejaVuSans-33"/>
      </defs>
      <g transform="translate(93.428906 334.998438)scale(0.1 -0.1)">
       <use xlink:href="#DejaVuSans-2212"/>
       <use x="83.789062" xlink:href="#DejaVuSans-33"/>
      </g>
     </g>
    </g>
    <g id="xtick_4">
     <g id="line2d_4">
      <g>
       <use style="stroke:#000000;stroke-width:0.8;" x="128.7" xlink:href="#m52cd29f132" y="320.4"/>
      </g>
     </g>
     <g id="text_4">
      <!-- −2 -->
      <defs>
       <path d="M 19.1875 8.296875 
L 53.609375 8.296875 
L 53.609375 0 
L 7.328125 0 
L 7.328125 8.296875 
Q 12.9375 14.109375 22.625 23.890625 
Q 32.328125 33.6875 34.8125 36.53125 
Q 39.546875 41.84375 41.421875 45.53125 
Q 43.3125 49.21875 43.3125 52.78125 
Q 43.3125 58.59375 39.234375 62.25 
Q 35.15625 65.921875 28.609375 65.921875 
Q 23.96875 65.921875 18.8125 64.3125 
Q 13.671875 62.703125 7.8125 59.421875 
L 7.8125 69.390625 
Q 13.765625 71.78125 18.9375 73 
Q 24.125 74.21875 28.421875 74.21875 
Q 39.75 74.21875 46.484375 68.546875 
Q 53.21875 62.890625 53.21875 53.421875 
Q 53.21875 48.921875 51.53125 44.890625 
Q 49.859375 40.875 45.40625 35.40625 
Q 44.1875 33.984375 37.640625 27.21875 
Q 31.109375 20.453125 19.1875 8.296875 
z
" id="DejaVuSans-32"/>
      </defs>
      <g transform="translate(121.328906 334.998438)scale(0.1 -0.1)">
       <use xlink:href="#DejaVuSans-2212"/>
       <use x="83.789062" xlink:href="#DejaVuSans-32"/>
      </g>
     </g>
    </g>
    <g id="xtick_5">
     <g id="line2d_5">
      <g>
       <use style="stroke:#000000;stroke-width:0.8;" x="156.6" xlink:href="#m52cd29f132" y="320.4"/>
      </g>
     </g>
     <g id="text_5">
      <!-- −1 -->
      <defs>
       <path d="M 12.40625 8.296875 
L 28.515625 8.296875 
L 28.515625 63.921875 
L 10.984375 60.40625 
L 10.984375 69.390625 
L 28.421875 72.90625 
L 38.28125 72.90625 
L 38.28125 8.296875 
L 54.390625 8.296875 
L 54.390625 0 
L 12.40625 0 
z
" id="DejaVuSans-31"/>
      </defs>
      <g transform="translate(149.228906 334.998438)scale(0.1 -0.1)">
       <use xlink:href="#DejaVuSans-2212"/>
       <use x="83.789062" xlink:href="#DejaVuSans-31"/>
      </g>
     </g>
    </g>
    <g id="xtick_6">
     <g id="line2d_6">
      <g>
       <use style="stroke:#000000;stroke-width:0.8;" x="184.5" xlink:href="#m52cd29f132" y="320.4"/>
      </g>
     </g>
     <g id="text_6">
      <!-- 0 -->
      <defs>
       <path d="M 31.78125 66.40625 
Q 24.171875 66.40625 20.328125 58.90625 
Q 16.5 51.421875 16.5 36.375 
Q 16.5 21.390625 20.328125 13.890625 
Q 24.171875 6.390625 31.78125 6.390625 
Q 39.453125 6.390625 43.28125 13.890625 
Q 47.125 21.390625 47.125 36.375 
Q 47.125 51.421875 43.28125 58.90625 
Q 39.453125 66.40625 31.78125 66.40625 
z
M 31.78125 74.21875 
Q 44.046875 74.21875 50.515625 64.515625 
Q 56.984375 54.828125 56.984375 36.375 
Q 56.984375 17.96875 50.515625 8.265625 
Q 44.046875 -1.421875 31.78125 -1.421875 
Q 19.53125 -1.421875 13.0625 8.265625 
Q 6.59375 17.96875 6.59375 36.375 
Q 6.59375 54.828125 13.0625 64.515625 
Q 19.53125 74.21875 31.78125 74.21875 
z
" id="DejaVuSans-30"/>
      </defs>
      <g transform="translate(181.31875 334.998438)scale(0.1 -0.1)">
       <use xlink:href="#DejaVuSans-30"/>
      </g>
     </g>
    </g>
    <g id="xtick_7">
     <g id="line2d_7">
      <g>
       <use style="stroke:#000000;stroke-width:0.8;" x="212.4" xlink:href="#m52cd29f132" y="320.4"/>
      </g>
     </g>
     <g id="text_7">
      <!-- 1 -->
      <g transform="translate(209.21875 334.998438)scale(0.1 -0.1)">
       <use xlink:href="#DejaVuSans-31"/>
      </g>
     </g>
    </g>
    <g id="xtick_8">
     <g id="line2d_8">
      <g>
       <use style="stroke:#000000;stroke-width:0.8;" x="240.3" xlink:href="#m52cd29f132" y="320.4"/>
      </g>
     </g>
     <g id="text_8">
      <!-- 2 -->
      <g transform="translate(237.11875 334.998438)scale(0.1 -0.1)">
       <use xlink:href="#DejaVuSans-32"/>
      </g>
     </g>
    </g>
    <g id="xtick_9">
     <g id="line2d_9">
      <g>
       <use style="stroke:#000000;stroke-width:0.8;" x="268.2" xlink:href="#m52cd29f132" y="320.4"/>
      </g>
     </g>
     <g id="text_9">
      <!-- 3 -->
      <g transform="translate(265.01875 334.998438)scale(0.1 -0.1)">
       <use xlink:href="#DejaVuSans-33"/>
      </g>
     </g>
    </g>
    <g id="xtick_10">
     <g id="line2d_10">
      <g>
       <use style="stroke:#000000;stroke-width:0.8;" x="296.1" xlink:href="#m52cd29f132" y="320.4"/>
      </g>
     </g>
     <g id="text_10">
      <!-- 4 -->
      <g transform="translate(292.91875 334.998438)scale(0.1 -0.1)">
       <use xlink:href="#DejaVuSans-34"/>
      </g>
     </g>
    </g>
    <g id="xtick_11">
     <g id="line2d_11">
      <g>
       <use style="stroke:#000000;stroke-width:0.8;" x="324" xlink:href="#m52cd29f132" y="320.4"/>
      </g>
     </g>
     <g id="text_11">
      <!-- 5 -->
      <g transform="translate(320.81875 334.998438)scale(0.1 -0.1)">
       <use xlink:href="#DejaVuSans-35"/>
      </g>
     </g>
    </g>
   </g>
   <g id="matplotlib.axis_2">
    <g id="ytick_1">
     <g id="line2d_12">
      <defs>
       <path d="M 0 0 
L -3.5 0 
" id="m88a9e1c488" style="stroke:#000000;stroke-width:0.8;"/>
      </defs>
      <g>
       <use style="stroke:#000000;stroke-width:0.8;" x="45" xlink:href="#m88a9e1c488" y="320.4"/>
      </g>
     </g>
     <g id="text_12">
      <!-- −5 -->
      <g transform="translate(23.257812 324.199219)scale(0.1 -0.1)">
       <use xlink:href="#DejaVuSans-2212"/>
       <use x="83.789062" xlink:href="#DejaVuSans-35"/>
      </g>
     </g>
    </g>
    <g id="ytick_2">
     <g id="line2d_13">
      <g>
       <use style="stroke:#000000;stroke-width:0.8;" x="45" xlink:href="#m88a9e1c488" y="292.68"/>
      </g>
     </g>
     <g id="text_13">
      <!-- −4 -->
      <g transform="translate(23.257812 296.479219)scale(0.1 -0.1)">
       <use xlink:href="#DejaVuSans-2212"/>
       <use x="83.789062" xlink:href="#DejaVuSans-34"/>
      </g>
     </g>
    </g>
    <g id="ytick_3">
     <g id="line2d_14">
      <g>
       <use style="stroke:#000000;stroke-width:0.8;" x="45" xlink:href="#m88a9e1c488" y="264.96"/>
      </g>
     </g>
     <g id="text_14">
      <!-- −3 -->
      <g transform="translate(23.257812 268.759219)scale(0.1 -0.1)">
       <use xlink:href="#DejaVuSans-2212"/>
       <use x="83.789062" xlink:href="#DejaVuSans-33"/>
      </g>
     </g>
    </g>
    <g id="ytick_4">
     <g id="line2d_15">
      <g>
       <use style="stroke:#000000;stroke-width:0.8;" x="45" xlink:href="#m88a9e1c488" y="237.24"/>
      </g>
     </g>
     <g id="text_15">
      <!-- −2 -->
      <g transform="translate(23.257812 241.039219)scale(0.1 -0.1)">
       <use xlink:href="#DejaVuSans-2212"/>
       <use x="83.789062" xlink:href="#DejaVuSans-32"/>
      </g>
     </g>
    </g>
    <g id="ytick_5">
     <g id="line2d_16">
      <g>
       <use style="stroke:#000000;stroke-width:0.8;" x="45" xlink:href="#m88a9e1c488" y="209.52"/>
      </g>
     </g>
     <g id="text_16">
      <!-- −1 -->
      <g transform="translate(23.257812 213.319219)scale(0.1 -0.1)">
       <use xlink:href="#DejaVuSans-2212"/>
       <use x="83.789062" xlink:href="#DejaVuSans-31"/>
      </g>
     </g>
    </g>
    <g id="ytick_6">
     <g id="line2d_17">
      <g>
       <use style="stroke:#000000;stroke-width:0.8;" x="45" xlink:href="#m88a9e1c488" y="181.8"/>
      </g>
     </g>
     <g id="text_17">
      <!-- 0 -->
      <g transform="translate(31.6375 185.599219)scale(0.1 -0.1)">
       <use xlink:href="#DejaVuSans-30"/>
      </g>
     </g>
    </g>
    <g id="ytick_7">
     <g id="line2d_18">
      <g>
       <use style="stroke:#000000;stroke-width:0.8;" x="45" xlink:href="#m88a9e1c488" y="154.08"/>
      </g>
     </g>
     <g id="text_18">
      <!-- 1 -->
      <g transform="translate(31.6375 157.879219)scale(0.1 -0.1)">
       <use xlink:href="#DejaVuSans-31"/>
      </g>
     </g>
    </g>
    <g id="ytick_8">
     <g id="line2d_19">
      <g>
       <use style="stroke:#000000;stroke-width:0.8;" x="45" xlink:href="#m88a9e1c488" y="126.36"/>
      </g>
     </g>
     <g id="text_19">
      <!-- 2 -->
      <g transform="translate(31.6375 130.159219)scale(0.1 -0.1)">
       <use xlink:href="#DejaVuSans-32"/>
      </g>
     </g>
    </g>
    <g id="ytick_9">
     <g id="line2d_20">
      <g>
       <use style="stroke:#000000;stroke-width:0.8;" x="45" xlink:href="#m88a9e1c488" y="98.64"/>
      </g>
     </g>
     <g id="text_20">
      <!-- 3 -->
      <g transform="translate(31.6375 102.439219)scale(0.1 -0.1)">
       <use xlink:href="#DejaVuSans-33"/>
      </g>
     </g>
    </g>
    <g id="ytick_10">
     <g id="line2d_21">
      <g>
       <use style="stroke:#000000;stroke-width:0.8;" x="45" xlink:href="#m88a9e1c488" y="70.92"/>
      </g>
     </g>
     <g id="text_21">
      <!-- 4 -->
      <g transform="translate(31.6375 74.719219)scale(0.1 -0.1)">
       <use xlink:href="#DejaVuSans-34"/>
      </g>
     </g>
    </g>
    <g id="ytick_11">
     <g id="line2d_22">
      <g>
       <use style="stroke:#000000;stroke-width:0.8;" x="45" xlink:href="#m88a9e1c488" y="43.2"/>
      </g>
     </g>
     <g id="text_22">
      <!-- 5 -->
      <g transform="translate(31.6375 46.999219)scale(0.1 -0.1)">
       <use xlink:href="#DejaVuSans-35"/>
      </g>
     </g>
    </g>
   </g>
   <g id="patch_3">
    <path clip-path="url(#p23cf03e275)" d="M 185.895 180.414 
L 206.82 173.484 
L 220.77 180.414 
L 206.82 169.326 
L 185.895 180.414 
" style="fill:#00ffff;opacity:0.3;stroke:#000000;stroke-linejoin:miter;"/>
   </g>
   <g id="patch_4">
    <path clip-path="url(#p23cf03e275)" d="M 212.910605 135.680863 
L 208.488633 157.150531 
L 195.473105 165.688643 
L 212.112949 159.229531 
L 212.910605 135.680863 
" style="fill:#00ffff;opacity:0.3;stroke:#000000;stroke-linejoin:miter;"/>
   </g>
   <g id="patch_5">
    <path clip-path="url(#p23cf03e275)" d="M 238.394395 181.292689 
L 221.891367 166.753021 
L 220.956895 151.284909 
L 218.267051 168.832021 
L 238.394395 181.292689 
" style="fill:#00ffff;opacity:0.3;stroke:#000000;stroke-linejoin:miter;"/>
   </g>
   <g id="patch_6">
    <path clip-path="url(#p23cf03e275)" d="M 238.394395 182.307311 
L 221.891367 196.846979 
L 220.956895 212.315091 
L 218.267051 194.767979 
L 238.394395 182.307311 
" style="fill:#00ffff;opacity:0.3;stroke:#000000;stroke-linejoin:miter;"/>
   </g>
   <g id="patch_7">
    <path clip-path="url(#p23cf03e275)" d="M 185.010605 179.906689 
L 180.588633 158.437021 
L 167.573105 149.898909 
L 184.212949 156.358021 
L 185.010605 179.906689 
" style="fill:#00ffff;opacity:0.3;stroke:#000000;stroke-linejoin:miter;"/>
   </g>
   <g id="patch_8">
    <path clip-path="url(#p23cf03e275)" d="M 213.795 135.173552 
L 234.72 142.103552 
L 248.67 135.173552 
L 234.72 146.261552 
L 213.795 135.173552 
" style="fill:#00ffff;opacity:0.3;stroke:#000000;stroke-linejoin:miter;"/>
   </g>
   <g id="patch_9">
    <path clip-path="url(#p23cf03e275)" d="M 213.795 228.426448 
L 234.72 221.496448 
L 248.67 228.426448 
L 234.72 217.338448 
L 213.795 228.426448 
" style="fill:#00ffff;opacity:0.3;stroke:#000000;stroke-linejoin:miter;"/>
   </g>
   <g id="patch_10">
    <path clip-path="url(#p23cf03e275)" d="M 157.110605 135.680863 
L 152.688633 157.150531 
L 139.673105 165.688643 
L 156.312949 159.229531 
L 157.110605 135.680863 
" style="fill:#00ffff;opacity:0.3;stroke:#000000;stroke-linejoin:miter;"/>
   </g>
   <g id="patch_11">
    <path clip-path="url(#p23cf03e275)" d="M 266.294395 133.28024 
L 249.791367 118.740572 
L 248.856895 103.27246 
L 246.167051 120.819572 
L 266.294395 133.28024 
" style="fill:#00ffff;opacity:0.3;stroke:#000000;stroke-linejoin:miter;"/>
   </g>
   <g id="patch_12">
    <path clip-path="url(#p23cf03e275)" d="M 266.294395 230.31976 
L 249.791367 244.859428 
L 248.856895 260.32754 
L 246.167051 242.780428 
L 266.294395 230.31976 
" style="fill:#00ffff;opacity:0.3;stroke:#000000;stroke-linejoin:miter;"/>
   </g>
   <g id="patch_13">
    <path clip-path="url(#p23cf03e275)" d="M 129.210605 179.906689 
L 124.788633 158.437021 
L 111.773105 149.898909 
L 128.412949 156.358021 
L 129.210605 179.906689 
" style="fill:#00ffff;opacity:0.3;stroke:#000000;stroke-linejoin:miter;"/>
   </g>
   <g id="patch_14">
    <path clip-path="url(#p23cf03e275)" d="M 241.695 87.161103 
L 262.62 94.091103 
L 276.57 87.161103 
L 262.62 98.249103 
L 241.695 87.161103 
" style="fill:#00ffff;opacity:0.3;stroke:#000000;stroke-linejoin:miter;"/>
   </g>
   <g id="patch_15">
    <path clip-path="url(#p23cf03e275)" d="M 241.695 276.438897 
L 262.62 269.508897 
L 276.57 276.438897 
L 262.62 265.350897 
L 241.695 276.438897 
" style="fill:#00ffff;opacity:0.3;stroke:#000000;stroke-linejoin:miter;"/>
   </g>
   <g id="patch_16">
    <path clip-path="url(#p23cf03e275)" d="M 101.310605 135.680863 
L 96.888633 157.150531 
L 83.873105 165.688643 
L 100.512949 159.229531 
L 101.310605 135.680863 
" style="fill:#00ffff;opacity:0.3;stroke:#000000;stroke-linejoin:miter;"/>
   </g>
   <g id="patch_17">
    <path clip-path="url(#p23cf03e275)" d="M 294.194395 85.267792 
L 277.691367 70.728124 
L 276.756895 55.260012 
L 274.067051 72.807124 
L 294.194395 85.267792 
" style="fill:#00ffff;opacity:0.3;stroke:#000000;stroke-linejoin:miter;"/>
   </g>
   <g id="patch_18">
    <path clip-path="url(#p23cf03e275)" d="M 294.194395 278.332208 
L 277.691367 292.871876 
L 276.756895 308.339988 
L 274.067051 290.792876 
L 294.194395 278.332208 
" style="fill:#00ffff;opacity:0.3;stroke:#000000;stroke-linejoin:miter;"/>
   </g>
   <g id="patch_19">
    <path clip-path="url(#p23cf03e275)" d="M 73.410605 179.906689 
L 68.988633 158.437021 
L 55.973105 149.898909 
L 72.612949 156.358021 
L 73.410605 179.906689 
" style="fill:#00ffff;opacity:0.3;stroke:#000000;stroke-linejoin:miter;"/>
   </g>
   <g id="patch_20">
    <path clip-path="url(#p23cf03e275)" d="M 269.595 39.148655 
L 290.52 46.078655 
L 304.47 39.148655 
L 290.52 50.236655 
L 269.595 39.148655 
" style="fill:#00ffff;opacity:0.3;stroke:#000000;stroke-linejoin:miter;"/>
   </g>
   <g id="patch_21">
    <path clip-path="url(#p23cf03e275)" d="M 269.595 324.451345 
L 290.52 317.521345 
L 304.47 324.451345 
L 290.52 313.363345 
L 269.595 324.451345 
" style="fill:#00ffff;opacity:0.3;stroke:#000000;stroke-linejoin:miter;"/>
   </g>
   <g id="patch_22">
    <path clip-path="url(#p23cf03e275)" d="M 45.510605 135.680863 
L 41.088633 157.150531 
L 28.073105 165.688643 
L 44.712949 159.229531 
L 45.510605 135.680863 
" style="fill:#00ffff;opacity:0.3;stroke:#000000;stroke-linejoin:miter;"/>
   </g>
   <g id="patch_23">
    <path clip-path="url(#p23cf03e275)" d="M 322.094395 37.255344 
L 305.591367 22.715675 
L 304.656895 7.247563 
L 301.967051 24.794675 
L 322.094395 37.255344 
" style="fill:#00ffff;opacity:0.3;stroke:#000000;stroke-linejoin:miter;"/>
   </g>
   <g id="patch_24">
    <path clip-path="url(#p23cf03e275)" d="M 322.094395 326.344656 
L 305.591367 340.884325 
L 304.656895 356.352437 
L 301.967051 338.805325 
L 322.094395 326.344656 
" style="fill:#00ffff;opacity:0.3;stroke:#000000;stroke-linejoin:miter;"/>
   </g>
   <g id="patch_25">
    <path clip-path="url(#p23cf03e275)" d="M 17.610605 179.906689 
L 13.188633 158.437021 
L 0.173105 149.898909 
L 16.812949 156.358021 
L 17.610605 179.906689 
" style="fill:#00ffff;opacity:0.3;stroke:#000000;stroke-linejoin:miter;"/>
   </g>
   <g id="patch_26">
    <path clip-path="url(#p23cf03e275)" d="M 45.510605 227.919137 
L 41.088633 206.449469 
L 28.073105 197.911357 
L 44.712949 204.370469 
L 45.510605 227.919137 
" style="fill:#00ffff;opacity:0.3;stroke:#000000;stroke-linejoin:miter;"/>
   </g>
   <g id="patch_27">
    <path clip-path="url(#p23cf03e275)" d="M 241.695 -8.863794 
L 262.62 -1.933794 
L 276.57 -8.863794 
L 262.62 2.224206 
L 241.695 -8.863794 
" style="fill:#00ffff;opacity:0.3;stroke:#000000;stroke-linejoin:miter;"/>
   </g>
   <g id="patch_28">
    <path clip-path="url(#p23cf03e275)" d="M 73.410605 183.693311 
L 68.988633 205.162979 
L 55.973105 213.701091 
L 72.612949 207.241979 
L 73.410605 183.693311 
" style="fill:#00ffff;opacity:0.3;stroke:#000000;stroke-linejoin:miter;"/>
   </g>
   <g id="patch_29">
    <path clip-path="url(#p23cf03e275)" d="M 266.294395 37.255344 
L 249.791367 22.715675 
L 248.856895 7.247563 
L 246.167051 24.794675 
L 266.294395 37.255344 
" style="fill:#00ffff;opacity:0.3;stroke:#000000;stroke-linejoin:miter;"/>
   </g>
   <g id="patch_30">
    <path clip-path="url(#p23cf03e275)" d="M 297.495 276.438897 
L 318.42 269.508897 
L 332.37 276.438897 
L 318.42 265.350897 
L 297.495 276.438897 
" style="fill:#00ffff;opacity:0.3;stroke:#000000;stroke-linejoin:miter;"/>
   </g>
   <g id="patch_31">
    <path clip-path="url(#p23cf03e275)" d="M 297.495 87.161103 
L 318.42 94.091103 
L 332.37 87.161103 
L 318.42 98.249103 
L 297.495 87.161103 
" style="fill:#00ffff;opacity:0.3;stroke:#000000;stroke-linejoin:miter;"/>
   </g>
   <g id="patch_32">
    <path clip-path="url(#p23cf03e275)" d="M 238.394395 278.332208 
L 221.891367 292.871876 
L 220.956895 308.339988 
L 218.267051 290.792876 
L 238.394395 278.332208 
" style="fill:#00ffff;opacity:0.3;stroke:#000000;stroke-linejoin:miter;"/>
   </g>
   <g id="patch_33">
    <path clip-path="url(#p23cf03e275)" d="M 101.310605 131.89424 
L 96.888633 110.424572 
L 83.873105 101.88646 
L 100.512949 108.345572 
L 101.310605 131.89424 
" style="fill:#00ffff;opacity:0.3;stroke:#000000;stroke-linejoin:miter;"/>
   </g>
   <g id="patch_34">
    <path clip-path="url(#p23cf03e275)" d="M 101.310605 231.70576 
L 96.888633 253.175428 
L 83.873105 261.71354 
L 100.512949 255.254428 
L 101.310605 231.70576 
" style="fill:#00ffff;opacity:0.3;stroke:#000000;stroke-linejoin:miter;"/>
   </g>
   <g id="patch_35">
    <path clip-path="url(#p23cf03e275)" d="M 210.494395 37.255344 
L 193.991367 22.715675 
L 193.056895 7.247563 
L 190.367051 24.794675 
L 210.494395 37.255344 
" style="fill:#00ffff;opacity:0.3;stroke:#000000;stroke-linejoin:miter;"/>
   </g>
   <g id="patch_36">
    <path clip-path="url(#p23cf03e275)" d="M 325.395 228.426448 
L 346.32 221.496448 
L 360.27 228.426448 
L 346.32 217.338448 
L 325.395 228.426448 
" style="fill:#00ffff;opacity:0.3;stroke:#000000;stroke-linejoin:miter;"/>
   </g>
   <g id="patch_37">
    <path clip-path="url(#p23cf03e275)" d="M 325.395 135.173552 
L 346.32 142.103552 
L 360.27 135.173552 
L 346.32 146.261552 
L 325.395 135.173552 
" style="fill:#00ffff;opacity:0.3;stroke:#000000;stroke-linejoin:miter;"/>
   </g>
   <g id="patch_38">
    <path clip-path="url(#p23cf03e275)" d="M 182.594395 278.332208 
L 166.091367 292.871876 
L 165.156895 308.339988 
L 162.467051 290.792876 
L 182.594395 278.332208 
" style="fill:#00ffff;opacity:0.3;stroke:#000000;stroke-linejoin:miter;"/>
   </g>
   <g id="patch_39">
    <path clip-path="url(#p23cf03e275)" d="M 129.210605 83.881792 
L 124.788633 62.412124 
L 111.773105 53.874012 
L 128.412949 60.333124 
L 129.210605 83.881792 
" style="fill:#00ffff;opacity:0.3;stroke:#000000;stroke-linejoin:miter;"/>
   </g>
   <g id="patch_40">
    <path clip-path="url(#p23cf03e275)" d="M 129.210605 279.718208 
L 124.788633 301.187876 
L 111.773105 309.725988 
L 128.412949 303.266876 
L 129.210605 279.718208 
" style="fill:#00ffff;opacity:0.3;stroke:#000000;stroke-linejoin:miter;"/>
   </g>
   <g id="patch_41">
    <path clip-path="url(#p23cf03e275)" d="M 154.694395 37.255344 
L 138.191367 22.715675 
L 137.256895 7.247563 
L 134.567051 24.794675 
L 154.694395 37.255344 
" style="fill:#00ffff;opacity:0.3;stroke:#000000;stroke-linejoin:miter;"/>
   </g>
   <g id="patch_42">
    <path clip-path="url(#p23cf03e275)" d="M 353.295 180.414 
L 374.22 173.484 
L 388.17 180.414 
L 374.22 169.326 
L 353.295 180.414 
" style="fill:#00ffff;opacity:0.3;stroke:#000000;stroke-linejoin:miter;"/>
   </g>
   <g id="patch_43">
    <path clip-path="url(#p23cf03e275)" d="M 154.694395 326.344656 
L 138.191367 340.884325 
L 137.256895 356.352437 
L 134.567051 338.805325 
L 154.694395 326.344656 
" style="fill:#00ffff;opacity:0.3;stroke:#000000;stroke-linejoin:miter;"/>
   </g>
   <g id="patch_44">
    <path clip-path="url(#p23cf03e275)" d="M 101.310605 35.869344 
L 96.888633 14.399675 
L 83.873105 5.861563 
L 100.512949 12.320675 
L 101.310605 35.869344 
" style="fill:#00ffff;opacity:0.3;stroke:#000000;stroke-linejoin:miter;"/>
   </g>
   <g id="patch_45">
    <path clip-path="url(#p23cf03e275)" d="M 381.195 135.173552 
L 402.12 142.103552 
L 416.07 135.173552 
L 402.12 146.261552 
L 381.195 135.173552 
" style="fill:#00ffff;opacity:0.3;stroke:#000000;stroke-linejoin:miter;"/>
   </g>
   <g id="patch_46">
    <path clip-path="url(#p23cf03e275)" d="M 101.310605 327.730656 
L 96.888633 349.200325 
L 83.873105 357.738437 
L 100.512949 351.279325 
L 101.310605 327.730656 
" style="fill:#00ffff;opacity:0.3;stroke:#000000;stroke-linejoin:miter;"/>
   </g>
   <g id="patch_47">
    <path clip-path="url(#p23cf03e275)" d="M 126.794395 -10.757105 
L 110.291367 -25.296773 
L 109.356895 -40.764885 
L 106.667051 -23.217773 
L 126.794395 -10.757105 
" style="fill:#00ffff;opacity:0.3;stroke:#000000;stroke-linejoin:miter;"/>
   </g>
   <g id="patch_48">
    <path clip-path="url(#p23cf03e275)" d="M 182.594395 85.267792 
L 166.091367 70.728124 
L 165.156895 55.260012 
L 162.467051 72.807124 
L 182.594395 85.267792 
" style="fill:#00ffff;opacity:0.3;stroke:#000000;stroke-linejoin:miter;"/>
   </g>
   <g id="patch_49">
    <path clip-path="url(#p23cf03e275)" d="M 297.495 180.414 
L 318.42 173.484 
L 332.37 180.414 
L 318.42 169.326 
L 297.495 180.414 
" style="fill:#00ffff;opacity:0.3;stroke:#000000;stroke-linejoin:miter;"/>
   </g>
   <g id="patch_50">
    <path clip-path="url(#p23cf03e275)" d="M 157.110605 231.70576 
L 152.688633 253.175428 
L 139.673105 261.71354 
L 156.312949 255.254428 
L 157.110605 231.70576 
" style="fill:#00ffff;opacity:0.3;stroke:#000000;stroke-linejoin:miter;"/>
   </g>
   <g id="patch_51">
    <path clip-path="url(#p23cf03e275)" d="M 157.110605 131.89424 
L 152.688633 110.424572 
L 139.673105 101.88646 
L 156.312949 108.345572 
L 157.110605 131.89424 
" style="fill:#00ffff;opacity:0.3;stroke:#000000;stroke-linejoin:miter;"/>
   </g>
   <g id="patch_52">
    <path clip-path="url(#p23cf03e275)" d="M 269.595 135.173552 
L 290.52 142.103552 
L 304.47 135.173552 
L 290.52 146.261552 
L 269.595 135.173552 
" style="fill:#00ffff;opacity:0.3;stroke:#000000;stroke-linejoin:miter;"/>
   </g>
   <g id="patch_53">
    <path clip-path="url(#p23cf03e275)" d="M 210.494395 230.31976 
L 193.991367 244.859428 
L 193.056895 260.32754 
L 190.367051 242.780428 
L 210.494395 230.31976 
" style="fill:#00ffff;opacity:0.3;stroke:#000000;stroke-linejoin:miter;"/>
   </g>
   <g id="patch_54">
    <path clip-path="url(#p23cf03e275)" d="M 210.494395 133.28024 
L 193.991367 118.740572 
L 193.056895 103.27246 
L 190.367051 120.819572 
L 210.494395 133.28024 
" style="fill:#00ffff;opacity:0.3;stroke:#000000;stroke-linejoin:miter;"/>
   </g>
   <g id="patch_55">
    <path clip-path="url(#p23cf03e275)" d="M 241.695 180.414 
L 262.62 173.484 
L 276.57 180.414 
L 262.62 169.326 
L 241.695 180.414 
" style="fill:#00ffff;opacity:0.3;stroke:#000000;stroke-linejoin:miter;"/>
   </g>
   <g id="patch_56">
    <path clip-path="url(#p23cf03e275)" d="M 185.010605 183.693311 
L 180.588633 205.162979 
L 167.573105 213.701091 
L 184.212949 207.241979 
L 185.010605 183.693311 
" style="fill:#00ffff;opacity:0.3;stroke:#000000;stroke-linejoin:miter;"/>
   </g>
   <g id="patch_57">
    <path clip-path="url(#p23cf03e275)" d="M 241.695 183.186 
L 262.62 190.116 
L 276.57 183.186 
L 262.62 194.274 
L 241.695 183.186 
" style="fill:#00ffff;opacity:0.3;stroke:#000000;stroke-linejoin:miter;"/>
   </g>
   <g id="patch_58">
    <path clip-path="url(#p23cf03e275)" d="M 182.594395 182.307311 
L 166.091367 196.846979 
L 165.156895 212.315091 
L 162.467051 194.767979 
L 182.594395 182.307311 
" style="fill:#00ffff;opacity:0.3;stroke:#000000;stroke-linejoin:miter;"/>
   </g>
   <g id="patch_59">
    <path clip-path="url(#p23cf03e275)" d="M 212.910605 131.89424 
L 208.488633 110.424572 
L 195.473105 101.88646 
L 212.112949 108.345572 
L 212.910605 131.89424 
" style="fill:#00ffff;opacity:0.3;stroke:#000000;stroke-linejoin:miter;"/>
   </g>
   <g id="patch_60">
    <path clip-path="url(#p23cf03e275)" d="M 212.910605 231.70576 
L 208.488633 253.175428 
L 195.473105 261.71354 
L 212.112949 255.254428 
L 212.910605 231.70576 
" style="fill:#00ffff;opacity:0.3;stroke:#000000;stroke-linejoin:miter;"/>
   </g>
   <g id="patch_61">
    <path clip-path="url(#p23cf03e275)" d="M 154.694395 133.28024 
L 138.191367 118.740572 
L 137.256895 103.27246 
L 134.567051 120.819572 
L 154.694395 133.28024 
" style="fill:#00ffff;opacity:0.3;stroke:#000000;stroke-linejoin:miter;"/>
   </g>
   <g id="patch_62">
    <path clip-path="url(#p23cf03e275)" d="M 269.595 132.401552 
L 290.52 125.471552 
L 304.47 132.401552 
L 290.52 121.313552 
L 269.595 132.401552 
" style="fill:#00ffff;opacity:0.3;stroke:#000000;stroke-linejoin:miter;"/>
   </g>
   <g id="patch_63">
    <path clip-path="url(#p23cf03e275)" d="M 269.595 231.198448 
L 290.52 238.128448 
L 304.47 231.198448 
L 290.52 242.286448 
L 269.595 231.198448 
" style="fill:#00ffff;opacity:0.3;stroke:#000000;stroke-linejoin:miter;"/>
   </g>
   <g id="patch_64">
    <path clip-path="url(#p23cf03e275)" d="M 126.794395 182.307311 
L 110.291367 196.846979 
L 109.356895 212.315091 
L 106.667051 194.767979 
L 126.794395 182.307311 
" style="fill:#00ffff;opacity:0.3;stroke:#000000;stroke-linejoin:miter;"/>
   </g>
   <g id="patch_65">
    <path clip-path="url(#p23cf03e275)" d="M 240.810605 83.881792 
L 236.388633 62.412124 
L 223.373105 53.874012 
L 240.012949 60.333124 
L 240.810605 83.881792 
" style="fill:#00ffff;opacity:0.3;stroke:#000000;stroke-linejoin:miter;"/>
   </g>
   <g id="patch_66">
    <path clip-path="url(#p23cf03e275)" d="M 240.810605 279.718208 
L 236.388633 301.187876 
L 223.373105 309.725988 
L 240.012949 303.266876 
L 240.810605 279.718208 
" style="fill:#00ffff;opacity:0.3;stroke:#000000;stroke-linejoin:miter;"/>
   </g>
   <g id="patch_67">
    <path clip-path="url(#p23cf03e275)" d="M 98.894395 133.28024 
L 82.391367 118.740572 
L 81.456895 103.27246 
L 78.767051 120.819572 
L 98.894395 133.28024 
" style="fill:#00ffff;opacity:0.3;stroke:#000000;stroke-linejoin:miter;"/>
   </g>
   <g id="patch_68">
    <path clip-path="url(#p23cf03e275)" d="M 297.495 84.389103 
L 318.42 77.459103 
L 332.37 84.389103 
L 318.42 73.301103 
L 297.495 84.389103 
" style="fill:#00ffff;opacity:0.3;stroke:#000000;stroke-linejoin:miter;"/>
   </g>
   <g id="patch_69">
    <path clip-path="url(#p23cf03e275)" d="M 297.495 279.210897 
L 318.42 286.140897 
L 332.37 279.210897 
L 318.42 290.298897 
L 297.495 279.210897 
" style="fill:#00ffff;opacity:0.3;stroke:#000000;stroke-linejoin:miter;"/>
   </g>
   <g id="patch_70">
    <path clip-path="url(#p23cf03e275)" d="M 70.994395 182.307311 
L 54.491367 196.846979 
L 53.556895 212.315091 
L 50.867051 194.767979 
L 70.994395 182.307311 
" style="fill:#00ffff;opacity:0.3;stroke:#000000;stroke-linejoin:miter;"/>
   </g>
   <g id="patch_71">
    <path clip-path="url(#p23cf03e275)" d="M 268.710605 35.869344 
L 264.288633 14.399675 
L 251.273105 5.861563 
L 267.912949 12.320675 
L 268.710605 35.869344 
" style="fill:#00ffff;opacity:0.3;stroke:#000000;stroke-linejoin:miter;"/>
   </g>
   <g id="patch_72">
    <path clip-path="url(#p23cf03e275)" d="M 268.710605 327.730656 
L 264.288633 349.200325 
L 251.273105 357.738437 
L 267.912949 351.279325 
L 268.710605 327.730656 
" style="fill:#00ffff;opacity:0.3;stroke:#000000;stroke-linejoin:miter;"/>
   </g>
   <g id="patch_73">
    <path clip-path="url(#p23cf03e275)" d="M 43.094395 133.28024 
L 26.591367 118.740572 
L 25.656895 103.27246 
L 22.967051 120.819572 
L 43.094395 133.28024 
" style="fill:#00ffff;opacity:0.3;stroke:#000000;stroke-linejoin:miter;"/>
   </g>
   <g id="patch_74">
    <path clip-path="url(#p23cf03e275)" d="M 325.395 36.376655 
L 346.32 29.446655 
L 360.27 36.376655 
L 346.32 25.288655 
L 325.395 36.376655 
" style="fill:#00ffff;opacity:0.3;stroke:#000000;stroke-linejoin:miter;"/>
   </g>
   <g id="patch_75">
    <path clip-path="url(#p23cf03e275)" d="M 325.395 327.223345 
L 346.32 334.153345 
L 360.27 327.223345 
L 346.32 338.311345 
L 325.395 327.223345 
" style="fill:#00ffff;opacity:0.3;stroke:#000000;stroke-linejoin:miter;"/>
   </g>
   <g id="patch_76">
    <path clip-path="url(#p23cf03e275)" d="M 15.194395 182.307311 
L -1.308633 196.846979 
L -2.243105 212.315091 
L -4.932949 194.767979 
L 15.194395 182.307311 
" style="fill:#00ffff;opacity:0.3;stroke:#000000;stroke-linejoin:miter;"/>
   </g>
   <g id="patch_77">
    <path clip-path="url(#p23cf03e275)" d="M 296.610605 -12.143105 
L 292.188633 -33.612773 
L 279.173105 -42.150885 
L 295.812949 -35.691773 
L 296.610605 -12.143105 
" style="fill:#00ffff;opacity:0.3;stroke:#000000;stroke-linejoin:miter;"/>
   </g>
   <g id="patch_78">
    <path clip-path="url(#p23cf03e275)" d="M 15.194395 181.292689 
L -1.308633 166.753021 
L -2.243105 151.284909 
L -4.932949 168.832021 
L 15.194395 181.292689 
" style="fill:#00ffff;opacity:0.3;stroke:#000000;stroke-linejoin:miter;"/>
   </g>
   <g id="patch_79">
    <path clip-path="url(#p23cf03e275)" d="M 297.495 -11.635794 
L 318.42 -18.565794 
L 332.37 -11.635794 
L 318.42 -22.723794 
L 297.495 -11.635794 
" style="fill:#00ffff;opacity:0.3;stroke:#000000;stroke-linejoin:miter;"/>
   </g>
   <g id="patch_80">
    <path clip-path="url(#p23cf03e275)" d="M 43.094395 230.31976 
L 26.591367 244.859428 
L 25.656895 260.32754 
L 22.967051 242.780428 
L 43.094395 230.31976 
" style="fill:#00ffff;opacity:0.3;stroke:#000000;stroke-linejoin:miter;"/>
   </g>
   <g id="patch_81">
    <path clip-path="url(#p23cf03e275)" d="M 240.810605 -12.143105 
L 236.388633 -33.612773 
L 223.373105 -42.150885 
L 240.012949 -35.691773 
L 240.810605 -12.143105 
" style="fill:#00ffff;opacity:0.3;stroke:#000000;stroke-linejoin:miter;"/>
   </g>
   <g id="patch_82">
    <path clip-path="url(#p23cf03e275)" d="M 70.994395 181.292689 
L 54.491367 166.753021 
L 53.556895 151.284909 
L 50.867051 168.832021 
L 70.994395 181.292689 
" style="fill:#00ffff;opacity:0.3;stroke:#000000;stroke-linejoin:miter;"/>
   </g>
   <g id="patch_83">
    <path clip-path="url(#p23cf03e275)" d="M 269.595 36.376655 
L 290.52 29.446655 
L 304.47 36.376655 
L 290.52 25.288655 
L 269.595 36.376655 
" style="fill:#00ffff;opacity:0.3;stroke:#000000;stroke-linejoin:miter;"/>
   </g>
   <g id="patch_84">
    <path clip-path="url(#p23cf03e275)" d="M 296.610605 279.718208 
L 292.188633 301.187876 
L 279.173105 309.725988 
L 295.812949 303.266876 
L 296.610605 279.718208 
" style="fill:#00ffff;opacity:0.3;stroke:#000000;stroke-linejoin:miter;"/>
   </g>
   <g id="patch_85">
    <path clip-path="url(#p23cf03e275)" d="M 296.610605 83.881792 
L 292.188633 62.412124 
L 279.173105 53.874012 
L 295.812949 60.333124 
L 296.610605 83.881792 
" style="fill:#00ffff;opacity:0.3;stroke:#000000;stroke-linejoin:miter;"/>
   </g>
   <g id="patch_86">
    <path clip-path="url(#p23cf03e275)" d="M 241.695 279.210897 
L 262.62 286.140897 
L 276.57 279.210897 
L 262.62 290.298897 
L 241.695 279.210897 
" style="fill:#00ffff;opacity:0.3;stroke:#000000;stroke-linejoin:miter;"/>
   </g>
   <g id="patch_87">
    <path clip-path="url(#p23cf03e275)" d="M 98.894395 134.294863 
L 82.391367 148.834531 
L 81.456895 164.302643 
L 78.767051 146.755531 
L 98.894395 134.294863 
" style="fill:#00ffff;opacity:0.3;stroke:#000000;stroke-linejoin:miter;"/>
   </g>
   <g id="patch_88">
    <path clip-path="url(#p23cf03e275)" d="M 98.894395 229.305137 
L 82.391367 214.765469 
L 81.456895 199.297357 
L 78.767051 216.844469 
L 98.894395 229.305137 
" style="fill:#00ffff;opacity:0.3;stroke:#000000;stroke-linejoin:miter;"/>
   </g>
   <g id="patch_89">
    <path clip-path="url(#p23cf03e275)" d="M 213.795 36.376655 
L 234.72 29.446655 
L 248.67 36.376655 
L 234.72 25.288655 
L 213.795 36.376655 
" style="fill:#00ffff;opacity:0.3;stroke:#000000;stroke-linejoin:miter;"/>
   </g>
   <g id="patch_90">
    <path clip-path="url(#p23cf03e275)" d="M 324.510605 231.70576 
L 320.088633 253.175428 
L 307.073105 261.71354 
L 323.712949 255.254428 
L 324.510605 231.70576 
" style="fill:#00ffff;opacity:0.3;stroke:#000000;stroke-linejoin:miter;"/>
   </g>
   <g id="patch_91">
    <path clip-path="url(#p23cf03e275)" d="M 324.510605 131.89424 
L 320.088633 110.424572 
L 307.073105 101.88646 
L 323.712949 108.345572 
L 324.510605 131.89424 
" style="fill:#00ffff;opacity:0.3;stroke:#000000;stroke-linejoin:miter;"/>
   </g>
   <g id="patch_92">
    <path clip-path="url(#p23cf03e275)" d="M 185.895 279.210897 
L 206.82 286.140897 
L 220.77 279.210897 
L 206.82 290.298897 
L 185.895 279.210897 
" style="fill:#00ffff;opacity:0.3;stroke:#000000;stroke-linejoin:miter;"/>
   </g>
   <g id="patch_93">
    <path clip-path="url(#p23cf03e275)" d="M 126.794395 86.282414 
L 110.291367 100.822083 
L 109.356895 116.290195 
L 106.667051 98.743083 
L 126.794395 86.282414 
" style="fill:#00ffff;opacity:0.3;stroke:#000000;stroke-linejoin:miter;"/>
   </g>
   <g id="patch_94">
    <path clip-path="url(#p23cf03e275)" d="M 126.794395 277.317586 
L 110.291367 262.777917 
L 109.356895 247.309805 
L 106.667051 264.856917 
L 126.794395 277.317586 
" style="fill:#00ffff;opacity:0.3;stroke:#000000;stroke-linejoin:miter;"/>
   </g>
   <g id="patch_95">
    <path clip-path="url(#p23cf03e275)" d="M 157.995 36.376655 
L 178.92 29.446655 
L 192.87 36.376655 
L 178.92 25.288655 
L 157.995 36.376655 
" style="fill:#00ffff;opacity:0.3;stroke:#000000;stroke-linejoin:miter;"/>
   </g>
   <g id="patch_96">
    <path clip-path="url(#p23cf03e275)" d="M 352.410605 183.693311 
L 347.988633 205.162979 
L 334.973105 213.701091 
L 351.612949 207.241979 
L 352.410605 183.693311 
" style="fill:#00ffff;opacity:0.3;stroke:#000000;stroke-linejoin:miter;"/>
   </g>
   <g id="patch_97">
    <path clip-path="url(#p23cf03e275)" d="M 352.410605 179.906689 
L 347.988633 158.437021 
L 334.973105 149.898909 
L 351.612949 156.358021 
L 352.410605 179.906689 
" style="fill:#00ffff;opacity:0.3;stroke:#000000;stroke-linejoin:miter;"/>
   </g>
   <g id="patch_98">
    <path clip-path="url(#p23cf03e275)" d="M 130.095 279.210897 
L 151.02 286.140897 
L 164.97 279.210897 
L 151.02 290.298897 
L 130.095 279.210897 
" style="fill:#00ffff;opacity:0.3;stroke:#000000;stroke-linejoin:miter;"/>
   </g>
   <g id="patch_99">
    <path clip-path="url(#p23cf03e275)" d="M 154.694395 38.269966 
L 138.191367 52.809634 
L 137.256895 68.277746 
L 134.567051 50.730634 
L 154.694395 38.269966 
" style="fill:#00ffff;opacity:0.3;stroke:#000000;stroke-linejoin:miter;"/>
   </g>
   <g id="patch_100">
    <path clip-path="url(#p23cf03e275)" d="M 154.694395 325.330034 
L 138.191367 310.790366 
L 137.256895 295.322254 
L 134.567051 312.869366 
L 154.694395 325.330034 
" style="fill:#00ffff;opacity:0.3;stroke:#000000;stroke-linejoin:miter;"/>
   </g>
   <g id="patch_101">
    <path clip-path="url(#p23cf03e275)" d="M 102.195 36.376655 
L 123.12 29.446655 
L 137.07 36.376655 
L 123.12 25.288655 
L 102.195 36.376655 
" style="fill:#00ffff;opacity:0.3;stroke:#000000;stroke-linejoin:miter;"/>
   </g>
   <g id="patch_102">
    <path clip-path="url(#p23cf03e275)" d="M 380.310605 135.680863 
L 375.888633 157.150531 
L 362.873105 165.688643 
L 379.512949 159.229531 
L 380.310605 135.680863 
" style="fill:#00ffff;opacity:0.3;stroke:#000000;stroke-linejoin:miter;"/>
   </g>
   <g id="patch_103">
    <path clip-path="url(#p23cf03e275)" d="M 102.195 327.223345 
L 123.12 334.153345 
L 137.07 327.223345 
L 123.12 338.311345 
L 102.195 327.223345 
" style="fill:#00ffff;opacity:0.3;stroke:#000000;stroke-linejoin:miter;"/>
   </g>
   <g id="patch_104">
    <path clip-path="url(#p23cf03e275)" d="M 126.794395 -9.742482 
L 110.291367 4.797186 
L 109.356895 20.265298 
L 106.667051 2.718186 
L 126.794395 -9.742482 
" style="fill:#00ffff;opacity:0.3;stroke:#000000;stroke-linejoin:miter;"/>
   </g>
   <g id="patch_105">
    <path clip-path="url(#p23cf03e275)" d="M 130.095 84.389103 
L 151.02 77.459103 
L 164.97 84.389103 
L 151.02 73.301103 
L 130.095 84.389103 
" style="fill:#00ffff;opacity:0.3;stroke:#000000;stroke-linejoin:miter;"/>
   </g>
   <g id="patch_106">
    <path clip-path="url(#p23cf03e275)" d="M 324.510605 135.680863 
L 320.088633 157.150531 
L 307.073105 165.688643 
L 323.712949 159.229531 
L 324.510605 135.680863 
" style="fill:#00ffff;opacity:0.3;stroke:#000000;stroke-linejoin:miter;"/>
   </g>
   <g id="patch_107">
    <path clip-path="url(#p23cf03e275)" d="M 182.594395 277.317586 
L 166.091367 262.777917 
L 165.156895 247.309805 
L 162.467051 264.856917 
L 182.594395 277.317586 
" style="fill:#00ffff;opacity:0.3;stroke:#000000;stroke-linejoin:miter;"/>
   </g>
   <g id="patch_108">
    <path clip-path="url(#p23cf03e275)" d="M 182.594395 86.282414 
L 166.091367 100.822083 
L 165.156895 116.290195 
L 162.467051 98.743083 
L 182.594395 86.282414 
" style="fill:#00ffff;opacity:0.3;stroke:#000000;stroke-linejoin:miter;"/>
   </g>
   <g id="patch_109">
    <path clip-path="url(#p23cf03e275)" d="M 296.610605 179.906689 
L 292.188633 158.437021 
L 279.173105 149.898909 
L 295.812949 156.358021 
L 296.610605 179.906689 
" style="fill:#00ffff;opacity:0.3;stroke:#000000;stroke-linejoin:miter;"/>
   </g>
   <g id="patch_110">
    <path clip-path="url(#p23cf03e275)" d="M 157.995 231.198448 
L 178.92 238.128448 
L 192.87 231.198448 
L 178.92 242.286448 
L 157.995 231.198448 
" style="fill:#00ffff;opacity:0.3;stroke:#000000;stroke-linejoin:miter;"/>
   </g>
   <g id="patch_111">
    <path clip-path="url(#p23cf03e275)" d="M 157.995 132.401552 
L 178.92 125.471552 
L 192.87 132.401552 
L 178.92 121.313552 
L 157.995 132.401552 
" style="fill:#00ffff;opacity:0.3;stroke:#000000;stroke-linejoin:miter;"/>
   </g>
   <g id="patch_112">
    <path clip-path="url(#p23cf03e275)" d="M 268.710605 135.680863 
L 264.288633 157.150531 
L 251.273105 165.688643 
L 267.912949 159.229531 
L 268.710605 135.680863 
" style="fill:#00ffff;opacity:0.3;stroke:#000000;stroke-linejoin:miter;"/>
   </g>
   <g id="patch_113">
    <path clip-path="url(#p23cf03e275)" d="M 210.494395 229.305137 
L 193.991367 214.765469 
L 193.056895 199.297357 
L 190.367051 216.844469 
L 210.494395 229.305137 
" style="fill:#00ffff;opacity:0.3;stroke:#000000;stroke-linejoin:miter;"/>
   </g>
   <g id="patch_114">
    <path clip-path="url(#p23cf03e275)" d="M 210.494395 134.294863 
L 193.991367 148.834531 
L 193.056895 164.302643 
L 190.367051 146.755531 
L 210.494395 134.294863 
" style="fill:#00ffff;opacity:0.3;stroke:#000000;stroke-linejoin:miter;"/>
   </g>
   <g id="patch_115">
    <path clip-path="url(#p23cf03e275)" d="M 240.810605 179.906689 
L 236.388633 158.437021 
L 223.373105 149.898909 
L 240.012949 156.358021 
L 240.810605 179.906689 
" style="fill:#00ffff;opacity:0.3;stroke:#000000;stroke-linejoin:miter;"/>
   </g>
   <g id="patch_116">
    <path clip-path="url(#p23cf03e275)" d="M 185.895 183.186 
L 206.82 190.116 
L 220.77 183.186 
L 206.82 194.274 
L 185.895 183.186 
" style="fill:#00ffff;opacity:0.3;stroke:#000000;stroke-linejoin:miter;"/>
   </g>
   <g id="patch_117">
    <path clip-path="url(#p23cf03e275)" d="M 240.810605 183.693311 
L 236.388633 205.162979 
L 223.373105 213.701091 
L 240.012949 207.241979 
L 240.810605 183.693311 
" style="fill:#00ffff;opacity:0.3;stroke:#000000;stroke-linejoin:miter;"/>
   </g>
   <g id="patch_118">
    <path clip-path="url(#p23cf03e275)" d="M 182.594395 181.292689 
L 166.091367 166.753021 
L 165.156895 151.284909 
L 162.467051 168.832021 
L 182.594395 181.292689 
" style="fill:#00ffff;opacity:0.3;stroke:#000000;stroke-linejoin:miter;"/>
   </g>
   <g id="patch_119">
    <path clip-path="url(#p23cf03e275)" d="M 213.795 132.401552 
L 234.72 125.471552 
L 248.67 132.401552 
L 234.72 121.313552 
L 213.795 132.401552 
" style="fill:#00ffff;opacity:0.3;stroke:#000000;stroke-linejoin:miter;"/>
   </g>
   <g id="patch_120">
    <path clip-path="url(#p23cf03e275)" d="M 213.795 231.198448 
L 234.72 238.128448 
L 248.67 231.198448 
L 234.72 242.286448 
L 213.795 231.198448 
" style="fill:#00ffff;opacity:0.3;stroke:#000000;stroke-linejoin:miter;"/>
   </g>
   <g id="patch_121">
    <path clip-path="url(#p23cf03e275)" d="M 154.694395 134.294863 
L 138.191367 148.834531 
L 137.256895 164.302643 
L 134.567051 146.755531 
L 154.694395 134.294863 
" style="fill:#00ffff;opacity:0.3;stroke:#000000;stroke-linejoin:miter;"/>
   </g>
   <g id="patch_122">
    <path clip-path="url(#p23cf03e275)" d="M 268.710605 131.89424 
L 264.288633 110.424572 
L 251.273105 101.88646 
L 267.912949 108.345572 
L 268.710605 131.89424 
" style="fill:#00ffff;opacity:0.3;stroke:#000000;stroke-linejoin:miter;"/>
   </g>
   <g id="patch_123">
    <path clip-path="url(#p23cf03e275)" d="M 268.710605 231.70576 
L 264.288633 253.175428 
L 251.273105 261.71354 
L 267.912949 255.254428 
L 268.710605 231.70576 
" style="fill:#00ffff;opacity:0.3;stroke:#000000;stroke-linejoin:miter;"/>
   </g>
   <g id="patch_124">
    <path clip-path="url(#p23cf03e275)" d="M 126.794395 181.292689 
L 110.291367 166.753021 
L 109.356895 151.284909 
L 106.667051 168.832021 
L 126.794395 181.292689 
" style="fill:#00ffff;opacity:0.3;stroke:#000000;stroke-linejoin:miter;"/>
   </g>
   <g id="patch_125">
    <path clip-path="url(#p23cf03e275)" d="M 241.695 84.389103 
L 262.62 77.459103 
L 276.57 84.389103 
L 262.62 73.301103 
L 241.695 84.389103 
" style="fill:#00ffff;opacity:0.3;stroke:#000000;stroke-linejoin:miter;"/>
   </g>
   <g id="patch_126">
    <path clip-path="url(#p23cf03e275)" d="M 154.694395 229.305137 
L 138.191367 214.765469 
L 137.256895 199.297357 
L 134.567051 216.844469 
L 154.694395 229.305137 
" style="fill:#00ffff;opacity:0.3;stroke:#000000;stroke-linejoin:miter;"/>
   </g>
   <g id="patch_127">
    <path clip-path="url(#p23cf03e275)" d="M 185.895 84.389103 
L 206.82 77.459103 
L 220.77 84.389103 
L 206.82 73.301103 
L 185.895 84.389103 
" style="fill:#00ffff;opacity:0.3;stroke:#000000;stroke-linejoin:miter;"/>
   </g>
   <g id="patch_128">
    <path clip-path="url(#p23cf03e275)" d="M 296.610605 183.693311 
L 292.188633 205.162979 
L 279.173105 213.701091 
L 295.812949 207.241979 
L 296.610605 183.693311 
" style="fill:#00ffff;opacity:0.3;stroke:#000000;stroke-linejoin:miter;"/>
   </g>
   <g id="patch_129">
    <path clip-path="url(#p23cf03e275)" d="M 268.710605 227.919137 
L 264.288633 206.449469 
L 251.273105 197.911357 
L 267.912949 204.370469 
L 268.710605 227.919137 
" style="fill:#00ffff;opacity:0.3;stroke:#000000;stroke-linejoin:miter;"/>
   </g>
   <g id="patch_130">
    <path clip-path="url(#p23cf03e275)" d="M 130.095 183.186 
L 151.02 190.116 
L 164.97 183.186 
L 151.02 194.274 
L 130.095 183.186 
" style="fill:#00ffff;opacity:0.3;stroke:#000000;stroke-linejoin:miter;"/>
   </g>
   <g id="patch_131">
    <path clip-path="url(#p23cf03e275)" d="M 238.394395 86.282414 
L 221.891367 100.822083 
L 220.956895 116.290195 
L 218.267051 98.743083 
L 238.394395 86.282414 
" style="fill:#00ffff;opacity:0.3;stroke:#000000;stroke-linejoin:miter;"/>
   </g>
   <g id="patch_132">
    <path clip-path="url(#p23cf03e275)" d="M 238.394395 277.317586 
L 221.891367 262.777917 
L 220.956895 247.309805 
L 218.267051 264.856917 
L 238.394395 277.317586 
" style="fill:#00ffff;opacity:0.3;stroke:#000000;stroke-linejoin:miter;"/>
   </g>
   <g id="patch_133">
    <path clip-path="url(#p23cf03e275)" d="M 102.195 132.401552 
L 123.12 125.471552 
L 137.07 132.401552 
L 123.12 121.313552 
L 102.195 132.401552 
" style="fill:#00ffff;opacity:0.3;stroke:#000000;stroke-linejoin:miter;"/>
   </g>
   <g id="patch_134">
    <path clip-path="url(#p23cf03e275)" d="M 296.610605 87.668414 
L 292.188633 109.138083 
L 279.173105 117.676195 
L 295.812949 111.217083 
L 296.610605 87.668414 
" style="fill:#00ffff;opacity:0.3;stroke:#000000;stroke-linejoin:miter;"/>
   </g>
   <g id="patch_135">
    <path clip-path="url(#p23cf03e275)" d="M 296.610605 275.931586 
L 292.188633 254.461917 
L 279.173105 245.923805 
L 295.812949 252.382917 
L 296.610605 275.931586 
" style="fill:#00ffff;opacity:0.3;stroke:#000000;stroke-linejoin:miter;"/>
   </g>
   <g id="patch_136">
    <path clip-path="url(#p23cf03e275)" d="M 74.295 183.186 
L 95.22 190.116 
L 109.17 183.186 
L 95.22 194.274 
L 74.295 183.186 
" style="fill:#00ffff;opacity:0.3;stroke:#000000;stroke-linejoin:miter;"/>
   </g>
   <g id="patch_137">
    <path clip-path="url(#p23cf03e275)" d="M 266.294395 38.269966 
L 249.791367 52.809634 
L 248.856895 68.277746 
L 246.167051 50.730634 
L 266.294395 38.269966 
" style="fill:#00ffff;opacity:0.3;stroke:#000000;stroke-linejoin:miter;"/>
   </g>
   <g id="patch_138">
    <path clip-path="url(#p23cf03e275)" d="M 266.294395 325.330034 
L 249.791367 310.790366 
L 248.856895 295.322254 
L 246.167051 312.869366 
L 266.294395 325.330034 
" style="fill:#00ffff;opacity:0.3;stroke:#000000;stroke-linejoin:miter;"/>
   </g>
   <g id="patch_139">
    <path clip-path="url(#p23cf03e275)" d="M 46.395 132.401552 
L 67.32 125.471552 
L 81.27 132.401552 
L 67.32 121.313552 
L 46.395 132.401552 
" style="fill:#00ffff;opacity:0.3;stroke:#000000;stroke-linejoin:miter;"/>
   </g>
   <g id="patch_140">
    <path clip-path="url(#p23cf03e275)" d="M 324.510605 39.655966 
L 320.088633 61.125634 
L 307.073105 69.663746 
L 323.712949 63.204634 
L 324.510605 39.655966 
" style="fill:#00ffff;opacity:0.3;stroke:#000000;stroke-linejoin:miter;"/>
   </g>
   <g id="patch_141">
    <path clip-path="url(#p23cf03e275)" d="M 324.510605 323.944034 
L 320.088633 302.474366 
L 307.073105 293.936254 
L 323.712949 300.395366 
L 324.510605 323.944034 
" style="fill:#00ffff;opacity:0.3;stroke:#000000;stroke-linejoin:miter;"/>
   </g>
   <g id="patch_142">
    <path clip-path="url(#p23cf03e275)" d="M 18.495 183.186 
L 39.42 190.116 
L 53.37 183.186 
L 39.42 194.274 
L 18.495 183.186 
" style="fill:#00ffff;opacity:0.3;stroke:#000000;stroke-linejoin:miter;"/>
   </g>
   <g id="patch_143">
    <path clip-path="url(#p23cf03e275)" d="M 294.194395 -9.742482 
L 277.691367 4.797186 
L 276.756895 20.265298 
L 274.067051 2.718186 
L 294.194395 -9.742482 
" style="fill:#00ffff;opacity:0.3;stroke:#000000;stroke-linejoin:miter;"/>
   </g>
   <g id="patch_144">
    <path clip-path="url(#p23cf03e275)" d="M 18.495 180.414 
L 39.42 173.484 
L 53.37 180.414 
L 39.42 169.326 
L 18.495 180.414 
" style="fill:#00ffff;opacity:0.3;stroke:#000000;stroke-linejoin:miter;"/>
   </g>
   <g id="patch_145">
    <path clip-path="url(#p23cf03e275)" d="M 296.610605 -8.356482 
L 292.188633 13.113186 
L 279.173105 21.651298 
L 295.812949 15.192186 
L 296.610605 -8.356482 
" style="fill:#00ffff;opacity:0.3;stroke:#000000;stroke-linejoin:miter;"/>
   </g>
   <g id="patch_146">
    <path clip-path="url(#p23cf03e275)" d="M 46.395 231.198448 
L 67.32 238.128448 
L 81.27 231.198448 
L 67.32 242.286448 
L 46.395 231.198448 
" style="fill:#00ffff;opacity:0.3;stroke:#000000;stroke-linejoin:miter;"/>
   </g>
   <g id="patch_147">
    <path clip-path="url(#p23cf03e275)" d="M 238.394395 -9.742482 
L 221.891367 4.797186 
L 220.956895 20.265298 
L 218.267051 2.718186 
L 238.394395 -9.742482 
" style="fill:#00ffff;opacity:0.3;stroke:#000000;stroke-linejoin:miter;"/>
   </g>
   <g id="patch_148">
    <path clip-path="url(#p23cf03e275)" d="M 74.295 180.414 
L 95.22 173.484 
L 109.17 180.414 
L 95.22 169.326 
L 74.295 180.414 
" style="fill:#00ffff;opacity:0.3;stroke:#000000;stroke-linejoin:miter;"/>
   </g>
   <g id="patch_149">
    <path clip-path="url(#p23cf03e275)" d="M 268.710605 39.655966 
L 264.288633 61.125634 
L 251.273105 69.663746 
L 267.912949 63.204634 
L 268.710605 39.655966 
" style="fill:#00ffff;opacity:0.3;stroke:#000000;stroke-linejoin:miter;"/>
   </g>
   <g id="patch_150">
    <path clip-path="url(#p23cf03e275)" d="M 294.194395 277.317586 
L 277.691367 262.777917 
L 276.756895 247.309805 
L 274.067051 264.856917 
L 294.194395 277.317586 
" style="fill:#00ffff;opacity:0.3;stroke:#000000;stroke-linejoin:miter;"/>
   </g>
   <g id="patch_151">
    <path clip-path="url(#p23cf03e275)" d="M 294.194395 86.282414 
L 277.691367 100.822083 
L 276.756895 116.290195 
L 274.067051 98.743083 
L 294.194395 86.282414 
" style="fill:#00ffff;opacity:0.3;stroke:#000000;stroke-linejoin:miter;"/>
   </g>
   <g id="patch_152">
    <path clip-path="url(#p23cf03e275)" d="M 240.810605 275.931586 
L 236.388633 254.461917 
L 223.373105 245.923805 
L 240.012949 252.382917 
L 240.810605 275.931586 
" style="fill:#00ffff;opacity:0.3;stroke:#000000;stroke-linejoin:miter;"/>
   </g>
   <g id="patch_153">
    <path clip-path="url(#p23cf03e275)" d="M 102.195 135.173552 
L 123.12 142.103552 
L 137.07 135.173552 
L 123.12 146.261552 
L 102.195 135.173552 
" style="fill:#00ffff;opacity:0.3;stroke:#000000;stroke-linejoin:miter;"/>
   </g>
   <g id="patch_154">
    <path clip-path="url(#p23cf03e275)" d="M 102.195 228.426448 
L 123.12 221.496448 
L 137.07 228.426448 
L 123.12 217.338448 
L 102.195 228.426448 
" style="fill:#00ffff;opacity:0.3;stroke:#000000;stroke-linejoin:miter;"/>
   </g>
   <g id="patch_155">
    <path clip-path="url(#p23cf03e275)" d="M 212.910605 39.655966 
L 208.488633 61.125634 
L 195.473105 69.663746 
L 212.112949 63.204634 
L 212.910605 39.655966 
" style="fill:#00ffff;opacity:0.3;stroke:#000000;stroke-linejoin:miter;"/>
   </g>
   <g id="patch_156">
    <path clip-path="url(#p23cf03e275)" d="M 322.094395 229.305137 
L 305.591367 214.765469 
L 304.656895 199.297357 
L 301.967051 216.844469 
L 322.094395 229.305137 
" style="fill:#00ffff;opacity:0.3;stroke:#000000;stroke-linejoin:miter;"/>
   </g>
   <g id="patch_157">
    <path clip-path="url(#p23cf03e275)" d="M 322.094395 134.294863 
L 305.591367 148.834531 
L 304.656895 164.302643 
L 301.967051 146.755531 
L 322.094395 134.294863 
" style="fill:#00ffff;opacity:0.3;stroke:#000000;stroke-linejoin:miter;"/>
   </g>
   <g id="patch_158">
    <path clip-path="url(#p23cf03e275)" d="M 185.010605 275.931586 
L 180.588633 254.461917 
L 167.573105 245.923805 
L 184.212949 252.382917 
L 185.010605 275.931586 
" style="fill:#00ffff;opacity:0.3;stroke:#000000;stroke-linejoin:miter;"/>
   </g>
   <g id="patch_159">
    <path clip-path="url(#p23cf03e275)" d="M 130.095 87.161103 
L 151.02 94.091103 
L 164.97 87.161103 
L 151.02 98.249103 
L 130.095 87.161103 
" style="fill:#00ffff;opacity:0.3;stroke:#000000;stroke-linejoin:miter;"/>
   </g>
   <g id="patch_160">
    <path clip-path="url(#p23cf03e275)" d="M 130.095 276.438897 
L 151.02 269.508897 
L 164.97 276.438897 
L 151.02 265.350897 
L 130.095 276.438897 
" style="fill:#00ffff;opacity:0.3;stroke:#000000;stroke-linejoin:miter;"/>
   </g>
   <g id="patch_161">
    <path clip-path="url(#p23cf03e275)" d="M 157.110605 39.655966 
L 152.688633 61.125634 
L 139.673105 69.663746 
L 156.312949 63.204634 
L 157.110605 39.655966 
" style="fill:#00ffff;opacity:0.3;stroke:#000000;stroke-linejoin:miter;"/>
   </g>
   <g id="patch_162">
    <path clip-path="url(#p23cf03e275)" d="M 349.994395 181.292689 
L 333.491367 166.753021 
L 332.556895 151.284909 
L 329.867051 168.832021 
L 349.994395 181.292689 
" style="fill:#00ffff;opacity:0.3;stroke:#000000;stroke-linejoin:miter;"/>
   </g>
   <g id="patch_163">
    <path clip-path="url(#p23cf03e275)" d="M 157.110605 323.944034 
L 152.688633 302.474366 
L 139.673105 293.936254 
L 156.312949 300.395366 
L 157.110605 323.944034 
" style="fill:#00ffff;opacity:0.3;stroke:#000000;stroke-linejoin:miter;"/>
   </g>
   <g id="patch_164">
    <path clip-path="url(#p23cf03e275)" d="M 102.195 39.148655 
L 123.12 46.078655 
L 137.07 39.148655 
L 123.12 50.236655 
L 102.195 39.148655 
" style="fill:#00ffff;opacity:0.3;stroke:#000000;stroke-linejoin:miter;"/>
   </g>
   <g id="patch_165">
    <path clip-path="url(#p23cf03e275)" d="M 377.894395 134.294863 
L 361.391367 148.834531 
L 360.456895 164.302643 
L 357.767051 146.755531 
L 377.894395 134.294863 
" style="fill:#00ffff;opacity:0.3;stroke:#000000;stroke-linejoin:miter;"/>
   </g>
   <g id="patch_166">
    <path clip-path="url(#p23cf03e275)" d="M 102.195 324.451345 
L 123.12 317.521345 
L 137.07 324.451345 
L 123.12 313.363345 
L 102.195 324.451345 
" style="fill:#00ffff;opacity:0.3;stroke:#000000;stroke-linejoin:miter;"/>
   </g>
   <g id="patch_167">
    <path clip-path="url(#p23cf03e275)" d="M 129.210605 -8.356482 
L 124.788633 13.113186 
L 111.773105 21.651298 
L 128.412949 15.192186 
L 129.210605 -8.356482 
" style="fill:#00ffff;opacity:0.3;stroke:#000000;stroke-linejoin:miter;"/>
   </g>
   <g id="patch_168">
    <path clip-path="url(#p23cf03e275)" d="M 185.010605 87.668414 
L 180.588633 109.138083 
L 167.573105 117.676195 
L 184.212949 111.217083 
L 185.010605 87.668414 
" style="fill:#00ffff;opacity:0.3;stroke:#000000;stroke-linejoin:miter;"/>
   </g>
   <g id="patch_169">
    <path clip-path="url(#p23cf03e275)" d="M 294.194395 181.292689 
L 277.691367 166.753021 
L 276.756895 151.284909 
L 274.067051 168.832021 
L 294.194395 181.292689 
" style="fill:#00ffff;opacity:0.3;stroke:#000000;stroke-linejoin:miter;"/>
   </g>
   <g id="patch_170">
    <path clip-path="url(#p23cf03e275)" d="M 157.995 228.426448 
L 178.92 221.496448 
L 192.87 228.426448 
L 178.92 217.338448 
L 157.995 228.426448 
" style="fill:#00ffff;opacity:0.3;stroke:#000000;stroke-linejoin:miter;"/>
   </g>
   <g id="patch_171">
    <path clip-path="url(#p23cf03e275)" d="M 157.995 135.173552 
L 178.92 142.103552 
L 192.87 135.173552 
L 178.92 146.261552 
L 157.995 135.173552 
" style="fill:#00ffff;opacity:0.3;stroke:#000000;stroke-linejoin:miter;"/>
   </g>
   <g id="patch_172">
    <path clip-path="url(#p23cf03e275)" d="M 266.294395 134.294863 
L 249.791367 148.834531 
L 248.856895 164.302643 
L 246.167051 146.755531 
L 266.294395 134.294863 
" style="fill:#00ffff;opacity:0.3;stroke:#000000;stroke-linejoin:miter;"/>
   </g>
   <g id="patch_173">
    <path clip-path="url(#p23cf03e275)" d="M 212.910605 227.919137 
L 208.488633 206.449469 
L 195.473105 197.911357 
L 212.112949 204.370469 
L 212.910605 227.919137 
" style="fill:#00ffff;opacity:0.3;stroke:#000000;stroke-linejoin:miter;"/>
   </g>
   <g id="patch_174">
    <path clip-path="url(#p23cf03e275)" d="M 266.294395 229.305137 
L 249.791367 214.765469 
L 248.856895 199.297357 
L 246.167051 216.844469 
L 266.294395 229.305137 
" style="fill:#00ffff;opacity:0.3;stroke:#000000;stroke-linejoin:miter;"/>
   </g>
   <g id="patch_175">
    <path clip-path="url(#p23cf03e275)" d="M 130.095 180.414 
L 151.02 173.484 
L 164.97 180.414 
L 151.02 169.326 
L 130.095 180.414 
" style="fill:#00ffff;opacity:0.3;stroke:#000000;stroke-linejoin:miter;"/>
   </g>
   <g id="patch_176">
    <path clip-path="url(#p23cf03e275)" d="M 240.810605 87.668414 
L 236.388633 109.138083 
L 223.373105 117.676195 
L 240.012949 111.217083 
L 240.810605 87.668414 
" style="fill:#00ffff;opacity:0.3;stroke:#000000;stroke-linejoin:miter;"/>
   </g>
   <g id="patch_177">
    <path clip-path="url(#p23cf03e275)" d="M 294.194395 182.307311 
L 277.691367 196.846979 
L 276.756895 212.315091 
L 274.067051 194.767979 
L 294.194395 182.307311 
" style="fill:#00ffff;opacity:0.3;stroke:#000000;stroke-linejoin:miter;"/>
   </g>
   <g id="patch_178">
    <path clip-path="url(#p23cf03e275)" d="M 157.110605 227.919137 
L 152.688633 206.449469 
L 139.673105 197.911357 
L 156.312949 204.370469 
L 157.110605 227.919137 
" style="fill:#00ffff;opacity:0.3;stroke:#000000;stroke-linejoin:miter;"/>
   </g>
   <g id="patch_179">
    <path clip-path="url(#p23cf03e275)" d="M 185.895 87.161103 
L 206.82 94.091103 
L 220.77 87.161103 
L 206.82 98.249103 
L 185.895 87.161103 
" style="fill:#00ffff;opacity:0.3;stroke:#000000;stroke-linejoin:miter;"/>
   </g>
   <g id="patch_180">
    <path clip-path="url(#p23cf03e275)" d="M 185.895 276.438897 
L 206.82 269.508897 
L 220.77 276.438897 
L 206.82 265.350897 
L 185.895 276.438897 
" style="fill:#00ffff;opacity:0.3;stroke:#000000;stroke-linejoin:miter;"/>
   </g>
   <g id="patch_181">
    <path clip-path="url(#p23cf03e275)" d="M 129.210605 87.668414 
L 124.788633 109.138083 
L 111.773105 117.676195 
L 128.412949 111.217083 
L 129.210605 87.668414 
" style="fill:#00ffff;opacity:0.3;stroke:#000000;stroke-linejoin:miter;"/>
   </g>
   <g id="patch_182">
    <path clip-path="url(#p23cf03e275)" d="M 322.094395 133.28024 
L 305.591367 118.740572 
L 304.656895 103.27246 
L 301.967051 120.819572 
L 322.094395 133.28024 
" style="fill:#00ffff;opacity:0.3;stroke:#000000;stroke-linejoin:miter;"/>
   </g>
   <g id="patch_183">
    <path clip-path="url(#p23cf03e275)" d="M 322.094395 230.31976 
L 305.591367 244.859428 
L 304.656895 260.32754 
L 301.967051 242.780428 
L 322.094395 230.31976 
" style="fill:#00ffff;opacity:0.3;stroke:#000000;stroke-linejoin:miter;"/>
   </g>
   <g id="patch_184">
    <path clip-path="url(#p23cf03e275)" d="M 101.310605 227.919137 
L 96.888633 206.449469 
L 83.873105 197.911357 
L 100.512949 204.370469 
L 101.310605 227.919137 
" style="fill:#00ffff;opacity:0.3;stroke:#000000;stroke-linejoin:miter;"/>
   </g>
   <g id="patch_185">
    <path clip-path="url(#p23cf03e275)" d="M 213.795 39.148655 
L 234.72 46.078655 
L 248.67 39.148655 
L 234.72 50.236655 
L 213.795 39.148655 
" style="fill:#00ffff;opacity:0.3;stroke:#000000;stroke-linejoin:miter;"/>
   </g>
   <g id="patch_186">
    <path clip-path="url(#p23cf03e275)" d="M 213.795 324.451345 
L 234.72 317.521345 
L 248.67 324.451345 
L 234.72 313.363345 
L 213.795 324.451345 
" style="fill:#00ffff;opacity:0.3;stroke:#000000;stroke-linejoin:miter;"/>
   </g>
   <g id="patch_187">
    <path clip-path="url(#p23cf03e275)" d="M 73.410605 87.668414 
L 68.988633 109.138083 
L 55.973105 117.676195 
L 72.612949 111.217083 
L 73.410605 87.668414 
" style="fill:#00ffff;opacity:0.3;stroke:#000000;stroke-linejoin:miter;"/>
   </g>
   <g id="patch_188">
    <path clip-path="url(#p23cf03e275)" d="M 349.994395 85.267792 
L 333.491367 70.728124 
L 332.556895 55.260012 
L 329.867051 72.807124 
L 349.994395 85.267792 
" style="fill:#00ffff;opacity:0.3;stroke:#000000;stroke-linejoin:miter;"/>
   </g>
   <g id="patch_189">
    <path clip-path="url(#p23cf03e275)" d="M 73.410605 275.931586 
L 68.988633 254.461917 
L 55.973105 245.923805 
L 72.612949 252.382917 
L 73.410605 275.931586 
" style="fill:#00ffff;opacity:0.3;stroke:#000000;stroke-linejoin:miter;"/>
   </g>
   <g id="patch_190">
    <path clip-path="url(#p23cf03e275)" d="M 185.895 -8.863794 
L 206.82 -1.933794 
L 220.77 -8.863794 
L 206.82 2.224206 
L 185.895 -8.863794 
" style="fill:#00ffff;opacity:0.3;stroke:#000000;stroke-linejoin:miter;"/>
   </g>
   <g id="patch_191">
    <path clip-path="url(#p23cf03e275)" d="M 129.210605 275.931586 
L 124.788633 254.461917 
L 111.773105 245.923805 
L 128.412949 252.382917 
L 129.210605 275.931586 
" style="fill:#00ffff;opacity:0.3;stroke:#000000;stroke-linejoin:miter;"/>
   </g>
   <g id="patch_192">
    <path clip-path="url(#p23cf03e275)" d="M 157.995 39.148655 
L 178.92 46.078655 
L 192.87 39.148655 
L 178.92 50.236655 
L 157.995 39.148655 
" style="fill:#00ffff;opacity:0.3;stroke:#000000;stroke-linejoin:miter;"/>
   </g>
   <g id="patch_193">
    <path clip-path="url(#p23cf03e275)" d="M 349.994395 182.307311 
L 333.491367 196.846979 
L 332.556895 212.315091 
L 329.867051 194.767979 
L 349.994395 182.307311 
" style="fill:#00ffff;opacity:0.3;stroke:#000000;stroke-linejoin:miter;"/>
   </g>
   <g id="patch_194">
    <path clip-path="url(#p23cf03e275)" d="M 157.995 324.451345 
L 178.92 317.521345 
L 192.87 324.451345 
L 178.92 313.363345 
L 157.995 324.451345 
" style="fill:#00ffff;opacity:0.3;stroke:#000000;stroke-linejoin:miter;"/>
   </g>
   <g id="patch_195">
    <path clip-path="url(#p23cf03e275)" d="M 101.310605 39.655966 
L 96.888633 61.125634 
L 83.873105 69.663746 
L 100.512949 63.204634 
L 101.310605 39.655966 
" style="fill:#00ffff;opacity:0.3;stroke:#000000;stroke-linejoin:miter;"/>
   </g>
   <g id="patch_196">
    <path clip-path="url(#p23cf03e275)" d="M 377.894395 133.28024 
L 361.391367 118.740572 
L 360.456895 103.27246 
L 357.767051 120.819572 
L 377.894395 133.28024 
" style="fill:#00ffff;opacity:0.3;stroke:#000000;stroke-linejoin:miter;"/>
   </g>
   <g id="patch_197">
    <path clip-path="url(#p23cf03e275)" d="M 101.310605 323.944034 
L 96.888633 302.474366 
L 83.873105 293.936254 
L 100.512949 300.395366 
L 101.310605 323.944034 
" style="fill:#00ffff;opacity:0.3;stroke:#000000;stroke-linejoin:miter;"/>
   </g>
   <g id="patch_198">
    <path clip-path="url(#p23cf03e275)" d="M 130.095 -8.863794 
L 151.02 -1.933794 
L 164.97 -8.863794 
L 151.02 2.224206 
L 130.095 -8.863794 
" style="fill:#00ffff;opacity:0.3;stroke:#000000;stroke-linejoin:miter;"/>
   </g>
   <g id="patch_199">
    <path clip-path="url(#p23cf03e275)" d="M 212.910605 323.944034 
L 208.488633 302.474366 
L 195.473105 293.936254 
L 212.112949 300.395366 
L 212.910605 323.944034 
" style="fill:#00ffff;opacity:0.3;stroke:#000000;stroke-linejoin:miter;"/>
   </g>
   <g id="patch_200">
    <path clip-path="url(#p23cf03e275)" d="M 74.295 87.161103 
L 95.22 94.091103 
L 109.17 87.161103 
L 95.22 98.249103 
L 74.295 87.161103 
" style="fill:#00ffff;opacity:0.3;stroke:#000000;stroke-linejoin:miter;"/>
   </g>
   <g id="patch_201">
    <path clip-path="url(#p23cf03e275)" d="M 349.994395 86.282414 
L 333.491367 100.822083 
L 332.556895 116.290195 
L 329.867051 98.743083 
L 349.994395 86.282414 
" style="fill:#00ffff;opacity:0.3;stroke:#000000;stroke-linejoin:miter;"/>
   </g>
   <g id="patch_202">
    <path clip-path="url(#p23cf03e275)" d="M 349.994395 277.317586 
L 333.491367 262.777917 
L 332.556895 247.309805 
L 329.867051 264.856917 
L 349.994395 277.317586 
" style="fill:#00ffff;opacity:0.3;stroke:#000000;stroke-linejoin:miter;"/>
   </g>
   <g id="patch_203">
    <path clip-path="url(#p23cf03e275)" d="M 46.395 228.426448 
L 67.32 221.496448 
L 81.27 228.426448 
L 67.32 217.338448 
L 46.395 228.426448 
" style="fill:#00ffff;opacity:0.3;stroke:#000000;stroke-linejoin:miter;"/>
   </g>
   <g id="patch_204">
    <path clip-path="url(#p23cf03e275)" d="M 240.810605 -8.356482 
L 236.388633 13.113186 
L 223.373105 21.651298 
L 240.012949 15.192186 
L 240.810605 -8.356482 
" style="fill:#00ffff;opacity:0.3;stroke:#000000;stroke-linejoin:miter;"/>
   </g>
   <g id="patch_205">
    <path clip-path="url(#p23cf03e275)" d="M 46.395 135.173552 
L 67.32 142.103552 
L 81.27 135.173552 
L 67.32 146.261552 
L 46.395 135.173552 
" style="fill:#00ffff;opacity:0.3;stroke:#000000;stroke-linejoin:miter;"/>
   </g>
   <g id="patch_206">
    <path clip-path="url(#p23cf03e275)" d="M 322.094395 38.269966 
L 305.591367 52.809634 
L 304.656895 68.277746 
L 301.967051 50.730634 
L 322.094395 38.269966 
" style="fill:#00ffff;opacity:0.3;stroke:#000000;stroke-linejoin:miter;"/>
   </g>
   <g id="patch_207">
    <path clip-path="url(#p23cf03e275)" d="M 268.710605 323.944034 
L 264.288633 302.474366 
L 251.273105 293.936254 
L 267.912949 300.395366 
L 268.710605 323.944034 
" style="fill:#00ffff;opacity:0.3;stroke:#000000;stroke-linejoin:miter;"/>
   </g>
   <g id="patch_208">
    <path clip-path="url(#p23cf03e275)" d="M 322.094395 325.330034 
L 305.591367 310.790366 
L 304.656895 295.322254 
L 301.967051 312.869366 
L 322.094395 325.330034 
" style="fill:#00ffff;opacity:0.3;stroke:#000000;stroke-linejoin:miter;"/>
   </g>
   <g id="patch_209">
    <path clip-path="url(#p23cf03e275)" d="M 74.295 276.438897 
L 95.22 269.508897 
L 109.17 276.438897 
L 95.22 265.350897 
L 74.295 276.438897 
" style="fill:#00ffff;opacity:0.3;stroke:#000000;stroke-linejoin:miter;"/>
   </g>
   <g id="patch_210">
    <path clip-path="url(#p23cf03e275)" d="M 185.010605 -8.356482 
L 180.588633 13.113186 
L 167.573105 21.651298 
L 184.212949 15.192186 
L 185.010605 -8.356482 
" style="fill:#00ffff;opacity:0.3;stroke:#000000;stroke-linejoin:miter;"/>
   </g>
   <g id="patch_211">
    <path clip-path="url(#p23cf03e275)" d="M 102.195 231.198448 
L 123.12 238.128448 
L 137.07 231.198448 
L 123.12 242.286448 
L 102.195 231.198448 
" style="fill:#00ffff;opacity:0.3;stroke:#000000;stroke-linejoin:miter;"/>
   </g>
   <g id="patch_212">
    <path clip-path="url(#p23cf03e275)" d="M 210.494395 38.269966 
L 193.991367 52.809634 
L 193.056895 68.277746 
L 190.367051 50.730634 
L 210.494395 38.269966 
" style="fill:#00ffff;opacity:0.3;stroke:#000000;stroke-linejoin:miter;"/>
   </g>
   <g id="patch_213">
    <path clip-path="url(#p23cf03e275)" d="M 324.510605 227.919137 
L 320.088633 206.449469 
L 307.073105 197.911357 
L 323.712949 204.370469 
L 324.510605 227.919137 
" style="fill:#00ffff;opacity:0.3;stroke:#000000;stroke-linejoin:miter;"/>
   </g>
   <g id="patch_214">
    <path clip-path="url(#p23cf03e275)" d="M 210.494395 325.330034 
L 193.991367 310.790366 
L 193.056895 295.322254 
L 190.367051 312.869366 
L 210.494395 325.330034 
" style="fill:#00ffff;opacity:0.3;stroke:#000000;stroke-linejoin:miter;"/>
   </g>
   <g id="patch_215">
    <path clip-path="url(#p23cf03e275)" d="M 74.295 84.389103 
L 95.22 77.459103 
L 109.17 84.389103 
L 95.22 73.301103 
L 74.295 84.389103 
" style="fill:#00ffff;opacity:0.3;stroke:#000000;stroke-linejoin:miter;"/>
   </g>
   <g id="patch_216">
    <path clip-path="url(#p23cf03e275)" d="M 352.410605 87.668414 
L 347.988633 109.138083 
L 334.973105 117.676195 
L 351.612949 111.217083 
L 352.410605 87.668414 
" style="fill:#00ffff;opacity:0.3;stroke:#000000;stroke-linejoin:miter;"/>
   </g>
   <g id="patch_217">
    <path clip-path="url(#p23cf03e275)" d="M 352.410605 275.931586 
L 347.988633 254.461917 
L 334.973105 245.923805 
L 351.612949 252.382917 
L 352.410605 275.931586 
" style="fill:#00ffff;opacity:0.3;stroke:#000000;stroke-linejoin:miter;"/>
   </g>
   <g id="patch_218">
    <path clip-path="url(#p23cf03e275)" d="M 74.295 279.210897 
L 95.22 286.140897 
L 109.17 279.210897 
L 95.22 290.298897 
L 74.295 279.210897 
" style="fill:#00ffff;opacity:0.3;stroke:#000000;stroke-linejoin:miter;"/>
   </g>
   <g id="patch_219">
    <path clip-path="url(#p23cf03e275)" d="M 182.594395 -9.742482 
L 166.091367 4.797186 
L 165.156895 20.265298 
L 162.467051 2.718186 
L 182.594395 -9.742482 
" style="fill:#00ffff;opacity:0.3;stroke:#000000;stroke-linejoin:miter;"/>
   </g>
   <g id="patch_220">
    <path clip-path="url(#p23cf03e275)" d="M 157.995 327.223345 
L 178.92 334.153345 
L 192.87 327.223345 
L 178.92 338.311345 
L 157.995 327.223345 
" style="fill:#00ffff;opacity:0.3;stroke:#000000;stroke-linejoin:miter;"/>
   </g>
   <g id="patch_221">
    <path clip-path="url(#p23cf03e275)" d="M 98.894395 38.269966 
L 82.391367 52.809634 
L 81.456895 68.277746 
L 78.767051 50.730634 
L 98.894395 38.269966 
" style="fill:#00ffff;opacity:0.3;stroke:#000000;stroke-linejoin:miter;"/>
   </g>
   <g id="patch_222">
    <path clip-path="url(#p23cf03e275)" d="M 380.310605 131.89424 
L 375.888633 110.424572 
L 362.873105 101.88646 
L 379.512949 108.345572 
L 380.310605 131.89424 
" style="fill:#00ffff;opacity:0.3;stroke:#000000;stroke-linejoin:miter;"/>
   </g>
   <g id="patch_223">
    <path clip-path="url(#p23cf03e275)" d="M 98.894395 325.330034 
L 82.391367 310.790366 
L 81.456895 295.322254 
L 78.767051 312.869366 
L 98.894395 325.330034 
" style="fill:#00ffff;opacity:0.3;stroke:#000000;stroke-linejoin:miter;"/>
   </g>
   <g id="patch_224">
    <path clip-path="url(#p23cf03e275)" d="M 130.095 -11.635794 
L 151.02 -18.565794 
L 164.97 -11.635794 
L 151.02 -22.723794 
L 130.095 -11.635794 
" style="fill:#00ffff;opacity:0.3;stroke:#000000;stroke-linejoin:miter;"/>
   </g>
   <g id="patch_225">
    <path clip-path="url(#p23cf03e275)" d="M 213.795 327.223345 
L 234.72 334.153345 
L 248.67 327.223345 
L 234.72 338.311345 
L 213.795 327.223345 
" style="fill:#00ffff;opacity:0.3;stroke:#000000;stroke-linejoin:miter;"/>
   </g>
   <g id="patch_226">
    <path clip-path="url(#p23cf03e275)" d="M 70.994395 86.282414 
L 54.491367 100.822083 
L 53.556895 116.290195 
L 50.867051 98.743083 
L 70.994395 86.282414 
" style="fill:#00ffff;opacity:0.3;stroke:#000000;stroke-linejoin:miter;"/>
   </g>
   <g id="patch_227">
    <path clip-path="url(#p23cf03e275)" d="M 352.410605 83.881792 
L 347.988633 62.412124 
L 334.973105 53.874012 
L 351.612949 60.333124 
L 352.410605 83.881792 
" style="fill:#00ffff;opacity:0.3;stroke:#000000;stroke-linejoin:miter;"/>
   </g>
   <g id="patch_228">
    <path clip-path="url(#p23cf03e275)" d="M 352.410605 279.718208 
L 347.988633 301.187876 
L 334.973105 309.725988 
L 351.612949 303.266876 
L 352.410605 279.718208 
" style="fill:#00ffff;opacity:0.3;stroke:#000000;stroke-linejoin:miter;"/>
   </g>
   <g id="patch_229">
    <path clip-path="url(#p23cf03e275)" d="M 43.094395 229.305137 
L 26.591367 214.765469 
L 25.656895 199.297357 
L 22.967051 216.844469 
L 43.094395 229.305137 
" style="fill:#00ffff;opacity:0.3;stroke:#000000;stroke-linejoin:miter;"/>
   </g>
   <g id="patch_230">
    <path clip-path="url(#p23cf03e275)" d="M 241.695 -11.635794 
L 262.62 -18.565794 
L 276.57 -11.635794 
L 262.62 -22.723794 
L 241.695 -11.635794 
" style="fill:#00ffff;opacity:0.3;stroke:#000000;stroke-linejoin:miter;"/>
   </g>
   <g id="patch_231">
    <path clip-path="url(#p23cf03e275)" d="M 43.094395 134.294863 
L 26.591367 148.834531 
L 25.656895 164.302643 
L 22.967051 146.755531 
L 43.094395 134.294863 
" style="fill:#00ffff;opacity:0.3;stroke:#000000;stroke-linejoin:miter;"/>
   </g>
   <g id="patch_232">
    <path clip-path="url(#p23cf03e275)" d="M 324.510605 35.869344 
L 320.088633 14.399675 
L 307.073105 5.861563 
L 323.712949 12.320675 
L 324.510605 35.869344 
" style="fill:#00ffff;opacity:0.3;stroke:#000000;stroke-linejoin:miter;"/>
   </g>
   <g id="patch_233">
    <path clip-path="url(#p23cf03e275)" d="M 269.595 327.223345 
L 290.52 334.153345 
L 304.47 327.223345 
L 290.52 338.311345 
L 269.595 327.223345 
" style="fill:#00ffff;opacity:0.3;stroke:#000000;stroke-linejoin:miter;"/>
   </g>
   <g id="patch_234">
    <path clip-path="url(#p23cf03e275)" d="M 324.510605 327.730656 
L 320.088633 349.200325 
L 307.073105 357.738437 
L 323.712949 351.279325 
L 324.510605 327.730656 
" style="fill:#00ffff;opacity:0.3;stroke:#000000;stroke-linejoin:miter;"/>
   </g>
   <g id="patch_235">
    <path clip-path="url(#p23cf03e275)" d="M 70.994395 277.317586 
L 54.491367 262.777917 
L 53.556895 247.309805 
L 50.867051 264.856917 
L 70.994395 277.317586 
" style="fill:#00ffff;opacity:0.3;stroke:#000000;stroke-linejoin:miter;"/>
   </g>
   <g id="patch_236">
    <path clip-path="url(#p23cf03e275)" d="M 185.895 -11.635794 
L 206.82 -18.565794 
L 220.77 -11.635794 
L 206.82 -22.723794 
L 185.895 -11.635794 
" style="fill:#00ffff;opacity:0.3;stroke:#000000;stroke-linejoin:miter;"/>
   </g>
   <g id="patch_237">
    <path clip-path="url(#p23cf03e275)" d="M 98.894395 230.31976 
L 82.391367 244.859428 
L 81.456895 260.32754 
L 78.767051 242.780428 
L 98.894395 230.31976 
" style="fill:#00ffff;opacity:0.3;stroke:#000000;stroke-linejoin:miter;"/>
   </g>
   <g id="patch_238">
    <path clip-path="url(#p23cf03e275)" d="M 212.910605 35.869344 
L 208.488633 14.399675 
L 195.473105 5.861563 
L 212.112949 12.320675 
L 212.910605 35.869344 
" style="fill:#00ffff;opacity:0.3;stroke:#000000;stroke-linejoin:miter;"/>
   </g>
   <g id="patch_239">
    <path clip-path="url(#p23cf03e275)" d="M 325.395 231.198448 
L 346.32 238.128448 
L 360.27 231.198448 
L 346.32 242.286448 
L 325.395 231.198448 
" style="fill:#00ffff;opacity:0.3;stroke:#000000;stroke-linejoin:miter;"/>
   </g>
   <g id="patch_240">
    <path clip-path="url(#p23cf03e275)" d="M 325.395 132.401552 
L 346.32 125.471552 
L 360.27 132.401552 
L 346.32 121.313552 
L 325.395 132.401552 
" style="fill:#00ffff;opacity:0.3;stroke:#000000;stroke-linejoin:miter;"/>
   </g>
   <g id="patch_241">
    <path clip-path="url(#p23cf03e275)" d="M 185.010605 279.718208 
L 180.588633 301.187876 
L 167.573105 309.725988 
L 184.212949 303.266876 
L 185.010605 279.718208 
" style="fill:#00ffff;opacity:0.3;stroke:#000000;stroke-linejoin:miter;"/>
   </g>
   <g id="patch_242">
    <path clip-path="url(#p23cf03e275)" d="M 126.794395 85.267792 
L 110.291367 70.728124 
L 109.356895 55.260012 
L 106.667051 72.807124 
L 126.794395 85.267792 
" style="fill:#00ffff;opacity:0.3;stroke:#000000;stroke-linejoin:miter;"/>
   </g>
   <g id="patch_243">
    <path clip-path="url(#p23cf03e275)" d="M 126.794395 278.332208 
L 110.291367 292.871876 
L 109.356895 308.339988 
L 106.667051 290.792876 
L 126.794395 278.332208 
" style="fill:#00ffff;opacity:0.3;stroke:#000000;stroke-linejoin:miter;"/>
   </g>
   <g id="patch_244">
    <path clip-path="url(#p23cf03e275)" d="M 157.110605 35.869344 
L 152.688633 14.399675 
L 139.673105 5.861563 
L 156.312949 12.320675 
L 157.110605 35.869344 
" style="fill:#00ffff;opacity:0.3;stroke:#000000;stroke-linejoin:miter;"/>
   </g>
   <g id="patch_245">
    <path clip-path="url(#p23cf03e275)" d="M 353.295 183.186 
L 374.22 190.116 
L 388.17 183.186 
L 374.22 194.274 
L 353.295 183.186 
" style="fill:#00ffff;opacity:0.3;stroke:#000000;stroke-linejoin:miter;"/>
   </g>
   <g id="patch_246">
    <path clip-path="url(#p23cf03e275)" d="M 157.110605 327.730656 
L 152.688633 349.200325 
L 139.673105 357.738437 
L 156.312949 351.279325 
L 157.110605 327.730656 
" style="fill:#00ffff;opacity:0.3;stroke:#000000;stroke-linejoin:miter;"/>
   </g>
   <g id="patch_247">
    <path clip-path="url(#p23cf03e275)" d="M 98.894395 37.255344 
L 82.391367 22.715675 
L 81.456895 7.247563 
L 78.767051 24.794675 
L 98.894395 37.255344 
" style="fill:#00ffff;opacity:0.3;stroke:#000000;stroke-linejoin:miter;"/>
   </g>
   <g id="patch_248">
    <path clip-path="url(#p23cf03e275)" d="M 381.195 132.401552 
L 402.12 125.471552 
L 416.07 132.401552 
L 402.12 121.313552 
L 381.195 132.401552 
" style="fill:#00ffff;opacity:0.3;stroke:#000000;stroke-linejoin:miter;"/>
   </g>
   <g id="patch_249">
    <path clip-path="url(#p23cf03e275)" d="M 98.894395 326.344656 
L 82.391367 340.884325 
L 81.456895 356.352437 
L 78.767051 338.805325 
L 98.894395 326.344656 
" style="fill:#00ffff;opacity:0.3;stroke:#000000;stroke-linejoin:miter;"/>
   </g>
   <g id="patch_250">
    <path clip-path="url(#p23cf03e275)" d="M 129.210605 -12.143105 
L 124.788633 -33.612773 
L 111.773105 -42.150885 
L 128.412949 -35.691773 
L 129.210605 -12.143105 
" style="fill:#00ffff;opacity:0.3;stroke:#000000;stroke-linejoin:miter;"/>
   </g>
   <g id="patch_251">
    <path clip-path="url(#p23cf03e275)" d="M 185.010605 83.881792 
L 180.588633 62.412124 
L 167.573105 53.874012 
L 184.212949 60.333124 
L 185.010605 83.881792 
" style="fill:#00ffff;opacity:0.3;stroke:#000000;stroke-linejoin:miter;"/>
   </g>
   <g id="patch_252">
    <path clip-path="url(#p23cf03e275)" d="M 297.495 183.186 
L 318.42 190.116 
L 332.37 183.186 
L 318.42 194.274 
L 297.495 183.186 
" style="fill:#00ffff;opacity:0.3;stroke:#000000;stroke-linejoin:miter;"/>
   </g>
   <g id="patch_253">
    <path clip-path="url(#p23cf03e275)" d="M 154.694395 230.31976 
L 138.191367 244.859428 
L 137.256895 260.32754 
L 134.567051 242.780428 
L 154.694395 230.31976 
" style="fill:#00ffff;opacity:0.3;stroke:#000000;stroke-linejoin:miter;"/>
   </g>
   <g id="patch_254">
    <path clip-path="url(#p23cf03e275)" d="M 212.910605 327.730656 
L 208.488633 349.200325 
L 195.473105 357.738437 
L 212.112949 351.279325 
L 212.910605 327.730656 
" style="fill:#00ffff;opacity:0.3;stroke:#000000;stroke-linejoin:miter;"/>
   </g>
   <g id="patch_255">
    <path clip-path="url(#p23cf03e275)" d="M 70.994395 85.267792 
L 54.491367 70.728124 
L 53.556895 55.260012 
L 50.867051 72.807124 
L 70.994395 85.267792 
" style="fill:#00ffff;opacity:0.3;stroke:#000000;stroke-linejoin:miter;"/>
   </g>
   <g id="patch_256">
    <path clip-path="url(#p23cf03e275)" d="M 353.295 84.389103 
L 374.22 77.459103 
L 388.17 84.389103 
L 374.22 73.301103 
L 353.295 84.389103 
" style="fill:#00ffff;opacity:0.3;stroke:#000000;stroke-linejoin:miter;"/>
   </g>
   <g id="patch_257">
    <path clip-path="url(#p23cf03e275)" d="M 70.994395 278.332208 
L 54.491367 292.871876 
L 53.556895 308.339988 
L 50.867051 290.792876 
L 70.994395 278.332208 
" style="fill:#00ffff;opacity:0.3;stroke:#000000;stroke-linejoin:miter;"/>
   </g>
   <g id="patch_258">
    <path clip-path="url(#p23cf03e275)" d="M 185.010605 -12.143105 
L 180.588633 -33.612773 
L 167.573105 -42.150885 
L 184.212949 -35.691773 
L 185.010605 -12.143105 
" style="fill:#00ffff;opacity:0.3;stroke:#000000;stroke-linejoin:miter;"/>
   </g>
   <g id="patch_259">
    <path clip-path="url(#p23cf03e275)" d="M 269.595 228.426448 
L 290.52 221.496448 
L 304.47 228.426448 
L 290.52 217.338448 
L 269.595 228.426448 
" style="fill:#00ffff;opacity:0.3;stroke:#000000;stroke-linejoin:miter;"/>
   </g>
   <g id="patch_260">
    <path clip-path="url(#p23cf03e275)" d="M 129.210605 183.693311 
L 124.788633 205.162979 
L 111.773105 213.701091 
L 128.412949 207.241979 
L 129.210605 183.693311 
" style="fill:#00ffff;opacity:0.3;stroke:#000000;stroke-linejoin:miter;"/>
   </g>
   <g id="patch_261">
    <path clip-path="url(#p23cf03e275)" d="M 238.394395 85.267792 
L 221.891367 70.728124 
L 220.956895 55.260012 
L 218.267051 72.807124 
L 238.394395 85.267792 
" style="fill:#00ffff;opacity:0.3;stroke:#000000;stroke-linejoin:miter;"/>
   </g>
   <g id="patch_262">
    <path clip-path="url(#p23cf03e275)" d="M 210.494395 326.344656 
L 193.991367 340.884325 
L 193.056895 356.352437 
L 190.367051 338.805325 
L 210.494395 326.344656 
" style="fill:#00ffff;opacity:0.3;stroke:#000000;stroke-linejoin:miter;"/>
   </g>
   <g id="patch_263">
    <path clip-path="url(#p23cf03e275)" d="M 73.410605 83.881792 
L 68.988633 62.412124 
L 55.973105 53.874012 
L 72.612949 60.333124 
L 73.410605 83.881792 
" style="fill:#00ffff;opacity:0.3;stroke:#000000;stroke-linejoin:miter;"/>
   </g>
   <g id="patch_264">
    <path clip-path="url(#p23cf03e275)" d="M 353.295 87.161103 
L 374.22 94.091103 
L 388.17 87.161103 
L 374.22 98.249103 
L 353.295 87.161103 
" style="fill:#00ffff;opacity:0.3;stroke:#000000;stroke-linejoin:miter;"/>
   </g>
   <g id="patch_265">
    <path clip-path="url(#p23cf03e275)" d="M 73.410605 279.718208 
L 68.988633 301.187876 
L 55.973105 309.725988 
L 72.612949 303.266876 
L 73.410605 279.718208 
" style="fill:#00ffff;opacity:0.3;stroke:#000000;stroke-linejoin:miter;"/>
   </g>
   <g id="patch_266">
    <path clip-path="url(#p23cf03e275)" d="M 182.594395 -10.757105 
L 166.091367 -25.296773 
L 165.156895 -40.764885 
L 162.467051 -23.217773 
L 182.594395 -10.757105 
" style="fill:#00ffff;opacity:0.3;stroke:#000000;stroke-linejoin:miter;"/>
   </g>
   <g id="patch_267">
    <path clip-path="url(#p23cf03e275)" d="M 266.294395 326.344656 
L 249.791367 340.884325 
L 248.856895 356.352437 
L 246.167051 338.805325 
L 266.294395 326.344656 
" style="fill:#00ffff;opacity:0.3;stroke:#000000;stroke-linejoin:miter;"/>
   </g>
   <g id="patch_268">
    <path clip-path="url(#p23cf03e275)" d="M 45.510605 131.89424 
L 41.088633 110.424572 
L 28.073105 101.88646 
L 44.712949 108.345572 
L 45.510605 131.89424 
" style="fill:#00ffff;opacity:0.3;stroke:#000000;stroke-linejoin:miter;"/>
   </g>
   <g id="patch_269">
    <path clip-path="url(#p23cf03e275)" d="M 325.395 39.148655 
L 346.32 46.078655 
L 360.27 39.148655 
L 346.32 50.236655 
L 325.395 39.148655 
" style="fill:#00ffff;opacity:0.3;stroke:#000000;stroke-linejoin:miter;"/>
   </g>
   <g id="patch_270">
    <path clip-path="url(#p23cf03e275)" d="M 325.395 324.451345 
L 346.32 317.521345 
L 360.27 324.451345 
L 346.32 313.363345 
L 325.395 324.451345 
" style="fill:#00ffff;opacity:0.3;stroke:#000000;stroke-linejoin:miter;"/>
   </g>
   <g id="patch_271">
    <path clip-path="url(#p23cf03e275)" d="M 17.610605 183.693311 
L 13.188633 205.162979 
L 0.173105 213.701091 
L 16.812949 207.241979 
L 17.610605 183.693311 
" style="fill:#00ffff;opacity:0.3;stroke:#000000;stroke-linejoin:miter;"/>
   </g>
   <g id="patch_272">
    <path clip-path="url(#p23cf03e275)" d="M 45.510605 231.70576 
L 41.088633 253.175428 
L 28.073105 261.71354 
L 44.712949 255.254428 
L 45.510605 231.70576 
" style="fill:#00ffff;opacity:0.3;stroke:#000000;stroke-linejoin:miter;"/>
   </g>
   <g id="patch_273">
    <path clip-path="url(#p23cf03e275)" d="M 238.394395 -10.757105 
L 221.891367 -25.296773 
L 220.956895 -40.764885 
L 218.267051 -23.217773 
L 238.394395 -10.757105 
" style="fill:#00ffff;opacity:0.3;stroke:#000000;stroke-linejoin:miter;"/>
   </g>
   <g id="patch_274">
    <path d="M 45 320.4 
L 45 43.2 
" style="fill:none;stroke:#000000;stroke-linecap:square;stroke-linejoin:miter;stroke-width:0.8;"/>
   </g>
   <g id="patch_275">
    <path d="M 324 320.4 
L 324 43.2 
" style="fill:none;stroke:#000000;stroke-linecap:square;stroke-linejoin:miter;stroke-width:0.8;"/>
   </g>
   <g id="patch_276">
    <path d="M 45 320.4 
L 324 320.4 
" style="fill:none;stroke:#000000;stroke-linecap:square;stroke-linejoin:miter;stroke-width:0.8;"/>
   </g>
   <g id="patch_277">
    <path d="M 45 43.2 
L 324 43.2 
" style="fill:none;stroke:#000000;stroke-linecap:square;stroke-linejoin:miter;stroke-width:0.8;"/>
   </g>
   <g id="text_23">
    <!-- grupa p31m -->
    <defs>
     <path d="M 45.40625 27.984375 
Q 45.40625 37.75 41.375 43.109375 
Q 37.359375 48.484375 30.078125 48.484375 
Q 22.859375 48.484375 18.828125 43.109375 
Q 14.796875 37.75 14.796875 27.984375 
Q 14.796875 18.265625 18.828125 12.890625 
Q 22.859375 7.515625 30.078125 7.515625 
Q 37.359375 7.515625 41.375 12.890625 
Q 45.40625 18.265625 45.40625 27.984375 
z
M 54.390625 6.78125 
Q 54.390625 -7.171875 48.1875 -13.984375 
Q 42 -20.796875 29.203125 -20.796875 
Q 24.46875 -20.796875 20.265625 -20.09375 
Q 16.0625 -19.390625 12.109375 -17.921875 
L 12.109375 -9.1875 
Q 16.0625 -11.328125 19.921875 -12.34375 
Q 23.78125 -13.375 27.78125 -13.375 
Q 36.625 -13.375 41.015625 -8.765625 
Q 45.40625 -4.15625 45.40625 5.171875 
L 45.40625 9.625 
Q 42.625 4.78125 38.28125 2.390625 
Q 33.9375 0 27.875 0 
Q 17.828125 0 11.671875 7.65625 
Q 5.515625 15.328125 5.515625 27.984375 
Q 5.515625 40.671875 11.671875 48.328125 
Q 17.828125 56 27.875 56 
Q 33.9375 56 38.28125 53.609375 
Q 42.625 51.21875 45.40625 46.390625 
L 45.40625 54.6875 
L 54.390625 54.6875 
z
" id="DejaVuSans-67"/>
     <path d="M 41.109375 46.296875 
Q 39.59375 47.171875 37.8125 47.578125 
Q 36.03125 48 33.890625 48 
Q 26.265625 48 22.1875 43.046875 
Q 18.109375 38.09375 18.109375 28.8125 
L 18.109375 0 
L 9.078125 0 
L 9.078125 54.6875 
L 18.109375 54.6875 
L 18.109375 46.1875 
Q 20.953125 51.171875 25.484375 53.578125 
Q 30.03125 56 36.53125 56 
Q 37.453125 56 38.578125 55.875 
Q 39.703125 55.765625 41.0625 55.515625 
z
" id="DejaVuSans-72"/>
     <path d="M 8.5 21.578125 
L 8.5 54.6875 
L 17.484375 54.6875 
L 17.484375 21.921875 
Q 17.484375 14.15625 20.5 10.265625 
Q 23.53125 6.390625 29.59375 6.390625 
Q 36.859375 6.390625 41.078125 11.03125 
Q 45.3125 15.671875 45.3125 23.6875 
L 45.3125 54.6875 
L 54.296875 54.6875 
L 54.296875 0 
L 45.3125 0 
L 45.3125 8.40625 
Q 42.046875 3.421875 37.71875 1 
Q 33.40625 -1.421875 27.6875 -1.421875 
Q 18.265625 -1.421875 13.375 4.4375 
Q 8.5 10.296875 8.5 21.578125 
z
M 31.109375 56 
z
" id="DejaVuSans-75"/>
     <path d="M 18.109375 8.203125 
L 18.109375 -20.796875 
L 9.078125 -20.796875 
L 9.078125 54.6875 
L 18.109375 54.6875 
L 18.109375 46.390625 
Q 20.953125 51.265625 25.265625 53.625 
Q 29.59375 56 35.59375 56 
Q 45.5625 56 51.78125 48.09375 
Q 58.015625 40.1875 58.015625 27.296875 
Q 58.015625 14.40625 51.78125 6.484375 
Q 45.5625 -1.421875 35.59375 -1.421875 
Q 29.59375 -1.421875 25.265625 0.953125 
Q 20.953125 3.328125 18.109375 8.203125 
z
M 48.6875 27.296875 
Q 48.6875 37.203125 44.609375 42.84375 
Q 40.53125 48.484375 33.40625 48.484375 
Q 26.265625 48.484375 22.1875 42.84375 
Q 18.109375 37.203125 18.109375 27.296875 
Q 18.109375 17.390625 22.1875 11.75 
Q 26.265625 6.109375 33.40625 6.109375 
Q 40.53125 6.109375 44.609375 11.75 
Q 48.6875 17.390625 48.6875 27.296875 
z
" id="DejaVuSans-70"/>
     <path d="M 34.28125 27.484375 
Q 23.390625 27.484375 19.1875 25 
Q 14.984375 22.515625 14.984375 16.5 
Q 14.984375 11.71875 18.140625 8.90625 
Q 21.296875 6.109375 26.703125 6.109375 
Q 34.1875 6.109375 38.703125 11.40625 
Q 43.21875 16.703125 43.21875 25.484375 
L 43.21875 27.484375 
z
M 52.203125 31.203125 
L 52.203125 0 
L 43.21875 0 
L 43.21875 8.296875 
Q 40.140625 3.328125 35.546875 0.953125 
Q 30.953125 -1.421875 24.3125 -1.421875 
Q 15.921875 -1.421875 10.953125 3.296875 
Q 6 8.015625 6 15.921875 
Q 6 25.140625 12.171875 29.828125 
Q 18.359375 34.515625 30.609375 34.515625 
L 43.21875 34.515625 
L 43.21875 35.40625 
Q 43.21875 41.609375 39.140625 45 
Q 35.0625 48.390625 27.6875 48.390625 
Q 23 48.390625 18.546875 47.265625 
Q 14.109375 46.140625 10.015625 43.890625 
L 10.015625 52.203125 
Q 14.9375 54.109375 19.578125 55.046875 
Q 24.21875 56 28.609375 56 
Q 40.484375 56 46.34375 49.84375 
Q 52.203125 43.703125 52.203125 31.203125 
z
" id="DejaVuSans-61"/>
     <path id="DejaVuSans-20"/>
     <path d="M 52 44.1875 
Q 55.375 50.25 60.0625 53.125 
Q 64.75 56 71.09375 56 
Q 79.640625 56 84.28125 50.015625 
Q 88.921875 44.046875 88.921875 33.015625 
L 88.921875 0 
L 79.890625 0 
L 79.890625 32.71875 
Q 79.890625 40.578125 77.09375 44.375 
Q 74.3125 48.1875 68.609375 48.1875 
Q 61.625 48.1875 57.5625 43.546875 
Q 53.515625 38.921875 53.515625 30.90625 
L 53.515625 0 
L 44.484375 0 
L 44.484375 32.71875 
Q 44.484375 40.625 41.703125 44.40625 
Q 38.921875 48.1875 33.109375 48.1875 
Q 26.21875 48.1875 22.15625 43.53125 
Q 18.109375 38.875 18.109375 30.90625 
L 18.109375 0 
L 9.078125 0 
L 9.078125 54.6875 
L 18.109375 54.6875 
L 18.109375 46.1875 
Q 21.1875 51.21875 25.484375 53.609375 
Q 29.78125 56 35.6875 56 
Q 41.65625 56 45.828125 52.96875 
Q 50 49.953125 52 44.1875 
z
" id="DejaVuSans-6d"/>
    </defs>
    <g transform="translate(147.740625 37.2)scale(0.12 -0.12)">
     <use xlink:href="#DejaVuSans-67"/>
     <use x="63.476562" xlink:href="#DejaVuSans-72"/>
     <use x="104.589844" xlink:href="#DejaVuSans-75"/>
     <use x="167.96875" xlink:href="#DejaVuSans-70"/>
     <use x="231.445312" xlink:href="#DejaVuSans-61"/>
     <use x="292.724609" xlink:href="#DejaVuSans-20"/>
     <use x="324.511719" xlink:href="#DejaVuSans-70"/>
     <use x="387.988281" xlink:href="#DejaVuSans-33"/>
     <use x="451.611328" xlink:href="#DejaVuSans-31"/>
     <use x="515.234375" xlink:href="#DejaVuSans-6d"/>
    </g>
   </g>
  </g>
 </g>
 <defs>
  <clipPath id="p23cf03e275">
   <rect height="277.2" width="279" x="45" y="43.2"/>
  </clipPath>
 </defs>
</svg>
