<?xml version="1.0" encoding="utf-8" standalone="no"?>
<!DOCTYPE svg PUBLIC "-//W3C//DTD SVG 1.1//EN"
  "http://www.w3.org/Graphics/SVG/1.1/DTD/svg11.dtd">
<!-- Created with matplotlib (http://matplotlib.org/) -->
<svg height="360pt" version="1.1" viewBox="0 0 360 360" width="360pt" xmlns="http://www.w3.org/2000/svg" xmlns:xlink="http://www.w3.org/1999/xlink">
 <defs>
  <style type="text/css">
*{stroke-linecap:butt;stroke-linejoin:round;}
  </style>
 </defs>
 <g id="figure_1">
  <g id="patch_1">
   <path d="M 0 360 
L 360 360 
L 360 0 
L 0 0 
z
" style="fill:#ffffff;"/>
  </g>
  <g id="axes_1">
   <g id="patch_2">
    <path d="M 45 320.4 
L 324 320.4 
L 324 43.2 
L 45 43.2 
z
" style="fill:#ffffff;"/>
   </g>
   <g id="matplotlib.axis_1">
    <g id="xtick_1">
     <g id="line2d_1">
      <defs>
       <path d="M 0 0 
L 0 3.5 
" id="m639d8772d9" style="stroke:#000000;stroke-width:0.8;"/>
      </defs>
      <g>
       <use style="stroke:#000000;stroke-width:0.8;" x="45" xlink:href="#m639d8772d9" y="320.4"/>
      </g>
     </g>
     <g id="text_1">
      <!-- −5 -->
      <defs>
       <path d="M 10.59375 35.5 
L 73.1875 35.5 
L 73.1875 27.203125 
L 10.59375 27.203125 
z
" id="DejaVuSans-2212"/>
       <path d="M 10.796875 72.90625 
L 49.515625 72.90625 
L 49.515625 64.59375 
L 19.828125 64.59375 
L 19.828125 46.734375 
Q 21.96875 47.46875 24.109375 47.828125 
Q 26.265625 48.1875 28.421875 48.1875 
Q 40.625 48.1875 47.75 41.5 
Q 54.890625 34.8125 54.890625 23.390625 
Q 54.890625 11.625 47.5625 5.09375 
Q 40.234375 -1.421875 26.90625 -1.421875 
Q 22.3125 -1.421875 17.546875 -0.640625 
Q 12.796875 0.140625 7.71875 1.703125 
L 7.71875 11.625 
Q 12.109375 9.234375 16.796875 8.0625 
Q 21.484375 6.890625 26.703125 6.890625 
Q 35.15625 6.890625 40.078125 11.328125 
Q 45.015625 15.765625 45.015625 23.390625 
Q 45.015625 31 40.078125 35.4375 
Q 35.15625 39.890625 26.703125 39.890625 
Q 22.75 39.890625 18.8125 39.015625 
Q 14.890625 38.140625 10.796875 36.28125 
z
" id="DejaVuSans-35"/>
      </defs>
      <g transform="translate(37.628906 334.998438)scale(0.1 -0.1)">
       <use xlink:href="#DejaVuSans-2212"/>
       <use x="83.789062" xlink:href="#DejaVuSans-35"/>
      </g>
     </g>
    </g>
    <g id="xtick_2">
     <g id="line2d_2">
      <g>
       <use style="stroke:#000000;stroke-width:0.8;" x="72.9" xlink:href="#m639d8772d9" y="320.4"/>
      </g>
     </g>
     <g id="text_2">
      <!-- −4 -->
      <defs>
       <path d="M 37.796875 64.3125 
L 12.890625 25.390625 
L 37.796875 25.390625 
z
M 35.203125 72.90625 
L 47.609375 72.90625 
L 47.609375 25.390625 
L 58.015625 25.390625 
L 58.015625 17.1875 
L 47.609375 17.1875 
L 47.609375 0 
L 37.796875 0 
L 37.796875 17.1875 
L 4.890625 17.1875 
L 4.890625 26.703125 
z
" id="DejaVuSans-34"/>
      </defs>
      <g transform="translate(65.528906 334.998438)scale(0.1 -0.1)">
       <use xlink:href="#DejaVuSans-2212"/>
       <use x="83.789062" xlink:href="#DejaVuSans-34"/>
      </g>
     </g>
    </g>
    <g id="xtick_3">
     <g id="line2d_3">
      <g>
       <use style="stroke:#000000;stroke-width:0.8;" x="100.8" xlink:href="#m639d8772d9" y="320.4"/>
      </g>
     </g>
     <g id="text_3">
      <!-- −3 -->
      <defs>
       <path d="M 40.578125 39.3125 
Q 47.65625 37.796875 51.625 33 
Q 55.609375 28.21875 55.609375 21.1875 
Q 55.609375 10.40625 48.1875 4.484375 
Q 40.765625 -1.421875 27.09375 -1.421875 
Q 22.515625 -1.421875 17.65625 -0.515625 
Q 12.796875 0.390625 7.625 2.203125 
L 7.625 11.71875 
Q 11.71875 9.328125 16.59375 8.109375 
Q 21.484375 6.890625 26.8125 6.890625 
Q 36.078125 6.890625 40.9375 10.546875 
Q 45.796875 14.203125 45.796875 21.1875 
Q 45.796875 27.640625 41.28125 31.265625 
Q 36.765625 34.90625 28.71875 34.90625 
L 20.21875 34.90625 
L 20.21875 43.015625 
L 29.109375 43.015625 
Q 36.375 43.015625 40.234375 45.921875 
Q 44.09375 48.828125 44.09375 54.296875 
Q 44.09375 59.90625 40.109375 62.90625 
Q 36.140625 65.921875 28.71875 65.921875 
Q 24.65625 65.921875 20.015625 65.03125 
Q 15.375 64.15625 9.8125 62.3125 
L 9.8125 71.09375 
Q 15.4375 72.65625 20.34375 73.4375 
Q 25.25 74.21875 29.59375 74.21875 
Q 40.828125 74.21875 47.359375 69.109375 
Q 53.90625 64.015625 53.90625 55.328125 
Q 53.90625 49.265625 50.4375 45.09375 
Q 46.96875 40.921875 40.578125 39.3125 
z
" id="DejaVuSans-33"/>
      </defs>
      <g transform="translate(93.428906 334.998438)scale(0.1 -0.1)">
       <use xlink:href="#DejaVuSans-2212"/>
       <use x="83.789062" xlink:href="#DejaVuSans-33"/>
      </g>
     </g>
    </g>
    <g id="xtick_4">
     <g id="line2d_4">
      <g>
       <use style="stroke:#000000;stroke-width:0.8;" x="128.7" xlink:href="#m639d8772d9" y="320.4"/>
      </g>
     </g>
     <g id="text_4">
      <!-- −2 -->
      <defs>
       <path d="M 19.1875 8.296875 
L 53.609375 8.296875 
L 53.609375 0 
L 7.328125 0 
L 7.328125 8.296875 
Q 12.9375 14.109375 22.625 23.890625 
Q 32.328125 33.6875 34.8125 36.53125 
Q 39.546875 41.84375 41.421875 45.53125 
Q 43.3125 49.21875 43.3125 52.78125 
Q 43.3125 58.59375 39.234375 62.25 
Q 35.15625 65.921875 28.609375 65.921875 
Q 23.96875 65.921875 18.8125 64.3125 
Q 13.671875 62.703125 7.8125 59.421875 
L 7.8125 69.390625 
Q 13.765625 71.78125 18.9375 73 
Q 24.125 74.21875 28.421875 74.21875 
Q 39.75 74.21875 46.484375 68.546875 
Q 53.21875 62.890625 53.21875 53.421875 
Q 53.21875 48.921875 51.53125 44.890625 
Q 49.859375 40.875 45.40625 35.40625 
Q 44.1875 33.984375 37.640625 27.21875 
Q 31.109375 20.453125 19.1875 8.296875 
z
" id="DejaVuSans-32"/>
      </defs>
      <g transform="translate(121.328906 334.998438)scale(0.1 -0.1)">
       <use xlink:href="#DejaVuSans-2212"/>
       <use x="83.789062" xlink:href="#DejaVuSans-32"/>
      </g>
     </g>
    </g>
    <g id="xtick_5">
     <g id="line2d_5">
      <g>
       <use style="stroke:#000000;stroke-width:0.8;" x="156.6" xlink:href="#m639d8772d9" y="320.4"/>
      </g>
     </g>
     <g id="text_5">
      <!-- −1 -->
      <defs>
       <path d="M 12.40625 8.296875 
L 28.515625 8.296875 
L 28.515625 63.921875 
L 10.984375 60.40625 
L 10.984375 69.390625 
L 28.421875 72.90625 
L 38.28125 72.90625 
L 38.28125 8.296875 
L 54.390625 8.296875 
L 54.390625 0 
L 12.40625 0 
z
" id="DejaVuSans-31"/>
      </defs>
      <g transform="translate(149.228906 334.998438)scale(0.1 -0.1)">
       <use xlink:href="#DejaVuSans-2212"/>
       <use x="83.789062" xlink:href="#DejaVuSans-31"/>
      </g>
     </g>
    </g>
    <g id="xtick_6">
     <g id="line2d_6">
      <g>
       <use style="stroke:#000000;stroke-width:0.8;" x="184.5" xlink:href="#m639d8772d9" y="320.4"/>
      </g>
     </g>
     <g id="text_6">
      <!-- 0 -->
      <defs>
       <path d="M 31.78125 66.40625 
Q 24.171875 66.40625 20.328125 58.90625 
Q 16.5 51.421875 16.5 36.375 
Q 16.5 21.390625 20.328125 13.890625 
Q 24.171875 6.390625 31.78125 6.390625 
Q 39.453125 6.390625 43.28125 13.890625 
Q 47.125 21.390625 47.125 36.375 
Q 47.125 51.421875 43.28125 58.90625 
Q 39.453125 66.40625 31.78125 66.40625 
z
M 31.78125 74.21875 
Q 44.046875 74.21875 50.515625 64.515625 
Q 56.984375 54.828125 56.984375 36.375 
Q 56.984375 17.96875 50.515625 8.265625 
Q 44.046875 -1.421875 31.78125 -1.421875 
Q 19.53125 -1.421875 13.0625 8.265625 
Q 6.59375 17.96875 6.59375 36.375 
Q 6.59375 54.828125 13.0625 64.515625 
Q 19.53125 74.21875 31.78125 74.21875 
z
" id="DejaVuSans-30"/>
      </defs>
      <g transform="translate(181.31875 334.998438)scale(0.1 -0.1)">
       <use xlink:href="#DejaVuSans-30"/>
      </g>
     </g>
    </g>
    <g id="xtick_7">
     <g id="line2d_7">
      <g>
       <use style="stroke:#000000;stroke-width:0.8;" x="212.4" xlink:href="#m639d8772d9" y="320.4"/>
      </g>
     </g>
     <g id="text_7">
      <!-- 1 -->
      <g transform="translate(209.21875 334.998438)scale(0.1 -0.1)">
       <use xlink:href="#DejaVuSans-31"/>
      </g>
     </g>
    </g>
    <g id="xtick_8">
     <g id="line2d_8">
      <g>
       <use style="stroke:#000000;stroke-width:0.8;" x="240.3" xlink:href="#m639d8772d9" y="320.4"/>
      </g>
     </g>
     <g id="text_8">
      <!-- 2 -->
      <g transform="translate(237.11875 334.998438)scale(0.1 -0.1)">
       <use xlink:href="#DejaVuSans-32"/>
      </g>
     </g>
    </g>
    <g id="xtick_9">
     <g id="line2d_9">
      <g>
       <use style="stroke:#000000;stroke-width:0.8;" x="268.2" xlink:href="#m639d8772d9" y="320.4"/>
      </g>
     </g>
     <g id="text_9">
      <!-- 3 -->
      <g transform="translate(265.01875 334.998438)scale(0.1 -0.1)">
       <use xlink:href="#DejaVuSans-33"/>
      </g>
     </g>
    </g>
    <g id="xtick_10">
     <g id="line2d_10">
      <g>
       <use style="stroke:#000000;stroke-width:0.8;" x="296.1" xlink:href="#m639d8772d9" y="320.4"/>
      </g>
     </g>
     <g id="text_10">
      <!-- 4 -->
      <g transform="translate(292.91875 334.998438)scale(0.1 -0.1)">
       <use xlink:href="#DejaVuSans-34"/>
      </g>
     </g>
    </g>
    <g id="xtick_11">
     <g id="line2d_11">
      <g>
       <use style="stroke:#000000;stroke-width:0.8;" x="324" xlink:href="#m639d8772d9" y="320.4"/>
      </g>
     </g>
     <g id="text_11">
      <!-- 5 -->
      <g transform="translate(320.81875 334.998438)scale(0.1 -0.1)">
       <use xlink:href="#DejaVuSans-35"/>
      </g>
     </g>
    </g>
   </g>
   <g id="matplotlib.axis_2">
    <g id="ytick_1">
     <g id="line2d_12">
      <defs>
       <path d="M 0 0 
L -3.5 0 
" id="m38007ece58" style="stroke:#000000;stroke-width:0.8;"/>
      </defs>
      <g>
       <use style="stroke:#000000;stroke-width:0.8;" x="45" xlink:href="#m38007ece58" y="320.4"/>
      </g>
     </g>
     <g id="text_12">
      <!-- −5 -->
      <g transform="translate(23.257812 324.199219)scale(0.1 -0.1)">
       <use xlink:href="#DejaVuSans-2212"/>
       <use x="83.789062" xlink:href="#DejaVuSans-35"/>
      </g>
     </g>
    </g>
    <g id="ytick_2">
     <g id="line2d_13">
      <g>
       <use style="stroke:#000000;stroke-width:0.8;" x="45" xlink:href="#m38007ece58" y="292.68"/>
      </g>
     </g>
     <g id="text_13">
      <!-- −4 -->
      <g transform="translate(23.257812 296.479219)scale(0.1 -0.1)">
       <use xlink:href="#DejaVuSans-2212"/>
       <use x="83.789062" xlink:href="#DejaVuSans-34"/>
      </g>
     </g>
    </g>
    <g id="ytick_3">
     <g id="line2d_14">
      <g>
       <use style="stroke:#000000;stroke-width:0.8;" x="45" xlink:href="#m38007ece58" y="264.96"/>
      </g>
     </g>
     <g id="text_14">
      <!-- −3 -->
      <g transform="translate(23.257812 268.759219)scale(0.1 -0.1)">
       <use xlink:href="#DejaVuSans-2212"/>
       <use x="83.789062" xlink:href="#DejaVuSans-33"/>
      </g>
     </g>
    </g>
    <g id="ytick_4">
     <g id="line2d_15">
      <g>
       <use style="stroke:#000000;stroke-width:0.8;" x="45" xlink:href="#m38007ece58" y="237.24"/>
      </g>
     </g>
     <g id="text_15">
      <!-- −2 -->
      <g transform="translate(23.257812 241.039219)scale(0.1 -0.1)">
       <use xlink:href="#DejaVuSans-2212"/>
       <use x="83.789062" xlink:href="#DejaVuSans-32"/>
      </g>
     </g>
    </g>
    <g id="ytick_5">
     <g id="line2d_16">
      <g>
       <use style="stroke:#000000;stroke-width:0.8;" x="45" xlink:href="#m38007ece58" y="209.52"/>
      </g>
     </g>
     <g id="text_16">
      <!-- −1 -->
      <g transform="translate(23.257812 213.319219)scale(0.1 -0.1)">
       <use xlink:href="#DejaVuSans-2212"/>
       <use x="83.789062" xlink:href="#DejaVuSans-31"/>
      </g>
     </g>
    </g>
    <g id="ytick_6">
     <g id="line2d_17">
      <g>
       <use style="stroke:#000000;stroke-width:0.8;" x="45" xlink:href="#m38007ece58" y="181.8"/>
      </g>
     </g>
     <g id="text_17">
      <!-- 0 -->
      <g transform="translate(31.6375 185.599219)scale(0.1 -0.1)">
       <use xlink:href="#DejaVuSans-30"/>
      </g>
     </g>
    </g>
    <g id="ytick_7">
     <g id="line2d_18">
      <g>
       <use style="stroke:#000000;stroke-width:0.8;" x="45" xlink:href="#m38007ece58" y="154.08"/>
      </g>
     </g>
     <g id="text_18">
      <!-- 1 -->
      <g transform="translate(31.6375 157.879219)scale(0.1 -0.1)">
       <use xlink:href="#DejaVuSans-31"/>
      </g>
     </g>
    </g>
    <g id="ytick_8">
     <g id="line2d_19">
      <g>
       <use style="stroke:#000000;stroke-width:0.8;" x="45" xlink:href="#m38007ece58" y="126.36"/>
      </g>
     </g>
     <g id="text_19">
      <!-- 2 -->
      <g transform="translate(31.6375 130.159219)scale(0.1 -0.1)">
       <use xlink:href="#DejaVuSans-32"/>
      </g>
     </g>
    </g>
    <g id="ytick_9">
     <g id="line2d_20">
      <g>
       <use style="stroke:#000000;stroke-width:0.8;" x="45" xlink:href="#m38007ece58" y="98.64"/>
      </g>
     </g>
     <g id="text_20">
      <!-- 3 -->
      <g transform="translate(31.6375 102.439219)scale(0.1 -0.1)">
       <use xlink:href="#DejaVuSans-33"/>
      </g>
     </g>
    </g>
    <g id="ytick_10">
     <g id="line2d_21">
      <g>
       <use style="stroke:#000000;stroke-width:0.8;" x="45" xlink:href="#m38007ece58" y="70.92"/>
      </g>
     </g>
     <g id="text_21">
      <!-- 4 -->
      <g transform="translate(31.6375 74.719219)scale(0.1 -0.1)">
       <use xlink:href="#DejaVuSans-34"/>
      </g>
     </g>
    </g>
    <g id="ytick_11">
     <g id="line2d_22">
      <g>
       <use style="stroke:#000000;stroke-width:0.8;" x="45" xlink:href="#m38007ece58" y="43.2"/>
      </g>
     </g>
     <g id="text_22">
      <!-- 5 -->
      <g transform="translate(31.6375 46.999219)scale(0.1 -0.1)">
       <use xlink:href="#DejaVuSans-35"/>
      </g>
     </g>
    </g>
   </g>
   <g id="patch_3">
    <path clip-path="url(#pb9317bdb24)" d="M 187.29 179.028 
L 198.45 175.4244 
L 209.61 176.256 
L 204.03 156.852 
L 192.87 167.94 
L 187.29 179.028 
" style="fill:#00ffff;opacity:0.3;stroke:#000000;stroke-linejoin:miter;"/>
   </g>
   <g id="patch_4">
    <path clip-path="url(#pb9317bdb24)" d="M 187.29 184.572 
L 190.917 195.66 
L 190.08 206.748 
L 209.61 201.204 
L 198.45 190.116 
L 187.29 184.572 
" style="fill:#00ffff;opacity:0.3;stroke:#000000;stroke-linejoin:miter;"/>
   </g>
   <g id="patch_5">
    <path clip-path="url(#pb9317bdb24)" d="M 181.71 184.572 
L 170.55 188.1756 
L 159.39 187.344 
L 164.97 206.748 
L 176.13 195.66 
L 181.71 184.572 
" style="fill:#00ffff;opacity:0.3;stroke:#000000;stroke-linejoin:miter;"/>
   </g>
   <g id="patch_6">
    <path clip-path="url(#pb9317bdb24)" d="M 181.71 179.028 
L 178.083 167.94 
L 178.92 156.852 
L 159.39 162.396 
L 170.55 173.484 
L 181.71 179.028 
" style="fill:#00ffff;opacity:0.3;stroke:#000000;stroke-linejoin:miter;"/>
   </g>
   <g id="patch_7">
    <path clip-path="url(#pb9317bdb24)" d="M 187.29 123.588 
L 198.45 119.9844 
L 209.61 120.816 
L 204.03 101.412 
L 192.87 112.5 
L 187.29 123.588 
" style="fill:#00ffff;opacity:0.3;stroke:#000000;stroke-linejoin:miter;"/>
   </g>
   <g id="patch_8">
    <path clip-path="url(#pb9317bdb24)" d="M 243.09 184.572 
L 246.717 195.66 
L 245.88 206.748 
L 265.41 201.204 
L 254.25 190.116 
L 243.09 184.572 
" style="fill:#00ffff;opacity:0.3;stroke:#000000;stroke-linejoin:miter;"/>
   </g>
   <g id="patch_9">
    <path clip-path="url(#pb9317bdb24)" d="M 181.71 240.012 
L 170.55 243.6156 
L 159.39 242.784 
L 164.97 262.188 
L 176.13 251.1 
L 181.71 240.012 
" style="fill:#00ffff;opacity:0.3;stroke:#000000;stroke-linejoin:miter;"/>
   </g>
   <g id="patch_10">
    <path clip-path="url(#pb9317bdb24)" d="M 125.91 179.028 
L 122.283 167.94 
L 123.12 156.852 
L 103.59 162.396 
L 114.75 173.484 
L 125.91 179.028 
" style="fill:#00ffff;opacity:0.3;stroke:#000000;stroke-linejoin:miter;"/>
   </g>
   <g id="patch_11">
    <path clip-path="url(#pb9317bdb24)" d="M 187.29 68.148 
L 198.45 64.5444 
L 209.61 65.376 
L 204.03 45.972 
L 192.87 57.06 
L 187.29 68.148 
" style="fill:#00ffff;opacity:0.3;stroke:#000000;stroke-linejoin:miter;"/>
   </g>
   <g id="patch_12">
    <path clip-path="url(#pb9317bdb24)" d="M 298.89 184.572 
L 302.517 195.66 
L 301.68 206.748 
L 321.21 201.204 
L 310.05 190.116 
L 298.89 184.572 
" style="fill:#00ffff;opacity:0.3;stroke:#000000;stroke-linejoin:miter;"/>
   </g>
   <g id="patch_13">
    <path clip-path="url(#pb9317bdb24)" d="M 181.71 295.452 
L 170.55 299.0556 
L 159.39 298.224 
L 164.97 317.628 
L 176.13 306.54 
L 181.71 295.452 
" style="fill:#00ffff;opacity:0.3;stroke:#000000;stroke-linejoin:miter;"/>
   </g>
   <g id="patch_14">
    <path clip-path="url(#pb9317bdb24)" d="M 70.11 179.028 
L 66.483 167.94 
L 67.32 156.852 
L 47.79 162.396 
L 58.95 173.484 
L 70.11 179.028 
" style="fill:#00ffff;opacity:0.3;stroke:#000000;stroke-linejoin:miter;"/>
   </g>
   <g id="patch_15">
    <path clip-path="url(#pb9317bdb24)" d="M 187.29 12.708 
L 198.45 9.1044 
L 209.61 9.936 
L 204.03 -9.468 
L 192.87 1.62 
L 187.29 12.708 
" style="fill:#00ffff;opacity:0.3;stroke:#000000;stroke-linejoin:miter;"/>
   </g>
   <g id="patch_16">
    <path clip-path="url(#pb9317bdb24)" d="M 354.69 184.572 
L 358.317 195.66 
L 357.48 206.748 
L 377.01 201.204 
L 365.85 190.116 
L 354.69 184.572 
" style="fill:#00ffff;opacity:0.3;stroke:#000000;stroke-linejoin:miter;"/>
   </g>
   <g id="patch_17">
    <path clip-path="url(#pb9317bdb24)" d="M 181.71 350.892 
L 170.55 354.4956 
L 159.39 353.664 
L 164.97 373.068 
L 176.13 361.98 
L 181.71 350.892 
" style="fill:#00ffff;opacity:0.3;stroke:#000000;stroke-linejoin:miter;"/>
   </g>
   <g id="patch_18">
    <path clip-path="url(#pb9317bdb24)" d="M 14.31 179.028 
L 10.683 167.94 
L 11.52 156.852 
L -8.01 162.396 
L 3.15 173.484 
L 14.31 179.028 
" style="fill:#00ffff;opacity:0.3;stroke:#000000;stroke-linejoin:miter;"/>
   </g>
   <g id="patch_19">
    <path clip-path="url(#pb9317bdb24)" d="M 187.29 -42.732 
L 198.45 -46.3356 
L 209.61 -45.504 
L 204.03 -64.908 
L 192.87 -53.82 
L 187.29 -42.732 
" style="fill:#00ffff;opacity:0.3;stroke:#000000;stroke-linejoin:miter;"/>
   </g>
   <g id="patch_20">
    <path clip-path="url(#pb9317bdb24)" d="M 410.49 184.572 
L 414.117 195.66 
L 413.28 206.748 
L 432.81 201.204 
L 421.65 190.116 
L 410.49 184.572 
" style="fill:#00ffff;opacity:0.3;stroke:#000000;stroke-linejoin:miter;"/>
   </g>
   <g id="patch_21">
    <path clip-path="url(#pb9317bdb24)" d="M 14.31 123.588 
L 10.683 112.5 
L 11.52 101.412 
L -8.01 106.956 
L 3.15 118.044 
L 14.31 123.588 
" style="fill:#00ffff;opacity:0.3;stroke:#000000;stroke-linejoin:miter;"/>
   </g>
   <g id="patch_22">
    <path clip-path="url(#pb9317bdb24)" d="M 243.09 12.708 
L 254.25 9.1044 
L 265.41 9.936 
L 259.83 -9.468 
L 248.67 1.62 
L 243.09 12.708 
" style="fill:#00ffff;opacity:0.3;stroke:#000000;stroke-linejoin:miter;"/>
   </g>
   <g id="patch_23">
    <path clip-path="url(#pb9317bdb24)" d="M 354.69 240.012 
L 358.317 251.1 
L 357.48 262.188 
L 377.01 256.644 
L 365.85 245.556 
L 354.69 240.012 
" style="fill:#00ffff;opacity:0.3;stroke:#000000;stroke-linejoin:miter;"/>
   </g>
   <g id="patch_24">
    <path clip-path="url(#pb9317bdb24)" d="M 125.91 350.892 
L 114.75 354.4956 
L 103.59 353.664 
L 109.17 373.068 
L 120.33 361.98 
L 125.91 350.892 
" style="fill:#00ffff;opacity:0.3;stroke:#000000;stroke-linejoin:miter;"/>
   </g>
   <g id="patch_25">
    <path clip-path="url(#pb9317bdb24)" d="M 14.31 68.148 
L 10.683 57.06 
L 11.52 45.972 
L -8.01 51.516 
L 3.15 62.604 
L 14.31 68.148 
" style="fill:#00ffff;opacity:0.3;stroke:#000000;stroke-linejoin:miter;"/>
   </g>
   <g id="patch_26">
    <path clip-path="url(#pb9317bdb24)" d="M 298.89 12.708 
L 310.05 9.1044 
L 321.21 9.936 
L 315.63 -9.468 
L 304.47 1.62 
L 298.89 12.708 
" style="fill:#00ffff;opacity:0.3;stroke:#000000;stroke-linejoin:miter;"/>
   </g>
   <g id="patch_27">
    <path clip-path="url(#pb9317bdb24)" d="M 354.69 295.452 
L 358.317 306.54 
L 357.48 317.628 
L 377.01 312.084 
L 365.85 300.996 
L 354.69 295.452 
" style="fill:#00ffff;opacity:0.3;stroke:#000000;stroke-linejoin:miter;"/>
   </g>
   <g id="patch_28">
    <path clip-path="url(#pb9317bdb24)" d="M 70.11 350.892 
L 58.95 354.4956 
L 47.79 353.664 
L 53.37 373.068 
L 64.53 361.98 
L 70.11 350.892 
" style="fill:#00ffff;opacity:0.3;stroke:#000000;stroke-linejoin:miter;"/>
   </g>
   <g id="patch_29">
    <path clip-path="url(#pb9317bdb24)" d="M 14.31 12.708 
L 10.683 1.62 
L 11.52 -9.468 
L -8.01 -3.924 
L 3.15 7.164 
L 14.31 12.708 
" style="fill:#00ffff;opacity:0.3;stroke:#000000;stroke-linejoin:miter;"/>
   </g>
   <g id="patch_30">
    <path clip-path="url(#pb9317bdb24)" d="M 354.69 12.708 
L 365.85 9.1044 
L 377.01 9.936 
L 371.43 -9.468 
L 360.27 1.62 
L 354.69 12.708 
" style="fill:#00ffff;opacity:0.3;stroke:#000000;stroke-linejoin:miter;"/>
   </g>
   <g id="patch_31">
    <path clip-path="url(#pb9317bdb24)" d="M 354.69 350.892 
L 358.317 361.98 
L 357.48 373.068 
L 377.01 367.524 
L 365.85 356.436 
L 354.69 350.892 
" style="fill:#00ffff;opacity:0.3;stroke:#000000;stroke-linejoin:miter;"/>
   </g>
   <g id="patch_32">
    <path clip-path="url(#pb9317bdb24)" d="M 14.31 350.892 
L 3.15 354.4956 
L -8.01 353.664 
L -2.43 373.068 
L 8.73 361.98 
L 14.31 350.892 
" style="fill:#00ffff;opacity:0.3;stroke:#000000;stroke-linejoin:miter;"/>
   </g>
   <g id="patch_33">
    <path clip-path="url(#pb9317bdb24)" d="M 14.31 -42.732 
L 10.683 -53.82 
L 11.52 -64.908 
L -8.01 -59.364 
L 3.15 -48.276 
L 14.31 -42.732 
" style="fill:#00ffff;opacity:0.3;stroke:#000000;stroke-linejoin:miter;"/>
   </g>
   <g id="patch_34">
    <path clip-path="url(#pb9317bdb24)" d="M 410.49 12.708 
L 421.65 9.1044 
L 432.81 9.936 
L 427.23 -9.468 
L 416.07 1.62 
L 410.49 12.708 
" style="fill:#00ffff;opacity:0.3;stroke:#000000;stroke-linejoin:miter;"/>
   </g>
   <g id="patch_35">
    <path clip-path="url(#pb9317bdb24)" d="M 14.31 295.452 
L 3.15 299.0556 
L -8.01 298.224 
L -2.43 317.628 
L 8.73 306.54 
L 14.31 295.452 
" style="fill:#00ffff;opacity:0.3;stroke:#000000;stroke-linejoin:miter;"/>
   </g>
   <g id="patch_36">
    <path clip-path="url(#pb9317bdb24)" d="M 70.11 12.708 
L 66.483 1.62 
L 67.32 -9.468 
L 47.79 -3.924 
L 58.95 7.164 
L 70.11 12.708 
" style="fill:#00ffff;opacity:0.3;stroke:#000000;stroke-linejoin:miter;"/>
   </g>
   <g id="patch_37">
    <path clip-path="url(#pb9317bdb24)" d="M 354.69 68.148 
L 365.85 64.5444 
L 377.01 65.376 
L 371.43 45.972 
L 360.27 57.06 
L 354.69 68.148 
" style="fill:#00ffff;opacity:0.3;stroke:#000000;stroke-linejoin:miter;"/>
   </g>
   <g id="patch_38">
    <path clip-path="url(#pb9317bdb24)" d="M 298.89 350.892 
L 302.517 361.98 
L 301.68 373.068 
L 321.21 367.524 
L 310.05 356.436 
L 298.89 350.892 
" style="fill:#00ffff;opacity:0.3;stroke:#000000;stroke-linejoin:miter;"/>
   </g>
   <g id="patch_39">
    <path clip-path="url(#pb9317bdb24)" d="M 14.31 240.012 
L 3.15 243.6156 
L -8.01 242.784 
L -2.43 262.188 
L 8.73 251.1 
L 14.31 240.012 
" style="fill:#00ffff;opacity:0.3;stroke:#000000;stroke-linejoin:miter;"/>
   </g>
   <g id="patch_40">
    <path clip-path="url(#pb9317bdb24)" d="M 125.91 12.708 
L 122.283 1.62 
L 123.12 -9.468 
L 103.59 -3.924 
L 114.75 7.164 
L 125.91 12.708 
" style="fill:#00ffff;opacity:0.3;stroke:#000000;stroke-linejoin:miter;"/>
   </g>
   <g id="patch_41">
    <path clip-path="url(#pb9317bdb24)" d="M 354.69 123.588 
L 365.85 119.9844 
L 377.01 120.816 
L 371.43 101.412 
L 360.27 112.5 
L 354.69 123.588 
" style="fill:#00ffff;opacity:0.3;stroke:#000000;stroke-linejoin:miter;"/>
   </g>
   <g id="patch_42">
    <path clip-path="url(#pb9317bdb24)" d="M 243.09 350.892 
L 246.717 361.98 
L 245.88 373.068 
L 265.41 367.524 
L 254.25 356.436 
L 243.09 350.892 
" style="fill:#00ffff;opacity:0.3;stroke:#000000;stroke-linejoin:miter;"/>
   </g>
   <g id="patch_43">
    <path clip-path="url(#pb9317bdb24)" d="M 14.31 184.572 
L 3.15 188.1756 
L -8.01 187.344 
L -2.43 206.748 
L 8.73 195.66 
L 14.31 184.572 
" style="fill:#00ffff;opacity:0.3;stroke:#000000;stroke-linejoin:miter;"/>
   </g>
   <g id="patch_44">
    <path clip-path="url(#pb9317bdb24)" d="M 181.71 12.708 
L 178.083 1.62 
L 178.92 -9.468 
L 159.39 -3.924 
L 170.55 7.164 
L 181.71 12.708 
" style="fill:#00ffff;opacity:0.3;stroke:#000000;stroke-linejoin:miter;"/>
   </g>
   <g id="patch_45">
    <path clip-path="url(#pb9317bdb24)" d="M 354.69 179.028 
L 365.85 175.4244 
L 377.01 176.256 
L 371.43 156.852 
L 360.27 167.94 
L 354.69 179.028 
" style="fill:#00ffff;opacity:0.3;stroke:#000000;stroke-linejoin:miter;"/>
   </g>
   <g id="patch_46">
    <path clip-path="url(#pb9317bdb24)" d="M 187.29 350.892 
L 190.917 361.98 
L 190.08 373.068 
L 209.61 367.524 
L 198.45 356.436 
L 187.29 350.892 
" style="fill:#00ffff;opacity:0.3;stroke:#000000;stroke-linejoin:miter;"/>
   </g>
   <g id="patch_47">
    <path clip-path="url(#pb9317bdb24)" d="M 14.31 129.132 
L 3.15 132.7356 
L -8.01 131.904 
L -2.43 151.308 
L 8.73 140.22 
L 14.31 129.132 
" style="fill:#00ffff;opacity:0.3;stroke:#000000;stroke-linejoin:miter;"/>
   </g>
   <g id="patch_48">
    <path clip-path="url(#pb9317bdb24)" d="M 237.51 12.708 
L 233.883 1.62 
L 234.72 -9.468 
L 215.19 -3.924 
L 226.35 7.164 
L 237.51 12.708 
" style="fill:#00ffff;opacity:0.3;stroke:#000000;stroke-linejoin:miter;"/>
   </g>
   <g id="patch_49">
    <path clip-path="url(#pb9317bdb24)" d="M 354.69 234.468 
L 365.85 230.8644 
L 377.01 231.696 
L 371.43 212.292 
L 360.27 223.38 
L 354.69 234.468 
" style="fill:#00ffff;opacity:0.3;stroke:#000000;stroke-linejoin:miter;"/>
   </g>
   <g id="patch_50">
    <path clip-path="url(#pb9317bdb24)" d="M 131.49 350.892 
L 135.117 361.98 
L 134.28 373.068 
L 153.81 367.524 
L 142.65 356.436 
L 131.49 350.892 
" style="fill:#00ffff;opacity:0.3;stroke:#000000;stroke-linejoin:miter;"/>
   </g>
   <g id="patch_51">
    <path clip-path="url(#pb9317bdb24)" d="M 14.31 73.692 
L 3.15 77.2956 
L -8.01 76.464 
L -2.43 95.868 
L 8.73 84.78 
L 14.31 73.692 
" style="fill:#00ffff;opacity:0.3;stroke:#000000;stroke-linejoin:miter;"/>
   </g>
   <g id="patch_52">
    <path clip-path="url(#pb9317bdb24)" d="M 293.31 12.708 
L 289.683 1.62 
L 290.52 -9.468 
L 270.99 -3.924 
L 282.15 7.164 
L 293.31 12.708 
" style="fill:#00ffff;opacity:0.3;stroke:#000000;stroke-linejoin:miter;"/>
   </g>
   <g id="patch_53">
    <path clip-path="url(#pb9317bdb24)" d="M 354.69 289.908 
L 365.85 286.3044 
L 377.01 287.136 
L 371.43 267.732 
L 360.27 278.82 
L 354.69 289.908 
" style="fill:#00ffff;opacity:0.3;stroke:#000000;stroke-linejoin:miter;"/>
   </g>
   <g id="patch_54">
    <path clip-path="url(#pb9317bdb24)" d="M 75.69 350.892 
L 79.317 361.98 
L 78.48 373.068 
L 98.01 367.524 
L 86.85 356.436 
L 75.69 350.892 
" style="fill:#00ffff;opacity:0.3;stroke:#000000;stroke-linejoin:miter;"/>
   </g>
   <g id="patch_55">
    <path clip-path="url(#pb9317bdb24)" d="M 14.31 18.252 
L 3.15 21.8556 
L -8.01 21.024 
L -2.43 40.428 
L 8.73 29.34 
L 14.31 18.252 
" style="fill:#00ffff;opacity:0.3;stroke:#000000;stroke-linejoin:miter;"/>
   </g>
   <g id="patch_56">
    <path clip-path="url(#pb9317bdb24)" d="M 349.11 12.708 
L 345.483 1.62 
L 346.32 -9.468 
L 326.79 -3.924 
L 337.95 7.164 
L 349.11 12.708 
" style="fill:#00ffff;opacity:0.3;stroke:#000000;stroke-linejoin:miter;"/>
   </g>
   <g id="patch_57">
    <path clip-path="url(#pb9317bdb24)" d="M 354.69 345.348 
L 365.85 341.7444 
L 377.01 342.576 
L 371.43 323.172 
L 360.27 334.26 
L 354.69 345.348 
" style="fill:#00ffff;opacity:0.3;stroke:#000000;stroke-linejoin:miter;"/>
   </g>
   <g id="patch_58">
    <path clip-path="url(#pb9317bdb24)" d="M 19.89 350.892 
L 23.517 361.98 
L 22.68 373.068 
L 42.21 367.524 
L 31.05 356.436 
L 19.89 350.892 
" style="fill:#00ffff;opacity:0.3;stroke:#000000;stroke-linejoin:miter;"/>
   </g>
   <g id="patch_59">
    <path clip-path="url(#pb9317bdb24)" d="M 14.31 -37.188 
L 3.15 -33.5844 
L -8.01 -34.416 
L -2.43 -15.012 
L 8.73 -26.1 
L 14.31 -37.188 
" style="fill:#00ffff;opacity:0.3;stroke:#000000;stroke-linejoin:miter;"/>
   </g>
   <g id="patch_60">
    <path clip-path="url(#pb9317bdb24)" d="M 404.91 12.708 
L 401.283 1.62 
L 402.12 -9.468 
L 382.59 -3.924 
L 393.75 7.164 
L 404.91 12.708 
" style="fill:#00ffff;opacity:0.3;stroke:#000000;stroke-linejoin:miter;"/>
   </g>
   <g id="patch_61">
    <path clip-path="url(#pb9317bdb24)" d="M 19.89 295.452 
L 23.517 306.54 
L 22.68 317.628 
L 42.21 312.084 
L 31.05 300.996 
L 19.89 295.452 
" style="fill:#00ffff;opacity:0.3;stroke:#000000;stroke-linejoin:miter;"/>
   </g>
   <g id="patch_62">
    <path clip-path="url(#pb9317bdb24)" d="M 70.11 18.252 
L 58.95 21.8556 
L 47.79 21.024 
L 53.37 40.428 
L 64.53 29.34 
L 70.11 18.252 
" style="fill:#00ffff;opacity:0.3;stroke:#000000;stroke-linejoin:miter;"/>
   </g>
   <g id="patch_63">
    <path clip-path="url(#pb9317bdb24)" d="M 349.11 68.148 
L 345.483 57.06 
L 346.32 45.972 
L 326.79 51.516 
L 337.95 62.604 
L 349.11 68.148 
" style="fill:#00ffff;opacity:0.3;stroke:#000000;stroke-linejoin:miter;"/>
   </g>
   <g id="patch_64">
    <path clip-path="url(#pb9317bdb24)" d="M 298.89 345.348 
L 310.05 341.7444 
L 321.21 342.576 
L 315.63 323.172 
L 304.47 334.26 
L 298.89 345.348 
" style="fill:#00ffff;opacity:0.3;stroke:#000000;stroke-linejoin:miter;"/>
   </g>
   <g id="patch_65">
    <path clip-path="url(#pb9317bdb24)" d="M 19.89 240.012 
L 23.517 251.1 
L 22.68 262.188 
L 42.21 256.644 
L 31.05 245.556 
L 19.89 240.012 
" style="fill:#00ffff;opacity:0.3;stroke:#000000;stroke-linejoin:miter;"/>
   </g>
   <g id="patch_66">
    <path clip-path="url(#pb9317bdb24)" d="M 125.91 18.252 
L 114.75 21.8556 
L 103.59 21.024 
L 109.17 40.428 
L 120.33 29.34 
L 125.91 18.252 
" style="fill:#00ffff;opacity:0.3;stroke:#000000;stroke-linejoin:miter;"/>
   </g>
   <g id="patch_67">
    <path clip-path="url(#pb9317bdb24)" d="M 349.11 123.588 
L 345.483 112.5 
L 346.32 101.412 
L 326.79 106.956 
L 337.95 118.044 
L 349.11 123.588 
" style="fill:#00ffff;opacity:0.3;stroke:#000000;stroke-linejoin:miter;"/>
   </g>
   <g id="patch_68">
    <path clip-path="url(#pb9317bdb24)" d="M 243.09 345.348 
L 254.25 341.7444 
L 265.41 342.576 
L 259.83 323.172 
L 248.67 334.26 
L 243.09 345.348 
" style="fill:#00ffff;opacity:0.3;stroke:#000000;stroke-linejoin:miter;"/>
   </g>
   <g id="patch_69">
    <path clip-path="url(#pb9317bdb24)" d="M 19.89 184.572 
L 23.517 195.66 
L 22.68 206.748 
L 42.21 201.204 
L 31.05 190.116 
L 19.89 184.572 
" style="fill:#00ffff;opacity:0.3;stroke:#000000;stroke-linejoin:miter;"/>
   </g>
   <g id="patch_70">
    <path clip-path="url(#pb9317bdb24)" d="M 181.71 18.252 
L 170.55 21.8556 
L 159.39 21.024 
L 164.97 40.428 
L 176.13 29.34 
L 181.71 18.252 
" style="fill:#00ffff;opacity:0.3;stroke:#000000;stroke-linejoin:miter;"/>
   </g>
   <g id="patch_71">
    <path clip-path="url(#pb9317bdb24)" d="M 349.11 179.028 
L 345.483 167.94 
L 346.32 156.852 
L 326.79 162.396 
L 337.95 173.484 
L 349.11 179.028 
" style="fill:#00ffff;opacity:0.3;stroke:#000000;stroke-linejoin:miter;"/>
   </g>
   <g id="patch_72">
    <path clip-path="url(#pb9317bdb24)" d="M 187.29 345.348 
L 198.45 341.7444 
L 209.61 342.576 
L 204.03 323.172 
L 192.87 334.26 
L 187.29 345.348 
" style="fill:#00ffff;opacity:0.3;stroke:#000000;stroke-linejoin:miter;"/>
   </g>
   <g id="patch_73">
    <path clip-path="url(#pb9317bdb24)" d="M 19.89 129.132 
L 23.517 140.22 
L 22.68 151.308 
L 42.21 145.764 
L 31.05 134.676 
L 19.89 129.132 
" style="fill:#00ffff;opacity:0.3;stroke:#000000;stroke-linejoin:miter;"/>
   </g>
   <g id="patch_74">
    <path clip-path="url(#pb9317bdb24)" d="M 237.51 18.252 
L 226.35 21.8556 
L 215.19 21.024 
L 220.77 40.428 
L 231.93 29.34 
L 237.51 18.252 
" style="fill:#00ffff;opacity:0.3;stroke:#000000;stroke-linejoin:miter;"/>
   </g>
   <g id="patch_75">
    <path clip-path="url(#pb9317bdb24)" d="M 349.11 234.468 
L 345.483 223.38 
L 346.32 212.292 
L 326.79 217.836 
L 337.95 228.924 
L 349.11 234.468 
" style="fill:#00ffff;opacity:0.3;stroke:#000000;stroke-linejoin:miter;"/>
   </g>
   <g id="patch_76">
    <path clip-path="url(#pb9317bdb24)" d="M 131.49 345.348 
L 142.65 341.7444 
L 153.81 342.576 
L 148.23 323.172 
L 137.07 334.26 
L 131.49 345.348 
" style="fill:#00ffff;opacity:0.3;stroke:#000000;stroke-linejoin:miter;"/>
   </g>
   <g id="patch_77">
    <path clip-path="url(#pb9317bdb24)" d="M 19.89 73.692 
L 23.517 84.78 
L 22.68 95.868 
L 42.21 90.324 
L 31.05 79.236 
L 19.89 73.692 
" style="fill:#00ffff;opacity:0.3;stroke:#000000;stroke-linejoin:miter;"/>
   </g>
   <g id="patch_78">
    <path clip-path="url(#pb9317bdb24)" d="M 293.31 18.252 
L 282.15 21.8556 
L 270.99 21.024 
L 276.57 40.428 
L 287.73 29.34 
L 293.31 18.252 
" style="fill:#00ffff;opacity:0.3;stroke:#000000;stroke-linejoin:miter;"/>
   </g>
   <g id="patch_79">
    <path clip-path="url(#pb9317bdb24)" d="M 349.11 289.908 
L 345.483 278.82 
L 346.32 267.732 
L 326.79 273.276 
L 337.95 284.364 
L 349.11 289.908 
" style="fill:#00ffff;opacity:0.3;stroke:#000000;stroke-linejoin:miter;"/>
   </g>
   <g id="patch_80">
    <path clip-path="url(#pb9317bdb24)" d="M 75.69 345.348 
L 86.85 341.7444 
L 98.01 342.576 
L 92.43 323.172 
L 81.27 334.26 
L 75.69 345.348 
" style="fill:#00ffff;opacity:0.3;stroke:#000000;stroke-linejoin:miter;"/>
   </g>
   <g id="patch_81">
    <path clip-path="url(#pb9317bdb24)" d="M 19.89 18.252 
L 23.517 29.34 
L 22.68 40.428 
L 42.21 34.884 
L 31.05 23.796 
L 19.89 18.252 
" style="fill:#00ffff;opacity:0.3;stroke:#000000;stroke-linejoin:miter;"/>
   </g>
   <g id="patch_82">
    <path clip-path="url(#pb9317bdb24)" d="M 349.11 18.252 
L 337.95 21.8556 
L 326.79 21.024 
L 332.37 40.428 
L 343.53 29.34 
L 349.11 18.252 
" style="fill:#00ffff;opacity:0.3;stroke:#000000;stroke-linejoin:miter;"/>
   </g>
   <g id="patch_83">
    <path clip-path="url(#pb9317bdb24)" d="M 349.11 345.348 
L 345.483 334.26 
L 346.32 323.172 
L 326.79 328.716 
L 337.95 339.804 
L 349.11 345.348 
" style="fill:#00ffff;opacity:0.3;stroke:#000000;stroke-linejoin:miter;"/>
   </g>
   <g id="patch_84">
    <path clip-path="url(#pb9317bdb24)" d="M 19.89 345.348 
L 31.05 341.7444 
L 42.21 342.576 
L 36.63 323.172 
L 25.47 334.26 
L 19.89 345.348 
" style="fill:#00ffff;opacity:0.3;stroke:#000000;stroke-linejoin:miter;"/>
   </g>
   <g id="patch_85">
    <path clip-path="url(#pb9317bdb24)" d="M 19.89 -37.188 
L 23.517 -26.1 
L 22.68 -15.012 
L 42.21 -20.556 
L 31.05 -31.644 
L 19.89 -37.188 
" style="fill:#00ffff;opacity:0.3;stroke:#000000;stroke-linejoin:miter;"/>
   </g>
   <g id="patch_86">
    <path clip-path="url(#pb9317bdb24)" d="M 404.91 18.252 
L 393.75 21.8556 
L 382.59 21.024 
L 388.17 40.428 
L 399.33 29.34 
L 404.91 18.252 
" style="fill:#00ffff;opacity:0.3;stroke:#000000;stroke-linejoin:miter;"/>
   </g>
   <g id="patch_87">
    <path clip-path="url(#pb9317bdb24)" d="M 19.89 289.908 
L 31.05 286.3044 
L 42.21 287.136 
L 36.63 267.732 
L 25.47 278.82 
L 19.89 289.908 
" style="fill:#00ffff;opacity:0.3;stroke:#000000;stroke-linejoin:miter;"/>
   </g>
   <g id="patch_88">
    <path clip-path="url(#pb9317bdb24)" d="M 75.69 18.252 
L 79.317 29.34 
L 78.48 40.428 
L 98.01 34.884 
L 86.85 23.796 
L 75.69 18.252 
" style="fill:#00ffff;opacity:0.3;stroke:#000000;stroke-linejoin:miter;"/>
   </g>
   <g id="patch_89">
    <path clip-path="url(#pb9317bdb24)" d="M 349.11 73.692 
L 337.95 77.2956 
L 326.79 76.464 
L 332.37 95.868 
L 343.53 84.78 
L 349.11 73.692 
" style="fill:#00ffff;opacity:0.3;stroke:#000000;stroke-linejoin:miter;"/>
   </g>
   <g id="patch_90">
    <path clip-path="url(#pb9317bdb24)" d="M 293.31 345.348 
L 289.683 334.26 
L 290.52 323.172 
L 270.99 328.716 
L 282.15 339.804 
L 293.31 345.348 
" style="fill:#00ffff;opacity:0.3;stroke:#000000;stroke-linejoin:miter;"/>
   </g>
   <g id="patch_91">
    <path clip-path="url(#pb9317bdb24)" d="M 19.89 234.468 
L 31.05 230.8644 
L 42.21 231.696 
L 36.63 212.292 
L 25.47 223.38 
L 19.89 234.468 
" style="fill:#00ffff;opacity:0.3;stroke:#000000;stroke-linejoin:miter;"/>
   </g>
   <g id="patch_92">
    <path clip-path="url(#pb9317bdb24)" d="M 131.49 18.252 
L 135.117 29.34 
L 134.28 40.428 
L 153.81 34.884 
L 142.65 23.796 
L 131.49 18.252 
" style="fill:#00ffff;opacity:0.3;stroke:#000000;stroke-linejoin:miter;"/>
   </g>
   <g id="patch_93">
    <path clip-path="url(#pb9317bdb24)" d="M 349.11 129.132 
L 337.95 132.7356 
L 326.79 131.904 
L 332.37 151.308 
L 343.53 140.22 
L 349.11 129.132 
" style="fill:#00ffff;opacity:0.3;stroke:#000000;stroke-linejoin:miter;"/>
   </g>
   <g id="patch_94">
    <path clip-path="url(#pb9317bdb24)" d="M 237.51 345.348 
L 233.883 334.26 
L 234.72 323.172 
L 215.19 328.716 
L 226.35 339.804 
L 237.51 345.348 
" style="fill:#00ffff;opacity:0.3;stroke:#000000;stroke-linejoin:miter;"/>
   </g>
   <g id="patch_95">
    <path clip-path="url(#pb9317bdb24)" d="M 19.89 179.028 
L 31.05 175.4244 
L 42.21 176.256 
L 36.63 156.852 
L 25.47 167.94 
L 19.89 179.028 
" style="fill:#00ffff;opacity:0.3;stroke:#000000;stroke-linejoin:miter;"/>
   </g>
   <g id="patch_96">
    <path clip-path="url(#pb9317bdb24)" d="M 187.29 18.252 
L 190.917 29.34 
L 190.08 40.428 
L 209.61 34.884 
L 198.45 23.796 
L 187.29 18.252 
" style="fill:#00ffff;opacity:0.3;stroke:#000000;stroke-linejoin:miter;"/>
   </g>
   <g id="patch_97">
    <path clip-path="url(#pb9317bdb24)" d="M 349.11 184.572 
L 337.95 188.1756 
L 326.79 187.344 
L 332.37 206.748 
L 343.53 195.66 
L 349.11 184.572 
" style="fill:#00ffff;opacity:0.3;stroke:#000000;stroke-linejoin:miter;"/>
   </g>
   <g id="patch_98">
    <path clip-path="url(#pb9317bdb24)" d="M 181.71 345.348 
L 178.083 334.26 
L 178.92 323.172 
L 159.39 328.716 
L 170.55 339.804 
L 181.71 345.348 
" style="fill:#00ffff;opacity:0.3;stroke:#000000;stroke-linejoin:miter;"/>
   </g>
   <g id="patch_99">
    <path clip-path="url(#pb9317bdb24)" d="M 19.89 123.588 
L 31.05 119.9844 
L 42.21 120.816 
L 36.63 101.412 
L 25.47 112.5 
L 19.89 123.588 
" style="fill:#00ffff;opacity:0.3;stroke:#000000;stroke-linejoin:miter;"/>
   </g>
   <g id="patch_100">
    <path clip-path="url(#pb9317bdb24)" d="M 243.09 18.252 
L 246.717 29.34 
L 245.88 40.428 
L 265.41 34.884 
L 254.25 23.796 
L 243.09 18.252 
" style="fill:#00ffff;opacity:0.3;stroke:#000000;stroke-linejoin:miter;"/>
   </g>
   <g id="patch_101">
    <path clip-path="url(#pb9317bdb24)" d="M 349.11 240.012 
L 337.95 243.6156 
L 326.79 242.784 
L 332.37 262.188 
L 343.53 251.1 
L 349.11 240.012 
" style="fill:#00ffff;opacity:0.3;stroke:#000000;stroke-linejoin:miter;"/>
   </g>
   <g id="patch_102">
    <path clip-path="url(#pb9317bdb24)" d="M 125.91 345.348 
L 122.283 334.26 
L 123.12 323.172 
L 103.59 328.716 
L 114.75 339.804 
L 125.91 345.348 
" style="fill:#00ffff;opacity:0.3;stroke:#000000;stroke-linejoin:miter;"/>
   </g>
   <g id="patch_103">
    <path clip-path="url(#pb9317bdb24)" d="M 19.89 68.148 
L 31.05 64.5444 
L 42.21 65.376 
L 36.63 45.972 
L 25.47 57.06 
L 19.89 68.148 
" style="fill:#00ffff;opacity:0.3;stroke:#000000;stroke-linejoin:miter;"/>
   </g>
   <g id="patch_104">
    <path clip-path="url(#pb9317bdb24)" d="M 298.89 18.252 
L 302.517 29.34 
L 301.68 40.428 
L 321.21 34.884 
L 310.05 23.796 
L 298.89 18.252 
" style="fill:#00ffff;opacity:0.3;stroke:#000000;stroke-linejoin:miter;"/>
   </g>
   <g id="patch_105">
    <path clip-path="url(#pb9317bdb24)" d="M 349.11 295.452 
L 337.95 299.0556 
L 326.79 298.224 
L 332.37 317.628 
L 343.53 306.54 
L 349.11 295.452 
" style="fill:#00ffff;opacity:0.3;stroke:#000000;stroke-linejoin:miter;"/>
   </g>
   <g id="patch_106">
    <path clip-path="url(#pb9317bdb24)" d="M 70.11 345.348 
L 66.483 334.26 
L 67.32 323.172 
L 47.79 328.716 
L 58.95 339.804 
L 70.11 345.348 
" style="fill:#00ffff;opacity:0.3;stroke:#000000;stroke-linejoin:miter;"/>
   </g>
   <g id="patch_107">
    <path clip-path="url(#pb9317bdb24)" d="M 19.89 12.708 
L 31.05 9.1044 
L 42.21 9.936 
L 36.63 -9.468 
L 25.47 1.62 
L 19.89 12.708 
" style="fill:#00ffff;opacity:0.3;stroke:#000000;stroke-linejoin:miter;"/>
   </g>
   <g id="patch_108">
    <path clip-path="url(#pb9317bdb24)" d="M 354.69 18.252 
L 358.317 29.34 
L 357.48 40.428 
L 377.01 34.884 
L 365.85 23.796 
L 354.69 18.252 
" style="fill:#00ffff;opacity:0.3;stroke:#000000;stroke-linejoin:miter;"/>
   </g>
   <g id="patch_109">
    <path clip-path="url(#pb9317bdb24)" d="M 349.11 350.892 
L 337.95 354.4956 
L 326.79 353.664 
L 332.37 373.068 
L 343.53 361.98 
L 349.11 350.892 
" style="fill:#00ffff;opacity:0.3;stroke:#000000;stroke-linejoin:miter;"/>
   </g>
   <g id="patch_110">
    <path clip-path="url(#pb9317bdb24)" d="M 14.31 345.348 
L 10.683 334.26 
L 11.52 323.172 
L -8.01 328.716 
L 3.15 339.804 
L 14.31 345.348 
" style="fill:#00ffff;opacity:0.3;stroke:#000000;stroke-linejoin:miter;"/>
   </g>
   <g id="patch_111">
    <path clip-path="url(#pb9317bdb24)" d="M 19.89 -42.732 
L 31.05 -46.3356 
L 42.21 -45.504 
L 36.63 -64.908 
L 25.47 -53.82 
L 19.89 -42.732 
" style="fill:#00ffff;opacity:0.3;stroke:#000000;stroke-linejoin:miter;"/>
   </g>
   <g id="patch_112">
    <path clip-path="url(#pb9317bdb24)" d="M 410.49 18.252 
L 414.117 29.34 
L 413.28 40.428 
L 432.81 34.884 
L 421.65 23.796 
L 410.49 18.252 
" style="fill:#00ffff;opacity:0.3;stroke:#000000;stroke-linejoin:miter;"/>
   </g>
   <g id="patch_113">
    <path clip-path="url(#pb9317bdb24)" d="M 14.31 289.908 
L 10.683 278.82 
L 11.52 267.732 
L -8.01 273.276 
L 3.15 284.364 
L 14.31 289.908 
" style="fill:#00ffff;opacity:0.3;stroke:#000000;stroke-linejoin:miter;"/>
   </g>
   <g id="patch_114">
    <path clip-path="url(#pb9317bdb24)" d="M 75.69 12.708 
L 86.85 9.1044 
L 98.01 9.936 
L 92.43 -9.468 
L 81.27 1.62 
L 75.69 12.708 
" style="fill:#00ffff;opacity:0.3;stroke:#000000;stroke-linejoin:miter;"/>
   </g>
   <g id="patch_115">
    <path clip-path="url(#pb9317bdb24)" d="M 354.69 73.692 
L 358.317 84.78 
L 357.48 95.868 
L 377.01 90.324 
L 365.85 79.236 
L 354.69 73.692 
" style="fill:#00ffff;opacity:0.3;stroke:#000000;stroke-linejoin:miter;"/>
   </g>
   <g id="patch_116">
    <path clip-path="url(#pb9317bdb24)" d="M 293.31 350.892 
L 282.15 354.4956 
L 270.99 353.664 
L 276.57 373.068 
L 287.73 361.98 
L 293.31 350.892 
" style="fill:#00ffff;opacity:0.3;stroke:#000000;stroke-linejoin:miter;"/>
   </g>
   <g id="patch_117">
    <path clip-path="url(#pb9317bdb24)" d="M 14.31 234.468 
L 10.683 223.38 
L 11.52 212.292 
L -8.01 217.836 
L 3.15 228.924 
L 14.31 234.468 
" style="fill:#00ffff;opacity:0.3;stroke:#000000;stroke-linejoin:miter;"/>
   </g>
   <g id="patch_118">
    <path clip-path="url(#pb9317bdb24)" d="M 131.49 12.708 
L 142.65 9.1044 
L 153.81 9.936 
L 148.23 -9.468 
L 137.07 1.62 
L 131.49 12.708 
" style="fill:#00ffff;opacity:0.3;stroke:#000000;stroke-linejoin:miter;"/>
   </g>
   <g id="patch_119">
    <path clip-path="url(#pb9317bdb24)" d="M 354.69 129.132 
L 358.317 140.22 
L 357.48 151.308 
L 377.01 145.764 
L 365.85 134.676 
L 354.69 129.132 
" style="fill:#00ffff;opacity:0.3;stroke:#000000;stroke-linejoin:miter;"/>
   </g>
   <g id="patch_120">
    <path clip-path="url(#pb9317bdb24)" d="M 237.51 350.892 
L 226.35 354.4956 
L 215.19 353.664 
L 220.77 373.068 
L 231.93 361.98 
L 237.51 350.892 
" style="fill:#00ffff;opacity:0.3;stroke:#000000;stroke-linejoin:miter;"/>
   </g>
   <g id="patch_121">
    <path clip-path="url(#pb9317bdb24)" d="M 237.51 295.452 
L 226.35 299.0556 
L 215.19 298.224 
L 220.77 317.628 
L 231.93 306.54 
L 237.51 295.452 
" style="fill:#00ffff;opacity:0.3;stroke:#000000;stroke-linejoin:miter;"/>
   </g>
   <g id="patch_122">
    <path clip-path="url(#pb9317bdb24)" d="M 70.11 234.468 
L 66.483 223.38 
L 67.32 212.292 
L 47.79 217.836 
L 58.95 228.924 
L 70.11 234.468 
" style="fill:#00ffff;opacity:0.3;stroke:#000000;stroke-linejoin:miter;"/>
   </g>
   <g id="patch_123">
    <path clip-path="url(#pb9317bdb24)" d="M 131.49 68.148 
L 142.65 64.5444 
L 153.81 65.376 
L 148.23 45.972 
L 137.07 57.06 
L 131.49 68.148 
" style="fill:#00ffff;opacity:0.3;stroke:#000000;stroke-linejoin:miter;"/>
   </g>
   <g id="patch_124">
    <path clip-path="url(#pb9317bdb24)" d="M 298.89 129.132 
L 302.517 140.22 
L 301.68 151.308 
L 321.21 145.764 
L 310.05 134.676 
L 298.89 129.132 
" style="fill:#00ffff;opacity:0.3;stroke:#000000;stroke-linejoin:miter;"/>
   </g>
   <g id="patch_125">
    <path clip-path="url(#pb9317bdb24)" d="M 237.51 240.012 
L 226.35 243.6156 
L 215.19 242.784 
L 220.77 262.188 
L 231.93 251.1 
L 237.51 240.012 
" style="fill:#00ffff;opacity:0.3;stroke:#000000;stroke-linejoin:miter;"/>
   </g>
   <g id="patch_126">
    <path clip-path="url(#pb9317bdb24)" d="M 125.91 234.468 
L 122.283 223.38 
L 123.12 212.292 
L 103.59 217.836 
L 114.75 228.924 
L 125.91 234.468 
" style="fill:#00ffff;opacity:0.3;stroke:#000000;stroke-linejoin:miter;"/>
   </g>
   <g id="patch_127">
    <path clip-path="url(#pb9317bdb24)" d="M 131.49 123.588 
L 142.65 119.9844 
L 153.81 120.816 
L 148.23 101.412 
L 137.07 112.5 
L 131.49 123.588 
" style="fill:#00ffff;opacity:0.3;stroke:#000000;stroke-linejoin:miter;"/>
   </g>
   <g id="patch_128">
    <path clip-path="url(#pb9317bdb24)" d="M 243.09 129.132 
L 246.717 140.22 
L 245.88 151.308 
L 265.41 145.764 
L 254.25 134.676 
L 243.09 129.132 
" style="fill:#00ffff;opacity:0.3;stroke:#000000;stroke-linejoin:miter;"/>
   </g>
   <g id="patch_129">
    <path clip-path="url(#pb9317bdb24)" d="M 237.51 184.572 
L 226.35 188.1756 
L 215.19 187.344 
L 220.77 206.748 
L 231.93 195.66 
L 237.51 184.572 
" style="fill:#00ffff;opacity:0.3;stroke:#000000;stroke-linejoin:miter;"/>
   </g>
   <g id="patch_130">
    <path clip-path="url(#pb9317bdb24)" d="M 181.71 234.468 
L 178.083 223.38 
L 178.92 212.292 
L 159.39 217.836 
L 170.55 228.924 
L 181.71 234.468 
" style="fill:#00ffff;opacity:0.3;stroke:#000000;stroke-linejoin:miter;"/>
   </g>
   <g id="patch_131">
    <path clip-path="url(#pb9317bdb24)" d="M 131.49 179.028 
L 142.65 175.4244 
L 153.81 176.256 
L 148.23 156.852 
L 137.07 167.94 
L 131.49 179.028 
" style="fill:#00ffff;opacity:0.3;stroke:#000000;stroke-linejoin:miter;"/>
   </g>
   <g id="patch_132">
    <path clip-path="url(#pb9317bdb24)" d="M 187.29 129.132 
L 190.917 140.22 
L 190.08 151.308 
L 209.61 145.764 
L 198.45 134.676 
L 187.29 129.132 
" style="fill:#00ffff;opacity:0.3;stroke:#000000;stroke-linejoin:miter;"/>
   </g>
   <g id="patch_133">
    <path clip-path="url(#pb9317bdb24)" d="M 237.51 129.132 
L 226.35 132.7356 
L 215.19 131.904 
L 220.77 151.308 
L 231.93 140.22 
L 237.51 129.132 
" style="fill:#00ffff;opacity:0.3;stroke:#000000;stroke-linejoin:miter;"/>
   </g>
   <g id="patch_134">
    <path clip-path="url(#pb9317bdb24)" d="M 237.51 234.468 
L 233.883 223.38 
L 234.72 212.292 
L 215.19 217.836 
L 226.35 228.924 
L 237.51 234.468 
" style="fill:#00ffff;opacity:0.3;stroke:#000000;stroke-linejoin:miter;"/>
   </g>
   <g id="patch_135">
    <path clip-path="url(#pb9317bdb24)" d="M 131.49 234.468 
L 142.65 230.8644 
L 153.81 231.696 
L 148.23 212.292 
L 137.07 223.38 
L 131.49 234.468 
" style="fill:#00ffff;opacity:0.3;stroke:#000000;stroke-linejoin:miter;"/>
   </g>
   <g id="patch_136">
    <path clip-path="url(#pb9317bdb24)" d="M 131.49 129.132 
L 135.117 140.22 
L 134.28 151.308 
L 153.81 145.764 
L 142.65 134.676 
L 131.49 129.132 
" style="fill:#00ffff;opacity:0.3;stroke:#000000;stroke-linejoin:miter;"/>
   </g>
   <g id="patch_137">
    <path clip-path="url(#pb9317bdb24)" d="M 237.51 73.692 
L 226.35 77.2956 
L 215.19 76.464 
L 220.77 95.868 
L 231.93 84.78 
L 237.51 73.692 
" style="fill:#00ffff;opacity:0.3;stroke:#000000;stroke-linejoin:miter;"/>
   </g>
   <g id="patch_138">
    <path clip-path="url(#pb9317bdb24)" d="M 293.31 234.468 
L 289.683 223.38 
L 290.52 212.292 
L 270.99 217.836 
L 282.15 228.924 
L 293.31 234.468 
" style="fill:#00ffff;opacity:0.3;stroke:#000000;stroke-linejoin:miter;"/>
   </g>
   <g id="patch_139">
    <path clip-path="url(#pb9317bdb24)" d="M 131.49 289.908 
L 142.65 286.3044 
L 153.81 287.136 
L 148.23 267.732 
L 137.07 278.82 
L 131.49 289.908 
" style="fill:#00ffff;opacity:0.3;stroke:#000000;stroke-linejoin:miter;"/>
   </g>
   <g id="patch_140">
    <path clip-path="url(#pb9317bdb24)" d="M 75.69 129.132 
L 79.317 140.22 
L 78.48 151.308 
L 98.01 145.764 
L 86.85 134.676 
L 75.69 129.132 
" style="fill:#00ffff;opacity:0.3;stroke:#000000;stroke-linejoin:miter;"/>
   </g>
   <g id="patch_141">
    <path clip-path="url(#pb9317bdb24)" d="M 75.69 73.692 
L 79.317 84.78 
L 78.48 95.868 
L 98.01 90.324 
L 86.85 79.236 
L 75.69 73.692 
" style="fill:#00ffff;opacity:0.3;stroke:#000000;stroke-linejoin:miter;"/>
   </g>
   <g id="patch_142">
    <path clip-path="url(#pb9317bdb24)" d="M 293.31 73.692 
L 282.15 77.2956 
L 270.99 76.464 
L 276.57 95.868 
L 287.73 84.78 
L 293.31 73.692 
" style="fill:#00ffff;opacity:0.3;stroke:#000000;stroke-linejoin:miter;"/>
   </g>
   <g id="patch_143">
    <path clip-path="url(#pb9317bdb24)" d="M 293.31 289.908 
L 289.683 278.82 
L 290.52 267.732 
L 270.99 273.276 
L 282.15 284.364 
L 293.31 289.908 
" style="fill:#00ffff;opacity:0.3;stroke:#000000;stroke-linejoin:miter;"/>
   </g>
   <g id="patch_144">
    <path clip-path="url(#pb9317bdb24)" d="M 75.69 289.908 
L 86.85 286.3044 
L 98.01 287.136 
L 92.43 267.732 
L 81.27 278.82 
L 75.69 289.908 
" style="fill:#00ffff;opacity:0.3;stroke:#000000;stroke-linejoin:miter;"/>
   </g>
   <g id="patch_145">
    <path clip-path="url(#pb9317bdb24)" d="M 75.69 234.468 
L 86.85 230.8644 
L 98.01 231.696 
L 92.43 212.292 
L 81.27 223.38 
L 75.69 234.468 
" style="fill:#00ffff;opacity:0.3;stroke:#000000;stroke-linejoin:miter;"/>
   </g>
   <g id="patch_146">
    <path clip-path="url(#pb9317bdb24)" d="M 131.49 73.692 
L 135.117 84.78 
L 134.28 95.868 
L 153.81 90.324 
L 142.65 79.236 
L 131.49 73.692 
" style="fill:#00ffff;opacity:0.3;stroke:#000000;stroke-linejoin:miter;"/>
   </g>
   <g id="patch_147">
    <path clip-path="url(#pb9317bdb24)" d="M 293.31 129.132 
L 282.15 132.7356 
L 270.99 131.904 
L 276.57 151.308 
L 287.73 140.22 
L 293.31 129.132 
" style="fill:#00ffff;opacity:0.3;stroke:#000000;stroke-linejoin:miter;"/>
   </g>
   <g id="patch_148">
    <path clip-path="url(#pb9317bdb24)" d="M 237.51 289.908 
L 233.883 278.82 
L 234.72 267.732 
L 215.19 273.276 
L 226.35 284.364 
L 237.51 289.908 
" style="fill:#00ffff;opacity:0.3;stroke:#000000;stroke-linejoin:miter;"/>
   </g>
   <g id="patch_149">
    <path clip-path="url(#pb9317bdb24)" d="M 75.69 179.028 
L 86.85 175.4244 
L 98.01 176.256 
L 92.43 156.852 
L 81.27 167.94 
L 75.69 179.028 
" style="fill:#00ffff;opacity:0.3;stroke:#000000;stroke-linejoin:miter;"/>
   </g>
   <g id="patch_150">
    <path clip-path="url(#pb9317bdb24)" d="M 187.29 73.692 
L 190.917 84.78 
L 190.08 95.868 
L 209.61 90.324 
L 198.45 79.236 
L 187.29 73.692 
" style="fill:#00ffff;opacity:0.3;stroke:#000000;stroke-linejoin:miter;"/>
   </g>
   <g id="patch_151">
    <path clip-path="url(#pb9317bdb24)" d="M 293.31 184.572 
L 282.15 188.1756 
L 270.99 187.344 
L 276.57 206.748 
L 287.73 195.66 
L 293.31 184.572 
" style="fill:#00ffff;opacity:0.3;stroke:#000000;stroke-linejoin:miter;"/>
   </g>
   <g id="patch_152">
    <path clip-path="url(#pb9317bdb24)" d="M 181.71 289.908 
L 178.083 278.82 
L 178.92 267.732 
L 159.39 273.276 
L 170.55 284.364 
L 181.71 289.908 
" style="fill:#00ffff;opacity:0.3;stroke:#000000;stroke-linejoin:miter;"/>
   </g>
   <g id="patch_153">
    <path clip-path="url(#pb9317bdb24)" d="M 75.69 123.588 
L 86.85 119.9844 
L 98.01 120.816 
L 92.43 101.412 
L 81.27 112.5 
L 75.69 123.588 
" style="fill:#00ffff;opacity:0.3;stroke:#000000;stroke-linejoin:miter;"/>
   </g>
   <g id="patch_154">
    <path clip-path="url(#pb9317bdb24)" d="M 243.09 73.692 
L 246.717 84.78 
L 245.88 95.868 
L 265.41 90.324 
L 254.25 79.236 
L 243.09 73.692 
" style="fill:#00ffff;opacity:0.3;stroke:#000000;stroke-linejoin:miter;"/>
   </g>
   <g id="patch_155">
    <path clip-path="url(#pb9317bdb24)" d="M 293.31 240.012 
L 282.15 243.6156 
L 270.99 242.784 
L 276.57 262.188 
L 287.73 251.1 
L 293.31 240.012 
" style="fill:#00ffff;opacity:0.3;stroke:#000000;stroke-linejoin:miter;"/>
   </g>
   <g id="patch_156">
    <path clip-path="url(#pb9317bdb24)" d="M 125.91 289.908 
L 122.283 278.82 
L 123.12 267.732 
L 103.59 273.276 
L 114.75 284.364 
L 125.91 289.908 
" style="fill:#00ffff;opacity:0.3;stroke:#000000;stroke-linejoin:miter;"/>
   </g>
   <g id="patch_157">
    <path clip-path="url(#pb9317bdb24)" d="M 75.69 68.148 
L 86.85 64.5444 
L 98.01 65.376 
L 92.43 45.972 
L 81.27 57.06 
L 75.69 68.148 
" style="fill:#00ffff;opacity:0.3;stroke:#000000;stroke-linejoin:miter;"/>
   </g>
   <g id="patch_158">
    <path clip-path="url(#pb9317bdb24)" d="M 298.89 73.692 
L 302.517 84.78 
L 301.68 95.868 
L 321.21 90.324 
L 310.05 79.236 
L 298.89 73.692 
" style="fill:#00ffff;opacity:0.3;stroke:#000000;stroke-linejoin:miter;"/>
   </g>
   <g id="patch_159">
    <path clip-path="url(#pb9317bdb24)" d="M 293.31 295.452 
L 282.15 299.0556 
L 270.99 298.224 
L 276.57 317.628 
L 287.73 306.54 
L 293.31 295.452 
" style="fill:#00ffff;opacity:0.3;stroke:#000000;stroke-linejoin:miter;"/>
   </g>
   <g id="patch_160">
    <path clip-path="url(#pb9317bdb24)" d="M 70.11 289.908 
L 66.483 278.82 
L 67.32 267.732 
L 47.79 273.276 
L 58.95 284.364 
L 70.11 289.908 
" style="fill:#00ffff;opacity:0.3;stroke:#000000;stroke-linejoin:miter;"/>
   </g>
   <g id="patch_161">
    <path clip-path="url(#pb9317bdb24)" d="M 293.31 179.028 
L 289.683 167.94 
L 290.52 156.852 
L 270.99 162.396 
L 282.15 173.484 
L 293.31 179.028 
" style="fill:#00ffff;opacity:0.3;stroke:#000000;stroke-linejoin:miter;"/>
   </g>
   <g id="patch_162">
    <path clip-path="url(#pb9317bdb24)" d="M 187.29 289.908 
L 198.45 286.3044 
L 209.61 287.136 
L 204.03 267.732 
L 192.87 278.82 
L 187.29 289.908 
" style="fill:#00ffff;opacity:0.3;stroke:#000000;stroke-linejoin:miter;"/>
   </g>
   <g id="patch_163">
    <path clip-path="url(#pb9317bdb24)" d="M 75.69 184.572 
L 79.317 195.66 
L 78.48 206.748 
L 98.01 201.204 
L 86.85 190.116 
L 75.69 184.572 
" style="fill:#00ffff;opacity:0.3;stroke:#000000;stroke-linejoin:miter;"/>
   </g>
   <g id="patch_164">
    <path clip-path="url(#pb9317bdb24)" d="M 181.71 73.692 
L 170.55 77.2956 
L 159.39 76.464 
L 164.97 95.868 
L 176.13 84.78 
L 181.71 73.692 
" style="fill:#00ffff;opacity:0.3;stroke:#000000;stroke-linejoin:miter;"/>
   </g>
   <g id="patch_165">
    <path clip-path="url(#pb9317bdb24)" d="M 293.31 123.588 
L 289.683 112.5 
L 290.52 101.412 
L 270.99 106.956 
L 282.15 118.044 
L 293.31 123.588 
" style="fill:#00ffff;opacity:0.3;stroke:#000000;stroke-linejoin:miter;"/>
   </g>
   <g id="patch_166">
    <path clip-path="url(#pb9317bdb24)" d="M 243.09 289.908 
L 254.25 286.3044 
L 265.41 287.136 
L 259.83 267.732 
L 248.67 278.82 
L 243.09 289.908 
" style="fill:#00ffff;opacity:0.3;stroke:#000000;stroke-linejoin:miter;"/>
   </g>
   <g id="patch_167">
    <path clip-path="url(#pb9317bdb24)" d="M 75.69 240.012 
L 79.317 251.1 
L 78.48 262.188 
L 98.01 256.644 
L 86.85 245.556 
L 75.69 240.012 
" style="fill:#00ffff;opacity:0.3;stroke:#000000;stroke-linejoin:miter;"/>
   </g>
   <g id="patch_168">
    <path clip-path="url(#pb9317bdb24)" d="M 125.91 73.692 
L 114.75 77.2956 
L 103.59 76.464 
L 109.17 95.868 
L 120.33 84.78 
L 125.91 73.692 
" style="fill:#00ffff;opacity:0.3;stroke:#000000;stroke-linejoin:miter;"/>
   </g>
   <g id="patch_169">
    <path clip-path="url(#pb9317bdb24)" d="M 293.31 68.148 
L 289.683 57.06 
L 290.52 45.972 
L 270.99 51.516 
L 282.15 62.604 
L 293.31 68.148 
" style="fill:#00ffff;opacity:0.3;stroke:#000000;stroke-linejoin:miter;"/>
   </g>
   <g id="patch_170">
    <path clip-path="url(#pb9317bdb24)" d="M 298.89 289.908 
L 310.05 286.3044 
L 321.21 287.136 
L 315.63 267.732 
L 304.47 278.82 
L 298.89 289.908 
" style="fill:#00ffff;opacity:0.3;stroke:#000000;stroke-linejoin:miter;"/>
   </g>
   <g id="patch_171">
    <path clip-path="url(#pb9317bdb24)" d="M 75.69 295.452 
L 79.317 306.54 
L 78.48 317.628 
L 98.01 312.084 
L 86.85 300.996 
L 75.69 295.452 
" style="fill:#00ffff;opacity:0.3;stroke:#000000;stroke-linejoin:miter;"/>
   </g>
   <g id="patch_172">
    <path clip-path="url(#pb9317bdb24)" d="M 70.11 73.692 
L 58.95 77.2956 
L 47.79 76.464 
L 53.37 95.868 
L 64.53 84.78 
L 70.11 73.692 
" style="fill:#00ffff;opacity:0.3;stroke:#000000;stroke-linejoin:miter;"/>
   </g>
   <g id="patch_173">
    <path clip-path="url(#pb9317bdb24)" d="M 298.89 234.468 
L 310.05 230.8644 
L 321.21 231.696 
L 315.63 212.292 
L 304.47 223.38 
L 298.89 234.468 
" style="fill:#00ffff;opacity:0.3;stroke:#000000;stroke-linejoin:miter;"/>
   </g>
   <g id="patch_174">
    <path clip-path="url(#pb9317bdb24)" d="M 131.49 295.452 
L 135.117 306.54 
L 134.28 317.628 
L 153.81 312.084 
L 142.65 300.996 
L 131.49 295.452 
" style="fill:#00ffff;opacity:0.3;stroke:#000000;stroke-linejoin:miter;"/>
   </g>
   <g id="patch_175">
    <path clip-path="url(#pb9317bdb24)" d="M 70.11 129.132 
L 58.95 132.7356 
L 47.79 131.904 
L 53.37 151.308 
L 64.53 140.22 
L 70.11 129.132 
" style="fill:#00ffff;opacity:0.3;stroke:#000000;stroke-linejoin:miter;"/>
   </g>
   <g id="patch_176">
    <path clip-path="url(#pb9317bdb24)" d="M 237.51 68.148 
L 233.883 57.06 
L 234.72 45.972 
L 215.19 51.516 
L 226.35 62.604 
L 237.51 68.148 
" style="fill:#00ffff;opacity:0.3;stroke:#000000;stroke-linejoin:miter;"/>
   </g>
   <g id="patch_177">
    <path clip-path="url(#pb9317bdb24)" d="M 298.89 179.028 
L 310.05 175.4244 
L 321.21 176.256 
L 315.63 156.852 
L 304.47 167.94 
L 298.89 179.028 
" style="fill:#00ffff;opacity:0.3;stroke:#000000;stroke-linejoin:miter;"/>
   </g>
   <g id="patch_178">
    <path clip-path="url(#pb9317bdb24)" d="M 187.29 295.452 
L 190.917 306.54 
L 190.08 317.628 
L 209.61 312.084 
L 198.45 300.996 
L 187.29 295.452 
" style="fill:#00ffff;opacity:0.3;stroke:#000000;stroke-linejoin:miter;"/>
   </g>
   <g id="patch_179">
    <path clip-path="url(#pb9317bdb24)" d="M 70.11 184.572 
L 58.95 188.1756 
L 47.79 187.344 
L 53.37 206.748 
L 64.53 195.66 
L 70.11 184.572 
" style="fill:#00ffff;opacity:0.3;stroke:#000000;stroke-linejoin:miter;"/>
   </g>
   <g id="patch_180">
    <path clip-path="url(#pb9317bdb24)" d="M 181.71 68.148 
L 178.083 57.06 
L 178.92 45.972 
L 159.39 51.516 
L 170.55 62.604 
L 181.71 68.148 
" style="fill:#00ffff;opacity:0.3;stroke:#000000;stroke-linejoin:miter;"/>
   </g>
   <g id="patch_181">
    <path clip-path="url(#pb9317bdb24)" d="M 298.89 123.588 
L 310.05 119.9844 
L 321.21 120.816 
L 315.63 101.412 
L 304.47 112.5 
L 298.89 123.588 
" style="fill:#00ffff;opacity:0.3;stroke:#000000;stroke-linejoin:miter;"/>
   </g>
   <g id="patch_182">
    <path clip-path="url(#pb9317bdb24)" d="M 243.09 295.452 
L 246.717 306.54 
L 245.88 317.628 
L 265.41 312.084 
L 254.25 300.996 
L 243.09 295.452 
" style="fill:#00ffff;opacity:0.3;stroke:#000000;stroke-linejoin:miter;"/>
   </g>
   <g id="patch_183">
    <path clip-path="url(#pb9317bdb24)" d="M 70.11 240.012 
L 58.95 243.6156 
L 47.79 242.784 
L 53.37 262.188 
L 64.53 251.1 
L 70.11 240.012 
" style="fill:#00ffff;opacity:0.3;stroke:#000000;stroke-linejoin:miter;"/>
   </g>
   <g id="patch_184">
    <path clip-path="url(#pb9317bdb24)" d="M 125.91 68.148 
L 122.283 57.06 
L 123.12 45.972 
L 103.59 51.516 
L 114.75 62.604 
L 125.91 68.148 
" style="fill:#00ffff;opacity:0.3;stroke:#000000;stroke-linejoin:miter;"/>
   </g>
   <g id="patch_185">
    <path clip-path="url(#pb9317bdb24)" d="M 298.89 68.148 
L 310.05 64.5444 
L 321.21 65.376 
L 315.63 45.972 
L 304.47 57.06 
L 298.89 68.148 
" style="fill:#00ffff;opacity:0.3;stroke:#000000;stroke-linejoin:miter;"/>
   </g>
   <g id="patch_186">
    <path clip-path="url(#pb9317bdb24)" d="M 298.89 295.452 
L 302.517 306.54 
L 301.68 317.628 
L 321.21 312.084 
L 310.05 300.996 
L 298.89 295.452 
" style="fill:#00ffff;opacity:0.3;stroke:#000000;stroke-linejoin:miter;"/>
   </g>
   <g id="patch_187">
    <path clip-path="url(#pb9317bdb24)" d="M 70.11 295.452 
L 58.95 299.0556 
L 47.79 298.224 
L 53.37 317.628 
L 64.53 306.54 
L 70.11 295.452 
" style="fill:#00ffff;opacity:0.3;stroke:#000000;stroke-linejoin:miter;"/>
   </g>
   <g id="patch_188">
    <path clip-path="url(#pb9317bdb24)" d="M 70.11 68.148 
L 66.483 57.06 
L 67.32 45.972 
L 47.79 51.516 
L 58.95 62.604 
L 70.11 68.148 
" style="fill:#00ffff;opacity:0.3;stroke:#000000;stroke-linejoin:miter;"/>
   </g>
   <g id="patch_189">
    <path clip-path="url(#pb9317bdb24)" d="M 298.89 240.012 
L 302.517 251.1 
L 301.68 262.188 
L 321.21 256.644 
L 310.05 245.556 
L 298.89 240.012 
" style="fill:#00ffff;opacity:0.3;stroke:#000000;stroke-linejoin:miter;"/>
   </g>
   <g id="patch_190">
    <path clip-path="url(#pb9317bdb24)" d="M 125.91 295.452 
L 114.75 299.0556 
L 103.59 298.224 
L 109.17 317.628 
L 120.33 306.54 
L 125.91 295.452 
" style="fill:#00ffff;opacity:0.3;stroke:#000000;stroke-linejoin:miter;"/>
   </g>
   <g id="patch_191">
    <path clip-path="url(#pb9317bdb24)" d="M 70.11 123.588 
L 66.483 112.5 
L 67.32 101.412 
L 47.79 106.956 
L 58.95 118.044 
L 70.11 123.588 
" style="fill:#00ffff;opacity:0.3;stroke:#000000;stroke-linejoin:miter;"/>
   </g>
   <g id="patch_192">
    <path clip-path="url(#pb9317bdb24)" d="M 243.09 68.148 
L 254.25 64.5444 
L 265.41 65.376 
L 259.83 45.972 
L 248.67 57.06 
L 243.09 68.148 
" style="fill:#00ffff;opacity:0.3;stroke:#000000;stroke-linejoin:miter;"/>
   </g>
   <g id="patch_193">
    <path clip-path="url(#pb9317bdb24)" d="M 125.91 240.012 
L 114.75 243.6156 
L 103.59 242.784 
L 109.17 262.188 
L 120.33 251.1 
L 125.91 240.012 
" style="fill:#00ffff;opacity:0.3;stroke:#000000;stroke-linejoin:miter;"/>
   </g>
   <g id="patch_194">
    <path clip-path="url(#pb9317bdb24)" d="M 125.91 123.588 
L 122.283 112.5 
L 123.12 101.412 
L 103.59 106.956 
L 114.75 118.044 
L 125.91 123.588 
" style="fill:#00ffff;opacity:0.3;stroke:#000000;stroke-linejoin:miter;"/>
   </g>
   <g id="patch_195">
    <path clip-path="url(#pb9317bdb24)" d="M 243.09 123.588 
L 254.25 119.9844 
L 265.41 120.816 
L 259.83 101.412 
L 248.67 112.5 
L 243.09 123.588 
" style="fill:#00ffff;opacity:0.3;stroke:#000000;stroke-linejoin:miter;"/>
   </g>
   <g id="patch_196">
    <path clip-path="url(#pb9317bdb24)" d="M 243.09 240.012 
L 246.717 251.1 
L 245.88 262.188 
L 265.41 256.644 
L 254.25 245.556 
L 243.09 240.012 
" style="fill:#00ffff;opacity:0.3;stroke:#000000;stroke-linejoin:miter;"/>
   </g>
   <g id="patch_197">
    <path clip-path="url(#pb9317bdb24)" d="M 125.91 184.572 
L 114.75 188.1756 
L 103.59 187.344 
L 109.17 206.748 
L 120.33 195.66 
L 125.91 184.572 
" style="fill:#00ffff;opacity:0.3;stroke:#000000;stroke-linejoin:miter;"/>
   </g>
   <g id="patch_198">
    <path clip-path="url(#pb9317bdb24)" d="M 181.71 123.588 
L 178.083 112.5 
L 178.92 101.412 
L 159.39 106.956 
L 170.55 118.044 
L 181.71 123.588 
" style="fill:#00ffff;opacity:0.3;stroke:#000000;stroke-linejoin:miter;"/>
   </g>
   <g id="patch_199">
    <path clip-path="url(#pb9317bdb24)" d="M 243.09 179.028 
L 254.25 175.4244 
L 265.41 176.256 
L 259.83 156.852 
L 248.67 167.94 
L 243.09 179.028 
" style="fill:#00ffff;opacity:0.3;stroke:#000000;stroke-linejoin:miter;"/>
   </g>
   <g id="patch_200">
    <path clip-path="url(#pb9317bdb24)" d="M 187.29 240.012 
L 190.917 251.1 
L 190.08 262.188 
L 209.61 256.644 
L 198.45 245.556 
L 187.29 240.012 
" style="fill:#00ffff;opacity:0.3;stroke:#000000;stroke-linejoin:miter;"/>
   </g>
   <g id="patch_201">
    <path clip-path="url(#pb9317bdb24)" d="M 125.91 129.132 
L 114.75 132.7356 
L 103.59 131.904 
L 109.17 151.308 
L 120.33 140.22 
L 125.91 129.132 
" style="fill:#00ffff;opacity:0.3;stroke:#000000;stroke-linejoin:miter;"/>
   </g>
   <g id="patch_202">
    <path clip-path="url(#pb9317bdb24)" d="M 237.51 123.588 
L 233.883 112.5 
L 234.72 101.412 
L 215.19 106.956 
L 226.35 118.044 
L 237.51 123.588 
" style="fill:#00ffff;opacity:0.3;stroke:#000000;stroke-linejoin:miter;"/>
   </g>
   <g id="patch_203">
    <path clip-path="url(#pb9317bdb24)" d="M 243.09 234.468 
L 254.25 230.8644 
L 265.41 231.696 
L 259.83 212.292 
L 248.67 223.38 
L 243.09 234.468 
" style="fill:#00ffff;opacity:0.3;stroke:#000000;stroke-linejoin:miter;"/>
   </g>
   <g id="patch_204">
    <path clip-path="url(#pb9317bdb24)" d="M 131.49 240.012 
L 135.117 251.1 
L 134.28 262.188 
L 153.81 256.644 
L 142.65 245.556 
L 131.49 240.012 
" style="fill:#00ffff;opacity:0.3;stroke:#000000;stroke-linejoin:miter;"/>
   </g>
   <g id="patch_205">
    <path clip-path="url(#pb9317bdb24)" d="M 131.49 184.572 
L 135.117 195.66 
L 134.28 206.748 
L 153.81 201.204 
L 142.65 190.116 
L 131.49 184.572 
" style="fill:#00ffff;opacity:0.3;stroke:#000000;stroke-linejoin:miter;"/>
   </g>
   <g id="patch_206">
    <path clip-path="url(#pb9317bdb24)" d="M 181.71 129.132 
L 170.55 132.7356 
L 159.39 131.904 
L 164.97 151.308 
L 176.13 140.22 
L 181.71 129.132 
" style="fill:#00ffff;opacity:0.3;stroke:#000000;stroke-linejoin:miter;"/>
   </g>
   <g id="patch_207">
    <path clip-path="url(#pb9317bdb24)" d="M 237.51 179.028 
L 233.883 167.94 
L 234.72 156.852 
L 215.19 162.396 
L 226.35 173.484 
L 237.51 179.028 
" style="fill:#00ffff;opacity:0.3;stroke:#000000;stroke-linejoin:miter;"/>
   </g>
   <g id="patch_208">
    <path clip-path="url(#pb9317bdb24)" d="M 187.29 234.468 
L 198.45 230.8644 
L 209.61 231.696 
L 204.03 212.292 
L 192.87 223.38 
L 187.29 234.468 
" style="fill:#00ffff;opacity:0.3;stroke:#000000;stroke-linejoin:miter;"/>
   </g>
   <g id="patch_209">
    <path clip-path="url(#pb9317bdb24)" d="M 131.49 -42.732 
L 142.65 -46.3356 
L 153.81 -45.504 
L 148.23 -64.908 
L 137.07 -53.82 
L 131.49 -42.732 
" style="fill:#00ffff;opacity:0.3;stroke:#000000;stroke-linejoin:miter;"/>
   </g>
   <g id="patch_210">
    <path clip-path="url(#pb9317bdb24)" d="M 410.49 129.132 
L 414.117 140.22 
L 413.28 151.308 
L 432.81 145.764 
L 421.65 134.676 
L 410.49 129.132 
" style="fill:#00ffff;opacity:0.3;stroke:#000000;stroke-linejoin:miter;"/>
   </g>
   <g id="patch_211">
    <path clip-path="url(#pb9317bdb24)" d="M 75.69 -42.732 
L 86.85 -46.3356 
L 98.01 -45.504 
L 92.43 -64.908 
L 81.27 -53.82 
L 75.69 -42.732 
" style="fill:#00ffff;opacity:0.3;stroke:#000000;stroke-linejoin:miter;"/>
   </g>
   <g id="patch_212">
    <path clip-path="url(#pb9317bdb24)" d="M 410.49 73.692 
L 414.117 84.78 
L 413.28 95.868 
L 432.81 90.324 
L 421.65 79.236 
L 410.49 73.692 
" style="fill:#00ffff;opacity:0.3;stroke:#000000;stroke-linejoin:miter;"/>
   </g>
   <g id="patch_213">
    <path clip-path="url(#pb9317bdb24)" d="M 354.69 -37.188 
L 358.317 -26.1 
L 357.48 -15.012 
L 377.01 -20.556 
L 365.85 -31.644 
L 354.69 -37.188 
" style="fill:#00ffff;opacity:0.3;stroke:#000000;stroke-linejoin:miter;"/>
   </g>
   <g id="patch_214">
    <path clip-path="url(#pb9317bdb24)" d="M 404.91 350.892 
L 393.75 354.4956 
L 382.59 353.664 
L 388.17 373.068 
L 399.33 361.98 
L 404.91 350.892 
" style="fill:#00ffff;opacity:0.3;stroke:#000000;stroke-linejoin:miter;"/>
   </g>
   <g id="patch_215">
    <path clip-path="url(#pb9317bdb24)" d="M 298.89 -37.188 
L 302.517 -26.1 
L 301.68 -15.012 
L 321.21 -20.556 
L 310.05 -31.644 
L 298.89 -37.188 
" style="fill:#00ffff;opacity:0.3;stroke:#000000;stroke-linejoin:miter;"/>
   </g>
   <g id="patch_216">
    <path clip-path="url(#pb9317bdb24)" d="M 404.91 295.452 
L 393.75 299.0556 
L 382.59 298.224 
L 388.17 317.628 
L 399.33 306.54 
L 404.91 295.452 
" style="fill:#00ffff;opacity:0.3;stroke:#000000;stroke-linejoin:miter;"/>
   </g>
   <g id="patch_217">
    <path clip-path="url(#pb9317bdb24)" d="M 243.09 -37.188 
L 246.717 -26.1 
L 245.88 -15.012 
L 265.41 -20.556 
L 254.25 -31.644 
L 243.09 -37.188 
" style="fill:#00ffff;opacity:0.3;stroke:#000000;stroke-linejoin:miter;"/>
   </g>
   <g id="patch_218">
    <path clip-path="url(#pb9317bdb24)" d="M 404.91 240.012 
L 393.75 243.6156 
L 382.59 242.784 
L 388.17 262.188 
L 399.33 251.1 
L 404.91 240.012 
" style="fill:#00ffff;opacity:0.3;stroke:#000000;stroke-linejoin:miter;"/>
   </g>
   <g id="patch_219">
    <path clip-path="url(#pb9317bdb24)" d="M 187.29 -37.188 
L 190.917 -26.1 
L 190.08 -15.012 
L 209.61 -20.556 
L 198.45 -31.644 
L 187.29 -37.188 
" style="fill:#00ffff;opacity:0.3;stroke:#000000;stroke-linejoin:miter;"/>
   </g>
   <g id="patch_220">
    <path clip-path="url(#pb9317bdb24)" d="M 404.91 184.572 
L 393.75 188.1756 
L 382.59 187.344 
L 388.17 206.748 
L 399.33 195.66 
L 404.91 184.572 
" style="fill:#00ffff;opacity:0.3;stroke:#000000;stroke-linejoin:miter;"/>
   </g>
   <g id="patch_221">
    <path clip-path="url(#pb9317bdb24)" d="M 131.49 -37.188 
L 135.117 -26.1 
L 134.28 -15.012 
L 153.81 -20.556 
L 142.65 -31.644 
L 131.49 -37.188 
" style="fill:#00ffff;opacity:0.3;stroke:#000000;stroke-linejoin:miter;"/>
   </g>
   <g id="patch_222">
    <path clip-path="url(#pb9317bdb24)" d="M 404.91 129.132 
L 393.75 132.7356 
L 382.59 131.904 
L 388.17 151.308 
L 399.33 140.22 
L 404.91 129.132 
" style="fill:#00ffff;opacity:0.3;stroke:#000000;stroke-linejoin:miter;"/>
   </g>
   <g id="patch_223">
    <path clip-path="url(#pb9317bdb24)" d="M 75.69 -37.188 
L 79.317 -26.1 
L 78.48 -15.012 
L 98.01 -20.556 
L 86.85 -31.644 
L 75.69 -37.188 
" style="fill:#00ffff;opacity:0.3;stroke:#000000;stroke-linejoin:miter;"/>
   </g>
   <g id="patch_224">
    <path clip-path="url(#pb9317bdb24)" d="M 404.91 73.692 
L 393.75 77.2956 
L 382.59 76.464 
L 388.17 95.868 
L 399.33 84.78 
L 404.91 73.692 
" style="fill:#00ffff;opacity:0.3;stroke:#000000;stroke-linejoin:miter;"/>
   </g>
   <g id="patch_225">
    <path clip-path="url(#pb9317bdb24)" d="M 349.11 -37.188 
L 337.95 -33.5844 
L 326.79 -34.416 
L 332.37 -15.012 
L 343.53 -26.1 
L 349.11 -37.188 
" style="fill:#00ffff;opacity:0.3;stroke:#000000;stroke-linejoin:miter;"/>
   </g>
   <g id="patch_226">
    <path clip-path="url(#pb9317bdb24)" d="M 404.91 345.348 
L 401.283 334.26 
L 402.12 323.172 
L 382.59 328.716 
L 393.75 339.804 
L 404.91 345.348 
" style="fill:#00ffff;opacity:0.3;stroke:#000000;stroke-linejoin:miter;"/>
   </g>
   <g id="patch_227">
    <path clip-path="url(#pb9317bdb24)" d="M 293.31 -37.188 
L 282.15 -33.5844 
L 270.99 -34.416 
L 276.57 -15.012 
L 287.73 -26.1 
L 293.31 -37.188 
" style="fill:#00ffff;opacity:0.3;stroke:#000000;stroke-linejoin:miter;"/>
   </g>
   <g id="patch_228">
    <path clip-path="url(#pb9317bdb24)" d="M 404.91 289.908 
L 401.283 278.82 
L 402.12 267.732 
L 382.59 273.276 
L 393.75 284.364 
L 404.91 289.908 
" style="fill:#00ffff;opacity:0.3;stroke:#000000;stroke-linejoin:miter;"/>
   </g>
   <g id="patch_229">
    <path clip-path="url(#pb9317bdb24)" d="M 237.51 -37.188 
L 226.35 -33.5844 
L 215.19 -34.416 
L 220.77 -15.012 
L 231.93 -26.1 
L 237.51 -37.188 
" style="fill:#00ffff;opacity:0.3;stroke:#000000;stroke-linejoin:miter;"/>
   </g>
   <g id="patch_230">
    <path clip-path="url(#pb9317bdb24)" d="M 404.91 234.468 
L 401.283 223.38 
L 402.12 212.292 
L 382.59 217.836 
L 393.75 228.924 
L 404.91 234.468 
" style="fill:#00ffff;opacity:0.3;stroke:#000000;stroke-linejoin:miter;"/>
   </g>
   <g id="patch_231">
    <path clip-path="url(#pb9317bdb24)" d="M 181.71 -37.188 
L 170.55 -33.5844 
L 159.39 -34.416 
L 164.97 -15.012 
L 176.13 -26.1 
L 181.71 -37.188 
" style="fill:#00ffff;opacity:0.3;stroke:#000000;stroke-linejoin:miter;"/>
   </g>
   <g id="patch_232">
    <path clip-path="url(#pb9317bdb24)" d="M 404.91 179.028 
L 401.283 167.94 
L 402.12 156.852 
L 382.59 162.396 
L 393.75 173.484 
L 404.91 179.028 
" style="fill:#00ffff;opacity:0.3;stroke:#000000;stroke-linejoin:miter;"/>
   </g>
   <g id="patch_233">
    <path clip-path="url(#pb9317bdb24)" d="M 125.91 -37.188 
L 114.75 -33.5844 
L 103.59 -34.416 
L 109.17 -15.012 
L 120.33 -26.1 
L 125.91 -37.188 
" style="fill:#00ffff;opacity:0.3;stroke:#000000;stroke-linejoin:miter;"/>
   </g>
   <g id="patch_234">
    <path clip-path="url(#pb9317bdb24)" d="M 404.91 123.588 
L 401.283 112.5 
L 402.12 101.412 
L 382.59 106.956 
L 393.75 118.044 
L 404.91 123.588 
" style="fill:#00ffff;opacity:0.3;stroke:#000000;stroke-linejoin:miter;"/>
   </g>
   <g id="patch_235">
    <path clip-path="url(#pb9317bdb24)" d="M 70.11 -37.188 
L 58.95 -33.5844 
L 47.79 -34.416 
L 53.37 -15.012 
L 64.53 -26.1 
L 70.11 -37.188 
" style="fill:#00ffff;opacity:0.3;stroke:#000000;stroke-linejoin:miter;"/>
   </g>
   <g id="patch_236">
    <path clip-path="url(#pb9317bdb24)" d="M 404.91 68.148 
L 401.283 57.06 
L 402.12 45.972 
L 382.59 51.516 
L 393.75 62.604 
L 404.91 68.148 
" style="fill:#00ffff;opacity:0.3;stroke:#000000;stroke-linejoin:miter;"/>
   </g>
   <g id="patch_237">
    <path clip-path="url(#pb9317bdb24)" d="M 349.11 -42.732 
L 345.483 -53.82 
L 346.32 -64.908 
L 326.79 -59.364 
L 337.95 -48.276 
L 349.11 -42.732 
" style="fill:#00ffff;opacity:0.3;stroke:#000000;stroke-linejoin:miter;"/>
   </g>
   <g id="patch_238">
    <path clip-path="url(#pb9317bdb24)" d="M 410.49 345.348 
L 421.65 341.7444 
L 432.81 342.576 
L 427.23 323.172 
L 416.07 334.26 
L 410.49 345.348 
" style="fill:#00ffff;opacity:0.3;stroke:#000000;stroke-linejoin:miter;"/>
   </g>
   <g id="patch_239">
    <path clip-path="url(#pb9317bdb24)" d="M 293.31 -42.732 
L 289.683 -53.82 
L 290.52 -64.908 
L 270.99 -59.364 
L 282.15 -48.276 
L 293.31 -42.732 
" style="fill:#00ffff;opacity:0.3;stroke:#000000;stroke-linejoin:miter;"/>
   </g>
   <g id="patch_240">
    <path clip-path="url(#pb9317bdb24)" d="M 410.49 289.908 
L 421.65 286.3044 
L 432.81 287.136 
L 427.23 267.732 
L 416.07 278.82 
L 410.49 289.908 
" style="fill:#00ffff;opacity:0.3;stroke:#000000;stroke-linejoin:miter;"/>
   </g>
   <g id="patch_241">
    <path clip-path="url(#pb9317bdb24)" d="M 237.51 -42.732 
L 233.883 -53.82 
L 234.72 -64.908 
L 215.19 -59.364 
L 226.35 -48.276 
L 237.51 -42.732 
" style="fill:#00ffff;opacity:0.3;stroke:#000000;stroke-linejoin:miter;"/>
   </g>
   <g id="patch_242">
    <path clip-path="url(#pb9317bdb24)" d="M 410.49 234.468 
L 421.65 230.8644 
L 432.81 231.696 
L 427.23 212.292 
L 416.07 223.38 
L 410.49 234.468 
" style="fill:#00ffff;opacity:0.3;stroke:#000000;stroke-linejoin:miter;"/>
   </g>
   <g id="patch_243">
    <path clip-path="url(#pb9317bdb24)" d="M 181.71 -42.732 
L 178.083 -53.82 
L 178.92 -64.908 
L 159.39 -59.364 
L 170.55 -48.276 
L 181.71 -42.732 
" style="fill:#00ffff;opacity:0.3;stroke:#000000;stroke-linejoin:miter;"/>
   </g>
   <g id="patch_244">
    <path clip-path="url(#pb9317bdb24)" d="M 410.49 179.028 
L 421.65 175.4244 
L 432.81 176.256 
L 427.23 156.852 
L 416.07 167.94 
L 410.49 179.028 
" style="fill:#00ffff;opacity:0.3;stroke:#000000;stroke-linejoin:miter;"/>
   </g>
   <g id="patch_245">
    <path clip-path="url(#pb9317bdb24)" d="M 125.91 -42.732 
L 122.283 -53.82 
L 123.12 -64.908 
L 103.59 -59.364 
L 114.75 -48.276 
L 125.91 -42.732 
" style="fill:#00ffff;opacity:0.3;stroke:#000000;stroke-linejoin:miter;"/>
   </g>
   <g id="patch_246">
    <path clip-path="url(#pb9317bdb24)" d="M 410.49 123.588 
L 421.65 119.9844 
L 432.81 120.816 
L 427.23 101.412 
L 416.07 112.5 
L 410.49 123.588 
" style="fill:#00ffff;opacity:0.3;stroke:#000000;stroke-linejoin:miter;"/>
   </g>
   <g id="patch_247">
    <path clip-path="url(#pb9317bdb24)" d="M 70.11 -42.732 
L 66.483 -53.82 
L 67.32 -64.908 
L 47.79 -59.364 
L 58.95 -48.276 
L 70.11 -42.732 
" style="fill:#00ffff;opacity:0.3;stroke:#000000;stroke-linejoin:miter;"/>
   </g>
   <g id="patch_248">
    <path clip-path="url(#pb9317bdb24)" d="M 410.49 68.148 
L 421.65 64.5444 
L 432.81 65.376 
L 427.23 45.972 
L 416.07 57.06 
L 410.49 68.148 
" style="fill:#00ffff;opacity:0.3;stroke:#000000;stroke-linejoin:miter;"/>
   </g>
   <g id="patch_249">
    <path clip-path="url(#pb9317bdb24)" d="M 354.69 -42.732 
L 365.85 -46.3356 
L 377.01 -45.504 
L 371.43 -64.908 
L 360.27 -53.82 
L 354.69 -42.732 
" style="fill:#00ffff;opacity:0.3;stroke:#000000;stroke-linejoin:miter;"/>
   </g>
   <g id="patch_250">
    <path clip-path="url(#pb9317bdb24)" d="M 410.49 350.892 
L 414.117 361.98 
L 413.28 373.068 
L 432.81 367.524 
L 421.65 356.436 
L 410.49 350.892 
" style="fill:#00ffff;opacity:0.3;stroke:#000000;stroke-linejoin:miter;"/>
   </g>
   <g id="patch_251">
    <path clip-path="url(#pb9317bdb24)" d="M 298.89 -42.732 
L 310.05 -46.3356 
L 321.21 -45.504 
L 315.63 -64.908 
L 304.47 -53.82 
L 298.89 -42.732 
" style="fill:#00ffff;opacity:0.3;stroke:#000000;stroke-linejoin:miter;"/>
   </g>
   <g id="patch_252">
    <path clip-path="url(#pb9317bdb24)" d="M 410.49 295.452 
L 414.117 306.54 
L 413.28 317.628 
L 432.81 312.084 
L 421.65 300.996 
L 410.49 295.452 
" style="fill:#00ffff;opacity:0.3;stroke:#000000;stroke-linejoin:miter;"/>
   </g>
   <g id="patch_253">
    <path clip-path="url(#pb9317bdb24)" d="M 243.09 -42.732 
L 254.25 -46.3356 
L 265.41 -45.504 
L 259.83 -64.908 
L 248.67 -53.82 
L 243.09 -42.732 
" style="fill:#00ffff;opacity:0.3;stroke:#000000;stroke-linejoin:miter;"/>
   </g>
   <g id="patch_254">
    <path clip-path="url(#pb9317bdb24)" d="M 410.49 240.012 
L 414.117 251.1 
L 413.28 262.188 
L 432.81 256.644 
L 421.65 245.556 
L 410.49 240.012 
" style="fill:#00ffff;opacity:0.3;stroke:#000000;stroke-linejoin:miter;"/>
   </g>
   <g id="patch_255">
    <path d="M 45 320.4 
L 45 43.2 
" style="fill:none;stroke:#000000;stroke-linecap:square;stroke-linejoin:miter;stroke-width:0.8;"/>
   </g>
   <g id="patch_256">
    <path d="M 324 320.4 
L 324 43.2 
" style="fill:none;stroke:#000000;stroke-linecap:square;stroke-linejoin:miter;stroke-width:0.8;"/>
   </g>
   <g id="patch_257">
    <path d="M 45 320.4 
L 324 320.4 
" style="fill:none;stroke:#000000;stroke-linecap:square;stroke-linejoin:miter;stroke-width:0.8;"/>
   </g>
   <g id="patch_258">
    <path d="M 45 43.2 
L 324 43.2 
" style="fill:none;stroke:#000000;stroke-linecap:square;stroke-linejoin:miter;stroke-width:0.8;"/>
   </g>
   <g id="text_23">
    <!-- grupa p4 -->
    <defs>
     <path d="M 45.40625 27.984375 
Q 45.40625 37.75 41.375 43.109375 
Q 37.359375 48.484375 30.078125 48.484375 
Q 22.859375 48.484375 18.828125 43.109375 
Q 14.796875 37.75 14.796875 27.984375 
Q 14.796875 18.265625 18.828125 12.890625 
Q 22.859375 7.515625 30.078125 7.515625 
Q 37.359375 7.515625 41.375 12.890625 
Q 45.40625 18.265625 45.40625 27.984375 
z
M 54.390625 6.78125 
Q 54.390625 -7.171875 48.1875 -13.984375 
Q 42 -20.796875 29.203125 -20.796875 
Q 24.46875 -20.796875 20.265625 -20.09375 
Q 16.0625 -19.390625 12.109375 -17.921875 
L 12.109375 -9.1875 
Q 16.0625 -11.328125 19.921875 -12.34375 
Q 23.78125 -13.375 27.78125 -13.375 
Q 36.625 -13.375 41.015625 -8.765625 
Q 45.40625 -4.15625 45.40625 5.171875 
L 45.40625 9.625 
Q 42.625 4.78125 38.28125 2.390625 
Q 33.9375 0 27.875 0 
Q 17.828125 0 11.671875 7.65625 
Q 5.515625 15.328125 5.515625 27.984375 
Q 5.515625 40.671875 11.671875 48.328125 
Q 17.828125 56 27.875 56 
Q 33.9375 56 38.28125 53.609375 
Q 42.625 51.21875 45.40625 46.390625 
L 45.40625 54.6875 
L 54.390625 54.6875 
z
" id="DejaVuSans-67"/>
     <path d="M 41.109375 46.296875 
Q 39.59375 47.171875 37.8125 47.578125 
Q 36.03125 48 33.890625 48 
Q 26.265625 48 22.1875 43.046875 
Q 18.109375 38.09375 18.109375 28.8125 
L 18.109375 0 
L 9.078125 0 
L 9.078125 54.6875 
L 18.109375 54.6875 
L 18.109375 46.1875 
Q 20.953125 51.171875 25.484375 53.578125 
Q 30.03125 56 36.53125 56 
Q 37.453125 56 38.578125 55.875 
Q 39.703125 55.765625 41.0625 55.515625 
z
" id="DejaVuSans-72"/>
     <path d="M 8.5 21.578125 
L 8.5 54.6875 
L 17.484375 54.6875 
L 17.484375 21.921875 
Q 17.484375 14.15625 20.5 10.265625 
Q 23.53125 6.390625 29.59375 6.390625 
Q 36.859375 6.390625 41.078125 11.03125 
Q 45.3125 15.671875 45.3125 23.6875 
L 45.3125 54.6875 
L 54.296875 54.6875 
L 54.296875 0 
L 45.3125 0 
L 45.3125 8.40625 
Q 42.046875 3.421875 37.71875 1 
Q 33.40625 -1.421875 27.6875 -1.421875 
Q 18.265625 -1.421875 13.375 4.4375 
Q 8.5 10.296875 8.5 21.578125 
z
M 31.109375 56 
z
" id="DejaVuSans-75"/>
     <path d="M 18.109375 8.203125 
L 18.109375 -20.796875 
L 9.078125 -20.796875 
L 9.078125 54.6875 
L 18.109375 54.6875 
L 18.109375 46.390625 
Q 20.953125 51.265625 25.265625 53.625 
Q 29.59375 56 35.59375 56 
Q 45.5625 56 51.78125 48.09375 
Q 58.015625 40.1875 58.015625 27.296875 
Q 58.015625 14.40625 51.78125 6.484375 
Q 45.5625 -1.421875 35.59375 -1.421875 
Q 29.59375 -1.421875 25.265625 0.953125 
Q 20.953125 3.328125 18.109375 8.203125 
z
M 48.6875 27.296875 
Q 48.6875 37.203125 44.609375 42.84375 
Q 40.53125 48.484375 33.40625 48.484375 
Q 26.265625 48.484375 22.1875 42.84375 
Q 18.109375 37.203125 18.109375 27.296875 
Q 18.109375 17.390625 22.1875 11.75 
Q 26.265625 6.109375 33.40625 6.109375 
Q 40.53125 6.109375 44.609375 11.75 
Q 48.6875 17.390625 48.6875 27.296875 
z
" id="DejaVuSans-70"/>
     <path d="M 34.28125 27.484375 
Q 23.390625 27.484375 19.1875 25 
Q 14.984375 22.515625 14.984375 16.5 
Q 14.984375 11.71875 18.140625 8.90625 
Q 21.296875 6.109375 26.703125 6.109375 
Q 34.1875 6.109375 38.703125 11.40625 
Q 43.21875 16.703125 43.21875 25.484375 
L 43.21875 27.484375 
z
M 52.203125 31.203125 
L 52.203125 0 
L 43.21875 0 
L 43.21875 8.296875 
Q 40.140625 3.328125 35.546875 0.953125 
Q 30.953125 -1.421875 24.3125 -1.421875 
Q 15.921875 -1.421875 10.953125 3.296875 
Q 6 8.015625 6 15.921875 
Q 6 25.140625 12.171875 29.828125 
Q 18.359375 34.515625 30.609375 34.515625 
L 43.21875 34.515625 
L 43.21875 35.40625 
Q 43.21875 41.609375 39.140625 45 
Q 35.0625 48.390625 27.6875 48.390625 
Q 23 48.390625 18.546875 47.265625 
Q 14.109375 46.140625 10.015625 43.890625 
L 10.015625 52.203125 
Q 14.9375 54.109375 19.578125 55.046875 
Q 24.21875 56 28.609375 56 
Q 40.484375 56 46.34375 49.84375 
Q 52.203125 43.703125 52.203125 31.203125 
z
" id="DejaVuSans-61"/>
     <path id="DejaVuSans-20"/>
    </defs>
    <g transform="translate(157.4025 37.2)scale(0.12 -0.12)">
     <use xlink:href="#DejaVuSans-67"/>
     <use x="63.476562" xlink:href="#DejaVuSans-72"/>
     <use x="104.589844" xlink:href="#DejaVuSans-75"/>
     <use x="167.96875" xlink:href="#DejaVuSans-70"/>
     <use x="231.445312" xlink:href="#DejaVuSans-61"/>
     <use x="292.724609" xlink:href="#DejaVuSans-20"/>
     <use x="324.511719" xlink:href="#DejaVuSans-70"/>
     <use x="387.988281" xlink:href="#DejaVuSans-34"/>
    </g>
   </g>
  </g>
 </g>
 <defs>
  <clipPath id="pb9317bdb24">
   <rect height="277.2" width="279" x="45" y="43.2"/>
  </clipPath>
 </defs>
</svg>
