<?xml version="1.0" encoding="utf-8" standalone="no"?>
<!DOCTYPE svg PUBLIC "-//W3C//DTD SVG 1.1//EN"
  "http://www.w3.org/Graphics/SVG/1.1/DTD/svg11.dtd">
<!-- Created with matplotlib (http://matplotlib.org/) -->
<svg height="360pt" version="1.1" viewBox="0 0 360 360" width="360pt" xmlns="http://www.w3.org/2000/svg" xmlns:xlink="http://www.w3.org/1999/xlink">
 <defs>
  <style type="text/css">
*{stroke-linecap:butt;stroke-linejoin:round;}
  </style>
 </defs>
 <g id="figure_1">
  <g id="patch_1">
   <path d="M 0 360 
L 360 360 
L 360 0 
L 0 0 
z
" style="fill:#ffffff;"/>
  </g>
  <g id="axes_1">
   <g id="patch_2">
    <path d="M 45 320.4 
L 324 320.4 
L 324 43.2 
L 45 43.2 
z
" style="fill:#ffffff;"/>
   </g>
   <g id="matplotlib.axis_1">
    <g id="xtick_1">
     <g id="line2d_1">
      <defs>
       <path d="M 0 0 
L 0 3.5 
" id="m26ad458e44" style="stroke:#000000;stroke-width:0.8;"/>
      </defs>
      <g>
       <use style="stroke:#000000;stroke-width:0.8;" x="45" xlink:href="#m26ad458e44" y="320.4"/>
      </g>
     </g>
     <g id="text_1">
      <!-- −5 -->
      <defs>
       <path d="M 10.59375 35.5 
L 73.1875 35.5 
L 73.1875 27.203125 
L 10.59375 27.203125 
z
" id="DejaVuSans-2212"/>
       <path d="M 10.796875 72.90625 
L 49.515625 72.90625 
L 49.515625 64.59375 
L 19.828125 64.59375 
L 19.828125 46.734375 
Q 21.96875 47.46875 24.109375 47.828125 
Q 26.265625 48.1875 28.421875 48.1875 
Q 40.625 48.1875 47.75 41.5 
Q 54.890625 34.8125 54.890625 23.390625 
Q 54.890625 11.625 47.5625 5.09375 
Q 40.234375 -1.421875 26.90625 -1.421875 
Q 22.3125 -1.421875 17.546875 -0.640625 
Q 12.796875 0.140625 7.71875 1.703125 
L 7.71875 11.625 
Q 12.109375 9.234375 16.796875 8.0625 
Q 21.484375 6.890625 26.703125 6.890625 
Q 35.15625 6.890625 40.078125 11.328125 
Q 45.015625 15.765625 45.015625 23.390625 
Q 45.015625 31 40.078125 35.4375 
Q 35.15625 39.890625 26.703125 39.890625 
Q 22.75 39.890625 18.8125 39.015625 
Q 14.890625 38.140625 10.796875 36.28125 
z
" id="DejaVuSans-35"/>
      </defs>
      <g transform="translate(37.628906 334.998438)scale(0.1 -0.1)">
       <use xlink:href="#DejaVuSans-2212"/>
       <use x="83.789062" xlink:href="#DejaVuSans-35"/>
      </g>
     </g>
    </g>
    <g id="xtick_2">
     <g id="line2d_2">
      <g>
       <use style="stroke:#000000;stroke-width:0.8;" x="72.9" xlink:href="#m26ad458e44" y="320.4"/>
      </g>
     </g>
     <g id="text_2">
      <!-- −4 -->
      <defs>
       <path d="M 37.796875 64.3125 
L 12.890625 25.390625 
L 37.796875 25.390625 
z
M 35.203125 72.90625 
L 47.609375 72.90625 
L 47.609375 25.390625 
L 58.015625 25.390625 
L 58.015625 17.1875 
L 47.609375 17.1875 
L 47.609375 0 
L 37.796875 0 
L 37.796875 17.1875 
L 4.890625 17.1875 
L 4.890625 26.703125 
z
" id="DejaVuSans-34"/>
      </defs>
      <g transform="translate(65.528906 334.998438)scale(0.1 -0.1)">
       <use xlink:href="#DejaVuSans-2212"/>
       <use x="83.789062" xlink:href="#DejaVuSans-34"/>
      </g>
     </g>
    </g>
    <g id="xtick_3">
     <g id="line2d_3">
      <g>
       <use style="stroke:#000000;stroke-width:0.8;" x="100.8" xlink:href="#m26ad458e44" y="320.4"/>
      </g>
     </g>
     <g id="text_3">
      <!-- −3 -->
      <defs>
       <path d="M 40.578125 39.3125 
Q 47.65625 37.796875 51.625 33 
Q 55.609375 28.21875 55.609375 21.1875 
Q 55.609375 10.40625 48.1875 4.484375 
Q 40.765625 -1.421875 27.09375 -1.421875 
Q 22.515625 -1.421875 17.65625 -0.515625 
Q 12.796875 0.390625 7.625 2.203125 
L 7.625 11.71875 
Q 11.71875 9.328125 16.59375 8.109375 
Q 21.484375 6.890625 26.8125 6.890625 
Q 36.078125 6.890625 40.9375 10.546875 
Q 45.796875 14.203125 45.796875 21.1875 
Q 45.796875 27.640625 41.28125 31.265625 
Q 36.765625 34.90625 28.71875 34.90625 
L 20.21875 34.90625 
L 20.21875 43.015625 
L 29.109375 43.015625 
Q 36.375 43.015625 40.234375 45.921875 
Q 44.09375 48.828125 44.09375 54.296875 
Q 44.09375 59.90625 40.109375 62.90625 
Q 36.140625 65.921875 28.71875 65.921875 
Q 24.65625 65.921875 20.015625 65.03125 
Q 15.375 64.15625 9.8125 62.3125 
L 9.8125 71.09375 
Q 15.4375 72.65625 20.34375 73.4375 
Q 25.25 74.21875 29.59375 74.21875 
Q 40.828125 74.21875 47.359375 69.109375 
Q 53.90625 64.015625 53.90625 55.328125 
Q 53.90625 49.265625 50.4375 45.09375 
Q 46.96875 40.921875 40.578125 39.3125 
z
" id="DejaVuSans-33"/>
      </defs>
      <g transform="translate(93.428906 334.998438)scale(0.1 -0.1)">
       <use xlink:href="#DejaVuSans-2212"/>
       <use x="83.789062" xlink:href="#DejaVuSans-33"/>
      </g>
     </g>
    </g>
    <g id="xtick_4">
     <g id="line2d_4">
      <g>
       <use style="stroke:#000000;stroke-width:0.8;" x="128.7" xlink:href="#m26ad458e44" y="320.4"/>
      </g>
     </g>
     <g id="text_4">
      <!-- −2 -->
      <defs>
       <path d="M 19.1875 8.296875 
L 53.609375 8.296875 
L 53.609375 0 
L 7.328125 0 
L 7.328125 8.296875 
Q 12.9375 14.109375 22.625 23.890625 
Q 32.328125 33.6875 34.8125 36.53125 
Q 39.546875 41.84375 41.421875 45.53125 
Q 43.3125 49.21875 43.3125 52.78125 
Q 43.3125 58.59375 39.234375 62.25 
Q 35.15625 65.921875 28.609375 65.921875 
Q 23.96875 65.921875 18.8125 64.3125 
Q 13.671875 62.703125 7.8125 59.421875 
L 7.8125 69.390625 
Q 13.765625 71.78125 18.9375 73 
Q 24.125 74.21875 28.421875 74.21875 
Q 39.75 74.21875 46.484375 68.546875 
Q 53.21875 62.890625 53.21875 53.421875 
Q 53.21875 48.921875 51.53125 44.890625 
Q 49.859375 40.875 45.40625 35.40625 
Q 44.1875 33.984375 37.640625 27.21875 
Q 31.109375 20.453125 19.1875 8.296875 
z
" id="DejaVuSans-32"/>
      </defs>
      <g transform="translate(121.328906 334.998438)scale(0.1 -0.1)">
       <use xlink:href="#DejaVuSans-2212"/>
       <use x="83.789062" xlink:href="#DejaVuSans-32"/>
      </g>
     </g>
    </g>
    <g id="xtick_5">
     <g id="line2d_5">
      <g>
       <use style="stroke:#000000;stroke-width:0.8;" x="156.6" xlink:href="#m26ad458e44" y="320.4"/>
      </g>
     </g>
     <g id="text_5">
      <!-- −1 -->
      <defs>
       <path d="M 12.40625 8.296875 
L 28.515625 8.296875 
L 28.515625 63.921875 
L 10.984375 60.40625 
L 10.984375 69.390625 
L 28.421875 72.90625 
L 38.28125 72.90625 
L 38.28125 8.296875 
L 54.390625 8.296875 
L 54.390625 0 
L 12.40625 0 
z
" id="DejaVuSans-31"/>
      </defs>
      <g transform="translate(149.228906 334.998438)scale(0.1 -0.1)">
       <use xlink:href="#DejaVuSans-2212"/>
       <use x="83.789062" xlink:href="#DejaVuSans-31"/>
      </g>
     </g>
    </g>
    <g id="xtick_6">
     <g id="line2d_6">
      <g>
       <use style="stroke:#000000;stroke-width:0.8;" x="184.5" xlink:href="#m26ad458e44" y="320.4"/>
      </g>
     </g>
     <g id="text_6">
      <!-- 0 -->
      <defs>
       <path d="M 31.78125 66.40625 
Q 24.171875 66.40625 20.328125 58.90625 
Q 16.5 51.421875 16.5 36.375 
Q 16.5 21.390625 20.328125 13.890625 
Q 24.171875 6.390625 31.78125 6.390625 
Q 39.453125 6.390625 43.28125 13.890625 
Q 47.125 21.390625 47.125 36.375 
Q 47.125 51.421875 43.28125 58.90625 
Q 39.453125 66.40625 31.78125 66.40625 
z
M 31.78125 74.21875 
Q 44.046875 74.21875 50.515625 64.515625 
Q 56.984375 54.828125 56.984375 36.375 
Q 56.984375 17.96875 50.515625 8.265625 
Q 44.046875 -1.421875 31.78125 -1.421875 
Q 19.53125 -1.421875 13.0625 8.265625 
Q 6.59375 17.96875 6.59375 36.375 
Q 6.59375 54.828125 13.0625 64.515625 
Q 19.53125 74.21875 31.78125 74.21875 
z
" id="DejaVuSans-30"/>
      </defs>
      <g transform="translate(181.31875 334.998438)scale(0.1 -0.1)">
       <use xlink:href="#DejaVuSans-30"/>
      </g>
     </g>
    </g>
    <g id="xtick_7">
     <g id="line2d_7">
      <g>
       <use style="stroke:#000000;stroke-width:0.8;" x="212.4" xlink:href="#m26ad458e44" y="320.4"/>
      </g>
     </g>
     <g id="text_7">
      <!-- 1 -->
      <g transform="translate(209.21875 334.998438)scale(0.1 -0.1)">
       <use xlink:href="#DejaVuSans-31"/>
      </g>
     </g>
    </g>
    <g id="xtick_8">
     <g id="line2d_8">
      <g>
       <use style="stroke:#000000;stroke-width:0.8;" x="240.3" xlink:href="#m26ad458e44" y="320.4"/>
      </g>
     </g>
     <g id="text_8">
      <!-- 2 -->
      <g transform="translate(237.11875 334.998438)scale(0.1 -0.1)">
       <use xlink:href="#DejaVuSans-32"/>
      </g>
     </g>
    </g>
    <g id="xtick_9">
     <g id="line2d_9">
      <g>
       <use style="stroke:#000000;stroke-width:0.8;" x="268.2" xlink:href="#m26ad458e44" y="320.4"/>
      </g>
     </g>
     <g id="text_9">
      <!-- 3 -->
      <g transform="translate(265.01875 334.998438)scale(0.1 -0.1)">
       <use xlink:href="#DejaVuSans-33"/>
      </g>
     </g>
    </g>
    <g id="xtick_10">
     <g id="line2d_10">
      <g>
       <use style="stroke:#000000;stroke-width:0.8;" x="296.1" xlink:href="#m26ad458e44" y="320.4"/>
      </g>
     </g>
     <g id="text_10">
      <!-- 4 -->
      <g transform="translate(292.91875 334.998438)scale(0.1 -0.1)">
       <use xlink:href="#DejaVuSans-34"/>
      </g>
     </g>
    </g>
    <g id="xtick_11">
     <g id="line2d_11">
      <g>
       <use style="stroke:#000000;stroke-width:0.8;" x="324" xlink:href="#m26ad458e44" y="320.4"/>
      </g>
     </g>
     <g id="text_11">
      <!-- 5 -->
      <g transform="translate(320.81875 334.998438)scale(0.1 -0.1)">
       <use xlink:href="#DejaVuSans-35"/>
      </g>
     </g>
    </g>
   </g>
   <g id="matplotlib.axis_2">
    <g id="ytick_1">
     <g id="line2d_12">
      <defs>
       <path d="M 0 0 
L -3.5 0 
" id="ma7a94befb4" style="stroke:#000000;stroke-width:0.8;"/>
      </defs>
      <g>
       <use style="stroke:#000000;stroke-width:0.8;" x="45" xlink:href="#ma7a94befb4" y="320.4"/>
      </g>
     </g>
     <g id="text_12">
      <!-- −5 -->
      <g transform="translate(23.257812 324.199219)scale(0.1 -0.1)">
       <use xlink:href="#DejaVuSans-2212"/>
       <use x="83.789062" xlink:href="#DejaVuSans-35"/>
      </g>
     </g>
    </g>
    <g id="ytick_2">
     <g id="line2d_13">
      <g>
       <use style="stroke:#000000;stroke-width:0.8;" x="45" xlink:href="#ma7a94befb4" y="292.68"/>
      </g>
     </g>
     <g id="text_13">
      <!-- −4 -->
      <g transform="translate(23.257812 296.479219)scale(0.1 -0.1)">
       <use xlink:href="#DejaVuSans-2212"/>
       <use x="83.789062" xlink:href="#DejaVuSans-34"/>
      </g>
     </g>
    </g>
    <g id="ytick_3">
     <g id="line2d_14">
      <g>
       <use style="stroke:#000000;stroke-width:0.8;" x="45" xlink:href="#ma7a94befb4" y="264.96"/>
      </g>
     </g>
     <g id="text_14">
      <!-- −3 -->
      <g transform="translate(23.257812 268.759219)scale(0.1 -0.1)">
       <use xlink:href="#DejaVuSans-2212"/>
       <use x="83.789062" xlink:href="#DejaVuSans-33"/>
      </g>
     </g>
    </g>
    <g id="ytick_4">
     <g id="line2d_15">
      <g>
       <use style="stroke:#000000;stroke-width:0.8;" x="45" xlink:href="#ma7a94befb4" y="237.24"/>
      </g>
     </g>
     <g id="text_15">
      <!-- −2 -->
      <g transform="translate(23.257812 241.039219)scale(0.1 -0.1)">
       <use xlink:href="#DejaVuSans-2212"/>
       <use x="83.789062" xlink:href="#DejaVuSans-32"/>
      </g>
     </g>
    </g>
    <g id="ytick_5">
     <g id="line2d_16">
      <g>
       <use style="stroke:#000000;stroke-width:0.8;" x="45" xlink:href="#ma7a94befb4" y="209.52"/>
      </g>
     </g>
     <g id="text_16">
      <!-- −1 -->
      <g transform="translate(23.257812 213.319219)scale(0.1 -0.1)">
       <use xlink:href="#DejaVuSans-2212"/>
       <use x="83.789062" xlink:href="#DejaVuSans-31"/>
      </g>
     </g>
    </g>
    <g id="ytick_6">
     <g id="line2d_17">
      <g>
       <use style="stroke:#000000;stroke-width:0.8;" x="45" xlink:href="#ma7a94befb4" y="181.8"/>
      </g>
     </g>
     <g id="text_17">
      <!-- 0 -->
      <g transform="translate(31.6375 185.599219)scale(0.1 -0.1)">
       <use xlink:href="#DejaVuSans-30"/>
      </g>
     </g>
    </g>
    <g id="ytick_7">
     <g id="line2d_18">
      <g>
       <use style="stroke:#000000;stroke-width:0.8;" x="45" xlink:href="#ma7a94befb4" y="154.08"/>
      </g>
     </g>
     <g id="text_18">
      <!-- 1 -->
      <g transform="translate(31.6375 157.879219)scale(0.1 -0.1)">
       <use xlink:href="#DejaVuSans-31"/>
      </g>
     </g>
    </g>
    <g id="ytick_8">
     <g id="line2d_19">
      <g>
       <use style="stroke:#000000;stroke-width:0.8;" x="45" xlink:href="#ma7a94befb4" y="126.36"/>
      </g>
     </g>
     <g id="text_19">
      <!-- 2 -->
      <g transform="translate(31.6375 130.159219)scale(0.1 -0.1)">
       <use xlink:href="#DejaVuSans-32"/>
      </g>
     </g>
    </g>
    <g id="ytick_9">
     <g id="line2d_20">
      <g>
       <use style="stroke:#000000;stroke-width:0.8;" x="45" xlink:href="#ma7a94befb4" y="98.64"/>
      </g>
     </g>
     <g id="text_20">
      <!-- 3 -->
      <g transform="translate(31.6375 102.439219)scale(0.1 -0.1)">
       <use xlink:href="#DejaVuSans-33"/>
      </g>
     </g>
    </g>
    <g id="ytick_10">
     <g id="line2d_21">
      <g>
       <use style="stroke:#000000;stroke-width:0.8;" x="45" xlink:href="#ma7a94befb4" y="70.92"/>
      </g>
     </g>
     <g id="text_21">
      <!-- 4 -->
      <g transform="translate(31.6375 74.719219)scale(0.1 -0.1)">
       <use xlink:href="#DejaVuSans-34"/>
      </g>
     </g>
    </g>
    <g id="ytick_11">
     <g id="line2d_22">
      <g>
       <use style="stroke:#000000;stroke-width:0.8;" x="45" xlink:href="#ma7a94befb4" y="43.2"/>
      </g>
     </g>
     <g id="text_22">
      <!-- 5 -->
      <g transform="translate(31.6375 46.999219)scale(0.1 -0.1)">
       <use xlink:href="#DejaVuSans-35"/>
      </g>
     </g>
    </g>
   </g>
   <g id="patch_3">
    <path clip-path="url(#p34d8274ca9)" d="M 187.29 179.028 
L 198.45 175.4244 
L 209.61 176.256 
L 204.03 154.08 
L 192.87 134.676 
L 190.08 129.132 
L 187.29 179.028 
" style="fill:#00ffff;opacity:0.3;stroke:#000000;stroke-linejoin:miter;"/>
   </g>
   <g id="patch_4">
    <path clip-path="url(#p34d8274ca9)" d="M 187.29 184.572 
L 198.45 188.1756 
L 209.61 187.344 
L 204.03 209.52 
L 192.87 228.924 
L 190.08 234.468 
L 187.29 184.572 
" style="fill:#00ffff;opacity:0.3;stroke:#000000;stroke-linejoin:miter;"/>
   </g>
   <g id="patch_5">
    <path clip-path="url(#p34d8274ca9)" d="M 215.19 123.588 
L 226.35 119.9844 
L 237.51 120.816 
L 231.93 98.64 
L 220.77 79.236 
L 217.98 73.692 
L 215.19 123.588 
" style="fill:#00ffff;opacity:0.3;stroke:#000000;stroke-linejoin:miter;"/>
   </g>
   <g id="patch_6">
    <path clip-path="url(#p34d8274ca9)" d="M 215.19 240.012 
L 226.35 243.6156 
L 237.51 242.784 
L 231.93 264.96 
L 220.77 284.364 
L 217.98 289.908 
L 215.19 240.012 
" style="fill:#00ffff;opacity:0.3;stroke:#000000;stroke-linejoin:miter;"/>
   </g>
   <g id="patch_7">
    <path clip-path="url(#p34d8274ca9)" d="M 243.09 68.148 
L 254.25 64.5444 
L 265.41 65.376 
L 259.83 43.2 
L 248.67 23.796 
L 245.88 18.252 
L 243.09 68.148 
" style="fill:#00ffff;opacity:0.3;stroke:#000000;stroke-linejoin:miter;"/>
   </g>
   <g id="patch_8">
    <path clip-path="url(#p34d8274ca9)" d="M 243.09 295.452 
L 254.25 299.0556 
L 265.41 298.224 
L 259.83 320.4 
L 248.67 339.804 
L 245.88 345.348 
L 243.09 295.452 
" style="fill:#00ffff;opacity:0.3;stroke:#000000;stroke-linejoin:miter;"/>
   </g>
   <g id="patch_9">
    <path clip-path="url(#p34d8274ca9)" d="M 270.99 12.708 
L 282.15 9.1044 
L 293.31 9.936 
L 287.73 -12.24 
L 276.57 -31.644 
L 273.78 -37.188 
L 270.99 12.708 
" style="fill:#00ffff;opacity:0.3;stroke:#000000;stroke-linejoin:miter;"/>
   </g>
   <g id="patch_10">
    <path clip-path="url(#p34d8274ca9)" d="M 270.99 350.892 
L 282.15 354.4956 
L 293.31 353.664 
L 287.73 375.84 
L 276.57 395.244 
L 273.78 400.788 
L 270.99 350.892 
" style="fill:#00ffff;opacity:0.3;stroke:#000000;stroke-linejoin:miter;"/>
   </g>
   <g id="patch_11">
    <path clip-path="url(#p34d8274ca9)" d="M 298.89 -42.732 
L 310.05 -46.3356 
L 321.21 -45.504 
L 315.63 -67.68 
L 304.47 -87.084 
L 301.68 -92.628 
L 298.89 -42.732 
" style="fill:#00ffff;opacity:0.3;stroke:#000000;stroke-linejoin:miter;"/>
   </g>
   <g id="patch_12">
    <path clip-path="url(#p34d8274ca9)" d="M 215.19 350.892 
L 226.35 354.4956 
L 237.51 353.664 
L 231.93 375.84 
L 220.77 395.244 
L 217.98 400.788 
L 215.19 350.892 
" style="fill:#00ffff;opacity:0.3;stroke:#000000;stroke-linejoin:miter;"/>
   </g>
   <g id="patch_13">
    <path clip-path="url(#p34d8274ca9)" d="M 215.19 12.708 
L 226.35 9.1044 
L 237.51 9.936 
L 231.93 -12.24 
L 220.77 -31.644 
L 217.98 -37.188 
L 215.19 12.708 
" style="fill:#00ffff;opacity:0.3;stroke:#000000;stroke-linejoin:miter;"/>
   </g>
   <g id="patch_14">
    <path clip-path="url(#p34d8274ca9)" d="M 159.39 12.708 
L 170.55 9.1044 
L 181.71 9.936 
L 176.13 -12.24 
L 164.97 -31.644 
L 162.18 -37.188 
L 159.39 12.708 
" style="fill:#00ffff;opacity:0.3;stroke:#000000;stroke-linejoin:miter;"/>
   </g>
   <g id="patch_15">
    <path clip-path="url(#p34d8274ca9)" d="M 159.39 350.892 
L 170.55 354.4956 
L 181.71 353.664 
L 176.13 375.84 
L 164.97 395.244 
L 162.18 400.788 
L 159.39 350.892 
" style="fill:#00ffff;opacity:0.3;stroke:#000000;stroke-linejoin:miter;"/>
   </g>
   <g id="patch_16">
    <path clip-path="url(#p34d8274ca9)" d="M 187.29 -42.732 
L 198.45 -46.3356 
L 209.61 -45.504 
L 204.03 -67.68 
L 192.87 -87.084 
L 190.08 -92.628 
L 187.29 -42.732 
" style="fill:#00ffff;opacity:0.3;stroke:#000000;stroke-linejoin:miter;"/>
   </g>
   <g id="patch_17">
    <path clip-path="url(#p34d8274ca9)" d="M 103.59 350.892 
L 114.75 354.4956 
L 125.91 353.664 
L 120.33 375.84 
L 109.17 395.244 
L 106.38 400.788 
L 103.59 350.892 
" style="fill:#00ffff;opacity:0.3;stroke:#000000;stroke-linejoin:miter;"/>
   </g>
   <g id="patch_18">
    <path clip-path="url(#p34d8274ca9)" d="M 103.59 12.708 
L 114.75 9.1044 
L 125.91 9.936 
L 120.33 -12.24 
L 109.17 -31.644 
L 106.38 -37.188 
L 103.59 12.708 
" style="fill:#00ffff;opacity:0.3;stroke:#000000;stroke-linejoin:miter;"/>
   </g>
   <g id="patch_19">
    <path clip-path="url(#p34d8274ca9)" d="M 131.49 295.452 
L 142.65 299.0556 
L 153.81 298.224 
L 148.23 320.4 
L 137.07 339.804 
L 134.28 345.348 
L 131.49 295.452 
" style="fill:#00ffff;opacity:0.3;stroke:#000000;stroke-linejoin:miter;"/>
   </g>
   <g id="patch_20">
    <path clip-path="url(#p34d8274ca9)" d="M 131.49 68.148 
L 142.65 64.5444 
L 153.81 65.376 
L 148.23 43.2 
L 137.07 23.796 
L 134.28 18.252 
L 131.49 68.148 
" style="fill:#00ffff;opacity:0.3;stroke:#000000;stroke-linejoin:miter;"/>
   </g>
   <g id="patch_21">
    <path clip-path="url(#p34d8274ca9)" d="M 159.39 240.012 
L 170.55 243.6156 
L 181.71 242.784 
L 176.13 264.96 
L 164.97 284.364 
L 162.18 289.908 
L 159.39 240.012 
" style="fill:#00ffff;opacity:0.3;stroke:#000000;stroke-linejoin:miter;"/>
   </g>
   <g id="patch_22">
    <path clip-path="url(#p34d8274ca9)" d="M 159.39 123.588 
L 170.55 119.9844 
L 181.71 120.816 
L 176.13 98.64 
L 164.97 79.236 
L 162.18 73.692 
L 159.39 123.588 
" style="fill:#00ffff;opacity:0.3;stroke:#000000;stroke-linejoin:miter;"/>
   </g>
   <g id="patch_23">
    <path clip-path="url(#p34d8274ca9)" d="M 103.59 123.588 
L 114.75 119.9844 
L 125.91 120.816 
L 120.33 98.64 
L 109.17 79.236 
L 106.38 73.692 
L 103.59 123.588 
" style="fill:#00ffff;opacity:0.3;stroke:#000000;stroke-linejoin:miter;"/>
   </g>
   <g id="patch_24">
    <path clip-path="url(#p34d8274ca9)" d="M 103.59 240.012 
L 114.75 243.6156 
L 125.91 242.784 
L 120.33 264.96 
L 109.17 284.364 
L 106.38 289.908 
L 103.59 240.012 
" style="fill:#00ffff;opacity:0.3;stroke:#000000;stroke-linejoin:miter;"/>
   </g>
   <g id="patch_25">
    <path clip-path="url(#p34d8274ca9)" d="M 47.79 240.012 
L 58.95 243.6156 
L 70.11 242.784 
L 64.53 264.96 
L 53.37 284.364 
L 50.58 289.908 
L 47.79 240.012 
" style="fill:#00ffff;opacity:0.3;stroke:#000000;stroke-linejoin:miter;"/>
   </g>
   <g id="patch_26">
    <path clip-path="url(#p34d8274ca9)" d="M 47.79 123.588 
L 58.95 119.9844 
L 70.11 120.816 
L 64.53 98.64 
L 53.37 79.236 
L 50.58 73.692 
L 47.79 123.588 
" style="fill:#00ffff;opacity:0.3;stroke:#000000;stroke-linejoin:miter;"/>
   </g>
   <g id="patch_27">
    <path clip-path="url(#p34d8274ca9)" d="M 75.69 184.572 
L 86.85 188.1756 
L 98.01 187.344 
L 92.43 209.52 
L 81.27 228.924 
L 78.48 234.468 
L 75.69 184.572 
" style="fill:#00ffff;opacity:0.3;stroke:#000000;stroke-linejoin:miter;"/>
   </g>
   <g id="patch_28">
    <path clip-path="url(#p34d8274ca9)" d="M 75.69 179.028 
L 86.85 175.4244 
L 98.01 176.256 
L 92.43 154.08 
L 81.27 134.676 
L 78.48 129.132 
L 75.69 179.028 
" style="fill:#00ffff;opacity:0.3;stroke:#000000;stroke-linejoin:miter;"/>
   </g>
   <g id="patch_29">
    <path clip-path="url(#p34d8274ca9)" d="M 103.59 129.132 
L 114.75 132.7356 
L 125.91 131.904 
L 120.33 154.08 
L 109.17 173.484 
L 106.38 179.028 
L 103.59 129.132 
" style="fill:#00ffff;opacity:0.3;stroke:#000000;stroke-linejoin:miter;"/>
   </g>
   <g id="patch_30">
    <path clip-path="url(#p34d8274ca9)" d="M 103.59 234.468 
L 114.75 230.8644 
L 125.91 231.696 
L 120.33 209.52 
L 109.17 190.116 
L 106.38 184.572 
L 103.59 234.468 
" style="fill:#00ffff;opacity:0.3;stroke:#000000;stroke-linejoin:miter;"/>
   </g>
   <g id="patch_31">
    <path clip-path="url(#p34d8274ca9)" d="M 131.49 73.692 
L 142.65 77.2956 
L 153.81 76.464 
L 148.23 98.64 
L 137.07 118.044 
L 134.28 123.588 
L 131.49 73.692 
" style="fill:#00ffff;opacity:0.3;stroke:#000000;stroke-linejoin:miter;"/>
   </g>
   <g id="patch_32">
    <path clip-path="url(#p34d8274ca9)" d="M 131.49 289.908 
L 142.65 286.3044 
L 153.81 287.136 
L 148.23 264.96 
L 137.07 245.556 
L 134.28 240.012 
L 131.49 289.908 
" style="fill:#00ffff;opacity:0.3;stroke:#000000;stroke-linejoin:miter;"/>
   </g>
   <g id="patch_33">
    <path clip-path="url(#p34d8274ca9)" d="M 159.39 18.252 
L 170.55 21.8556 
L 181.71 21.024 
L 176.13 43.2 
L 164.97 62.604 
L 162.18 68.148 
L 159.39 18.252 
" style="fill:#00ffff;opacity:0.3;stroke:#000000;stroke-linejoin:miter;"/>
   </g>
   <g id="patch_34">
    <path clip-path="url(#p34d8274ca9)" d="M 159.39 345.348 
L 170.55 341.7444 
L 181.71 342.576 
L 176.13 320.4 
L 164.97 300.996 
L 162.18 295.452 
L 159.39 345.348 
" style="fill:#00ffff;opacity:0.3;stroke:#000000;stroke-linejoin:miter;"/>
   </g>
   <g id="patch_35">
    <path clip-path="url(#p34d8274ca9)" d="M 187.29 -37.188 
L 198.45 -33.5844 
L 209.61 -34.416 
L 204.03 -12.24 
L 192.87 7.164 
L 190.08 12.708 
L 187.29 -37.188 
" style="fill:#00ffff;opacity:0.3;stroke:#000000;stroke-linejoin:miter;"/>
   </g>
   <g id="patch_36">
    <path clip-path="url(#p34d8274ca9)" d="M 103.59 345.348 
L 114.75 341.7444 
L 125.91 342.576 
L 120.33 320.4 
L 109.17 300.996 
L 106.38 295.452 
L 103.59 345.348 
" style="fill:#00ffff;opacity:0.3;stroke:#000000;stroke-linejoin:miter;"/>
   </g>
   <g id="patch_37">
    <path clip-path="url(#p34d8274ca9)" d="M 103.59 18.252 
L 114.75 21.8556 
L 125.91 21.024 
L 120.33 43.2 
L 109.17 62.604 
L 106.38 68.148 
L 103.59 18.252 
" style="fill:#00ffff;opacity:0.3;stroke:#000000;stroke-linejoin:miter;"/>
   </g>
   <g id="patch_38">
    <path clip-path="url(#p34d8274ca9)" d="M 47.79 18.252 
L 58.95 21.8556 
L 70.11 21.024 
L 64.53 43.2 
L 53.37 62.604 
L 50.58 68.148 
L 47.79 18.252 
" style="fill:#00ffff;opacity:0.3;stroke:#000000;stroke-linejoin:miter;"/>
   </g>
   <g id="patch_39">
    <path clip-path="url(#p34d8274ca9)" d="M 47.79 345.348 
L 58.95 341.7444 
L 70.11 342.576 
L 64.53 320.4 
L 53.37 300.996 
L 50.58 295.452 
L 47.79 345.348 
" style="fill:#00ffff;opacity:0.3;stroke:#000000;stroke-linejoin:miter;"/>
   </g>
   <g id="patch_40">
    <path clip-path="url(#p34d8274ca9)" d="M 75.69 -37.188 
L 86.85 -33.5844 
L 98.01 -34.416 
L 92.43 -12.24 
L 81.27 7.164 
L 78.48 12.708 
L 75.69 -37.188 
" style="fill:#00ffff;opacity:0.3;stroke:#000000;stroke-linejoin:miter;"/>
   </g>
   <g id="patch_41">
    <path clip-path="url(#p34d8274ca9)" d="M -8.01 345.348 
L 3.15 341.7444 
L 14.31 342.576 
L 8.73 320.4 
L -2.43 300.996 
L -5.22 295.452 
L -8.01 345.348 
" style="fill:#00ffff;opacity:0.3;stroke:#000000;stroke-linejoin:miter;"/>
   </g>
   <g id="patch_42">
    <path clip-path="url(#p34d8274ca9)" d="M 75.69 289.908 
L 86.85 286.3044 
L 98.01 287.136 
L 92.43 264.96 
L 81.27 245.556 
L 78.48 240.012 
L 75.69 289.908 
" style="fill:#00ffff;opacity:0.3;stroke:#000000;stroke-linejoin:miter;"/>
   </g>
   <g id="patch_43">
    <path clip-path="url(#p34d8274ca9)" d="M 75.69 73.692 
L 86.85 77.2956 
L 98.01 76.464 
L 92.43 98.64 
L 81.27 118.044 
L 78.48 123.588 
L 75.69 73.692 
" style="fill:#00ffff;opacity:0.3;stroke:#000000;stroke-linejoin:miter;"/>
   </g>
   <g id="patch_44">
    <path clip-path="url(#p34d8274ca9)" d="M 19.89 73.692 
L 31.05 77.2956 
L 42.21 76.464 
L 36.63 98.64 
L 25.47 118.044 
L 22.68 123.588 
L 19.89 73.692 
" style="fill:#00ffff;opacity:0.3;stroke:#000000;stroke-linejoin:miter;"/>
   </g>
   <g id="patch_45">
    <path clip-path="url(#p34d8274ca9)" d="M 19.89 289.908 
L 31.05 286.3044 
L 42.21 287.136 
L 36.63 264.96 
L 25.47 245.556 
L 22.68 240.012 
L 19.89 289.908 
" style="fill:#00ffff;opacity:0.3;stroke:#000000;stroke-linejoin:miter;"/>
   </g>
   <g id="patch_46">
    <path clip-path="url(#p34d8274ca9)" d="M -35.91 289.908 
L -24.75 286.3044 
L -13.59 287.136 
L -19.17 264.96 
L -30.33 245.556 
L -33.12 240.012 
L -35.91 289.908 
" style="fill:#00ffff;opacity:0.3;stroke:#000000;stroke-linejoin:miter;"/>
   </g>
   <g id="patch_47">
    <path clip-path="url(#p34d8274ca9)" d="M 47.79 234.468 
L 58.95 230.8644 
L 70.11 231.696 
L 64.53 209.52 
L 53.37 190.116 
L 50.58 184.572 
L 47.79 234.468 
" style="fill:#00ffff;opacity:0.3;stroke:#000000;stroke-linejoin:miter;"/>
   </g>
   <g id="patch_48">
    <path clip-path="url(#p34d8274ca9)" d="M 47.79 129.132 
L 58.95 132.7356 
L 70.11 131.904 
L 64.53 154.08 
L 53.37 173.484 
L 50.58 179.028 
L 47.79 129.132 
" style="fill:#00ffff;opacity:0.3;stroke:#000000;stroke-linejoin:miter;"/>
   </g>
   <g id="patch_49">
    <path clip-path="url(#p34d8274ca9)" d="M -8.01 129.132 
L 3.15 132.7356 
L 14.31 131.904 
L 8.73 154.08 
L -2.43 173.484 
L -5.22 179.028 
L -8.01 129.132 
" style="fill:#00ffff;opacity:0.3;stroke:#000000;stroke-linejoin:miter;"/>
   </g>
   <g id="patch_50">
    <path clip-path="url(#p34d8274ca9)" d="M -8.01 234.468 
L 3.15 230.8644 
L 14.31 231.696 
L 8.73 209.52 
L -2.43 190.116 
L -5.22 184.572 
L -8.01 234.468 
" style="fill:#00ffff;opacity:0.3;stroke:#000000;stroke-linejoin:miter;"/>
   </g>
   <g id="patch_51">
    <path clip-path="url(#p34d8274ca9)" d="M -35.91 73.692 
L -24.75 77.2956 
L -13.59 76.464 
L -19.17 98.64 
L -30.33 118.044 
L -33.12 123.588 
L -35.91 73.692 
" style="fill:#00ffff;opacity:0.3;stroke:#000000;stroke-linejoin:miter;"/>
   </g>
   <g id="patch_52">
    <path clip-path="url(#p34d8274ca9)" d="M -8.01 18.252 
L 3.15 21.8556 
L 14.31 21.024 
L 8.73 43.2 
L -2.43 62.604 
L -5.22 68.148 
L -8.01 18.252 
" style="fill:#00ffff;opacity:0.3;stroke:#000000;stroke-linejoin:miter;"/>
   </g>
   <g id="patch_53">
    <path clip-path="url(#p34d8274ca9)" d="M 131.49 -37.188 
L 142.65 -33.5844 
L 153.81 -34.416 
L 148.23 -12.24 
L 137.07 7.164 
L 134.28 12.708 
L 131.49 -37.188 
" style="fill:#00ffff;opacity:0.3;stroke:#000000;stroke-linejoin:miter;"/>
   </g>
   <g id="patch_54">
    <path clip-path="url(#p34d8274ca9)" d="M 187.29 289.908 
L 198.45 286.3044 
L 209.61 287.136 
L 204.03 264.96 
L 192.87 245.556 
L 190.08 240.012 
L 187.29 289.908 
" style="fill:#00ffff;opacity:0.3;stroke:#000000;stroke-linejoin:miter;"/>
   </g>
   <g id="patch_55">
    <path clip-path="url(#p34d8274ca9)" d="M 187.29 73.692 
L 198.45 77.2956 
L 209.61 76.464 
L 204.03 98.64 
L 192.87 118.044 
L 190.08 123.588 
L 187.29 73.692 
" style="fill:#00ffff;opacity:0.3;stroke:#000000;stroke-linejoin:miter;"/>
   </g>
   <g id="patch_56">
    <path clip-path="url(#p34d8274ca9)" d="M 215.19 234.468 
L 226.35 230.8644 
L 237.51 231.696 
L 231.93 209.52 
L 220.77 190.116 
L 217.98 184.572 
L 215.19 234.468 
" style="fill:#00ffff;opacity:0.3;stroke:#000000;stroke-linejoin:miter;"/>
   </g>
   <g id="patch_57">
    <path clip-path="url(#p34d8274ca9)" d="M 215.19 129.132 
L 226.35 132.7356 
L 237.51 131.904 
L 231.93 154.08 
L 220.77 173.484 
L 217.98 179.028 
L 215.19 129.132 
" style="fill:#00ffff;opacity:0.3;stroke:#000000;stroke-linejoin:miter;"/>
   </g>
   <g id="patch_58">
    <path clip-path="url(#p34d8274ca9)" d="M 243.09 179.028 
L 254.25 175.4244 
L 265.41 176.256 
L 259.83 154.08 
L 248.67 134.676 
L 245.88 129.132 
L 243.09 179.028 
" style="fill:#00ffff;opacity:0.3;stroke:#000000;stroke-linejoin:miter;"/>
   </g>
   <g id="patch_59">
    <path clip-path="url(#p34d8274ca9)" d="M 243.09 184.572 
L 254.25 188.1756 
L 265.41 187.344 
L 259.83 209.52 
L 248.67 228.924 
L 245.88 234.468 
L 243.09 184.572 
" style="fill:#00ffff;opacity:0.3;stroke:#000000;stroke-linejoin:miter;"/>
   </g>
   <g id="patch_60">
    <path clip-path="url(#p34d8274ca9)" d="M 270.99 123.588 
L 282.15 119.9844 
L 293.31 120.816 
L 287.73 98.64 
L 276.57 79.236 
L 273.78 73.692 
L 270.99 123.588 
" style="fill:#00ffff;opacity:0.3;stroke:#000000;stroke-linejoin:miter;"/>
   </g>
   <g id="patch_61">
    <path clip-path="url(#p34d8274ca9)" d="M 270.99 240.012 
L 282.15 243.6156 
L 293.31 242.784 
L 287.73 264.96 
L 276.57 284.364 
L 273.78 289.908 
L 270.99 240.012 
" style="fill:#00ffff;opacity:0.3;stroke:#000000;stroke-linejoin:miter;"/>
   </g>
   <g id="patch_62">
    <path clip-path="url(#p34d8274ca9)" d="M 298.89 68.148 
L 310.05 64.5444 
L 321.21 65.376 
L 315.63 43.2 
L 304.47 23.796 
L 301.68 18.252 
L 298.89 68.148 
" style="fill:#00ffff;opacity:0.3;stroke:#000000;stroke-linejoin:miter;"/>
   </g>
   <g id="patch_63">
    <path clip-path="url(#p34d8274ca9)" d="M 298.89 295.452 
L 310.05 299.0556 
L 321.21 298.224 
L 315.63 320.4 
L 304.47 339.804 
L 301.68 345.348 
L 298.89 295.452 
" style="fill:#00ffff;opacity:0.3;stroke:#000000;stroke-linejoin:miter;"/>
   </g>
   <g id="patch_64">
    <path clip-path="url(#p34d8274ca9)" d="M 326.79 12.708 
L 337.95 9.1044 
L 349.11 9.936 
L 343.53 -12.24 
L 332.37 -31.644 
L 329.58 -37.188 
L 326.79 12.708 
" style="fill:#00ffff;opacity:0.3;stroke:#000000;stroke-linejoin:miter;"/>
   </g>
   <g id="patch_65">
    <path clip-path="url(#p34d8274ca9)" d="M 326.79 350.892 
L 337.95 354.4956 
L 349.11 353.664 
L 343.53 375.84 
L 332.37 395.244 
L 329.58 400.788 
L 326.79 350.892 
" style="fill:#00ffff;opacity:0.3;stroke:#000000;stroke-linejoin:miter;"/>
   </g>
   <g id="patch_66">
    <path clip-path="url(#p34d8274ca9)" d="M 354.69 -42.732 
L 365.85 -46.3356 
L 377.01 -45.504 
L 371.43 -67.68 
L 360.27 -87.084 
L 357.48 -92.628 
L 354.69 -42.732 
" style="fill:#00ffff;opacity:0.3;stroke:#000000;stroke-linejoin:miter;"/>
   </g>
   <g id="patch_67">
    <path clip-path="url(#p34d8274ca9)" d="M 354.69 295.452 
L 365.85 299.0556 
L 377.01 298.224 
L 371.43 320.4 
L 360.27 339.804 
L 357.48 345.348 
L 354.69 295.452 
" style="fill:#00ffff;opacity:0.3;stroke:#000000;stroke-linejoin:miter;"/>
   </g>
   <g id="patch_68">
    <path clip-path="url(#p34d8274ca9)" d="M 354.69 68.148 
L 365.85 64.5444 
L 377.01 65.376 
L 371.43 43.2 
L 360.27 23.796 
L 357.48 18.252 
L 354.69 68.148 
" style="fill:#00ffff;opacity:0.3;stroke:#000000;stroke-linejoin:miter;"/>
   </g>
   <g id="patch_69">
    <path clip-path="url(#p34d8274ca9)" d="M 382.59 240.012 
L 393.75 243.6156 
L 404.91 242.784 
L 399.33 264.96 
L 388.17 284.364 
L 385.38 289.908 
L 382.59 240.012 
" style="fill:#00ffff;opacity:0.3;stroke:#000000;stroke-linejoin:miter;"/>
   </g>
   <g id="patch_70">
    <path clip-path="url(#p34d8274ca9)" d="M 382.59 12.708 
L 393.75 9.1044 
L 404.91 9.936 
L 399.33 -12.24 
L 388.17 -31.644 
L 385.38 -37.188 
L 382.59 12.708 
" style="fill:#00ffff;opacity:0.3;stroke:#000000;stroke-linejoin:miter;"/>
   </g>
   <g id="patch_71">
    <path clip-path="url(#p34d8274ca9)" d="M 326.79 240.012 
L 337.95 243.6156 
L 349.11 242.784 
L 343.53 264.96 
L 332.37 284.364 
L 329.58 289.908 
L 326.79 240.012 
" style="fill:#00ffff;opacity:0.3;stroke:#000000;stroke-linejoin:miter;"/>
   </g>
   <g id="patch_72">
    <path clip-path="url(#p34d8274ca9)" d="M 326.79 123.588 
L 337.95 119.9844 
L 349.11 120.816 
L 343.53 98.64 
L 332.37 79.236 
L 329.58 73.692 
L 326.79 123.588 
" style="fill:#00ffff;opacity:0.3;stroke:#000000;stroke-linejoin:miter;"/>
   </g>
   <g id="patch_73">
    <path clip-path="url(#p34d8274ca9)" d="M 354.69 184.572 
L 365.85 188.1756 
L 377.01 187.344 
L 371.43 209.52 
L 360.27 228.924 
L 357.48 234.468 
L 354.69 184.572 
" style="fill:#00ffff;opacity:0.3;stroke:#000000;stroke-linejoin:miter;"/>
   </g>
   <g id="patch_74">
    <path clip-path="url(#p34d8274ca9)" d="M 354.69 179.028 
L 365.85 175.4244 
L 377.01 176.256 
L 371.43 154.08 
L 360.27 134.676 
L 357.48 129.132 
L 354.69 179.028 
" style="fill:#00ffff;opacity:0.3;stroke:#000000;stroke-linejoin:miter;"/>
   </g>
   <g id="patch_75">
    <path clip-path="url(#p34d8274ca9)" d="M 382.59 129.132 
L 393.75 132.7356 
L 404.91 131.904 
L 399.33 154.08 
L 388.17 173.484 
L 385.38 179.028 
L 382.59 129.132 
" style="fill:#00ffff;opacity:0.3;stroke:#000000;stroke-linejoin:miter;"/>
   </g>
   <g id="patch_76">
    <path clip-path="url(#p34d8274ca9)" d="M 298.89 179.028 
L 310.05 175.4244 
L 321.21 176.256 
L 315.63 154.08 
L 304.47 134.676 
L 301.68 129.132 
L 298.89 179.028 
" style="fill:#00ffff;opacity:0.3;stroke:#000000;stroke-linejoin:miter;"/>
   </g>
   <g id="patch_77">
    <path clip-path="url(#p34d8274ca9)" d="M 298.89 184.572 
L 310.05 188.1756 
L 321.21 187.344 
L 315.63 209.52 
L 304.47 228.924 
L 301.68 234.468 
L 298.89 184.572 
" style="fill:#00ffff;opacity:0.3;stroke:#000000;stroke-linejoin:miter;"/>
   </g>
   <g id="patch_78">
    <path clip-path="url(#p34d8274ca9)" d="M 326.79 129.132 
L 337.95 132.7356 
L 349.11 131.904 
L 343.53 154.08 
L 332.37 173.484 
L 329.58 179.028 
L 326.79 129.132 
" style="fill:#00ffff;opacity:0.3;stroke:#000000;stroke-linejoin:miter;"/>
   </g>
   <g id="patch_79">
    <path clip-path="url(#p34d8274ca9)" d="M 326.79 234.468 
L 337.95 230.8644 
L 349.11 231.696 
L 343.53 209.52 
L 332.37 190.116 
L 329.58 184.572 
L 326.79 234.468 
" style="fill:#00ffff;opacity:0.3;stroke:#000000;stroke-linejoin:miter;"/>
   </g>
   <g id="patch_80">
    <path clip-path="url(#p34d8274ca9)" d="M 354.69 73.692 
L 365.85 77.2956 
L 377.01 76.464 
L 371.43 98.64 
L 360.27 118.044 
L 357.48 123.588 
L 354.69 73.692 
" style="fill:#00ffff;opacity:0.3;stroke:#000000;stroke-linejoin:miter;"/>
   </g>
   <g id="patch_81">
    <path clip-path="url(#p34d8274ca9)" d="M 354.69 289.908 
L 365.85 286.3044 
L 377.01 287.136 
L 371.43 264.96 
L 360.27 245.556 
L 357.48 240.012 
L 354.69 289.908 
" style="fill:#00ffff;opacity:0.3;stroke:#000000;stroke-linejoin:miter;"/>
   </g>
   <g id="patch_82">
    <path clip-path="url(#p34d8274ca9)" d="M 382.59 18.252 
L 393.75 21.8556 
L 404.91 21.024 
L 399.33 43.2 
L 388.17 62.604 
L 385.38 68.148 
L 382.59 18.252 
" style="fill:#00ffff;opacity:0.3;stroke:#000000;stroke-linejoin:miter;"/>
   </g>
   <g id="patch_83">
    <path clip-path="url(#p34d8274ca9)" d="M 298.89 289.908 
L 310.05 286.3044 
L 321.21 287.136 
L 315.63 264.96 
L 304.47 245.556 
L 301.68 240.012 
L 298.89 289.908 
" style="fill:#00ffff;opacity:0.3;stroke:#000000;stroke-linejoin:miter;"/>
   </g>
   <g id="patch_84">
    <path clip-path="url(#p34d8274ca9)" d="M 298.89 73.692 
L 310.05 77.2956 
L 321.21 76.464 
L 315.63 98.64 
L 304.47 118.044 
L 301.68 123.588 
L 298.89 73.692 
" style="fill:#00ffff;opacity:0.3;stroke:#000000;stroke-linejoin:miter;"/>
   </g>
   <g id="patch_85">
    <path clip-path="url(#p34d8274ca9)" d="M 243.09 73.692 
L 254.25 77.2956 
L 265.41 76.464 
L 259.83 98.64 
L 248.67 118.044 
L 245.88 123.588 
L 243.09 73.692 
" style="fill:#00ffff;opacity:0.3;stroke:#000000;stroke-linejoin:miter;"/>
   </g>
   <g id="patch_86">
    <path clip-path="url(#p34d8274ca9)" d="M 243.09 289.908 
L 254.25 286.3044 
L 265.41 287.136 
L 259.83 264.96 
L 248.67 245.556 
L 245.88 240.012 
L 243.09 289.908 
" style="fill:#00ffff;opacity:0.3;stroke:#000000;stroke-linejoin:miter;"/>
   </g>
   <g id="patch_87">
    <path clip-path="url(#p34d8274ca9)" d="M 270.99 18.252 
L 282.15 21.8556 
L 293.31 21.024 
L 287.73 43.2 
L 276.57 62.604 
L 273.78 68.148 
L 270.99 18.252 
" style="fill:#00ffff;opacity:0.3;stroke:#000000;stroke-linejoin:miter;"/>
   </g>
   <g id="patch_88">
    <path clip-path="url(#p34d8274ca9)" d="M 270.99 345.348 
L 282.15 341.7444 
L 293.31 342.576 
L 287.73 320.4 
L 276.57 300.996 
L 273.78 295.452 
L 270.99 345.348 
" style="fill:#00ffff;opacity:0.3;stroke:#000000;stroke-linejoin:miter;"/>
   </g>
   <g id="patch_89">
    <path clip-path="url(#p34d8274ca9)" d="M 298.89 -37.188 
L 310.05 -33.5844 
L 321.21 -34.416 
L 315.63 -12.24 
L 304.47 7.164 
L 301.68 12.708 
L 298.89 -37.188 
" style="fill:#00ffff;opacity:0.3;stroke:#000000;stroke-linejoin:miter;"/>
   </g>
   <g id="patch_90">
    <path clip-path="url(#p34d8274ca9)" d="M 215.19 345.348 
L 226.35 341.7444 
L 237.51 342.576 
L 231.93 320.4 
L 220.77 300.996 
L 217.98 295.452 
L 215.19 345.348 
" style="fill:#00ffff;opacity:0.3;stroke:#000000;stroke-linejoin:miter;"/>
   </g>
   <g id="patch_91">
    <path clip-path="url(#p34d8274ca9)" d="M 215.19 18.252 
L 226.35 21.8556 
L 237.51 21.024 
L 231.93 43.2 
L 220.77 62.604 
L 217.98 68.148 
L 215.19 18.252 
" style="fill:#00ffff;opacity:0.3;stroke:#000000;stroke-linejoin:miter;"/>
   </g>
   <g id="patch_92">
    <path clip-path="url(#p34d8274ca9)" d="M 243.09 -37.188 
L 254.25 -33.5844 
L 265.41 -34.416 
L 259.83 -12.24 
L 248.67 7.164 
L 245.88 12.708 
L 243.09 -37.188 
" style="fill:#00ffff;opacity:0.3;stroke:#000000;stroke-linejoin:miter;"/>
   </g>
   <g id="patch_93">
    <path clip-path="url(#p34d8274ca9)" d="M 270.99 234.468 
L 282.15 230.8644 
L 293.31 231.696 
L 287.73 209.52 
L 276.57 190.116 
L 273.78 184.572 
L 270.99 234.468 
" style="fill:#00ffff;opacity:0.3;stroke:#000000;stroke-linejoin:miter;"/>
   </g>
   <g id="patch_94">
    <path clip-path="url(#p34d8274ca9)" d="M 270.99 129.132 
L 282.15 132.7356 
L 293.31 131.904 
L 287.73 154.08 
L 276.57 173.484 
L 273.78 179.028 
L 270.99 129.132 
" style="fill:#00ffff;opacity:0.3;stroke:#000000;stroke-linejoin:miter;"/>
   </g>
   <g id="patch_95">
    <path clip-path="url(#p34d8274ca9)" d="M 326.79 18.252 
L 337.95 21.8556 
L 349.11 21.024 
L 343.53 43.2 
L 332.37 62.604 
L 329.58 68.148 
L 326.79 18.252 
" style="fill:#00ffff;opacity:0.3;stroke:#000000;stroke-linejoin:miter;"/>
   </g>
   <g id="patch_96">
    <path clip-path="url(#p34d8274ca9)" d="M 326.79 345.348 
L 337.95 341.7444 
L 349.11 342.576 
L 343.53 320.4 
L 332.37 300.996 
L 329.58 295.452 
L 326.79 345.348 
" style="fill:#00ffff;opacity:0.3;stroke:#000000;stroke-linejoin:miter;"/>
   </g>
   <g id="patch_97">
    <path clip-path="url(#p34d8274ca9)" d="M 354.69 -37.188 
L 365.85 -33.5844 
L 377.01 -34.416 
L 371.43 -12.24 
L 360.27 7.164 
L 357.48 12.708 
L 354.69 -37.188 
" style="fill:#00ffff;opacity:0.3;stroke:#000000;stroke-linejoin:miter;"/>
   </g>
   <g id="patch_98">
    <path clip-path="url(#p34d8274ca9)" d="M 382.59 234.468 
L 393.75 230.8644 
L 404.91 231.696 
L 399.33 209.52 
L 388.17 190.116 
L 385.38 184.572 
L 382.59 234.468 
" style="fill:#00ffff;opacity:0.3;stroke:#000000;stroke-linejoin:miter;"/>
   </g>
   <g id="patch_99">
    <path clip-path="url(#p34d8274ca9)" d="M 382.59 123.588 
L 393.75 119.9844 
L 404.91 120.816 
L 399.33 98.64 
L 388.17 79.236 
L 385.38 73.692 
L 382.59 123.588 
" style="fill:#00ffff;opacity:0.3;stroke:#000000;stroke-linejoin:miter;"/>
   </g>
   <g id="patch_100">
    <path clip-path="url(#p34d8274ca9)" d="M 159.39 129.132 
L 170.55 132.7356 
L 181.71 131.904 
L 176.13 154.08 
L 164.97 173.484 
L 162.18 179.028 
L 159.39 129.132 
" style="fill:#00ffff;opacity:0.3;stroke:#000000;stroke-linejoin:miter;"/>
   </g>
   <g id="patch_101">
    <path clip-path="url(#p34d8274ca9)" d="M 159.39 234.468 
L 170.55 230.8644 
L 181.71 231.696 
L 176.13 209.52 
L 164.97 190.116 
L 162.18 184.572 
L 159.39 234.468 
" style="fill:#00ffff;opacity:0.3;stroke:#000000;stroke-linejoin:miter;"/>
   </g>
   <g id="patch_102">
    <path clip-path="url(#p34d8274ca9)" d="M 131.49 179.028 
L 142.65 175.4244 
L 153.81 176.256 
L 148.23 154.08 
L 137.07 134.676 
L 134.28 129.132 
L 131.49 179.028 
" style="fill:#00ffff;opacity:0.3;stroke:#000000;stroke-linejoin:miter;"/>
   </g>
   <g id="patch_103">
    <path clip-path="url(#p34d8274ca9)" d="M 131.49 184.572 
L 142.65 188.1756 
L 153.81 187.344 
L 148.23 209.52 
L 137.07 228.924 
L 134.28 234.468 
L 131.49 184.572 
" style="fill:#00ffff;opacity:0.3;stroke:#000000;stroke-linejoin:miter;"/>
   </g>
   <g id="patch_104">
    <path clip-path="url(#p34d8274ca9)" d="M 19.89 179.028 
L 31.05 175.4244 
L 42.21 176.256 
L 36.63 154.08 
L 25.47 134.676 
L 22.68 129.132 
L 19.89 179.028 
" style="fill:#00ffff;opacity:0.3;stroke:#000000;stroke-linejoin:miter;"/>
   </g>
   <g id="patch_105">
    <path clip-path="url(#p34d8274ca9)" d="M 19.89 184.572 
L 31.05 188.1756 
L 42.21 187.344 
L 36.63 209.52 
L 25.47 228.924 
L 22.68 234.468 
L 19.89 184.572 
" style="fill:#00ffff;opacity:0.3;stroke:#000000;stroke-linejoin:miter;"/>
   </g>
   <g id="patch_106">
    <path clip-path="url(#p34d8274ca9)" d="M -35.91 184.572 
L -24.75 188.1756 
L -13.59 187.344 
L -19.17 209.52 
L -30.33 228.924 
L -33.12 234.468 
L -35.91 184.572 
" style="fill:#00ffff;opacity:0.3;stroke:#000000;stroke-linejoin:miter;"/>
   </g>
   <g id="patch_107">
    <path clip-path="url(#p34d8274ca9)" d="M -35.91 179.028 
L -24.75 175.4244 
L -13.59 176.256 
L -19.17 154.08 
L -30.33 134.676 
L -33.12 129.132 
L -35.91 179.028 
" style="fill:#00ffff;opacity:0.3;stroke:#000000;stroke-linejoin:miter;"/>
   </g>
   <g id="patch_108">
    <path clip-path="url(#p34d8274ca9)" d="M -8.01 123.588 
L 3.15 119.9844 
L 14.31 120.816 
L 8.73 98.64 
L -2.43 79.236 
L -5.22 73.692 
L -8.01 123.588 
" style="fill:#00ffff;opacity:0.3;stroke:#000000;stroke-linejoin:miter;"/>
   </g>
   <g id="patch_109">
    <path clip-path="url(#p34d8274ca9)" d="M 75.69 68.148 
L 86.85 64.5444 
L 98.01 65.376 
L 92.43 43.2 
L 81.27 23.796 
L 78.48 18.252 
L 75.69 68.148 
" style="fill:#00ffff;opacity:0.3;stroke:#000000;stroke-linejoin:miter;"/>
   </g>
   <g id="patch_110">
    <path clip-path="url(#p34d8274ca9)" d="M 75.69 295.452 
L 86.85 299.0556 
L 98.01 298.224 
L 92.43 320.4 
L 81.27 339.804 
L 78.48 345.348 
L 75.69 295.452 
" style="fill:#00ffff;opacity:0.3;stroke:#000000;stroke-linejoin:miter;"/>
   </g>
   <g id="patch_111">
    <path clip-path="url(#p34d8274ca9)" d="M 19.89 295.452 
L 31.05 299.0556 
L 42.21 298.224 
L 36.63 320.4 
L 25.47 339.804 
L 22.68 345.348 
L 19.89 295.452 
" style="fill:#00ffff;opacity:0.3;stroke:#000000;stroke-linejoin:miter;"/>
   </g>
   <g id="patch_112">
    <path clip-path="url(#p34d8274ca9)" d="M 19.89 68.148 
L 31.05 64.5444 
L 42.21 65.376 
L 36.63 43.2 
L 25.47 23.796 
L 22.68 18.252 
L 19.89 68.148 
" style="fill:#00ffff;opacity:0.3;stroke:#000000;stroke-linejoin:miter;"/>
   </g>
   <g id="patch_113">
    <path clip-path="url(#p34d8274ca9)" d="M -35.91 68.148 
L -24.75 64.5444 
L -13.59 65.376 
L -19.17 43.2 
L -30.33 23.796 
L -33.12 18.252 
L -35.91 68.148 
" style="fill:#00ffff;opacity:0.3;stroke:#000000;stroke-linejoin:miter;"/>
   </g>
   <g id="patch_114">
    <path clip-path="url(#p34d8274ca9)" d="M 47.79 12.708 
L 58.95 9.1044 
L 70.11 9.936 
L 64.53 -12.24 
L 53.37 -31.644 
L 50.58 -37.188 
L 47.79 12.708 
" style="fill:#00ffff;opacity:0.3;stroke:#000000;stroke-linejoin:miter;"/>
   </g>
   <g id="patch_115">
    <path clip-path="url(#p34d8274ca9)" d="M 47.79 350.892 
L 58.95 354.4956 
L 70.11 353.664 
L 64.53 375.84 
L 53.37 395.244 
L 50.58 400.788 
L 47.79 350.892 
" style="fill:#00ffff;opacity:0.3;stroke:#000000;stroke-linejoin:miter;"/>
   </g>
   <g id="patch_116">
    <path clip-path="url(#p34d8274ca9)" d="M 75.69 -42.732 
L 86.85 -46.3356 
L 98.01 -45.504 
L 92.43 -67.68 
L 81.27 -87.084 
L 78.48 -92.628 
L 75.69 -42.732 
" style="fill:#00ffff;opacity:0.3;stroke:#000000;stroke-linejoin:miter;"/>
   </g>
   <g id="patch_117">
    <path clip-path="url(#p34d8274ca9)" d="M -8.01 350.892 
L 3.15 354.4956 
L 14.31 353.664 
L 8.73 375.84 
L -2.43 395.244 
L -5.22 400.788 
L -8.01 350.892 
" style="fill:#00ffff;opacity:0.3;stroke:#000000;stroke-linejoin:miter;"/>
   </g>
   <g id="patch_118">
    <path clip-path="url(#p34d8274ca9)" d="M -8.01 12.708 
L 3.15 9.1044 
L 14.31 9.936 
L 8.73 -12.24 
L -2.43 -31.644 
L -5.22 -37.188 
L -8.01 12.708 
" style="fill:#00ffff;opacity:0.3;stroke:#000000;stroke-linejoin:miter;"/>
   </g>
   <g id="patch_119">
    <path clip-path="url(#p34d8274ca9)" d="M -35.91 295.452 
L -24.75 299.0556 
L -13.59 298.224 
L -19.17 320.4 
L -30.33 339.804 
L -33.12 345.348 
L -35.91 295.452 
" style="fill:#00ffff;opacity:0.3;stroke:#000000;stroke-linejoin:miter;"/>
   </g>
   <g id="patch_120">
    <path clip-path="url(#p34d8274ca9)" d="M -8.01 240.012 
L 3.15 243.6156 
L 14.31 242.784 
L 8.73 264.96 
L -2.43 284.364 
L -5.22 289.908 
L -8.01 240.012 
" style="fill:#00ffff;opacity:0.3;stroke:#000000;stroke-linejoin:miter;"/>
   </g>
   <g id="patch_121">
    <path clip-path="url(#p34d8274ca9)" d="M 187.29 68.148 
L 198.45 64.5444 
L 209.61 65.376 
L 204.03 43.2 
L 192.87 23.796 
L 190.08 18.252 
L 187.29 68.148 
" style="fill:#00ffff;opacity:0.3;stroke:#000000;stroke-linejoin:miter;"/>
   </g>
   <g id="patch_122">
    <path clip-path="url(#p34d8274ca9)" d="M 187.29 295.452 
L 198.45 299.0556 
L 209.61 298.224 
L 204.03 320.4 
L 192.87 339.804 
L 190.08 345.348 
L 187.29 295.452 
" style="fill:#00ffff;opacity:0.3;stroke:#000000;stroke-linejoin:miter;"/>
   </g>
   <g id="patch_123">
    <path clip-path="url(#p34d8274ca9)" d="M 131.49 -42.732 
L 142.65 -46.3356 
L 153.81 -45.504 
L 148.23 -67.68 
L 137.07 -87.084 
L 134.28 -92.628 
L 131.49 -42.732 
" style="fill:#00ffff;opacity:0.3;stroke:#000000;stroke-linejoin:miter;"/>
   </g>
   <g id="patch_124">
    <path clip-path="url(#p34d8274ca9)" d="M 243.09 -42.732 
L 254.25 -46.3356 
L 265.41 -45.504 
L 259.83 -67.68 
L 248.67 -87.084 
L 245.88 -92.628 
L 243.09 -42.732 
" style="fill:#00ffff;opacity:0.3;stroke:#000000;stroke-linejoin:miter;"/>
   </g>
   <g id="patch_125">
    <path d="M 45 320.4 
L 45 43.2 
" style="fill:none;stroke:#000000;stroke-linecap:square;stroke-linejoin:miter;stroke-width:0.8;"/>
   </g>
   <g id="patch_126">
    <path d="M 324 320.4 
L 324 43.2 
" style="fill:none;stroke:#000000;stroke-linecap:square;stroke-linejoin:miter;stroke-width:0.8;"/>
   </g>
   <g id="patch_127">
    <path d="M 45 320.4 
L 324 320.4 
" style="fill:none;stroke:#000000;stroke-linecap:square;stroke-linejoin:miter;stroke-width:0.8;"/>
   </g>
   <g id="patch_128">
    <path d="M 45 43.2 
L 324 43.2 
" style="fill:none;stroke:#000000;stroke-linecap:square;stroke-linejoin:miter;stroke-width:0.8;"/>
   </g>
   <g id="text_23">
    <!-- grupa pg -->
    <defs>
     <path d="M 45.40625 27.984375 
Q 45.40625 37.75 41.375 43.109375 
Q 37.359375 48.484375 30.078125 48.484375 
Q 22.859375 48.484375 18.828125 43.109375 
Q 14.796875 37.75 14.796875 27.984375 
Q 14.796875 18.265625 18.828125 12.890625 
Q 22.859375 7.515625 30.078125 7.515625 
Q 37.359375 7.515625 41.375 12.890625 
Q 45.40625 18.265625 45.40625 27.984375 
z
M 54.390625 6.78125 
Q 54.390625 -7.171875 48.1875 -13.984375 
Q 42 -20.796875 29.203125 -20.796875 
Q 24.46875 -20.796875 20.265625 -20.09375 
Q 16.0625 -19.390625 12.109375 -17.921875 
L 12.109375 -9.1875 
Q 16.0625 -11.328125 19.921875 -12.34375 
Q 23.78125 -13.375 27.78125 -13.375 
Q 36.625 -13.375 41.015625 -8.765625 
Q 45.40625 -4.15625 45.40625 5.171875 
L 45.40625 9.625 
Q 42.625 4.78125 38.28125 2.390625 
Q 33.9375 0 27.875 0 
Q 17.828125 0 11.671875 7.65625 
Q 5.515625 15.328125 5.515625 27.984375 
Q 5.515625 40.671875 11.671875 48.328125 
Q 17.828125 56 27.875 56 
Q 33.9375 56 38.28125 53.609375 
Q 42.625 51.21875 45.40625 46.390625 
L 45.40625 54.6875 
L 54.390625 54.6875 
z
" id="DejaVuSans-67"/>
     <path d="M 41.109375 46.296875 
Q 39.59375 47.171875 37.8125 47.578125 
Q 36.03125 48 33.890625 48 
Q 26.265625 48 22.1875 43.046875 
Q 18.109375 38.09375 18.109375 28.8125 
L 18.109375 0 
L 9.078125 0 
L 9.078125 54.6875 
L 18.109375 54.6875 
L 18.109375 46.1875 
Q 20.953125 51.171875 25.484375 53.578125 
Q 30.03125 56 36.53125 56 
Q 37.453125 56 38.578125 55.875 
Q 39.703125 55.765625 41.0625 55.515625 
z
" id="DejaVuSans-72"/>
     <path d="M 8.5 21.578125 
L 8.5 54.6875 
L 17.484375 54.6875 
L 17.484375 21.921875 
Q 17.484375 14.15625 20.5 10.265625 
Q 23.53125 6.390625 29.59375 6.390625 
Q 36.859375 6.390625 41.078125 11.03125 
Q 45.3125 15.671875 45.3125 23.6875 
L 45.3125 54.6875 
L 54.296875 54.6875 
L 54.296875 0 
L 45.3125 0 
L 45.3125 8.40625 
Q 42.046875 3.421875 37.71875 1 
Q 33.40625 -1.421875 27.6875 -1.421875 
Q 18.265625 -1.421875 13.375 4.4375 
Q 8.5 10.296875 8.5 21.578125 
z
M 31.109375 56 
z
" id="DejaVuSans-75"/>
     <path d="M 18.109375 8.203125 
L 18.109375 -20.796875 
L 9.078125 -20.796875 
L 9.078125 54.6875 
L 18.109375 54.6875 
L 18.109375 46.390625 
Q 20.953125 51.265625 25.265625 53.625 
Q 29.59375 56 35.59375 56 
Q 45.5625 56 51.78125 48.09375 
Q 58.015625 40.1875 58.015625 27.296875 
Q 58.015625 14.40625 51.78125 6.484375 
Q 45.5625 -1.421875 35.59375 -1.421875 
Q 29.59375 -1.421875 25.265625 0.953125 
Q 20.953125 3.328125 18.109375 8.203125 
z
M 48.6875 27.296875 
Q 48.6875 37.203125 44.609375 42.84375 
Q 40.53125 48.484375 33.40625 48.484375 
Q 26.265625 48.484375 22.1875 42.84375 
Q 18.109375 37.203125 18.109375 27.296875 
Q 18.109375 17.390625 22.1875 11.75 
Q 26.265625 6.109375 33.40625 6.109375 
Q 40.53125 6.109375 44.609375 11.75 
Q 48.6875 17.390625 48.6875 27.296875 
z
" id="DejaVuSans-70"/>
     <path d="M 34.28125 27.484375 
Q 23.390625 27.484375 19.1875 25 
Q 14.984375 22.515625 14.984375 16.5 
Q 14.984375 11.71875 18.140625 8.90625 
Q 21.296875 6.109375 26.703125 6.109375 
Q 34.1875 6.109375 38.703125 11.40625 
Q 43.21875 16.703125 43.21875 25.484375 
L 43.21875 27.484375 
z
M 52.203125 31.203125 
L 52.203125 0 
L 43.21875 0 
L 43.21875 8.296875 
Q 40.140625 3.328125 35.546875 0.953125 
Q 30.953125 -1.421875 24.3125 -1.421875 
Q 15.921875 -1.421875 10.953125 3.296875 
Q 6 8.015625 6 15.921875 
Q 6 25.140625 12.171875 29.828125 
Q 18.359375 34.515625 30.609375 34.515625 
L 43.21875 34.515625 
L 43.21875 35.40625 
Q 43.21875 41.609375 39.140625 45 
Q 35.0625 48.390625 27.6875 48.390625 
Q 23 48.390625 18.546875 47.265625 
Q 14.109375 46.140625 10.015625 43.890625 
L 10.015625 52.203125 
Q 14.9375 54.109375 19.578125 55.046875 
Q 24.21875 56 28.609375 56 
Q 40.484375 56 46.34375 49.84375 
Q 52.203125 43.703125 52.203125 31.203125 
z
" id="DejaVuSans-61"/>
     <path id="DejaVuSans-20"/>
    </defs>
    <g transform="translate(157.410937 37.2)scale(0.12 -0.12)">
     <use xlink:href="#DejaVuSans-67"/>
     <use x="63.476562" xlink:href="#DejaVuSans-72"/>
     <use x="104.589844" xlink:href="#DejaVuSans-75"/>
     <use x="167.96875" xlink:href="#DejaVuSans-70"/>
     <use x="231.445312" xlink:href="#DejaVuSans-61"/>
     <use x="292.724609" xlink:href="#DejaVuSans-20"/>
     <use x="324.511719" xlink:href="#DejaVuSans-70"/>
     <use x="387.988281" xlink:href="#DejaVuSans-67"/>
    </g>
   </g>
  </g>
 </g>
 <defs>
  <clipPath id="p34d8274ca9">
   <rect height="277.2" width="279" x="45" y="43.2"/>
  </clipPath>
 </defs>
</svg>
