<?xml version="1.0" encoding="utf-8" standalone="no"?>
<!DOCTYPE svg PUBLIC "-//W3C//DTD SVG 1.1//EN"
  "http://www.w3.org/Graphics/SVG/1.1/DTD/svg11.dtd">
<!-- Created with matplotlib (http://matplotlib.org/) -->
<svg height="360pt" version="1.1" viewBox="0 0 360 360" width="360pt" xmlns="http://www.w3.org/2000/svg" xmlns:xlink="http://www.w3.org/1999/xlink">
 <defs>
  <style type="text/css">
*{stroke-linecap:butt;stroke-linejoin:round;}
  </style>
 </defs>
 <g id="figure_1">
  <g id="patch_1">
   <path d="M 0 360 
L 360 360 
L 360 0 
L 0 0 
z
" style="fill:#ffffff;"/>
  </g>
  <g id="axes_1">
   <g id="patch_2">
    <path d="M 45 320.4 
L 324 320.4 
L 324 43.2 
L 45 43.2 
z
" style="fill:#ffffff;"/>
   </g>
   <g id="matplotlib.axis_1">
    <g id="xtick_1">
     <g id="line2d_1">
      <defs>
       <path d="M 0 0 
L 0 3.5 
" id="m585db87a6b" style="stroke:#000000;stroke-width:0.8;"/>
      </defs>
      <g>
       <use style="stroke:#000000;stroke-width:0.8;" x="45" xlink:href="#m585db87a6b" y="320.4"/>
      </g>
     </g>
     <g id="text_1">
      <!-- −5 -->
      <defs>
       <path d="M 10.59375 35.5 
L 73.1875 35.5 
L 73.1875 27.203125 
L 10.59375 27.203125 
z
" id="DejaVuSans-2212"/>
       <path d="M 10.796875 72.90625 
L 49.515625 72.90625 
L 49.515625 64.59375 
L 19.828125 64.59375 
L 19.828125 46.734375 
Q 21.96875 47.46875 24.109375 47.828125 
Q 26.265625 48.1875 28.421875 48.1875 
Q 40.625 48.1875 47.75 41.5 
Q 54.890625 34.8125 54.890625 23.390625 
Q 54.890625 11.625 47.5625 5.09375 
Q 40.234375 -1.421875 26.90625 -1.421875 
Q 22.3125 -1.421875 17.546875 -0.640625 
Q 12.796875 0.140625 7.71875 1.703125 
L 7.71875 11.625 
Q 12.109375 9.234375 16.796875 8.0625 
Q 21.484375 6.890625 26.703125 6.890625 
Q 35.15625 6.890625 40.078125 11.328125 
Q 45.015625 15.765625 45.015625 23.390625 
Q 45.015625 31 40.078125 35.4375 
Q 35.15625 39.890625 26.703125 39.890625 
Q 22.75 39.890625 18.8125 39.015625 
Q 14.890625 38.140625 10.796875 36.28125 
z
" id="DejaVuSans-35"/>
      </defs>
      <g transform="translate(37.628906 334.998438)scale(0.1 -0.1)">
       <use xlink:href="#DejaVuSans-2212"/>
       <use x="83.789062" xlink:href="#DejaVuSans-35"/>
      </g>
     </g>
    </g>
    <g id="xtick_2">
     <g id="line2d_2">
      <g>
       <use style="stroke:#000000;stroke-width:0.8;" x="72.9" xlink:href="#m585db87a6b" y="320.4"/>
      </g>
     </g>
     <g id="text_2">
      <!-- −4 -->
      <defs>
       <path d="M 37.796875 64.3125 
L 12.890625 25.390625 
L 37.796875 25.390625 
z
M 35.203125 72.90625 
L 47.609375 72.90625 
L 47.609375 25.390625 
L 58.015625 25.390625 
L 58.015625 17.1875 
L 47.609375 17.1875 
L 47.609375 0 
L 37.796875 0 
L 37.796875 17.1875 
L 4.890625 17.1875 
L 4.890625 26.703125 
z
" id="DejaVuSans-34"/>
      </defs>
      <g transform="translate(65.528906 334.998438)scale(0.1 -0.1)">
       <use xlink:href="#DejaVuSans-2212"/>
       <use x="83.789062" xlink:href="#DejaVuSans-34"/>
      </g>
     </g>
    </g>
    <g id="xtick_3">
     <g id="line2d_3">
      <g>
       <use style="stroke:#000000;stroke-width:0.8;" x="100.8" xlink:href="#m585db87a6b" y="320.4"/>
      </g>
     </g>
     <g id="text_3">
      <!-- −3 -->
      <defs>
       <path d="M 40.578125 39.3125 
Q 47.65625 37.796875 51.625 33 
Q 55.609375 28.21875 55.609375 21.1875 
Q 55.609375 10.40625 48.1875 4.484375 
Q 40.765625 -1.421875 27.09375 -1.421875 
Q 22.515625 -1.421875 17.65625 -0.515625 
Q 12.796875 0.390625 7.625 2.203125 
L 7.625 11.71875 
Q 11.71875 9.328125 16.59375 8.109375 
Q 21.484375 6.890625 26.8125 6.890625 
Q 36.078125 6.890625 40.9375 10.546875 
Q 45.796875 14.203125 45.796875 21.1875 
Q 45.796875 27.640625 41.28125 31.265625 
Q 36.765625 34.90625 28.71875 34.90625 
L 20.21875 34.90625 
L 20.21875 43.015625 
L 29.109375 43.015625 
Q 36.375 43.015625 40.234375 45.921875 
Q 44.09375 48.828125 44.09375 54.296875 
Q 44.09375 59.90625 40.109375 62.90625 
Q 36.140625 65.921875 28.71875 65.921875 
Q 24.65625 65.921875 20.015625 65.03125 
Q 15.375 64.15625 9.8125 62.3125 
L 9.8125 71.09375 
Q 15.4375 72.65625 20.34375 73.4375 
Q 25.25 74.21875 29.59375 74.21875 
Q 40.828125 74.21875 47.359375 69.109375 
Q 53.90625 64.015625 53.90625 55.328125 
Q 53.90625 49.265625 50.4375 45.09375 
Q 46.96875 40.921875 40.578125 39.3125 
z
" id="DejaVuSans-33"/>
      </defs>
      <g transform="translate(93.428906 334.998438)scale(0.1 -0.1)">
       <use xlink:href="#DejaVuSans-2212"/>
       <use x="83.789062" xlink:href="#DejaVuSans-33"/>
      </g>
     </g>
    </g>
    <g id="xtick_4">
     <g id="line2d_4">
      <g>
       <use style="stroke:#000000;stroke-width:0.8;" x="128.7" xlink:href="#m585db87a6b" y="320.4"/>
      </g>
     </g>
     <g id="text_4">
      <!-- −2 -->
      <defs>
       <path d="M 19.1875 8.296875 
L 53.609375 8.296875 
L 53.609375 0 
L 7.328125 0 
L 7.328125 8.296875 
Q 12.9375 14.109375 22.625 23.890625 
Q 32.328125 33.6875 34.8125 36.53125 
Q 39.546875 41.84375 41.421875 45.53125 
Q 43.3125 49.21875 43.3125 52.78125 
Q 43.3125 58.59375 39.234375 62.25 
Q 35.15625 65.921875 28.609375 65.921875 
Q 23.96875 65.921875 18.8125 64.3125 
Q 13.671875 62.703125 7.8125 59.421875 
L 7.8125 69.390625 
Q 13.765625 71.78125 18.9375 73 
Q 24.125 74.21875 28.421875 74.21875 
Q 39.75 74.21875 46.484375 68.546875 
Q 53.21875 62.890625 53.21875 53.421875 
Q 53.21875 48.921875 51.53125 44.890625 
Q 49.859375 40.875 45.40625 35.40625 
Q 44.1875 33.984375 37.640625 27.21875 
Q 31.109375 20.453125 19.1875 8.296875 
z
" id="DejaVuSans-32"/>
      </defs>
      <g transform="translate(121.328906 334.998438)scale(0.1 -0.1)">
       <use xlink:href="#DejaVuSans-2212"/>
       <use x="83.789062" xlink:href="#DejaVuSans-32"/>
      </g>
     </g>
    </g>
    <g id="xtick_5">
     <g id="line2d_5">
      <g>
       <use style="stroke:#000000;stroke-width:0.8;" x="156.6" xlink:href="#m585db87a6b" y="320.4"/>
      </g>
     </g>
     <g id="text_5">
      <!-- −1 -->
      <defs>
       <path d="M 12.40625 8.296875 
L 28.515625 8.296875 
L 28.515625 63.921875 
L 10.984375 60.40625 
L 10.984375 69.390625 
L 28.421875 72.90625 
L 38.28125 72.90625 
L 38.28125 8.296875 
L 54.390625 8.296875 
L 54.390625 0 
L 12.40625 0 
z
" id="DejaVuSans-31"/>
      </defs>
      <g transform="translate(149.228906 334.998438)scale(0.1 -0.1)">
       <use xlink:href="#DejaVuSans-2212"/>
       <use x="83.789062" xlink:href="#DejaVuSans-31"/>
      </g>
     </g>
    </g>
    <g id="xtick_6">
     <g id="line2d_6">
      <g>
       <use style="stroke:#000000;stroke-width:0.8;" x="184.5" xlink:href="#m585db87a6b" y="320.4"/>
      </g>
     </g>
     <g id="text_6">
      <!-- 0 -->
      <defs>
       <path d="M 31.78125 66.40625 
Q 24.171875 66.40625 20.328125 58.90625 
Q 16.5 51.421875 16.5 36.375 
Q 16.5 21.390625 20.328125 13.890625 
Q 24.171875 6.390625 31.78125 6.390625 
Q 39.453125 6.390625 43.28125 13.890625 
Q 47.125 21.390625 47.125 36.375 
Q 47.125 51.421875 43.28125 58.90625 
Q 39.453125 66.40625 31.78125 66.40625 
z
M 31.78125 74.21875 
Q 44.046875 74.21875 50.515625 64.515625 
Q 56.984375 54.828125 56.984375 36.375 
Q 56.984375 17.96875 50.515625 8.265625 
Q 44.046875 -1.421875 31.78125 -1.421875 
Q 19.53125 -1.421875 13.0625 8.265625 
Q 6.59375 17.96875 6.59375 36.375 
Q 6.59375 54.828125 13.0625 64.515625 
Q 19.53125 74.21875 31.78125 74.21875 
z
" id="DejaVuSans-30"/>
      </defs>
      <g transform="translate(181.31875 334.998438)scale(0.1 -0.1)">
       <use xlink:href="#DejaVuSans-30"/>
      </g>
     </g>
    </g>
    <g id="xtick_7">
     <g id="line2d_7">
      <g>
       <use style="stroke:#000000;stroke-width:0.8;" x="212.4" xlink:href="#m585db87a6b" y="320.4"/>
      </g>
     </g>
     <g id="text_7">
      <!-- 1 -->
      <g transform="translate(209.21875 334.998438)scale(0.1 -0.1)">
       <use xlink:href="#DejaVuSans-31"/>
      </g>
     </g>
    </g>
    <g id="xtick_8">
     <g id="line2d_8">
      <g>
       <use style="stroke:#000000;stroke-width:0.8;" x="240.3" xlink:href="#m585db87a6b" y="320.4"/>
      </g>
     </g>
     <g id="text_8">
      <!-- 2 -->
      <g transform="translate(237.11875 334.998438)scale(0.1 -0.1)">
       <use xlink:href="#DejaVuSans-32"/>
      </g>
     </g>
    </g>
    <g id="xtick_9">
     <g id="line2d_9">
      <g>
       <use style="stroke:#000000;stroke-width:0.8;" x="268.2" xlink:href="#m585db87a6b" y="320.4"/>
      </g>
     </g>
     <g id="text_9">
      <!-- 3 -->
      <g transform="translate(265.01875 334.998438)scale(0.1 -0.1)">
       <use xlink:href="#DejaVuSans-33"/>
      </g>
     </g>
    </g>
    <g id="xtick_10">
     <g id="line2d_10">
      <g>
       <use style="stroke:#000000;stroke-width:0.8;" x="296.1" xlink:href="#m585db87a6b" y="320.4"/>
      </g>
     </g>
     <g id="text_10">
      <!-- 4 -->
      <g transform="translate(292.91875 334.998438)scale(0.1 -0.1)">
       <use xlink:href="#DejaVuSans-34"/>
      </g>
     </g>
    </g>
    <g id="xtick_11">
     <g id="line2d_11">
      <g>
       <use style="stroke:#000000;stroke-width:0.8;" x="324" xlink:href="#m585db87a6b" y="320.4"/>
      </g>
     </g>
     <g id="text_11">
      <!-- 5 -->
      <g transform="translate(320.81875 334.998438)scale(0.1 -0.1)">
       <use xlink:href="#DejaVuSans-35"/>
      </g>
     </g>
    </g>
   </g>
   <g id="matplotlib.axis_2">
    <g id="ytick_1">
     <g id="line2d_12">
      <defs>
       <path d="M 0 0 
L -3.5 0 
" id="m7544a3ef46" style="stroke:#000000;stroke-width:0.8;"/>
      </defs>
      <g>
       <use style="stroke:#000000;stroke-width:0.8;" x="45" xlink:href="#m7544a3ef46" y="320.4"/>
      </g>
     </g>
     <g id="text_12">
      <!-- −5 -->
      <g transform="translate(23.257812 324.199219)scale(0.1 -0.1)">
       <use xlink:href="#DejaVuSans-2212"/>
       <use x="83.789062" xlink:href="#DejaVuSans-35"/>
      </g>
     </g>
    </g>
    <g id="ytick_2">
     <g id="line2d_13">
      <g>
       <use style="stroke:#000000;stroke-width:0.8;" x="45" xlink:href="#m7544a3ef46" y="292.68"/>
      </g>
     </g>
     <g id="text_13">
      <!-- −4 -->
      <g transform="translate(23.257812 296.479219)scale(0.1 -0.1)">
       <use xlink:href="#DejaVuSans-2212"/>
       <use x="83.789062" xlink:href="#DejaVuSans-34"/>
      </g>
     </g>
    </g>
    <g id="ytick_3">
     <g id="line2d_14">
      <g>
       <use style="stroke:#000000;stroke-width:0.8;" x="45" xlink:href="#m7544a3ef46" y="264.96"/>
      </g>
     </g>
     <g id="text_14">
      <!-- −3 -->
      <g transform="translate(23.257812 268.759219)scale(0.1 -0.1)">
       <use xlink:href="#DejaVuSans-2212"/>
       <use x="83.789062" xlink:href="#DejaVuSans-33"/>
      </g>
     </g>
    </g>
    <g id="ytick_4">
     <g id="line2d_15">
      <g>
       <use style="stroke:#000000;stroke-width:0.8;" x="45" xlink:href="#m7544a3ef46" y="237.24"/>
      </g>
     </g>
     <g id="text_15">
      <!-- −2 -->
      <g transform="translate(23.257812 241.039219)scale(0.1 -0.1)">
       <use xlink:href="#DejaVuSans-2212"/>
       <use x="83.789062" xlink:href="#DejaVuSans-32"/>
      </g>
     </g>
    </g>
    <g id="ytick_5">
     <g id="line2d_16">
      <g>
       <use style="stroke:#000000;stroke-width:0.8;" x="45" xlink:href="#m7544a3ef46" y="209.52"/>
      </g>
     </g>
     <g id="text_16">
      <!-- −1 -->
      <g transform="translate(23.257812 213.319219)scale(0.1 -0.1)">
       <use xlink:href="#DejaVuSans-2212"/>
       <use x="83.789062" xlink:href="#DejaVuSans-31"/>
      </g>
     </g>
    </g>
    <g id="ytick_6">
     <g id="line2d_17">
      <g>
       <use style="stroke:#000000;stroke-width:0.8;" x="45" xlink:href="#m7544a3ef46" y="181.8"/>
      </g>
     </g>
     <g id="text_17">
      <!-- 0 -->
      <g transform="translate(31.6375 185.599219)scale(0.1 -0.1)">
       <use xlink:href="#DejaVuSans-30"/>
      </g>
     </g>
    </g>
    <g id="ytick_7">
     <g id="line2d_18">
      <g>
       <use style="stroke:#000000;stroke-width:0.8;" x="45" xlink:href="#m7544a3ef46" y="154.08"/>
      </g>
     </g>
     <g id="text_18">
      <!-- 1 -->
      <g transform="translate(31.6375 157.879219)scale(0.1 -0.1)">
       <use xlink:href="#DejaVuSans-31"/>
      </g>
     </g>
    </g>
    <g id="ytick_8">
     <g id="line2d_19">
      <g>
       <use style="stroke:#000000;stroke-width:0.8;" x="45" xlink:href="#m7544a3ef46" y="126.36"/>
      </g>
     </g>
     <g id="text_19">
      <!-- 2 -->
      <g transform="translate(31.6375 130.159219)scale(0.1 -0.1)">
       <use xlink:href="#DejaVuSans-32"/>
      </g>
     </g>
    </g>
    <g id="ytick_9">
     <g id="line2d_20">
      <g>
       <use style="stroke:#000000;stroke-width:0.8;" x="45" xlink:href="#m7544a3ef46" y="98.64"/>
      </g>
     </g>
     <g id="text_20">
      <!-- 3 -->
      <g transform="translate(31.6375 102.439219)scale(0.1 -0.1)">
       <use xlink:href="#DejaVuSans-33"/>
      </g>
     </g>
    </g>
    <g id="ytick_10">
     <g id="line2d_21">
      <g>
       <use style="stroke:#000000;stroke-width:0.8;" x="45" xlink:href="#m7544a3ef46" y="70.92"/>
      </g>
     </g>
     <g id="text_21">
      <!-- 4 -->
      <g transform="translate(31.6375 74.719219)scale(0.1 -0.1)">
       <use xlink:href="#DejaVuSans-34"/>
      </g>
     </g>
    </g>
    <g id="ytick_11">
     <g id="line2d_22">
      <g>
       <use style="stroke:#000000;stroke-width:0.8;" x="45" xlink:href="#m7544a3ef46" y="43.2"/>
      </g>
     </g>
     <g id="text_22">
      <!-- 5 -->
      <g transform="translate(31.6375 46.999219)scale(0.1 -0.1)">
       <use xlink:href="#DejaVuSans-35"/>
      </g>
     </g>
    </g>
   </g>
   <g id="patch_3">
    <path clip-path="url(#p6bbd04156d)" d="M 187.29 179.028 
L 198.45 176.256 
L 226.35 154.08 
L 234.72 129.132 
L 220.77 134.676 
L 187.29 179.028 
" style="fill:#00ffff;opacity:0.3;stroke:#000000;stroke-linejoin:miter;"/>
   </g>
   <g id="patch_4">
    <path clip-path="url(#p6bbd04156d)" d="M 215.19 179.028 
L 226.35 176.256 
L 254.25 154.08 
L 262.62 129.132 
L 248.67 134.676 
L 215.19 179.028 
" style="fill:#00ffff;opacity:0.3;stroke:#000000;stroke-linejoin:miter;"/>
   </g>
   <g id="patch_5">
    <path clip-path="url(#p6bbd04156d)" d="M 243.09 179.028 
L 254.25 176.256 
L 282.15 154.08 
L 290.52 129.132 
L 276.57 134.676 
L 243.09 179.028 
" style="fill:#00ffff;opacity:0.3;stroke:#000000;stroke-linejoin:miter;"/>
   </g>
   <g id="patch_6">
    <path clip-path="url(#p6bbd04156d)" d="M 270.99 179.028 
L 282.15 176.256 
L 310.05 154.08 
L 318.42 129.132 
L 304.47 134.676 
L 270.99 179.028 
" style="fill:#00ffff;opacity:0.3;stroke:#000000;stroke-linejoin:miter;"/>
   </g>
   <g id="patch_7">
    <path clip-path="url(#p6bbd04156d)" d="M 298.89 179.028 
L 310.05 176.256 
L 337.95 154.08 
L 346.32 129.132 
L 332.37 134.676 
L 298.89 179.028 
" style="fill:#00ffff;opacity:0.3;stroke:#000000;stroke-linejoin:miter;"/>
   </g>
   <g id="patch_8">
    <path clip-path="url(#p6bbd04156d)" d="M 326.79 179.028 
L 337.95 176.256 
L 365.85 154.08 
L 374.22 129.132 
L 360.27 134.676 
L 326.79 179.028 
" style="fill:#00ffff;opacity:0.3;stroke:#000000;stroke-linejoin:miter;"/>
   </g>
   <g id="patch_9">
    <path clip-path="url(#p6bbd04156d)" d="M 354.69 179.028 
L 365.85 176.256 
L 393.75 154.08 
L 402.12 129.132 
L 388.17 134.676 
L 354.69 179.028 
" style="fill:#00ffff;opacity:0.3;stroke:#000000;stroke-linejoin:miter;"/>
   </g>
   <g id="patch_10">
    <path clip-path="url(#p6bbd04156d)" d="M 382.59 179.028 
L 393.75 176.256 
L 421.65 154.08 
L 430.02 129.132 
L 416.07 134.676 
L 382.59 179.028 
" style="fill:#00ffff;opacity:0.3;stroke:#000000;stroke-linejoin:miter;"/>
   </g>
   <g id="patch_11">
    <path clip-path="url(#p6bbd04156d)" d="M 354.69 68.148 
L 365.85 65.376 
L 393.75 43.2 
L 402.12 18.252 
L 388.17 23.796 
L 354.69 68.148 
" style="fill:#00ffff;opacity:0.3;stroke:#000000;stroke-linejoin:miter;"/>
   </g>
   <g id="patch_12">
    <path clip-path="url(#p6bbd04156d)" d="M 382.59 68.148 
L 393.75 65.376 
L 421.65 43.2 
L 430.02 18.252 
L 416.07 23.796 
L 382.59 68.148 
" style="fill:#00ffff;opacity:0.3;stroke:#000000;stroke-linejoin:miter;"/>
   </g>
   <g id="patch_13">
    <path clip-path="url(#p6bbd04156d)" d="M 354.69 -42.732 
L 365.85 -45.504 
L 393.75 -67.68 
L 402.12 -92.628 
L 388.17 -87.084 
L 354.69 -42.732 
" style="fill:#00ffff;opacity:0.3;stroke:#000000;stroke-linejoin:miter;"/>
   </g>
   <g id="patch_14">
    <path clip-path="url(#p6bbd04156d)" d="M 326.79 68.148 
L 337.95 65.376 
L 365.85 43.2 
L 374.22 18.252 
L 360.27 23.796 
L 326.79 68.148 
" style="fill:#00ffff;opacity:0.3;stroke:#000000;stroke-linejoin:miter;"/>
   </g>
   <g id="patch_15">
    <path clip-path="url(#p6bbd04156d)" d="M 326.79 -42.732 
L 337.95 -45.504 
L 365.85 -67.68 
L 374.22 -92.628 
L 360.27 -87.084 
L 326.79 -42.732 
" style="fill:#00ffff;opacity:0.3;stroke:#000000;stroke-linejoin:miter;"/>
   </g>
   <g id="patch_16">
    <path clip-path="url(#p6bbd04156d)" d="M 298.89 68.148 
L 310.05 65.376 
L 337.95 43.2 
L 346.32 18.252 
L 332.37 23.796 
L 298.89 68.148 
" style="fill:#00ffff;opacity:0.3;stroke:#000000;stroke-linejoin:miter;"/>
   </g>
   <g id="patch_17">
    <path clip-path="url(#p6bbd04156d)" d="M 298.89 -42.732 
L 310.05 -45.504 
L 337.95 -67.68 
L 346.32 -92.628 
L 332.37 -87.084 
L 298.89 -42.732 
" style="fill:#00ffff;opacity:0.3;stroke:#000000;stroke-linejoin:miter;"/>
   </g>
   <g id="patch_18">
    <path clip-path="url(#p6bbd04156d)" d="M 270.99 68.148 
L 282.15 65.376 
L 310.05 43.2 
L 318.42 18.252 
L 304.47 23.796 
L 270.99 68.148 
" style="fill:#00ffff;opacity:0.3;stroke:#000000;stroke-linejoin:miter;"/>
   </g>
   <g id="patch_19">
    <path clip-path="url(#p6bbd04156d)" d="M 270.99 -42.732 
L 282.15 -45.504 
L 310.05 -67.68 
L 318.42 -92.628 
L 304.47 -87.084 
L 270.99 -42.732 
" style="fill:#00ffff;opacity:0.3;stroke:#000000;stroke-linejoin:miter;"/>
   </g>
   <g id="patch_20">
    <path clip-path="url(#p6bbd04156d)" d="M 243.09 68.148 
L 254.25 65.376 
L 282.15 43.2 
L 290.52 18.252 
L 276.57 23.796 
L 243.09 68.148 
" style="fill:#00ffff;opacity:0.3;stroke:#000000;stroke-linejoin:miter;"/>
   </g>
   <g id="patch_21">
    <path clip-path="url(#p6bbd04156d)" d="M 243.09 -42.732 
L 254.25 -45.504 
L 282.15 -67.68 
L 290.52 -92.628 
L 276.57 -87.084 
L 243.09 -42.732 
" style="fill:#00ffff;opacity:0.3;stroke:#000000;stroke-linejoin:miter;"/>
   </g>
   <g id="patch_22">
    <path clip-path="url(#p6bbd04156d)" d="M 215.19 68.148 
L 226.35 65.376 
L 254.25 43.2 
L 262.62 18.252 
L 248.67 23.796 
L 215.19 68.148 
" style="fill:#00ffff;opacity:0.3;stroke:#000000;stroke-linejoin:miter;"/>
   </g>
   <g id="patch_23">
    <path clip-path="url(#p6bbd04156d)" d="M 215.19 -42.732 
L 226.35 -45.504 
L 254.25 -67.68 
L 262.62 -92.628 
L 248.67 -87.084 
L 215.19 -42.732 
" style="fill:#00ffff;opacity:0.3;stroke:#000000;stroke-linejoin:miter;"/>
   </g>
   <g id="patch_24">
    <path clip-path="url(#p6bbd04156d)" d="M 187.29 68.148 
L 198.45 65.376 
L 226.35 43.2 
L 234.72 18.252 
L 220.77 23.796 
L 187.29 68.148 
" style="fill:#00ffff;opacity:0.3;stroke:#000000;stroke-linejoin:miter;"/>
   </g>
   <g id="patch_25">
    <path clip-path="url(#p6bbd04156d)" d="M 187.29 -42.732 
L 198.45 -45.504 
L 226.35 -67.68 
L 234.72 -92.628 
L 220.77 -87.084 
L 187.29 -42.732 
" style="fill:#00ffff;opacity:0.3;stroke:#000000;stroke-linejoin:miter;"/>
   </g>
   <g id="patch_26">
    <path clip-path="url(#p6bbd04156d)" d="M 159.39 68.148 
L 170.55 65.376 
L 198.45 43.2 
L 206.82 18.252 
L 192.87 23.796 
L 159.39 68.148 
" style="fill:#00ffff;opacity:0.3;stroke:#000000;stroke-linejoin:miter;"/>
   </g>
   <g id="patch_27">
    <path clip-path="url(#p6bbd04156d)" d="M 159.39 -42.732 
L 170.55 -45.504 
L 198.45 -67.68 
L 206.82 -92.628 
L 192.87 -87.084 
L 159.39 -42.732 
" style="fill:#00ffff;opacity:0.3;stroke:#000000;stroke-linejoin:miter;"/>
   </g>
   <g id="patch_28">
    <path clip-path="url(#p6bbd04156d)" d="M 131.49 68.148 
L 142.65 65.376 
L 170.55 43.2 
L 178.92 18.252 
L 164.97 23.796 
L 131.49 68.148 
" style="fill:#00ffff;opacity:0.3;stroke:#000000;stroke-linejoin:miter;"/>
   </g>
   <g id="patch_29">
    <path clip-path="url(#p6bbd04156d)" d="M 131.49 -42.732 
L 142.65 -45.504 
L 170.55 -67.68 
L 178.92 -92.628 
L 164.97 -87.084 
L 131.49 -42.732 
" style="fill:#00ffff;opacity:0.3;stroke:#000000;stroke-linejoin:miter;"/>
   </g>
   <g id="patch_30">
    <path clip-path="url(#p6bbd04156d)" d="M 103.59 68.148 
L 114.75 65.376 
L 142.65 43.2 
L 151.02 18.252 
L 137.07 23.796 
L 103.59 68.148 
" style="fill:#00ffff;opacity:0.3;stroke:#000000;stroke-linejoin:miter;"/>
   </g>
   <g id="patch_31">
    <path clip-path="url(#p6bbd04156d)" d="M 103.59 -42.732 
L 114.75 -45.504 
L 142.65 -67.68 
L 151.02 -92.628 
L 137.07 -87.084 
L 103.59 -42.732 
" style="fill:#00ffff;opacity:0.3;stroke:#000000;stroke-linejoin:miter;"/>
   </g>
   <g id="patch_32">
    <path clip-path="url(#p6bbd04156d)" d="M 75.69 68.148 
L 86.85 65.376 
L 114.75 43.2 
L 123.12 18.252 
L 109.17 23.796 
L 75.69 68.148 
" style="fill:#00ffff;opacity:0.3;stroke:#000000;stroke-linejoin:miter;"/>
   </g>
   <g id="patch_33">
    <path clip-path="url(#p6bbd04156d)" d="M 75.69 -42.732 
L 86.85 -45.504 
L 114.75 -67.68 
L 123.12 -92.628 
L 109.17 -87.084 
L 75.69 -42.732 
" style="fill:#00ffff;opacity:0.3;stroke:#000000;stroke-linejoin:miter;"/>
   </g>
   <g id="patch_34">
    <path clip-path="url(#p6bbd04156d)" d="M 47.79 68.148 
L 58.95 65.376 
L 86.85 43.2 
L 95.22 18.252 
L 81.27 23.796 
L 47.79 68.148 
" style="fill:#00ffff;opacity:0.3;stroke:#000000;stroke-linejoin:miter;"/>
   </g>
   <g id="patch_35">
    <path clip-path="url(#p6bbd04156d)" d="M 47.79 -42.732 
L 58.95 -45.504 
L 86.85 -67.68 
L 95.22 -92.628 
L 81.27 -87.084 
L 47.79 -42.732 
" style="fill:#00ffff;opacity:0.3;stroke:#000000;stroke-linejoin:miter;"/>
   </g>
   <g id="patch_36">
    <path clip-path="url(#p6bbd04156d)" d="M 19.89 68.148 
L 31.05 65.376 
L 58.95 43.2 
L 67.32 18.252 
L 53.37 23.796 
L 19.89 68.148 
" style="fill:#00ffff;opacity:0.3;stroke:#000000;stroke-linejoin:miter;"/>
   </g>
   <g id="patch_37">
    <path clip-path="url(#p6bbd04156d)" d="M 19.89 -42.732 
L 31.05 -45.504 
L 58.95 -67.68 
L 67.32 -92.628 
L 53.37 -87.084 
L 19.89 -42.732 
" style="fill:#00ffff;opacity:0.3;stroke:#000000;stroke-linejoin:miter;"/>
   </g>
   <g id="patch_38">
    <path clip-path="url(#p6bbd04156d)" d="M -8.01 68.148 
L 3.15 65.376 
L 31.05 43.2 
L 39.42 18.252 
L 25.47 23.796 
L -8.01 68.148 
" style="fill:#00ffff;opacity:0.3;stroke:#000000;stroke-linejoin:miter;"/>
   </g>
   <g id="patch_39">
    <path clip-path="url(#p6bbd04156d)" d="M 19.89 179.028 
L 31.05 176.256 
L 58.95 154.08 
L 67.32 129.132 
L 53.37 134.676 
L 19.89 179.028 
" style="fill:#00ffff;opacity:0.3;stroke:#000000;stroke-linejoin:miter;"/>
   </g>
   <g id="patch_40">
    <path clip-path="url(#p6bbd04156d)" d="M 47.79 179.028 
L 58.95 176.256 
L 86.85 154.08 
L 95.22 129.132 
L 81.27 134.676 
L 47.79 179.028 
" style="fill:#00ffff;opacity:0.3;stroke:#000000;stroke-linejoin:miter;"/>
   </g>
   <g id="patch_41">
    <path clip-path="url(#p6bbd04156d)" d="M 75.69 179.028 
L 86.85 176.256 
L 114.75 154.08 
L 123.12 129.132 
L 109.17 134.676 
L 75.69 179.028 
" style="fill:#00ffff;opacity:0.3;stroke:#000000;stroke-linejoin:miter;"/>
   </g>
   <g id="patch_42">
    <path clip-path="url(#p6bbd04156d)" d="M 103.59 179.028 
L 114.75 176.256 
L 142.65 154.08 
L 151.02 129.132 
L 137.07 134.676 
L 103.59 179.028 
" style="fill:#00ffff;opacity:0.3;stroke:#000000;stroke-linejoin:miter;"/>
   </g>
   <g id="patch_43">
    <path clip-path="url(#p6bbd04156d)" d="M 131.49 179.028 
L 142.65 176.256 
L 170.55 154.08 
L 178.92 129.132 
L 164.97 134.676 
L 131.49 179.028 
" style="fill:#00ffff;opacity:0.3;stroke:#000000;stroke-linejoin:miter;"/>
   </g>
   <g id="patch_44">
    <path clip-path="url(#p6bbd04156d)" d="M 159.39 179.028 
L 170.55 176.256 
L 198.45 154.08 
L 206.82 129.132 
L 192.87 134.676 
L 159.39 179.028 
" style="fill:#00ffff;opacity:0.3;stroke:#000000;stroke-linejoin:miter;"/>
   </g>
   <g id="patch_45">
    <path clip-path="url(#p6bbd04156d)" d="M 159.39 289.908 
L 170.55 287.136 
L 198.45 264.96 
L 206.82 240.012 
L 192.87 245.556 
L 159.39 289.908 
" style="fill:#00ffff;opacity:0.3;stroke:#000000;stroke-linejoin:miter;"/>
   </g>
   <g id="patch_46">
    <path clip-path="url(#p6bbd04156d)" d="M 187.29 289.908 
L 198.45 287.136 
L 226.35 264.96 
L 234.72 240.012 
L 220.77 245.556 
L 187.29 289.908 
" style="fill:#00ffff;opacity:0.3;stroke:#000000;stroke-linejoin:miter;"/>
   </g>
   <g id="patch_47">
    <path clip-path="url(#p6bbd04156d)" d="M 215.19 289.908 
L 226.35 287.136 
L 254.25 264.96 
L 262.62 240.012 
L 248.67 245.556 
L 215.19 289.908 
" style="fill:#00ffff;opacity:0.3;stroke:#000000;stroke-linejoin:miter;"/>
   </g>
   <g id="patch_48">
    <path clip-path="url(#p6bbd04156d)" d="M 243.09 289.908 
L 254.25 287.136 
L 282.15 264.96 
L 290.52 240.012 
L 276.57 245.556 
L 243.09 289.908 
" style="fill:#00ffff;opacity:0.3;stroke:#000000;stroke-linejoin:miter;"/>
   </g>
   <g id="patch_49">
    <path clip-path="url(#p6bbd04156d)" d="M 270.99 289.908 
L 282.15 287.136 
L 310.05 264.96 
L 318.42 240.012 
L 304.47 245.556 
L 270.99 289.908 
" style="fill:#00ffff;opacity:0.3;stroke:#000000;stroke-linejoin:miter;"/>
   </g>
   <g id="patch_50">
    <path clip-path="url(#p6bbd04156d)" d="M 298.89 289.908 
L 310.05 287.136 
L 337.95 264.96 
L 346.32 240.012 
L 332.37 245.556 
L 298.89 289.908 
" style="fill:#00ffff;opacity:0.3;stroke:#000000;stroke-linejoin:miter;"/>
   </g>
   <g id="patch_51">
    <path clip-path="url(#p6bbd04156d)" d="M 326.79 289.908 
L 337.95 287.136 
L 365.85 264.96 
L 374.22 240.012 
L 360.27 245.556 
L 326.79 289.908 
" style="fill:#00ffff;opacity:0.3;stroke:#000000;stroke-linejoin:miter;"/>
   </g>
   <g id="patch_52">
    <path clip-path="url(#p6bbd04156d)" d="M 354.69 289.908 
L 365.85 287.136 
L 393.75 264.96 
L 402.12 240.012 
L 388.17 245.556 
L 354.69 289.908 
" style="fill:#00ffff;opacity:0.3;stroke:#000000;stroke-linejoin:miter;"/>
   </g>
   <g id="patch_53">
    <path clip-path="url(#p6bbd04156d)" d="M 382.59 289.908 
L 393.75 287.136 
L 421.65 264.96 
L 430.02 240.012 
L 416.07 245.556 
L 382.59 289.908 
" style="fill:#00ffff;opacity:0.3;stroke:#000000;stroke-linejoin:miter;"/>
   </g>
   <g id="patch_54">
    <path clip-path="url(#p6bbd04156d)" d="M 354.69 400.788 
L 365.85 398.016 
L 393.75 375.84 
L 402.12 350.892 
L 388.17 356.436 
L 354.69 400.788 
" style="fill:#00ffff;opacity:0.3;stroke:#000000;stroke-linejoin:miter;"/>
   </g>
   <g id="patch_55">
    <path clip-path="url(#p6bbd04156d)" d="M 354.69 73.692 
L 365.85 76.464 
L 393.75 98.64 
L 402.12 123.588 
L 388.17 118.044 
L 354.69 73.692 
" style="fill:#00ffff;opacity:0.3;stroke:#000000;stroke-linejoin:miter;"/>
   </g>
   <g id="patch_56">
    <path clip-path="url(#p6bbd04156d)" d="M 382.59 73.692 
L 393.75 76.464 
L 421.65 98.64 
L 430.02 123.588 
L 416.07 118.044 
L 382.59 73.692 
" style="fill:#00ffff;opacity:0.3;stroke:#000000;stroke-linejoin:miter;"/>
   </g>
   <g id="patch_57">
    <path clip-path="url(#p6bbd04156d)" d="M 354.69 -37.188 
L 365.85 -34.416 
L 393.75 -12.24 
L 402.12 12.708 
L 388.17 7.164 
L 354.69 -37.188 
" style="fill:#00ffff;opacity:0.3;stroke:#000000;stroke-linejoin:miter;"/>
   </g>
   <g id="patch_58">
    <path clip-path="url(#p6bbd04156d)" d="M 326.79 73.692 
L 337.95 76.464 
L 365.85 98.64 
L 374.22 123.588 
L 360.27 118.044 
L 326.79 73.692 
" style="fill:#00ffff;opacity:0.3;stroke:#000000;stroke-linejoin:miter;"/>
   </g>
   <g id="patch_59">
    <path clip-path="url(#p6bbd04156d)" d="M 326.79 -37.188 
L 337.95 -34.416 
L 365.85 -12.24 
L 374.22 12.708 
L 360.27 7.164 
L 326.79 -37.188 
" style="fill:#00ffff;opacity:0.3;stroke:#000000;stroke-linejoin:miter;"/>
   </g>
   <g id="patch_60">
    <path clip-path="url(#p6bbd04156d)" d="M 298.89 73.692 
L 310.05 76.464 
L 337.95 98.64 
L 346.32 123.588 
L 332.37 118.044 
L 298.89 73.692 
" style="fill:#00ffff;opacity:0.3;stroke:#000000;stroke-linejoin:miter;"/>
   </g>
   <g id="patch_61">
    <path clip-path="url(#p6bbd04156d)" d="M 298.89 -37.188 
L 310.05 -34.416 
L 337.95 -12.24 
L 346.32 12.708 
L 332.37 7.164 
L 298.89 -37.188 
" style="fill:#00ffff;opacity:0.3;stroke:#000000;stroke-linejoin:miter;"/>
   </g>
   <g id="patch_62">
    <path clip-path="url(#p6bbd04156d)" d="M 270.99 73.692 
L 282.15 76.464 
L 310.05 98.64 
L 318.42 123.588 
L 304.47 118.044 
L 270.99 73.692 
" style="fill:#00ffff;opacity:0.3;stroke:#000000;stroke-linejoin:miter;"/>
   </g>
   <g id="patch_63">
    <path clip-path="url(#p6bbd04156d)" d="M 270.99 -37.188 
L 282.15 -34.416 
L 310.05 -12.24 
L 318.42 12.708 
L 304.47 7.164 
L 270.99 -37.188 
" style="fill:#00ffff;opacity:0.3;stroke:#000000;stroke-linejoin:miter;"/>
   </g>
   <g id="patch_64">
    <path clip-path="url(#p6bbd04156d)" d="M 243.09 73.692 
L 254.25 76.464 
L 282.15 98.64 
L 290.52 123.588 
L 276.57 118.044 
L 243.09 73.692 
" style="fill:#00ffff;opacity:0.3;stroke:#000000;stroke-linejoin:miter;"/>
   </g>
   <g id="patch_65">
    <path clip-path="url(#p6bbd04156d)" d="M 243.09 -37.188 
L 254.25 -34.416 
L 282.15 -12.24 
L 290.52 12.708 
L 276.57 7.164 
L 243.09 -37.188 
" style="fill:#00ffff;opacity:0.3;stroke:#000000;stroke-linejoin:miter;"/>
   </g>
   <g id="patch_66">
    <path clip-path="url(#p6bbd04156d)" d="M 215.19 73.692 
L 226.35 76.464 
L 254.25 98.64 
L 262.62 123.588 
L 248.67 118.044 
L 215.19 73.692 
" style="fill:#00ffff;opacity:0.3;stroke:#000000;stroke-linejoin:miter;"/>
   </g>
   <g id="patch_67">
    <path clip-path="url(#p6bbd04156d)" d="M 215.19 -37.188 
L 226.35 -34.416 
L 254.25 -12.24 
L 262.62 12.708 
L 248.67 7.164 
L 215.19 -37.188 
" style="fill:#00ffff;opacity:0.3;stroke:#000000;stroke-linejoin:miter;"/>
   </g>
   <g id="patch_68">
    <path clip-path="url(#p6bbd04156d)" d="M 187.29 73.692 
L 198.45 76.464 
L 226.35 98.64 
L 234.72 123.588 
L 220.77 118.044 
L 187.29 73.692 
" style="fill:#00ffff;opacity:0.3;stroke:#000000;stroke-linejoin:miter;"/>
   </g>
   <g id="patch_69">
    <path clip-path="url(#p6bbd04156d)" d="M 187.29 -37.188 
L 198.45 -34.416 
L 226.35 -12.24 
L 234.72 12.708 
L 220.77 7.164 
L 187.29 -37.188 
" style="fill:#00ffff;opacity:0.3;stroke:#000000;stroke-linejoin:miter;"/>
   </g>
   <g id="patch_70">
    <path clip-path="url(#p6bbd04156d)" d="M 159.39 73.692 
L 170.55 76.464 
L 198.45 98.64 
L 206.82 123.588 
L 192.87 118.044 
L 159.39 73.692 
" style="fill:#00ffff;opacity:0.3;stroke:#000000;stroke-linejoin:miter;"/>
   </g>
   <g id="patch_71">
    <path clip-path="url(#p6bbd04156d)" d="M 159.39 -37.188 
L 170.55 -34.416 
L 198.45 -12.24 
L 206.82 12.708 
L 192.87 7.164 
L 159.39 -37.188 
" style="fill:#00ffff;opacity:0.3;stroke:#000000;stroke-linejoin:miter;"/>
   </g>
   <g id="patch_72">
    <path clip-path="url(#p6bbd04156d)" d="M 131.49 73.692 
L 142.65 76.464 
L 170.55 98.64 
L 178.92 123.588 
L 164.97 118.044 
L 131.49 73.692 
" style="fill:#00ffff;opacity:0.3;stroke:#000000;stroke-linejoin:miter;"/>
   </g>
   <g id="patch_73">
    <path clip-path="url(#p6bbd04156d)" d="M 131.49 -37.188 
L 142.65 -34.416 
L 170.55 -12.24 
L 178.92 12.708 
L 164.97 7.164 
L 131.49 -37.188 
" style="fill:#00ffff;opacity:0.3;stroke:#000000;stroke-linejoin:miter;"/>
   </g>
   <g id="patch_74">
    <path clip-path="url(#p6bbd04156d)" d="M 103.59 73.692 
L 114.75 76.464 
L 142.65 98.64 
L 151.02 123.588 
L 137.07 118.044 
L 103.59 73.692 
" style="fill:#00ffff;opacity:0.3;stroke:#000000;stroke-linejoin:miter;"/>
   </g>
   <g id="patch_75">
    <path clip-path="url(#p6bbd04156d)" d="M 103.59 -37.188 
L 114.75 -34.416 
L 142.65 -12.24 
L 151.02 12.708 
L 137.07 7.164 
L 103.59 -37.188 
" style="fill:#00ffff;opacity:0.3;stroke:#000000;stroke-linejoin:miter;"/>
   </g>
   <g id="patch_76">
    <path clip-path="url(#p6bbd04156d)" d="M 75.69 73.692 
L 86.85 76.464 
L 114.75 98.64 
L 123.12 123.588 
L 109.17 118.044 
L 75.69 73.692 
" style="fill:#00ffff;opacity:0.3;stroke:#000000;stroke-linejoin:miter;"/>
   </g>
   <g id="patch_77">
    <path clip-path="url(#p6bbd04156d)" d="M 75.69 -37.188 
L 86.85 -34.416 
L 114.75 -12.24 
L 123.12 12.708 
L 109.17 7.164 
L 75.69 -37.188 
" style="fill:#00ffff;opacity:0.3;stroke:#000000;stroke-linejoin:miter;"/>
   </g>
   <g id="patch_78">
    <path clip-path="url(#p6bbd04156d)" d="M 47.79 73.692 
L 58.95 76.464 
L 86.85 98.64 
L 95.22 123.588 
L 81.27 118.044 
L 47.79 73.692 
" style="fill:#00ffff;opacity:0.3;stroke:#000000;stroke-linejoin:miter;"/>
   </g>
   <g id="patch_79">
    <path clip-path="url(#p6bbd04156d)" d="M 47.79 -37.188 
L 58.95 -34.416 
L 86.85 -12.24 
L 95.22 12.708 
L 81.27 7.164 
L 47.79 -37.188 
" style="fill:#00ffff;opacity:0.3;stroke:#000000;stroke-linejoin:miter;"/>
   </g>
   <g id="patch_80">
    <path clip-path="url(#p6bbd04156d)" d="M 19.89 73.692 
L 31.05 76.464 
L 58.95 98.64 
L 67.32 123.588 
L 53.37 118.044 
L 19.89 73.692 
" style="fill:#00ffff;opacity:0.3;stroke:#000000;stroke-linejoin:miter;"/>
   </g>
   <g id="patch_81">
    <path clip-path="url(#p6bbd04156d)" d="M 19.89 -37.188 
L 31.05 -34.416 
L 58.95 -12.24 
L 67.32 12.708 
L 53.37 7.164 
L 19.89 -37.188 
" style="fill:#00ffff;opacity:0.3;stroke:#000000;stroke-linejoin:miter;"/>
   </g>
   <g id="patch_82">
    <path clip-path="url(#p6bbd04156d)" d="M -8.01 73.692 
L 3.15 76.464 
L 31.05 98.64 
L 39.42 123.588 
L 25.47 118.044 
L -8.01 73.692 
" style="fill:#00ffff;opacity:0.3;stroke:#000000;stroke-linejoin:miter;"/>
   </g>
   <g id="patch_83">
    <path clip-path="url(#p6bbd04156d)" d="M 19.89 184.572 
L 31.05 187.344 
L 58.95 209.52 
L 67.32 234.468 
L 53.37 228.924 
L 19.89 184.572 
" style="fill:#00ffff;opacity:0.3;stroke:#000000;stroke-linejoin:miter;"/>
   </g>
   <g id="patch_84">
    <path clip-path="url(#p6bbd04156d)" d="M 47.79 184.572 
L 58.95 187.344 
L 86.85 209.52 
L 95.22 234.468 
L 81.27 228.924 
L 47.79 184.572 
" style="fill:#00ffff;opacity:0.3;stroke:#000000;stroke-linejoin:miter;"/>
   </g>
   <g id="patch_85">
    <path clip-path="url(#p6bbd04156d)" d="M 75.69 184.572 
L 86.85 187.344 
L 114.75 209.52 
L 123.12 234.468 
L 109.17 228.924 
L 75.69 184.572 
" style="fill:#00ffff;opacity:0.3;stroke:#000000;stroke-linejoin:miter;"/>
   </g>
   <g id="patch_86">
    <path clip-path="url(#p6bbd04156d)" d="M 103.59 184.572 
L 114.75 187.344 
L 142.65 209.52 
L 151.02 234.468 
L 137.07 228.924 
L 103.59 184.572 
" style="fill:#00ffff;opacity:0.3;stroke:#000000;stroke-linejoin:miter;"/>
   </g>
   <g id="patch_87">
    <path clip-path="url(#p6bbd04156d)" d="M 131.49 184.572 
L 142.65 187.344 
L 170.55 209.52 
L 178.92 234.468 
L 164.97 228.924 
L 131.49 184.572 
" style="fill:#00ffff;opacity:0.3;stroke:#000000;stroke-linejoin:miter;"/>
   </g>
   <g id="patch_88">
    <path clip-path="url(#p6bbd04156d)" d="M 159.39 184.572 
L 170.55 187.344 
L 198.45 209.52 
L 206.82 234.468 
L 192.87 228.924 
L 159.39 184.572 
" style="fill:#00ffff;opacity:0.3;stroke:#000000;stroke-linejoin:miter;"/>
   </g>
   <g id="patch_89">
    <path clip-path="url(#p6bbd04156d)" d="M 187.29 184.572 
L 198.45 187.344 
L 226.35 209.52 
L 234.72 234.468 
L 220.77 228.924 
L 187.29 184.572 
" style="fill:#00ffff;opacity:0.3;stroke:#000000;stroke-linejoin:miter;"/>
   </g>
   <g id="patch_90">
    <path clip-path="url(#p6bbd04156d)" d="M 215.19 184.572 
L 226.35 187.344 
L 254.25 209.52 
L 262.62 234.468 
L 248.67 228.924 
L 215.19 184.572 
" style="fill:#00ffff;opacity:0.3;stroke:#000000;stroke-linejoin:miter;"/>
   </g>
   <g id="patch_91">
    <path clip-path="url(#p6bbd04156d)" d="M 243.09 184.572 
L 254.25 187.344 
L 282.15 209.52 
L 290.52 234.468 
L 276.57 228.924 
L 243.09 184.572 
" style="fill:#00ffff;opacity:0.3;stroke:#000000;stroke-linejoin:miter;"/>
   </g>
   <g id="patch_92">
    <path clip-path="url(#p6bbd04156d)" d="M 270.99 184.572 
L 282.15 187.344 
L 310.05 209.52 
L 318.42 234.468 
L 304.47 228.924 
L 270.99 184.572 
" style="fill:#00ffff;opacity:0.3;stroke:#000000;stroke-linejoin:miter;"/>
   </g>
   <g id="patch_93">
    <path clip-path="url(#p6bbd04156d)" d="M 298.89 184.572 
L 310.05 187.344 
L 337.95 209.52 
L 346.32 234.468 
L 332.37 228.924 
L 298.89 184.572 
" style="fill:#00ffff;opacity:0.3;stroke:#000000;stroke-linejoin:miter;"/>
   </g>
   <g id="patch_94">
    <path clip-path="url(#p6bbd04156d)" d="M 326.79 184.572 
L 337.95 187.344 
L 365.85 209.52 
L 374.22 234.468 
L 360.27 228.924 
L 326.79 184.572 
" style="fill:#00ffff;opacity:0.3;stroke:#000000;stroke-linejoin:miter;"/>
   </g>
   <g id="patch_95">
    <path clip-path="url(#p6bbd04156d)" d="M 354.69 184.572 
L 365.85 187.344 
L 393.75 209.52 
L 402.12 234.468 
L 388.17 228.924 
L 354.69 184.572 
" style="fill:#00ffff;opacity:0.3;stroke:#000000;stroke-linejoin:miter;"/>
   </g>
   <g id="patch_96">
    <path clip-path="url(#p6bbd04156d)" d="M 382.59 184.572 
L 393.75 187.344 
L 421.65 209.52 
L 430.02 234.468 
L 416.07 228.924 
L 382.59 184.572 
" style="fill:#00ffff;opacity:0.3;stroke:#000000;stroke-linejoin:miter;"/>
   </g>
   <g id="patch_97">
    <path clip-path="url(#p6bbd04156d)" d="M 354.69 295.452 
L 365.85 298.224 
L 393.75 320.4 
L 402.12 345.348 
L 388.17 339.804 
L 354.69 295.452 
" style="fill:#00ffff;opacity:0.3;stroke:#000000;stroke-linejoin:miter;"/>
   </g>
   <g id="patch_98">
    <path clip-path="url(#p6bbd04156d)" d="M 382.59 295.452 
L 393.75 298.224 
L 421.65 320.4 
L 430.02 345.348 
L 416.07 339.804 
L 382.59 295.452 
" style="fill:#00ffff;opacity:0.3;stroke:#000000;stroke-linejoin:miter;"/>
   </g>
   <g id="patch_99">
    <path clip-path="url(#p6bbd04156d)" d="M 326.79 295.452 
L 337.95 298.224 
L 365.85 320.4 
L 374.22 345.348 
L 360.27 339.804 
L 326.79 295.452 
" style="fill:#00ffff;opacity:0.3;stroke:#000000;stroke-linejoin:miter;"/>
   </g>
   <g id="patch_100">
    <path clip-path="url(#p6bbd04156d)" d="M 298.89 295.452 
L 310.05 298.224 
L 337.95 320.4 
L 346.32 345.348 
L 332.37 339.804 
L 298.89 295.452 
" style="fill:#00ffff;opacity:0.3;stroke:#000000;stroke-linejoin:miter;"/>
   </g>
   <g id="patch_101">
    <path clip-path="url(#p6bbd04156d)" d="M 270.99 295.452 
L 282.15 298.224 
L 310.05 320.4 
L 318.42 345.348 
L 304.47 339.804 
L 270.99 295.452 
" style="fill:#00ffff;opacity:0.3;stroke:#000000;stroke-linejoin:miter;"/>
   </g>
   <g id="patch_102">
    <path clip-path="url(#p6bbd04156d)" d="M 243.09 295.452 
L 254.25 298.224 
L 282.15 320.4 
L 290.52 345.348 
L 276.57 339.804 
L 243.09 295.452 
" style="fill:#00ffff;opacity:0.3;stroke:#000000;stroke-linejoin:miter;"/>
   </g>
   <g id="patch_103">
    <path clip-path="url(#p6bbd04156d)" d="M 215.19 295.452 
L 226.35 298.224 
L 254.25 320.4 
L 262.62 345.348 
L 248.67 339.804 
L 215.19 295.452 
" style="fill:#00ffff;opacity:0.3;stroke:#000000;stroke-linejoin:miter;"/>
   </g>
   <g id="patch_104">
    <path clip-path="url(#p6bbd04156d)" d="M 187.29 295.452 
L 198.45 298.224 
L 226.35 320.4 
L 234.72 345.348 
L 220.77 339.804 
L 187.29 295.452 
" style="fill:#00ffff;opacity:0.3;stroke:#000000;stroke-linejoin:miter;"/>
   </g>
   <g id="patch_105">
    <path clip-path="url(#p6bbd04156d)" d="M 159.39 295.452 
L 170.55 298.224 
L 198.45 320.4 
L 206.82 345.348 
L 192.87 339.804 
L 159.39 295.452 
" style="fill:#00ffff;opacity:0.3;stroke:#000000;stroke-linejoin:miter;"/>
   </g>
   <g id="patch_106">
    <path clip-path="url(#p6bbd04156d)" d="M 131.49 295.452 
L 142.65 298.224 
L 170.55 320.4 
L 178.92 345.348 
L 164.97 339.804 
L 131.49 295.452 
" style="fill:#00ffff;opacity:0.3;stroke:#000000;stroke-linejoin:miter;"/>
   </g>
   <g id="patch_107">
    <path clip-path="url(#p6bbd04156d)" d="M 103.59 295.452 
L 114.75 298.224 
L 142.65 320.4 
L 151.02 345.348 
L 137.07 339.804 
L 103.59 295.452 
" style="fill:#00ffff;opacity:0.3;stroke:#000000;stroke-linejoin:miter;"/>
   </g>
   <g id="patch_108">
    <path clip-path="url(#p6bbd04156d)" d="M 75.69 295.452 
L 86.85 298.224 
L 114.75 320.4 
L 123.12 345.348 
L 109.17 339.804 
L 75.69 295.452 
" style="fill:#00ffff;opacity:0.3;stroke:#000000;stroke-linejoin:miter;"/>
   </g>
   <g id="patch_109">
    <path clip-path="url(#p6bbd04156d)" d="M 47.79 295.452 
L 58.95 298.224 
L 86.85 320.4 
L 95.22 345.348 
L 81.27 339.804 
L 47.79 295.452 
" style="fill:#00ffff;opacity:0.3;stroke:#000000;stroke-linejoin:miter;"/>
   </g>
   <g id="patch_110">
    <path clip-path="url(#p6bbd04156d)" d="M 19.89 295.452 
L 31.05 298.224 
L 58.95 320.4 
L 67.32 345.348 
L 53.37 339.804 
L 19.89 295.452 
" style="fill:#00ffff;opacity:0.3;stroke:#000000;stroke-linejoin:miter;"/>
   </g>
   <g id="patch_111">
    <path clip-path="url(#p6bbd04156d)" d="M -8.01 295.452 
L 3.15 298.224 
L 31.05 320.4 
L 39.42 345.348 
L 25.47 339.804 
L -8.01 295.452 
" style="fill:#00ffff;opacity:0.3;stroke:#000000;stroke-linejoin:miter;"/>
   </g>
   <g id="patch_112">
    <path clip-path="url(#p6bbd04156d)" d="M 19.89 406.332 
L 31.05 409.104 
L 58.95 431.28 
L 67.32 456.228 
L 53.37 450.684 
L 19.89 406.332 
" style="fill:#00ffff;opacity:0.3;stroke:#000000;stroke-linejoin:miter;"/>
   </g>
   <g id="patch_113">
    <path clip-path="url(#p6bbd04156d)" d="M 47.79 406.332 
L 58.95 409.104 
L 86.85 431.28 
L 95.22 456.228 
L 81.27 450.684 
L 47.79 406.332 
" style="fill:#00ffff;opacity:0.3;stroke:#000000;stroke-linejoin:miter;"/>
   </g>
   <g id="patch_114">
    <path clip-path="url(#p6bbd04156d)" d="M 75.69 406.332 
L 86.85 409.104 
L 114.75 431.28 
L 123.12 456.228 
L 109.17 450.684 
L 75.69 406.332 
" style="fill:#00ffff;opacity:0.3;stroke:#000000;stroke-linejoin:miter;"/>
   </g>
   <g id="patch_115">
    <path clip-path="url(#p6bbd04156d)" d="M 103.59 406.332 
L 114.75 409.104 
L 142.65 431.28 
L 151.02 456.228 
L 137.07 450.684 
L 103.59 406.332 
" style="fill:#00ffff;opacity:0.3;stroke:#000000;stroke-linejoin:miter;"/>
   </g>
   <g id="patch_116">
    <path clip-path="url(#p6bbd04156d)" d="M 131.49 406.332 
L 142.65 409.104 
L 170.55 431.28 
L 178.92 456.228 
L 164.97 450.684 
L 131.49 406.332 
" style="fill:#00ffff;opacity:0.3;stroke:#000000;stroke-linejoin:miter;"/>
   </g>
   <g id="patch_117">
    <path clip-path="url(#p6bbd04156d)" d="M 159.39 406.332 
L 170.55 409.104 
L 198.45 431.28 
L 206.82 456.228 
L 192.87 450.684 
L 159.39 406.332 
" style="fill:#00ffff;opacity:0.3;stroke:#000000;stroke-linejoin:miter;"/>
   </g>
   <g id="patch_118">
    <path clip-path="url(#p6bbd04156d)" d="M 187.29 406.332 
L 198.45 409.104 
L 226.35 431.28 
L 234.72 456.228 
L 220.77 450.684 
L 187.29 406.332 
" style="fill:#00ffff;opacity:0.3;stroke:#000000;stroke-linejoin:miter;"/>
   </g>
   <g id="patch_119">
    <path clip-path="url(#p6bbd04156d)" d="M 215.19 406.332 
L 226.35 409.104 
L 254.25 431.28 
L 262.62 456.228 
L 248.67 450.684 
L 215.19 406.332 
" style="fill:#00ffff;opacity:0.3;stroke:#000000;stroke-linejoin:miter;"/>
   </g>
   <g id="patch_120">
    <path clip-path="url(#p6bbd04156d)" d="M 243.09 406.332 
L 254.25 409.104 
L 282.15 431.28 
L 290.52 456.228 
L 276.57 450.684 
L 243.09 406.332 
" style="fill:#00ffff;opacity:0.3;stroke:#000000;stroke-linejoin:miter;"/>
   </g>
   <g id="patch_121">
    <path clip-path="url(#p6bbd04156d)" d="M 270.99 406.332 
L 282.15 409.104 
L 310.05 431.28 
L 318.42 456.228 
L 304.47 450.684 
L 270.99 406.332 
" style="fill:#00ffff;opacity:0.3;stroke:#000000;stroke-linejoin:miter;"/>
   </g>
   <g id="patch_122">
    <path clip-path="url(#p6bbd04156d)" d="M 298.89 406.332 
L 310.05 409.104 
L 337.95 431.28 
L 346.32 456.228 
L 332.37 450.684 
L 298.89 406.332 
" style="fill:#00ffff;opacity:0.3;stroke:#000000;stroke-linejoin:miter;"/>
   </g>
   <g id="patch_123">
    <path clip-path="url(#p6bbd04156d)" d="M 326.79 406.332 
L 337.95 409.104 
L 365.85 431.28 
L 374.22 456.228 
L 360.27 450.684 
L 326.79 406.332 
" style="fill:#00ffff;opacity:0.3;stroke:#000000;stroke-linejoin:miter;"/>
   </g>
   <g id="patch_124">
    <path clip-path="url(#p6bbd04156d)" d="M 354.69 406.332 
L 365.85 409.104 
L 393.75 431.28 
L 402.12 456.228 
L 388.17 450.684 
L 354.69 406.332 
" style="fill:#00ffff;opacity:0.3;stroke:#000000;stroke-linejoin:miter;"/>
   </g>
   <g id="patch_125">
    <path clip-path="url(#p6bbd04156d)" d="M -8.01 184.572 
L 3.15 187.344 
L 31.05 209.52 
L 39.42 234.468 
L 25.47 228.924 
L -8.01 184.572 
" style="fill:#00ffff;opacity:0.3;stroke:#000000;stroke-linejoin:miter;"/>
   </g>
   <g id="patch_126">
    <path clip-path="url(#p6bbd04156d)" d="M 19.89 289.908 
L 31.05 287.136 
L 58.95 264.96 
L 67.32 240.012 
L 53.37 245.556 
L 19.89 289.908 
" style="fill:#00ffff;opacity:0.3;stroke:#000000;stroke-linejoin:miter;"/>
   </g>
   <g id="patch_127">
    <path clip-path="url(#p6bbd04156d)" d="M 47.79 289.908 
L 58.95 287.136 
L 86.85 264.96 
L 95.22 240.012 
L 81.27 245.556 
L 47.79 289.908 
" style="fill:#00ffff;opacity:0.3;stroke:#000000;stroke-linejoin:miter;"/>
   </g>
   <g id="patch_128">
    <path clip-path="url(#p6bbd04156d)" d="M 75.69 289.908 
L 86.85 287.136 
L 114.75 264.96 
L 123.12 240.012 
L 109.17 245.556 
L 75.69 289.908 
" style="fill:#00ffff;opacity:0.3;stroke:#000000;stroke-linejoin:miter;"/>
   </g>
   <g id="patch_129">
    <path clip-path="url(#p6bbd04156d)" d="M 103.59 289.908 
L 114.75 287.136 
L 142.65 264.96 
L 151.02 240.012 
L 137.07 245.556 
L 103.59 289.908 
" style="fill:#00ffff;opacity:0.3;stroke:#000000;stroke-linejoin:miter;"/>
   </g>
   <g id="patch_130">
    <path clip-path="url(#p6bbd04156d)" d="M 131.49 289.908 
L 142.65 287.136 
L 170.55 264.96 
L 178.92 240.012 
L 164.97 245.556 
L 131.49 289.908 
" style="fill:#00ffff;opacity:0.3;stroke:#000000;stroke-linejoin:miter;"/>
   </g>
   <g id="patch_131">
    <path clip-path="url(#p6bbd04156d)" d="M 131.49 400.788 
L 142.65 398.016 
L 170.55 375.84 
L 178.92 350.892 
L 164.97 356.436 
L 131.49 400.788 
" style="fill:#00ffff;opacity:0.3;stroke:#000000;stroke-linejoin:miter;"/>
   </g>
   <g id="patch_132">
    <path clip-path="url(#p6bbd04156d)" d="M 103.59 400.788 
L 114.75 398.016 
L 142.65 375.84 
L 151.02 350.892 
L 137.07 356.436 
L 103.59 400.788 
" style="fill:#00ffff;opacity:0.3;stroke:#000000;stroke-linejoin:miter;"/>
   </g>
   <g id="patch_133">
    <path clip-path="url(#p6bbd04156d)" d="M 75.69 400.788 
L 86.85 398.016 
L 114.75 375.84 
L 123.12 350.892 
L 109.17 356.436 
L 75.69 400.788 
" style="fill:#00ffff;opacity:0.3;stroke:#000000;stroke-linejoin:miter;"/>
   </g>
   <g id="patch_134">
    <path clip-path="url(#p6bbd04156d)" d="M 47.79 400.788 
L 58.95 398.016 
L 86.85 375.84 
L 95.22 350.892 
L 81.27 356.436 
L 47.79 400.788 
" style="fill:#00ffff;opacity:0.3;stroke:#000000;stroke-linejoin:miter;"/>
   </g>
   <g id="patch_135">
    <path clip-path="url(#p6bbd04156d)" d="M -8.01 289.908 
L 3.15 287.136 
L 31.05 264.96 
L 39.42 240.012 
L 25.47 245.556 
L -8.01 289.908 
" style="fill:#00ffff;opacity:0.3;stroke:#000000;stroke-linejoin:miter;"/>
   </g>
   <g id="patch_136">
    <path clip-path="url(#p6bbd04156d)" d="M 19.89 400.788 
L 31.05 398.016 
L 58.95 375.84 
L 67.32 350.892 
L 53.37 356.436 
L 19.89 400.788 
" style="fill:#00ffff;opacity:0.3;stroke:#000000;stroke-linejoin:miter;"/>
   </g>
   <g id="patch_137">
    <path clip-path="url(#p6bbd04156d)" d="M 326.79 400.788 
L 337.95 398.016 
L 365.85 375.84 
L 374.22 350.892 
L 360.27 356.436 
L 326.79 400.788 
" style="fill:#00ffff;opacity:0.3;stroke:#000000;stroke-linejoin:miter;"/>
   </g>
   <g id="patch_138">
    <path clip-path="url(#p6bbd04156d)" d="M 298.89 400.788 
L 310.05 398.016 
L 337.95 375.84 
L 346.32 350.892 
L 332.37 356.436 
L 298.89 400.788 
" style="fill:#00ffff;opacity:0.3;stroke:#000000;stroke-linejoin:miter;"/>
   </g>
   <g id="patch_139">
    <path clip-path="url(#p6bbd04156d)" d="M 270.99 400.788 
L 282.15 398.016 
L 310.05 375.84 
L 318.42 350.892 
L 304.47 356.436 
L 270.99 400.788 
" style="fill:#00ffff;opacity:0.3;stroke:#000000;stroke-linejoin:miter;"/>
   </g>
   <g id="patch_140">
    <path clip-path="url(#p6bbd04156d)" d="M 243.09 400.788 
L 254.25 398.016 
L 282.15 375.84 
L 290.52 350.892 
L 276.57 356.436 
L 243.09 400.788 
" style="fill:#00ffff;opacity:0.3;stroke:#000000;stroke-linejoin:miter;"/>
   </g>
   <g id="patch_141">
    <path clip-path="url(#p6bbd04156d)" d="M 215.19 400.788 
L 226.35 398.016 
L 254.25 375.84 
L 262.62 350.892 
L 248.67 356.436 
L 215.19 400.788 
" style="fill:#00ffff;opacity:0.3;stroke:#000000;stroke-linejoin:miter;"/>
   </g>
   <g id="patch_142">
    <path clip-path="url(#p6bbd04156d)" d="M 187.29 400.788 
L 198.45 398.016 
L 226.35 375.84 
L 234.72 350.892 
L 220.77 356.436 
L 187.29 400.788 
" style="fill:#00ffff;opacity:0.3;stroke:#000000;stroke-linejoin:miter;"/>
   </g>
   <g id="patch_143">
    <path clip-path="url(#p6bbd04156d)" d="M 159.39 400.788 
L 170.55 398.016 
L 198.45 375.84 
L 206.82 350.892 
L 192.87 356.436 
L 159.39 400.788 
" style="fill:#00ffff;opacity:0.3;stroke:#000000;stroke-linejoin:miter;"/>
   </g>
   <g id="patch_144">
    <path clip-path="url(#p6bbd04156d)" d="M -8.01 179.028 
L 3.15 176.256 
L 31.05 154.08 
L 39.42 129.132 
L 25.47 134.676 
L -8.01 179.028 
" style="fill:#00ffff;opacity:0.3;stroke:#000000;stroke-linejoin:miter;"/>
   </g>
   <g id="patch_145">
    <path d="M 45 320.4 
L 45 43.2 
" style="fill:none;stroke:#000000;stroke-linecap:square;stroke-linejoin:miter;stroke-width:0.8;"/>
   </g>
   <g id="patch_146">
    <path d="M 324 320.4 
L 324 43.2 
" style="fill:none;stroke:#000000;stroke-linecap:square;stroke-linejoin:miter;stroke-width:0.8;"/>
   </g>
   <g id="patch_147">
    <path d="M 45 320.4 
L 324 320.4 
" style="fill:none;stroke:#000000;stroke-linecap:square;stroke-linejoin:miter;stroke-width:0.8;"/>
   </g>
   <g id="patch_148">
    <path d="M 45 43.2 
L 324 43.2 
" style="fill:none;stroke:#000000;stroke-linecap:square;stroke-linejoin:miter;stroke-width:0.8;"/>
   </g>
   <g id="text_23">
    <!-- grupa pm -->
    <defs>
     <path d="M 45.40625 27.984375 
Q 45.40625 37.75 41.375 43.109375 
Q 37.359375 48.484375 30.078125 48.484375 
Q 22.859375 48.484375 18.828125 43.109375 
Q 14.796875 37.75 14.796875 27.984375 
Q 14.796875 18.265625 18.828125 12.890625 
Q 22.859375 7.515625 30.078125 7.515625 
Q 37.359375 7.515625 41.375 12.890625 
Q 45.40625 18.265625 45.40625 27.984375 
z
M 54.390625 6.78125 
Q 54.390625 -7.171875 48.1875 -13.984375 
Q 42 -20.796875 29.203125 -20.796875 
Q 24.46875 -20.796875 20.265625 -20.09375 
Q 16.0625 -19.390625 12.109375 -17.921875 
L 12.109375 -9.1875 
Q 16.0625 -11.328125 19.921875 -12.34375 
Q 23.78125 -13.375 27.78125 -13.375 
Q 36.625 -13.375 41.015625 -8.765625 
Q 45.40625 -4.15625 45.40625 5.171875 
L 45.40625 9.625 
Q 42.625 4.78125 38.28125 2.390625 
Q 33.9375 0 27.875 0 
Q 17.828125 0 11.671875 7.65625 
Q 5.515625 15.328125 5.515625 27.984375 
Q 5.515625 40.671875 11.671875 48.328125 
Q 17.828125 56 27.875 56 
Q 33.9375 56 38.28125 53.609375 
Q 42.625 51.21875 45.40625 46.390625 
L 45.40625 54.6875 
L 54.390625 54.6875 
z
" id="DejaVuSans-67"/>
     <path d="M 41.109375 46.296875 
Q 39.59375 47.171875 37.8125 47.578125 
Q 36.03125 48 33.890625 48 
Q 26.265625 48 22.1875 43.046875 
Q 18.109375 38.09375 18.109375 28.8125 
L 18.109375 0 
L 9.078125 0 
L 9.078125 54.6875 
L 18.109375 54.6875 
L 18.109375 46.1875 
Q 20.953125 51.171875 25.484375 53.578125 
Q 30.03125 56 36.53125 56 
Q 37.453125 56 38.578125 55.875 
Q 39.703125 55.765625 41.0625 55.515625 
z
" id="DejaVuSans-72"/>
     <path d="M 8.5 21.578125 
L 8.5 54.6875 
L 17.484375 54.6875 
L 17.484375 21.921875 
Q 17.484375 14.15625 20.5 10.265625 
Q 23.53125 6.390625 29.59375 6.390625 
Q 36.859375 6.390625 41.078125 11.03125 
Q 45.3125 15.671875 45.3125 23.6875 
L 45.3125 54.6875 
L 54.296875 54.6875 
L 54.296875 0 
L 45.3125 0 
L 45.3125 8.40625 
Q 42.046875 3.421875 37.71875 1 
Q 33.40625 -1.421875 27.6875 -1.421875 
Q 18.265625 -1.421875 13.375 4.4375 
Q 8.5 10.296875 8.5 21.578125 
z
M 31.109375 56 
z
" id="DejaVuSans-75"/>
     <path d="M 18.109375 8.203125 
L 18.109375 -20.796875 
L 9.078125 -20.796875 
L 9.078125 54.6875 
L 18.109375 54.6875 
L 18.109375 46.390625 
Q 20.953125 51.265625 25.265625 53.625 
Q 29.59375 56 35.59375 56 
Q 45.5625 56 51.78125 48.09375 
Q 58.015625 40.1875 58.015625 27.296875 
Q 58.015625 14.40625 51.78125 6.484375 
Q 45.5625 -1.421875 35.59375 -1.421875 
Q 29.59375 -1.421875 25.265625 0.953125 
Q 20.953125 3.328125 18.109375 8.203125 
z
M 48.6875 27.296875 
Q 48.6875 37.203125 44.609375 42.84375 
Q 40.53125 48.484375 33.40625 48.484375 
Q 26.265625 48.484375 22.1875 42.84375 
Q 18.109375 37.203125 18.109375 27.296875 
Q 18.109375 17.390625 22.1875 11.75 
Q 26.265625 6.109375 33.40625 6.109375 
Q 40.53125 6.109375 44.609375 11.75 
Q 48.6875 17.390625 48.6875 27.296875 
z
" id="DejaVuSans-70"/>
     <path d="M 34.28125 27.484375 
Q 23.390625 27.484375 19.1875 25 
Q 14.984375 22.515625 14.984375 16.5 
Q 14.984375 11.71875 18.140625 8.90625 
Q 21.296875 6.109375 26.703125 6.109375 
Q 34.1875 6.109375 38.703125 11.40625 
Q 43.21875 16.703125 43.21875 25.484375 
L 43.21875 27.484375 
z
M 52.203125 31.203125 
L 52.203125 0 
L 43.21875 0 
L 43.21875 8.296875 
Q 40.140625 3.328125 35.546875 0.953125 
Q 30.953125 -1.421875 24.3125 -1.421875 
Q 15.921875 -1.421875 10.953125 3.296875 
Q 6 8.015625 6 15.921875 
Q 6 25.140625 12.171875 29.828125 
Q 18.359375 34.515625 30.609375 34.515625 
L 43.21875 34.515625 
L 43.21875 35.40625 
Q 43.21875 41.609375 39.140625 45 
Q 35.0625 48.390625 27.6875 48.390625 
Q 23 48.390625 18.546875 47.265625 
Q 14.109375 46.140625 10.015625 43.890625 
L 10.015625 52.203125 
Q 14.9375 54.109375 19.578125 55.046875 
Q 24.21875 56 28.609375 56 
Q 40.484375 56 46.34375 49.84375 
Q 52.203125 43.703125 52.203125 31.203125 
z
" id="DejaVuSans-61"/>
     <path id="DejaVuSans-20"/>
     <path d="M 52 44.1875 
Q 55.375 50.25 60.0625 53.125 
Q 64.75 56 71.09375 56 
Q 79.640625 56 84.28125 50.015625 
Q 88.921875 44.046875 88.921875 33.015625 
L 88.921875 0 
L 79.890625 0 
L 79.890625 32.71875 
Q 79.890625 40.578125 77.09375 44.375 
Q 74.3125 48.1875 68.609375 48.1875 
Q 61.625 48.1875 57.5625 43.546875 
Q 53.515625 38.921875 53.515625 30.90625 
L 53.515625 0 
L 44.484375 0 
L 44.484375 32.71875 
Q 44.484375 40.625 41.703125 44.40625 
Q 38.921875 48.1875 33.109375 48.1875 
Q 26.21875 48.1875 22.15625 43.53125 
Q 18.109375 38.875 18.109375 30.90625 
L 18.109375 0 
L 9.078125 0 
L 9.078125 54.6875 
L 18.109375 54.6875 
L 18.109375 46.1875 
Q 21.1875 51.21875 25.484375 53.609375 
Q 29.78125 56 35.6875 56 
Q 41.65625 56 45.828125 52.96875 
Q 50 49.953125 52 44.1875 
z
" id="DejaVuSans-6d"/>
    </defs>
    <g transform="translate(155.375625 37.2)scale(0.12 -0.12)">
     <use xlink:href="#DejaVuSans-67"/>
     <use x="63.476562" xlink:href="#DejaVuSans-72"/>
     <use x="104.589844" xlink:href="#DejaVuSans-75"/>
     <use x="167.96875" xlink:href="#DejaVuSans-70"/>
     <use x="231.445312" xlink:href="#DejaVuSans-61"/>
     <use x="292.724609" xlink:href="#DejaVuSans-20"/>
     <use x="324.511719" xlink:href="#DejaVuSans-70"/>
     <use x="387.988281" xlink:href="#DejaVuSans-6d"/>
    </g>
   </g>
  </g>
 </g>
 <defs>
  <clipPath id="p6bbd04156d">
   <rect height="277.2" width="279" x="45" y="43.2"/>
  </clipPath>
 </defs>
</svg>
